<?xml version="1.0" encoding="utf-8" standalone="no"?>
<!DOCTYPE svg PUBLIC "-//W3C//DTD SVG 1.1//EN"
  "http://www.w3.org/Graphics/SVG/1.1/DTD/svg11.dtd">
<svg xmlns:xlink="http://www.w3.org/1999/xlink" width="360pt" height="144pt" viewBox="0 0 360 144" xmlns="http://www.w3.org/2000/svg" version="1.1">
 <metadata>
  <rdf:RDF xmlns:dc="http://purl.org/dc/elements/1.1/" xmlns:cc="http://creativecommons.org/ns#" xmlns:rdf="http://www.w3.org/1999/02/22-rdf-syntax-ns#">
   <cc:Work>
    <dc:type rdf:resource="http://purl.org/dc/dcmitype/StillImage"/>
    <dc:date>2024-05-30T16:36:30.138572</dc:date>
    <dc:format>image/svg+xml</dc:format>
    <dc:creator>
     <cc:Agent>
      <dc:title>Matplotlib v3.7.2, https://matplotlib.org/</dc:title>
     </cc:Agent>
    </dc:creator>
   </cc:Work>
  </rdf:RDF>
 </metadata>
 <defs>
  <style type="text/css">*{stroke-linejoin: round; stroke-linecap: butt}</style>
 </defs>
 <g id="figure_1">
  <g id="patch_1">
   <path d="M 0 144 
L 360 144 
L 360 0 
L 0 0 
z
" style="fill: #ffffff"/>
  </g>
  <g id="axes_1">
   <g id="patch_2">
    <path d="M 50.24 101.32 
L 174.6 101.32 
L 174.6 21.72 
L 50.24 21.72 
z
" style="fill: #ffffff"/>
   </g>
   <g id="line2d_1">
    <path d="M 50.24 71.77372 
L 174.6 71.77372 
" clip-path="url(#pb87b528a91)" style="fill: none; stroke: #d3d3d3; stroke-width: 0.5; stroke-linecap: square"/>
   </g>
   <g id="line2d_2">
    <path d="M 74.809043 101.32 
L 74.809043 21.72 
" clip-path="url(#pb87b528a91)" style="fill: none; stroke: #d3d3d3; stroke-width: 0.5; stroke-linecap: square"/>
   </g>
   <g id="PolyCollection_1">
    <defs>
     <path id="me320d9b995" d="M 55.892727 -82.223734 
L 55.892727 -77.704281 
L 56.631646 -76.409812 
L 57.370564 -74.897161 
L 58.109483 -72.837855 
L 58.848402 -71.128431 
L 59.58732 -69.673592 
L 60.326239 -68.459414 
L 61.065157 -67.895571 
L 61.804076 -67.932206 
L 62.542995 -67.659144 
L 63.281913 -67.919474 
L 64.020832 -67.873956 
L 64.75975 -68.41317 
L 65.498669 -69.023567 
L 66.237588 -69.675369 
L 66.976506 -70.710953 
L 67.715425 -71.938426 
L 68.454343 -72.608602 
L 69.193262 -72.860353 
L 69.932181 -72.93692 
L 70.671099 -72.686825 
L 71.410018 -72.527613 
L 72.148936 -72.50604 
L 72.887855 -72.038134 
L 73.626774 -71.882387 
L 74.365692 -71.647426 
L 75.104611 -71.172435 
L 75.843529 -71.192431 
L 76.582448 -71.489935 
L 77.321367 -71.545924 
L 78.060285 -71.528458 
L 78.799204 -72.370054 
L 79.538122 -72.881397 
L 80.277041 -73.542727 
L 81.01596 -74.367921 
L 81.754878 -74.874829 
L 82.493797 -75.525785 
L 83.232715 -75.8594 
L 83.971634 -76.56464 
L 84.710553 -77.0158 
L 85.449471 -76.980771 
L 86.18839 -77.028612 
L 86.927308 -76.711078 
L 87.666227 -76.306855 
L 88.405146 -77.018232 
L 89.144064 -77.710303 
L 89.882983 -78.679373 
L 90.621901 -79.606778 
L 91.36082 -80.704151 
L 92.099739 -82.357412 
L 92.838657 -84.376962 
L 93.577576 -87.749252 
L 94.316494 -92.156389 
L 95.055413 -96.464738 
L 95.794332 -100.179202 
L 96.53325 -102.6456 
L 97.272169 -104.416688 
L 98.011087 -105.425725 
L 98.750006 -105.475181 
L 99.488925 -104.765829 
L 100.227843 -103.718996 
L 100.966762 -101.707731 
L 101.70568 -99.108705 
L 102.444599 -95.821803 
L 103.183518 -91.60659 
L 103.922436 -86.814702 
L 104.661355 -81.999523 
L 105.400273 -77.487012 
L 106.139192 -73.188984 
L 106.878111 -70.125163 
L 107.617029 -67.410234 
L 108.355948 -65.854027 
L 109.094866 -64.642387 
L 109.833785 -63.927041 
L 110.572704 -64.19624 
L 111.311622 -64.775717 
L 112.050541 -65.602295 
L 112.789459 -66.938228 
L 113.528378 -68.695833 
L 114.267296 -70.519355 
L 115.006215 -72.519495 
L 115.745134 -74.043956 
L 116.484052 -75.575003 
L 117.222971 -76.660694 
L 117.961889 -77.527814 
L 118.700808 -78.276977 
L 119.439727 -78.398809 
L 120.178645 -78.24449 
L 120.917564 -78.083529 
L 121.656482 -77.621557 
L 122.395401 -76.471296 
L 123.13432 -75.273015 
L 123.873238 -74.157581 
L 124.612157 -72.538204 
L 125.351075 -71.192598 
L 126.089994 -69.511968 
L 126.828913 -67.850252 
L 127.567831 -65.998391 
L 128.30675 -64.666903 
L 129.045668 -63.296674 
L 129.784587 -62.326563 
L 130.523506 -61.95601 
L 131.262424 -61.42574 
L 132.001343 -60.873276 
L 132.740261 -60.241595 
L 133.47918 -59.560052 
L 134.218099 -59.072003 
L 134.957017 -58.983422 
L 135.695936 -59.117612 
L 136.434854 -59.296344 
L 137.173773 -59.029077 
L 137.912692 -60.138748 
L 138.65161 -60.593505 
L 139.390529 -61.186382 
L 140.129447 -61.839822 
L 140.868366 -62.378007 
L 141.607285 -63.076743 
L 142.346203 -63.5539 
L 143.085122 -64.364427 
L 143.82404 -65.208764 
L 144.562959 -65.667089 
L 145.301878 -66.211432 
L 146.040796 -66.936762 
L 146.779715 -67.631727 
L 147.518633 -68.009249 
L 148.257552 -68.644252 
L 148.996471 -69.177494 
L 149.735389 -70.15571 
L 150.474308 -70.858408 
L 151.213226 -71.463829 
L 151.952145 -72.203074 
L 152.691064 -72.329368 
L 153.429982 -72.253073 
L 154.168901 -72.504086 
L 154.907819 -72.284906 
L 155.646738 -72.086079 
L 156.385657 -72.068944 
L 157.124575 -71.934006 
L 157.863494 -72.513184 
L 158.602412 -72.70381 
L 159.341331 -72.520242 
L 160.08025 -72.556884 
L 160.819168 -72.408039 
L 161.558087 -72.157556 
L 162.297005 -71.721357 
L 163.035924 -71.17053 
L 163.774843 -70.785981 
L 164.513761 -70.325125 
L 165.25268 -70.033366 
L 165.991598 -69.896292 
L 166.730517 -69.903985 
L 167.469436 -69.818625 
L 168.208354 -69.272674 
L 168.947273 -68.706901 
L 168.947273 -79.110676 
L 168.947273 -79.110676 
L 168.208354 -79.717396 
L 167.469436 -80.324942 
L 166.730517 -80.418029 
L 165.991598 -80.419547 
L 165.25268 -80.534349 
L 164.513761 -80.834251 
L 163.774843 -81.316939 
L 163.035924 -81.571637 
L 162.297005 -82.048442 
L 161.558087 -82.510184 
L 160.819168 -82.746394 
L 160.08025 -82.759532 
L 159.341331 -82.637426 
L 158.602412 -82.687002 
L 157.863494 -82.482461 
L 157.124575 -81.99718 
L 156.385657 -81.99018 
L 155.646738 -81.963792 
L 154.907819 -82.180039 
L 154.168901 -82.626836 
L 153.429982 -82.673138 
L 152.691064 -83.109908 
L 151.952145 -83.428649 
L 151.213226 -83.014269 
L 150.474308 -82.669651 
L 149.735389 -82.067292 
L 148.996471 -81.052852 
L 148.257552 -80.278196 
L 147.518633 -79.282746 
L 146.779715 -78.673347 
L 146.040796 -77.683225 
L 145.301878 -76.840186 
L 144.562959 -76.257721 
L 143.82404 -75.46956 
L 143.085122 -74.471685 
L 142.346203 -73.625419 
L 141.607285 -73.082489 
L 140.868366 -72.30537 
L 140.129447 -71.773355 
L 139.390529 -71.25755 
L 138.65161 -70.925118 
L 137.912692 -70.541457 
L 137.173773 -69.584498 
L 136.434854 -69.710117 
L 135.695936 -69.612593 
L 134.957017 -69.569023 
L 134.218099 -69.766739 
L 133.47918 -70.416441 
L 132.740261 -71.257759 
L 132.001343 -72.266647 
L 131.262424 -73.284274 
L 130.523506 -74.17875 
L 129.784587 -74.783746 
L 129.045668 -75.955697 
L 128.30675 -77.413964 
L 127.567831 -78.53257 
L 126.828913 -79.920673 
L 126.089994 -81.263046 
L 125.351075 -82.491023 
L 124.612157 -83.398386 
L 123.873238 -84.640191 
L 123.13432 -85.421878 
L 122.395401 -86.098559 
L 121.656482 -86.819746 
L 120.917564 -87.233023 
L 120.178645 -87.207383 
L 119.439727 -87.416679 
L 118.700808 -87.380933 
L 117.961889 -86.857423 
L 117.222971 -86.158185 
L 116.484052 -85.27353 
L 115.745134 -84.111342 
L 115.006215 -82.922181 
L 114.267296 -81.377098 
L 113.528378 -79.933707 
L 112.789459 -78.530905 
L 112.050541 -77.604571 
L 111.311622 -76.837459 
L 110.572704 -75.948795 
L 109.833785 -75.328542 
L 109.094866 -75.500123 
L 108.355948 -76.274725 
L 107.617029 -77.367557 
L 106.878111 -79.644803 
L 106.139192 -82.363663 
L 105.400273 -86.306765 
L 104.661355 -90.428148 
L 103.922436 -94.908472 
L 103.183518 -99.379747 
L 102.444599 -103.578242 
L 101.70568 -106.928367 
L 100.966762 -109.636645 
L 100.227843 -111.540006 
L 99.488925 -112.740572 
L 98.750006 -113.733844 
L 98.011087 -114.343831 
L 97.272169 -114.17621 
L 96.53325 -113.288006 
L 95.794332 -111.562712 
L 95.055413 -108.360227 
L 94.316494 -104.217775 
L 93.577576 -99.732708 
L 92.838657 -96.007973 
L 92.099739 -92.967736 
L 91.36082 -90.331493 
L 90.621901 -88.097615 
L 89.882983 -86.085194 
L 89.144064 -84.167307 
L 88.405146 -82.501045 
L 87.666227 -80.844772 
L 86.927308 -80.677444 
L 86.18839 -80.834229 
L 85.449471 -80.972879 
L 84.710553 -81.151043 
L 83.971634 -80.883535 
L 83.232715 -80.462952 
L 82.493797 -80.172935 
L 81.754878 -79.270262 
L 81.01596 -78.372334 
L 80.277041 -77.394607 
L 79.538122 -76.439027 
L 78.799204 -75.91544 
L 78.060285 -75.043928 
L 77.321367 -75.041532 
L 76.582448 -75.06737 
L 75.843529 -74.871422 
L 75.104611 -74.80955 
L 74.365692 -74.978849 
L 73.626774 -74.937667 
L 72.887855 -74.685432 
L 72.148936 -74.680194 
L 71.410018 -74.53498 
L 70.671099 -74.685585 
L 69.932181 -75.019497 
L 69.193262 -75.099269 
L 68.454343 -74.930146 
L 67.715425 -74.353651 
L 66.976506 -73.069675 
L 66.237588 -71.948964 
L 65.498669 -71.285059 
L 64.75975 -70.599475 
L 64.020832 -70.056494 
L 63.281913 -69.99404 
L 62.542995 -69.68703 
L 61.804076 -69.964889 
L 61.065157 -70.129469 
L 60.326239 -70.850364 
L 59.58732 -72.397999 
L 58.848402 -74.024422 
L 58.109483 -76.052772 
L 57.370564 -78.576043 
L 56.631646 -80.629635 
L 55.892727 -82.223734 
z
" style="stroke: #00ffff; stroke-opacity: 0.2"/>
    </defs>
    <g clip-path="url(#pb87b528a91)">
     <use xlink:href="#me320d9b995" x="0" y="144" style="fill: #00ffff; fill-opacity: 0.2; stroke: #00ffff; stroke-opacity: 0.2"/>
    </g>
   </g>
   <g id="PolyCollection_2">
    <defs>
     <path id="m99d50e56c1" d="M 55.892727 -84.775154 
L 55.892727 -80.844465 
L 56.631646 -79.175897 
L 57.370564 -76.731978 
L 58.109483 -74.022488 
L 58.848402 -71.795669 
L 59.58732 -70.207122 
L 60.326239 -68.749856 
L 61.065157 -67.830071 
L 61.804076 -67.420275 
L 62.542995 -67.194101 
L 63.281913 -66.921039 
L 64.020832 -66.672323 
L 64.75975 -66.893083 
L 65.498669 -67.322141 
L 66.237588 -68.228216 
L 66.976506 -69.473875 
L 67.715425 -71.276041 
L 68.454343 -72.356788 
L 69.193262 -73.203634 
L 69.932181 -73.594517 
L 70.671099 -73.412821 
L 71.410018 -73.314307 
L 72.148936 -73.048314 
L 72.887855 -72.653794 
L 73.626774 -72.287118 
L 74.365692 -72.123301 
L 75.104611 -71.778799 
L 75.843529 -71.960978 
L 76.582448 -72.217181 
L 77.321367 -72.234817 
L 78.060285 -73.038259 
L 78.799204 -73.805932 
L 79.538122 -75.016438 
L 80.277041 -75.723073 
L 81.01596 -76.391882 
L 81.754878 -76.605968 
L 82.493797 -76.964005 
L 83.232715 -77.153925 
L 83.971634 -77.032017 
L 84.710553 -76.884253 
L 85.449471 -76.484809 
L 86.18839 -76.573795 
L 86.927308 -76.46066 
L 87.666227 -76.484007 
L 88.405146 -77.289835 
L 89.144064 -78.160829 
L 89.882983 -79.143218 
L 90.621901 -80.311072 
L 91.36082 -81.466856 
L 92.099739 -83.410665 
L 92.838657 -85.815395 
L 93.577576 -89.04443 
L 94.316494 -93.603076 
L 95.055413 -97.990976 
L 95.794332 -101.643121 
L 96.53325 -104.812213 
L 97.272169 -106.703459 
L 98.011087 -107.91927 
L 98.750006 -108.046224 
L 99.488925 -107.403788 
L 100.227843 -106.246549 
L 100.966762 -104.075288 
L 101.70568 -101.832959 
L 102.444599 -98.823509 
L 103.183518 -94.819764 
L 103.922436 -90.36281 
L 104.661355 -85.602258 
L 105.400273 -80.745266 
L 106.139192 -76.403025 
L 106.878111 -72.768615 
L 107.617029 -69.695225 
L 108.355948 -67.487585 
L 109.094866 -65.742679 
L 109.833785 -64.810194 
L 110.572704 -64.587458 
L 111.311622 -65.010684 
L 112.050541 -65.580222 
L 112.789459 -67.087205 
L 113.528378 -68.770417 
L 114.267296 -70.549309 
L 115.006215 -72.262883 
L 115.745134 -74.015874 
L 116.484052 -75.47254 
L 117.222971 -76.45524 
L 117.961889 -77.387163 
L 118.700808 -78.0464 
L 119.439727 -78.566615 
L 120.178645 -78.795635 
L 120.917564 -78.797761 
L 121.656482 -78.299645 
L 122.395401 -77.252777 
L 123.13432 -76.112856 
L 123.873238 -74.888218 
L 124.612157 -73.575416 
L 125.351075 -72.119436 
L 126.089994 -70.876654 
L 126.828913 -69.127061 
L 127.567831 -67.501616 
L 128.30675 -65.884071 
L 129.045668 -64.244226 
L 129.784587 -62.82994 
L 130.523506 -61.832841 
L 131.262424 -60.850004 
L 132.001343 -60.188948 
L 132.740261 -59.761473 
L 133.47918 -59.358101 
L 134.218099 -59.192573 
L 134.957017 -59.124325 
L 135.695936 -58.991567 
L 136.434854 -59.178933 
L 137.173773 -59.680405 
L 137.912692 -59.954171 
L 138.65161 -59.99826 
L 139.390529 -60.243015 
L 140.129447 -60.716756 
L 140.868366 -61.222691 
L 141.607285 -61.459409 
L 142.346203 -61.980486 
L 143.085122 -62.554607 
L 143.82404 -63.748986 
L 144.562959 -65.378155 
L 145.301878 -66.499014 
L 146.040796 -67.432827 
L 146.779715 -68.152867 
L 147.518633 -68.78298 
L 148.257552 -69.527836 
L 148.996471 -70.011644 
L 149.735389 -70.687777 
L 150.474308 -70.780853 
L 151.213226 -71.20536 
L 151.952145 -71.282904 
L 152.691064 -71.504788 
L 153.429982 -71.645818 
L 154.168901 -72.203581 
L 154.907819 -72.660884 
L 155.646738 -72.904385 
L 156.385657 -72.883697 
L 157.124575 -73.340465 
L 157.863494 -73.551191 
L 158.602412 -73.414398 
L 159.341331 -72.732005 
L 160.08025 -72.496951 
L 160.819168 -72.460514 
L 161.558087 -72.401385 
L 162.297005 -72.00346 
L 163.035924 -71.664558 
L 163.774843 -70.754059 
L 164.513761 -70.396745 
L 165.25268 -70.012952 
L 165.991598 -69.454509 
L 166.730517 -69.403626 
L 167.469436 -69.032475 
L 168.208354 -69.033744 
L 168.947273 -68.647247 
L 168.947273 -79.182283 
L 168.947273 -79.182283 
L 168.208354 -79.706783 
L 167.469436 -79.685922 
L 166.730517 -80.03631 
L 165.991598 -80.169052 
L 165.25268 -80.542167 
L 164.513761 -80.736172 
L 163.774843 -80.924468 
L 163.035924 -81.702285 
L 162.297005 -82.227385 
L 161.558087 -82.690053 
L 160.819168 -82.893282 
L 160.08025 -83.080153 
L 159.341331 -83.377338 
L 158.602412 -83.890597 
L 157.863494 -83.850905 
L 157.124575 -83.395106 
L 156.385657 -82.819103 
L 155.646738 -82.792448 
L 154.907819 -82.472958 
L 154.168901 -82.001134 
L 153.429982 -81.582817 
L 152.691064 -81.305085 
L 151.952145 -81.040801 
L 151.213226 -80.83496 
L 150.474308 -80.321783 
L 149.735389 -79.997351 
L 148.996471 -79.356986 
L 148.257552 -78.888763 
L 147.518633 -78.173824 
L 146.779715 -77.685906 
L 146.040796 -77.153165 
L 145.301878 -76.292585 
L 144.562959 -75.270935 
L 143.82404 -73.726953 
L 143.085122 -72.539583 
L 142.346203 -71.888551 
L 141.607285 -71.411632 
L 140.868366 -71.17014 
L 140.129447 -70.65707 
L 139.390529 -70.168371 
L 138.65161 -70.000145 
L 137.912692 -69.893168 
L 137.173773 -69.603286 
L 136.434854 -69.059373 
L 135.695936 -68.964348 
L 134.957017 -69.083527 
L 134.218099 -69.187747 
L 133.47918 -69.438063 
L 132.740261 -70.144333 
L 132.001343 -70.661215 
L 131.262424 -71.611444 
L 130.523506 -72.833527 
L 129.784587 -74.029934 
L 129.045668 -75.632358 
L 128.30675 -77.228859 
L 127.567831 -78.576566 
L 126.828913 -79.843478 
L 126.089994 -81.248087 
L 125.351075 -82.206983 
L 124.612157 -83.286342 
L 123.873238 -84.297251 
L 123.13432 -85.23873 
L 122.395401 -86.13692 
L 121.656482 -87.024059 
L 120.917564 -87.255248 
L 120.178645 -87.01287 
L 119.439727 -86.680639 
L 118.700808 -86.389999 
L 117.961889 -86.258593 
L 117.222971 -85.848499 
L 116.484052 -85.437395 
L 115.745134 -84.350651 
L 115.006215 -82.989738 
L 114.267296 -81.59582 
L 113.528378 -80.00743 
L 112.789459 -78.501287 
L 112.050541 -77.08679 
L 111.311622 -76.543887 
L 110.572704 -76.032284 
L 109.833785 -75.80254 
L 109.094866 -75.968648 
L 108.355948 -77.028687 
L 107.617029 -78.542525 
L 106.878111 -81.081736 
L 106.139192 -84.479668 
L 105.400273 -88.720136 
L 104.661355 -93.531824 
L 103.922436 -98.288055 
L 103.183518 -102.964898 
L 102.444599 -107.179095 
L 101.70568 -110.2068 
L 100.966762 -112.576666 
L 100.227843 -114.749451 
L 99.488925 -115.965419 
L 98.750006 -116.714091 
L 98.011087 -116.65817 
L 97.272169 -115.796557 
L 96.53325 -114.451166 
L 95.794332 -111.903039 
L 95.055413 -109.006428 
L 94.316494 -105.078755 
L 93.577576 -100.741185 
L 92.838657 -97.317072 
L 92.099739 -93.996887 
L 91.36082 -90.736792 
L 90.621901 -88.255527 
L 89.882983 -85.859387 
L 89.144064 -83.780542 
L 88.405146 -82.19508 
L 87.666227 -80.765595 
L 86.927308 -80.448204 
L 86.18839 -80.558594 
L 85.449471 -80.483247 
L 84.710553 -80.769251 
L 83.971634 -80.84768 
L 83.232715 -80.867998 
L 82.493797 -80.533678 
L 81.754878 -80.026705 
L 81.01596 -79.721317 
L 80.277041 -79.089085 
L 79.538122 -78.298261 
L 78.799204 -77.043002 
L 78.060285 -76.184108 
L 77.321367 -75.429004 
L 76.582448 -75.239008 
L 75.843529 -75.04066 
L 75.104611 -74.815348 
L 74.365692 -75.266913 
L 73.626774 -75.429775 
L 72.887855 -75.532778 
L 72.148936 -75.490501 
L 71.410018 -75.336891 
L 70.671099 -75.059254 
L 69.932181 -74.902421 
L 69.193262 -74.443305 
L 68.454343 -73.635489 
L 67.715425 -72.708291 
L 66.976506 -71.192874 
L 66.237588 -70.345786 
L 65.498669 -69.768578 
L 64.75975 -69.49119 
L 64.020832 -69.36933 
L 63.281913 -69.62978 
L 62.542995 -69.877644 
L 61.804076 -69.959824 
L 61.065157 -70.107776 
L 60.326239 -70.761561 
L 59.58732 -72.307436 
L 58.848402 -74.343096 
L 58.109483 -77.141842 
L 57.370564 -80.309067 
L 56.631646 -82.993832 
L 55.892727 -84.775154 
z
" style="stroke: #40bfff; stroke-opacity: 0.2"/>
    </defs>
    <g clip-path="url(#pb87b528a91)">
     <use xlink:href="#m99d50e56c1" x="0" y="144" style="fill: #40bfff; fill-opacity: 0.2; stroke: #40bfff; stroke-opacity: 0.2"/>
    </g>
   </g>
   <g id="PolyCollection_3">
    <defs>
     <path id="mb386f5429c" d="M 55.892727 -82.495201 
L 55.892727 -79.254814 
L 56.631646 -77.86854 
L 57.370564 -75.664298 
L 58.109483 -73.330957 
L 58.848402 -71.134818 
L 59.58732 -69.426333 
L 60.326239 -68.455207 
L 61.065157 -67.884028 
L 61.804076 -67.54736 
L 62.542995 -67.338565 
L 63.281913 -67.468708 
L 64.020832 -67.634689 
L 64.75975 -68.036142 
L 65.498669 -68.458535 
L 66.237588 -69.644302 
L 66.976506 -70.884347 
L 67.715425 -72.281613 
L 68.454343 -73.385162 
L 69.193262 -73.906855 
L 69.932181 -73.564592 
L 70.671099 -73.084463 
L 71.410018 -72.53644 
L 72.148936 -71.551465 
L 72.887855 -71.277364 
L 73.626774 -71.033414 
L 74.365692 -70.503564 
L 75.104611 -70.3684 
L 75.843529 -70.748594 
L 76.582448 -71.194224 
L 77.321367 -71.674978 
L 78.060285 -72.267483 
L 78.799204 -72.794154 
L 79.538122 -73.581696 
L 80.277041 -74.411596 
L 81.01596 -74.960801 
L 81.754878 -75.432831 
L 82.493797 -75.94571 
L 83.232715 -76.504664 
L 83.971634 -77.242052 
L 84.710553 -77.138806 
L 85.449471 -77.219696 
L 86.18839 -76.908318 
L 86.927308 -76.56343 
L 87.666227 -76.748215 
L 88.405146 -76.994655 
L 89.144064 -77.589384 
L 89.882983 -78.208722 
L 90.621901 -78.847984 
L 91.36082 -79.834214 
L 92.099739 -81.126895 
L 92.838657 -83.369429 
L 93.577576 -87.100446 
L 94.316494 -92.100124 
L 95.055413 -97.085593 
L 95.794332 -101.582208 
L 96.53325 -104.969564 
L 97.272169 -107.212448 
L 98.011087 -108.847288 
L 98.750006 -109.308126 
L 99.488925 -109.093681 
L 100.227843 -107.727894 
L 100.966762 -105.43526 
L 101.70568 -102.376986 
L 102.444599 -98.508442 
L 103.183518 -94.089863 
L 103.922436 -89.540331 
L 104.661355 -84.546151 
L 105.400273 -80.14038 
L 106.139192 -75.995187 
L 106.878111 -72.031346 
L 107.617029 -68.802632 
L 108.355948 -66.183904 
L 109.094866 -64.059503 
L 109.833785 -63.220071 
L 110.572704 -62.818209 
L 111.311622 -63.403569 
L 112.050541 -64.516051 
L 112.789459 -65.701779 
L 113.528378 -66.989378 
L 114.267296 -68.951977 
L 115.006215 -70.42386 
L 115.745134 -71.176997 
L 116.484052 -72.220267 
L 117.222971 -73.401045 
L 117.961889 -74.01879 
L 118.700808 -74.526375 
L 119.439727 -75.078526 
L 120.178645 -74.781009 
L 120.917564 -74.324313 
L 121.656482 -73.71023 
L 122.395401 -72.693595 
L 123.13432 -71.573635 
L 123.873238 -70.024292 
L 124.612157 -68.455382 
L 125.351075 -66.663831 
L 126.089994 -65.116644 
L 126.828913 -63.648983 
L 127.567831 -62.61515 
L 128.30675 -61.481618 
L 129.045668 -60.428221 
L 129.784587 -59.225026 
L 130.523506 -58.598098 
L 131.262424 -57.702051 
L 132.001343 -56.792253 
L 132.740261 -55.634208 
L 133.47918 -55.083682 
L 134.218099 -54.380797 
L 134.957017 -54.527115 
L 135.695936 -54.918374 
L 136.434854 -55.120631 
L 137.173773 -55.347256 
L 137.912692 -55.473169 
L 138.65161 -55.345757 
L 139.390529 -55.56692 
L 140.129447 -56.15009 
L 140.868366 -57.286354 
L 141.607285 -58.172834 
L 142.346203 -58.877598 
L 143.085122 -59.981771 
L 143.82404 -60.648534 
L 144.562959 -60.957102 
L 145.301878 -61.178247 
L 146.040796 -61.891351 
L 146.779715 -62.998542 
L 147.518633 -64.178301 
L 148.257552 -65.532125 
L 148.996471 -66.577088 
L 149.735389 -67.200788 
L 150.474308 -68.032845 
L 151.213226 -68.418591 
L 151.952145 -68.372155 
L 152.691064 -67.951591 
L 153.429982 -68.144161 
L 154.168901 -68.484317 
L 154.907819 -68.569458 
L 155.646738 -68.405056 
L 156.385657 -68.753262 
L 157.124575 -69.484691 
L 157.863494 -69.481699 
L 158.602412 -69.453043 
L 159.341331 -69.296012 
L 160.08025 -69.315255 
L 160.819168 -68.773213 
L 161.558087 -68.369623 
L 162.297005 -67.481314 
L 163.035924 -66.609899 
L 163.774843 -65.978561 
L 164.513761 -65.321271 
L 165.25268 -64.875662 
L 165.991598 -64.559376 
L 166.730517 -64.474078 
L 167.469436 -64.555656 
L 168.208354 -64.451602 
L 168.947273 -63.679707 
L 168.947273 -74.268342 
L 168.947273 -74.268342 
L 168.208354 -75.04541 
L 167.469436 -75.282895 
L 166.730517 -75.141254 
L 165.991598 -75.147636 
L 165.25268 -75.3946 
L 164.513761 -75.791165 
L 163.774843 -76.565888 
L 163.035924 -77.054835 
L 162.297005 -77.819937 
L 161.558087 -78.570914 
L 160.819168 -78.837514 
L 160.08025 -79.397975 
L 159.341331 -79.413557 
L 158.602412 -79.52147 
L 157.863494 -79.745426 
L 157.124575 -79.957137 
L 156.385657 -79.478886 
L 155.646738 -79.214221 
L 154.907819 -79.472767 
L 154.168901 -79.304687 
L 153.429982 -79.025409 
L 152.691064 -78.95635 
L 151.952145 -79.44893 
L 151.213226 -79.601236 
L 150.474308 -79.383982 
L 149.735389 -78.673313 
L 148.996471 -78.211956 
L 148.257552 -77.161945 
L 147.518633 -75.852926 
L 146.779715 -74.714887 
L 146.040796 -73.525578 
L 145.301878 -72.762776 
L 144.562959 -72.391283 
L 143.82404 -71.973509 
L 143.085122 -71.302325 
L 142.346203 -70.257234 
L 141.607285 -69.409691 
L 140.868366 -68.367189 
L 140.129447 -67.354098 
L 139.390529 -66.676352 
L 138.65161 -66.360291 
L 137.912692 -66.367039 
L 137.173773 -66.259829 
L 136.434854 -66.205911 
L 135.695936 -66.261197 
L 134.957017 -66.098022 
L 134.218099 -66.197351 
L 133.47918 -66.80823 
L 132.740261 -67.376954 
L 132.001343 -68.638031 
L 131.262424 -69.783638 
L 130.523506 -71.001905 
L 129.784587 -71.748988 
L 129.045668 -72.900124 
L 128.30675 -73.728951 
L 127.567831 -74.367348 
L 126.828913 -74.922268 
L 126.089994 -75.973783 
L 125.351075 -77.359722 
L 124.612157 -78.878263 
L 123.873238 -80.198885 
L 123.13432 -81.439011 
L 122.395401 -82.208367 
L 121.656482 -82.974032 
L 120.917564 -83.439959 
L 120.178645 -83.78357 
L 119.439727 -83.985766 
L 118.700808 -83.683038 
L 117.961889 -83.543346 
L 117.222971 -83.277873 
L 116.484052 -82.381563 
L 115.745134 -81.694871 
L 115.006215 -81.340972 
L 114.267296 -80.294112 
L 113.528378 -78.840081 
L 112.789459 -77.953429 
L 112.050541 -77.037156 
L 111.311622 -75.950354 
L 110.572704 -75.162643 
L 109.833785 -75.055948 
L 109.094866 -75.187727 
L 108.355948 -76.577175 
L 107.617029 -78.46605 
L 106.878111 -81.068658 
L 106.139192 -84.546749 
L 105.400273 -88.384049 
L 104.661355 -92.745319 
L 103.922436 -97.780026 
L 103.183518 -102.601972 
L 102.444599 -107.333612 
L 101.70568 -111.46219 
L 100.966762 -114.727009 
L 100.227843 -117.065505 
L 99.488925 -118.438992 
L 98.750006 -118.661818 
L 98.011087 -118.334887 
L 97.272169 -117.0699 
L 96.53325 -115.344999 
L 95.794332 -112.456019 
L 95.055413 -108.411573 
L 94.316494 -103.786012 
L 93.577576 -98.751424 
L 92.838657 -94.234758 
L 92.099739 -90.914878 
L 91.36082 -88.488977 
L 90.621901 -86.306451 
L 89.882983 -84.472119 
L 89.144064 -82.860858 
L 88.405146 -81.636567 
L 87.666227 -81.198529 
L 86.927308 -80.93902 
L 86.18839 -81.350308 
L 85.449471 -81.714734 
L 84.710553 -81.633944 
L 83.971634 -81.589045 
L 83.232715 -80.762168 
L 82.493797 -80.074434 
L 81.754878 -79.4708 
L 81.01596 -78.688086 
L 80.277041 -77.749236 
L 79.538122 -76.568415 
L 78.799204 -75.513293 
L 78.060285 -74.757394 
L 77.321367 -74.150347 
L 76.582448 -73.888708 
L 75.843529 -73.561751 
L 75.104611 -73.321448 
L 74.365692 -73.560408 
L 73.626774 -73.966071 
L 72.887855 -74.056047 
L 72.148936 -74.224749 
L 71.410018 -75.070562 
L 70.671099 -75.627433 
L 69.932181 -76.165827 
L 69.193262 -76.393926 
L 68.454343 -75.726159 
L 67.715425 -74.548027 
L 66.976506 -73.179135 
L 66.237588 -71.751291 
L 65.498669 -70.575491 
L 64.75975 -70.124003 
L 64.020832 -69.776661 
L 63.281913 -69.850628 
L 62.542995 -69.845684 
L 61.804076 -70.119962 
L 61.065157 -70.529904 
L 60.326239 -71.129474 
L 59.58732 -72.107706 
L 58.848402 -73.815661 
L 58.109483 -75.925471 
L 57.370564 -78.492105 
L 56.631646 -80.849854 
L 55.892727 -82.495201 
z
" style="stroke: #807fff; stroke-opacity: 0.2"/>
    </defs>
    <g clip-path="url(#pb87b528a91)">
     <use xlink:href="#mb386f5429c" x="0" y="144" style="fill: #807fff; fill-opacity: 0.2; stroke: #807fff; stroke-opacity: 0.2"/>
    </g>
   </g>
   <g id="PolyCollection_4">
    <defs>
     <path id="m998bd14f05" d="M 55.892727 -82.190241 
L 55.892727 -79.089038 
L 56.631646 -78.092194 
L 57.370564 -76.39962 
L 58.109483 -74.919235 
L 58.848402 -73.130047 
L 59.58732 -72.043467 
L 60.326239 -71.0836 
L 61.065157 -69.999261 
L 61.804076 -69.341674 
L 62.542995 -68.406818 
L 63.281913 -67.841851 
L 64.020832 -67.550632 
L 64.75975 -67.846845 
L 65.498669 -68.326435 
L 66.237588 -69.390035 
L 66.976506 -70.663809 
L 67.715425 -71.603721 
L 68.454343 -72.315309 
L 69.193262 -72.519195 
L 69.932181 -72.048752 
L 70.671099 -71.672175 
L 71.410018 -71.208183 
L 72.148936 -70.648936 
L 72.887855 -70.333159 
L 73.626774 -70.33484 
L 74.365692 -69.860384 
L 75.104611 -69.72351 
L 75.843529 -69.902485 
L 76.582448 -70.207144 
L 77.321367 -70.294623 
L 78.060285 -70.574232 
L 78.799204 -71.548117 
L 79.538122 -73.063214 
L 80.277041 -74.365727 
L 81.01596 -75.126747 
L 81.754878 -75.817422 
L 82.493797 -76.251871 
L 83.232715 -76.198117 
L 83.971634 -76.617212 
L 84.710553 -76.511452 
L 85.449471 -76.83165 
L 86.18839 -77.453066 
L 86.927308 -77.687986 
L 87.666227 -77.672818 
L 88.405146 -78.080367 
L 89.144064 -77.73911 
L 89.882983 -77.455665 
L 90.621901 -77.354066 
L 91.36082 -77.541986 
L 92.099739 -78.480761 
L 92.838657 -80.582298 
L 93.577576 -84.423215 
L 94.316494 -89.157537 
L 95.055413 -94.341137 
L 95.794332 -99.057787 
L 96.53325 -102.543041 
L 97.272169 -104.879586 
L 98.011087 -106.531979 
L 98.750006 -106.939298 
L 99.488925 -106.684842 
L 100.227843 -105.796471 
L 100.966762 -103.884872 
L 101.70568 -101.181883 
L 102.444599 -97.666548 
L 103.183518 -93.798895 
L 103.922436 -89.269508 
L 104.661355 -84.246772 
L 105.400273 -79.453715 
L 106.139192 -75.192874 
L 106.878111 -71.254231 
L 107.617029 -68.317574 
L 108.355948 -65.767092 
L 109.094866 -64.096195 
L 109.833785 -63.039179 
L 110.572704 -62.312413 
L 111.311622 -62.647666 
L 112.050541 -63.529693 
L 112.789459 -64.467897 
L 113.528378 -65.432753 
L 114.267296 -66.744139 
L 115.006215 -67.479176 
L 115.745134 -68.142215 
L 116.484052 -68.715396 
L 117.222971 -69.348234 
L 117.961889 -69.985511 
L 118.700808 -70.732724 
L 119.439727 -71.226523 
L 120.178645 -70.779587 
L 120.917564 -70.187653 
L 121.656482 -69.151851 
L 122.395401 -67.464745 
L 123.13432 -65.186686 
L 123.873238 -62.72458 
L 124.612157 -60.607878 
L 125.351075 -58.99115 
L 126.089994 -57.951321 
L 126.828913 -56.842206 
L 127.567831 -56.041846 
L 128.30675 -55.261639 
L 129.045668 -54.134278 
L 129.784587 -53.351084 
L 130.523506 -52.65896 
L 131.262424 -51.877266 
L 132.001343 -50.599986 
L 132.740261 -49.949889 
L 133.47918 -49.881067 
L 134.218099 -49.693185 
L 134.957017 -49.321727 
L 135.695936 -49.168121 
L 136.434854 -49.275134 
L 137.173773 -49.236028 
L 137.912692 -49.539951 
L 138.65161 -50.111381 
L 139.390529 -50.8371 
L 140.129447 -51.639817 
L 140.868366 -52.942309 
L 141.607285 -54.107116 
L 142.346203 -55.41692 
L 143.085122 -56.438402 
L 143.82404 -57.681955 
L 144.562959 -58.913871 
L 145.301878 -60.271603 
L 146.040796 -61.778623 
L 146.779715 -63.13623 
L 147.518633 -64.535732 
L 148.257552 -65.259063 
L 148.996471 -65.536344 
L 149.735389 -65.803322 
L 150.474308 -66.031262 
L 151.213226 -66.736594 
L 151.952145 -67.295942 
L 152.691064 -67.79367 
L 153.429982 -68.071291 
L 154.168901 -68.458459 
L 154.907819 -68.63604 
L 155.646738 -68.572477 
L 156.385657 -68.575388 
L 157.124575 -68.62135 
L 157.863494 -68.080701 
L 158.602412 -67.751491 
L 159.341331 -67.276802 
L 160.08025 -66.719989 
L 160.819168 -65.994523 
L 161.558087 -65.437587 
L 162.297005 -65.268374 
L 163.035924 -64.970758 
L 163.774843 -64.297368 
L 164.513761 -63.714231 
L 165.25268 -62.930786 
L 165.991598 -61.863701 
L 166.730517 -60.906606 
L 167.469436 -60.220107 
L 168.208354 -59.912023 
L 168.947273 -60.07256 
L 168.947273 -70.358301 
L 168.947273 -70.358301 
L 168.208354 -70.441916 
L 167.469436 -70.775525 
L 166.730517 -71.511793 
L 165.991598 -72.506004 
L 165.25268 -73.683212 
L 164.513761 -74.57874 
L 163.774843 -75.391963 
L 163.035924 -76.044666 
L 162.297005 -76.289975 
L 161.558087 -76.191395 
L 160.819168 -76.440111 
L 160.08025 -76.949682 
L 159.341331 -77.439192 
L 158.602412 -77.910869 
L 157.863494 -78.335597 
L 157.124575 -79.009694 
L 156.385657 -78.972949 
L 155.646738 -79.004112 
L 154.907819 -79.113397 
L 154.168901 -78.741053 
L 153.429982 -78.264411 
L 152.691064 -78.19806 
L 151.952145 -78.063827 
L 151.213226 -77.706231 
L 150.474308 -77.276052 
L 149.735389 -77.067691 
L 148.996471 -76.756623 
L 148.257552 -76.349598 
L 147.518633 -75.574945 
L 146.779715 -74.289869 
L 146.040796 -72.998995 
L 145.301878 -71.520788 
L 144.562959 -70.099914 
L 143.82404 -69.007949 
L 143.085122 -67.838787 
L 142.346203 -67.172547 
L 141.607285 -66.141635 
L 140.868366 -65.238458 
L 140.129447 -64.079361 
L 139.390529 -63.336303 
L 138.65161 -62.594749 
L 137.912692 -61.907116 
L 137.173773 -61.402698 
L 136.434854 -61.201945 
L 135.695936 -61.044521 
L 134.957017 -61.13558 
L 134.218099 -61.553302 
L 133.47918 -61.782264 
L 132.740261 -62.022023 
L 132.001343 -62.853232 
L 131.262424 -64.096695 
L 130.523506 -64.928788 
L 129.784587 -65.961724 
L 129.045668 -66.913866 
L 128.30675 -68.000059 
L 127.567831 -68.791468 
L 126.828913 -69.294342 
L 126.089994 -70.030005 
L 125.351075 -70.628644 
L 124.612157 -71.899561 
L 123.873238 -73.643634 
L 123.13432 -75.690293 
L 122.395401 -77.55512 
L 121.656482 -78.909667 
L 120.917564 -79.785578 
L 120.178645 -80.540653 
L 119.439727 -80.975745 
L 118.700808 -80.625339 
L 117.961889 -80.181632 
L 117.222971 -79.764105 
L 116.484052 -79.51583 
L 115.745134 -79.441343 
L 115.006215 -79.432377 
L 114.267296 -79.317896 
L 113.528378 -78.43912 
L 112.789459 -77.621001 
L 112.050541 -76.592285 
L 111.311622 -75.492708 
L 110.572704 -74.60472 
L 109.833785 -74.75723 
L 109.094866 -75.040066 
L 108.355948 -75.885597 
L 107.617029 -78.078151 
L 106.878111 -80.512537 
L 106.139192 -84.169839 
L 105.400273 -87.958271 
L 104.661355 -92.363204 
L 103.922436 -97.073329 
L 103.183518 -101.365824 
L 102.444599 -105.31269 
L 101.70568 -109.067525 
L 100.966762 -111.862398 
L 100.227843 -113.681821 
L 99.488925 -114.647975 
L 98.750006 -115.192871 
L 98.011087 -115.107136 
L 97.272169 -114.128092 
L 96.53325 -112.49171 
L 95.794332 -109.692028 
L 95.055413 -105.838389 
L 94.316494 -101.396515 
L 93.577576 -96.844042 
L 92.838657 -92.380446 
L 92.099739 -89.243354 
L 91.36082 -86.968069 
L 90.621901 -85.333431 
L 89.882983 -83.977024 
L 89.144064 -82.957946 
L 88.405146 -82.166067 
L 87.666227 -81.163369 
L 86.927308 -80.986711 
L 86.18839 -80.848114 
L 85.449471 -80.51569 
L 84.710553 -80.308566 
L 83.971634 -80.482279 
L 83.232715 -80.146659 
L 82.493797 -80.100219 
L 81.754878 -79.580104 
L 81.01596 -78.843101 
L 80.277041 -77.977228 
L 79.538122 -76.605592 
L 78.799204 -75.108822 
L 78.060285 -74.34219 
L 77.321367 -74.101706 
L 76.582448 -73.964152 
L 75.843529 -73.634471 
L 75.104611 -73.31871 
L 74.365692 -73.181192 
L 73.626774 -73.171707 
L 72.887855 -72.855233 
L 72.148936 -72.949939 
L 71.410018 -73.395378 
L 70.671099 -73.737485 
L 69.932181 -73.961697 
L 69.193262 -74.439411 
L 68.454343 -74.125823 
L 67.715425 -73.545511 
L 66.976506 -72.844054 
L 66.237588 -71.650466 
L 65.498669 -70.706752 
L 64.75975 -70.061208 
L 64.020832 -69.690305 
L 63.281913 -70.000433 
L 62.542995 -70.573292 
L 61.804076 -71.470984 
L 61.065157 -72.024346 
L 60.326239 -73.213044 
L 59.58732 -74.137483 
L 58.848402 -75.312008 
L 58.109483 -77.105304 
L 57.370564 -78.773267 
L 56.631646 -80.807503 
L 55.892727 -82.190241 
z
" style="stroke: #c03fff; stroke-opacity: 0.2"/>
    </defs>
    <g clip-path="url(#pb87b528a91)">
     <use xlink:href="#m998bd14f05" x="0" y="144" style="fill: #c03fff; fill-opacity: 0.2; stroke: #c03fff; stroke-opacity: 0.2"/>
    </g>
   </g>
   <g id="PolyCollection_5">
    <defs>
     <path id="ma56948491d" d="M 55.892727 -82.487067 
L 55.892727 -79.360006 
L 56.631646 -78.302964 
L 57.370564 -76.875366 
L 58.109483 -74.966195 
L 58.848402 -72.899434 
L 59.58732 -70.711718 
L 60.326239 -69.118321 
L 61.065157 -67.595697 
L 61.804076 -67.251277 
L 62.542995 -67.059494 
L 63.281913 -67.000141 
L 64.020832 -67.578639 
L 64.75975 -68.392937 
L 65.498669 -68.964016 
L 66.237588 -69.748657 
L 66.976506 -70.395504 
L 67.715425 -71.038664 
L 68.454343 -71.244753 
L 69.193262 -71.129145 
L 69.932181 -71.149259 
L 70.671099 -71.499477 
L 71.410018 -71.054163 
L 72.148936 -71.195224 
L 72.887855 -71.453939 
L 73.626774 -71.876407 
L 74.365692 -72.22399 
L 75.104611 -72.660698 
L 75.843529 -73.053046 
L 76.582448 -72.924733 
L 77.321367 -72.68872 
L 78.060285 -72.98563 
L 78.799204 -73.478031 
L 79.538122 -73.972525 
L 80.277041 -74.598384 
L 81.01596 -75.065595 
L 81.754878 -75.886157 
L 82.493797 -76.692455 
L 83.232715 -77.181052 
L 83.971634 -77.367012 
L 84.710553 -78.042631 
L 85.449471 -78.453779 
L 86.18839 -78.580166 
L 86.927308 -78.997855 
L 87.666227 -78.952173 
L 88.405146 -79.378815 
L 89.144064 -79.925587 
L 89.882983 -80.379678 
L 90.621901 -81.261821 
L 91.36082 -82.289784 
L 92.099739 -83.661347 
L 92.838657 -85.594495 
L 93.577576 -88.480894 
L 94.316494 -92.484119 
L 95.055413 -96.791402 
L 95.794332 -100.654516 
L 96.53325 -103.92363 
L 97.272169 -106.674964 
L 98.011087 -108.651252 
L 98.750006 -109.817906 
L 99.488925 -109.907379 
L 100.227843 -108.356561 
L 100.966762 -105.642189 
L 101.70568 -102.339857 
L 102.444599 -98.643373 
L 103.183518 -94.386628 
L 103.922436 -89.772233 
L 104.661355 -84.912036 
L 105.400273 -79.851059 
L 106.139192 -75.669579 
L 106.878111 -71.821583 
L 107.617029 -68.487425 
L 108.355948 -65.84513 
L 109.094866 -63.776362 
L 109.833785 -62.720549 
L 110.572704 -62.31315 
L 111.311622 -62.569899 
L 112.050541 -63.307815 
L 112.789459 -64.512226 
L 113.528378 -65.583797 
L 114.267296 -66.609 
L 115.006215 -67.643862 
L 115.745134 -68.184443 
L 116.484052 -68.104838 
L 117.222971 -68.438678 
L 117.961889 -68.863276 
L 118.700808 -68.79466 
L 119.439727 -69.09877 
L 120.178645 -68.876863 
L 120.917564 -68.524098 
L 121.656482 -67.674755 
L 122.395401 -66.039416 
L 123.13432 -64.264953 
L 123.873238 -62.211737 
L 124.612157 -60.158047 
L 125.351075 -58.595572 
L 126.089994 -57.378252 
L 126.828913 -56.175285 
L 127.567831 -55.004519 
L 128.30675 -53.921481 
L 129.045668 -52.850217 
L 129.784587 -51.933832 
L 130.523506 -50.809904 
L 131.262424 -49.597285 
L 132.001343 -48.784459 
L 132.740261 -47.808297 
L 133.47918 -47.347743 
L 134.218099 -46.661917 
L 134.957017 -46.298182 
L 135.695936 -46.302087 
L 136.434854 -46.572489 
L 137.173773 -47.105088 
L 137.912692 -47.663427 
L 138.65161 -48.268318 
L 139.390529 -49.504054 
L 140.129447 -50.718691 
L 140.868366 -51.891289 
L 141.607285 -53.308527 
L 142.346203 -54.41939 
L 143.085122 -55.740998 
L 143.82404 -56.738895 
L 144.562959 -57.84618 
L 145.301878 -58.889596 
L 146.040796 -60.503228 
L 146.779715 -62.337661 
L 147.518633 -63.53796 
L 148.257552 -65.046668 
L 148.996471 -66.376219 
L 149.735389 -67.306218 
L 150.474308 -67.913969 
L 151.213226 -68.310707 
L 151.952145 -68.600819 
L 152.691064 -68.847475 
L 153.429982 -69.15669 
L 154.168901 -69.155437 
L 154.907819 -69.119796 
L 155.646738 -69.427587 
L 156.385657 -68.942412 
L 157.124575 -68.953112 
L 157.863494 -68.830019 
L 158.602412 -68.555514 
L 159.341331 -68.381724 
L 160.08025 -68.130124 
L 160.819168 -67.771053 
L 161.558087 -67.227894 
L 162.297005 -66.58753 
L 163.035924 -66.05677 
L 163.774843 -65.606233 
L 164.513761 -65.212919 
L 165.25268 -64.962683 
L 165.991598 -64.55692 
L 166.730517 -64.166912 
L 167.469436 -63.802091 
L 168.208354 -63.273801 
L 168.947273 -63.086823 
L 168.947273 -73.035088 
L 168.947273 -73.035088 
L 168.208354 -73.349221 
L 167.469436 -73.996465 
L 166.730517 -74.477752 
L 165.991598 -74.870684 
L 165.25268 -75.371072 
L 164.513761 -75.640767 
L 163.774843 -76.07057 
L 163.035924 -76.486766 
L 162.297005 -76.828038 
L 161.558087 -77.251455 
L 160.819168 -77.830775 
L 160.08025 -78.139607 
L 159.341331 -78.412263 
L 158.602412 -78.641752 
L 157.863494 -78.767944 
L 157.124575 -78.598694 
L 156.385657 -78.436192 
L 155.646738 -78.825289 
L 154.907819 -78.650773 
L 154.168901 -78.91302 
L 153.429982 -79.137781 
L 152.691064 -78.907722 
L 151.952145 -78.95323 
L 151.213226 -78.904121 
L 150.474308 -78.483901 
L 149.735389 -77.956945 
L 148.996471 -77.116261 
L 148.257552 -75.774916 
L 147.518633 -74.360699 
L 146.779715 -73.030195 
L 146.040796 -71.090513 
L 145.301878 -69.555217 
L 144.562959 -68.439304 
L 143.82404 -67.210851 
L 143.085122 -66.204295 
L 142.346203 -64.964883 
L 141.607285 -63.932199 
L 140.868366 -62.538706 
L 140.129447 -61.241116 
L 139.390529 -60.162359 
L 138.65161 -59.015398 
L 137.912692 -58.550555 
L 137.173773 -58.201179 
L 136.434854 -57.86053 
L 135.695936 -57.844399 
L 134.957017 -57.970178 
L 134.218099 -58.510906 
L 133.47918 -59.191344 
L 132.740261 -59.828622 
L 132.001343 -60.861142 
L 131.262424 -61.662112 
L 130.523506 -62.949696 
L 129.784587 -64.106431 
L 129.045668 -64.926965 
L 128.30675 -65.765198 
L 127.567831 -66.545763 
L 126.828913 -67.461693 
L 126.089994 -68.198682 
L 125.351075 -69.070136 
L 124.612157 -70.299969 
L 123.873238 -72.064938 
L 123.13432 -73.852106 
L 122.395401 -75.401353 
L 121.656482 -76.629582 
L 120.917564 -77.218502 
L 120.178645 -77.615911 
L 119.439727 -77.831915 
L 118.700808 -77.76837 
L 117.961889 -78.075056 
L 117.222971 -77.886764 
L 116.484052 -77.834768 
L 115.745134 -78.129068 
L 115.006215 -78.065463 
L 114.267296 -77.483047 
L 113.528378 -76.884184 
L 112.789459 -76.315278 
L 112.050541 -75.239495 
L 111.311622 -74.385321 
L 110.572704 -73.861402 
L 109.833785 -73.781568 
L 109.094866 -74.238928 
L 108.355948 -75.619577 
L 107.617029 -77.771179 
L 106.878111 -80.95762 
L 106.139192 -84.55349 
L 105.400273 -88.616348 
L 104.661355 -93.321514 
L 103.922436 -97.665662 
L 103.183518 -101.838049 
L 102.444599 -105.974798 
L 101.70568 -109.908921 
L 100.966762 -113.493895 
L 100.227843 -116.265497 
L 99.488925 -117.744995 
L 98.750006 -117.849577 
L 98.011087 -117.039224 
L 97.272169 -115.7496 
L 96.53325 -113.835018 
L 95.794332 -111.430472 
L 95.055413 -108.188472 
L 94.316494 -104.482094 
L 93.577576 -100.486515 
L 92.838657 -97.08983 
L 92.099739 -94.007544 
L 91.36082 -91.157677 
L 90.621901 -88.554802 
L 89.882983 -86.289835 
L 89.144064 -84.659722 
L 88.405146 -83.350082 
L 87.666227 -82.402285 
L 86.927308 -82.369337 
L 86.18839 -82.023773 
L 85.449471 -82.038604 
L 84.710553 -81.848796 
L 83.971634 -81.221976 
L 83.232715 -81.038902 
L 82.493797 -80.477534 
L 81.754878 -79.611645 
L 81.01596 -78.697514 
L 80.277041 -77.989543 
L 79.538122 -77.368145 
L 78.799204 -76.937532 
L 78.060285 -76.38543 
L 77.321367 -76.115257 
L 76.582448 -76.341514 
L 75.843529 -76.467575 
L 75.104611 -75.959711 
L 74.365692 -75.412709 
L 73.626774 -74.829309 
L 72.887855 -74.042555 
L 72.148936 -73.668541 
L 71.410018 -73.52898 
L 70.671099 -74.133783 
L 69.932181 -74.0774 
L 69.193262 -74.247687 
L 68.454343 -74.358338 
L 67.715425 -74.019282 
L 66.976506 -73.109282 
L 66.237588 -72.225602 
L 65.498669 -71.117452 
L 64.75975 -70.482838 
L 64.020832 -69.823624 
L 63.281913 -69.358374 
L 62.542995 -69.702275 
L 61.804076 -70.13404 
L 61.065157 -70.798102 
L 60.326239 -72.369509 
L 59.58732 -74.073387 
L 58.848402 -76.083155 
L 58.109483 -77.935023 
L 57.370564 -79.775704 
L 56.631646 -81.281664 
L 55.892727 -82.487067 
z
" style="stroke: #ff00ff; stroke-opacity: 0.2"/>
    </defs>
    <g clip-path="url(#pb87b528a91)">
     <use xlink:href="#ma56948491d" x="0" y="144" style="fill: #ff00ff; fill-opacity: 0.2; stroke: #ff00ff; stroke-opacity: 0.2"/>
    </g>
   </g>
   <g id="matplotlib.axis_1">
    <g id="xtick_1">
     <g id="line2d_3">
      <defs>
       <path id="m9a5ac496d1" d="M 0 0 
L 0 3.5 
" style="stroke: #000000; stroke-width: 0.8"/>
      </defs>
      <g>
       <use xlink:href="#m9a5ac496d1" x="74.809043" y="101.32" style="stroke: #000000; stroke-width: 0.8"/>
      </g>
     </g>
     <g id="text_1">
      <!-- 0.0 -->
      <g transform="translate(66.857481 115.918437) scale(0.1 -0.1)">
       <defs>
        <path id="DejaVuSans-30" d="M 2034 4250 
Q 1547 4250 1301 3770 
Q 1056 3291 1056 2328 
Q 1056 1369 1301 889 
Q 1547 409 2034 409 
Q 2525 409 2770 889 
Q 3016 1369 3016 2328 
Q 3016 3291 2770 3770 
Q 2525 4250 2034 4250 
z
M 2034 4750 
Q 2819 4750 3233 4129 
Q 3647 3509 3647 2328 
Q 3647 1150 3233 529 
Q 2819 -91 2034 -91 
Q 1250 -91 836 529 
Q 422 1150 422 2328 
Q 422 3509 836 4129 
Q 1250 4750 2034 4750 
z
" transform="scale(0.015625)"/>
        <path id="DejaVuSans-2e" d="M 684 794 
L 1344 794 
L 1344 0 
L 684 0 
L 684 794 
z
" transform="scale(0.015625)"/>
       </defs>
       <use xlink:href="#DejaVuSans-30"/>
       <use xlink:href="#DejaVuSans-2e" x="63.623047"/>
       <use xlink:href="#DejaVuSans-30" x="95.410156"/>
      </g>
     </g>
    </g>
    <g id="xtick_2">
     <g id="line2d_4">
      <g>
       <use xlink:href="#m9a5ac496d1" x="112.641676" y="101.32" style="stroke: #000000; stroke-width: 0.8"/>
      </g>
     </g>
     <g id="text_2">
      <!-- 0.2 -->
      <g transform="translate(104.690113 115.918437) scale(0.1 -0.1)">
       <defs>
        <path id="DejaVuSans-32" d="M 1228 531 
L 3431 531 
L 3431 0 
L 469 0 
L 469 531 
Q 828 903 1448 1529 
Q 2069 2156 2228 2338 
Q 2531 2678 2651 2914 
Q 2772 3150 2772 3378 
Q 2772 3750 2511 3984 
Q 2250 4219 1831 4219 
Q 1534 4219 1204 4116 
Q 875 4013 500 3803 
L 500 4441 
Q 881 4594 1212 4672 
Q 1544 4750 1819 4750 
Q 2544 4750 2975 4387 
Q 3406 4025 3406 3419 
Q 3406 3131 3298 2873 
Q 3191 2616 2906 2266 
Q 2828 2175 2409 1742 
Q 1991 1309 1228 531 
z
" transform="scale(0.015625)"/>
       </defs>
       <use xlink:href="#DejaVuSans-30"/>
       <use xlink:href="#DejaVuSans-2e" x="63.623047"/>
       <use xlink:href="#DejaVuSans-32" x="95.410156"/>
      </g>
     </g>
    </g>
    <g id="xtick_3">
     <g id="line2d_5">
      <g>
       <use xlink:href="#m9a5ac496d1" x="150.474308" y="101.32" style="stroke: #000000; stroke-width: 0.8"/>
      </g>
     </g>
     <g id="text_3">
      <!-- 0.4 -->
      <g transform="translate(142.522745 115.918437) scale(0.1 -0.1)">
       <defs>
        <path id="DejaVuSans-34" d="M 2419 4116 
L 825 1625 
L 2419 1625 
L 2419 4116 
z
M 2253 4666 
L 3047 4666 
L 3047 1625 
L 3713 1625 
L 3713 1100 
L 3047 1100 
L 3047 0 
L 2419 0 
L 2419 1100 
L 313 1100 
L 313 1709 
L 2253 4666 
z
" transform="scale(0.015625)"/>
       </defs>
       <use xlink:href="#DejaVuSans-30"/>
       <use xlink:href="#DejaVuSans-2e" x="63.623047"/>
       <use xlink:href="#DejaVuSans-34" x="95.410156"/>
      </g>
     </g>
    </g>
    <g id="text_4">
     <!-- Time (s) -->
     <g transform="translate(88.025312 131.11625) scale(0.12 -0.12)">
      <defs>
       <path id="DejaVuSans-54" d="M -19 4666 
L 3928 4666 
L 3928 4134 
L 2272 4134 
L 2272 0 
L 1638 0 
L 1638 4134 
L -19 4134 
L -19 4666 
z
" transform="scale(0.015625)"/>
       <path id="DejaVuSans-69" d="M 603 3500 
L 1178 3500 
L 1178 0 
L 603 0 
L 603 3500 
z
M 603 4863 
L 1178 4863 
L 1178 4134 
L 603 4134 
L 603 4863 
z
" transform="scale(0.015625)"/>
       <path id="DejaVuSans-6d" d="M 3328 2828 
Q 3544 3216 3844 3400 
Q 4144 3584 4550 3584 
Q 5097 3584 5394 3201 
Q 5691 2819 5691 2113 
L 5691 0 
L 5113 0 
L 5113 2094 
Q 5113 2597 4934 2840 
Q 4756 3084 4391 3084 
Q 3944 3084 3684 2787 
Q 3425 2491 3425 1978 
L 3425 0 
L 2847 0 
L 2847 2094 
Q 2847 2600 2669 2842 
Q 2491 3084 2119 3084 
Q 1678 3084 1418 2786 
Q 1159 2488 1159 1978 
L 1159 0 
L 581 0 
L 581 3500 
L 1159 3500 
L 1159 2956 
Q 1356 3278 1631 3431 
Q 1906 3584 2284 3584 
Q 2666 3584 2933 3390 
Q 3200 3197 3328 2828 
z
" transform="scale(0.015625)"/>
       <path id="DejaVuSans-65" d="M 3597 1894 
L 3597 1613 
L 953 1613 
Q 991 1019 1311 708 
Q 1631 397 2203 397 
Q 2534 397 2845 478 
Q 3156 559 3463 722 
L 3463 178 
Q 3153 47 2828 -22 
Q 2503 -91 2169 -91 
Q 1331 -91 842 396 
Q 353 884 353 1716 
Q 353 2575 817 3079 
Q 1281 3584 2069 3584 
Q 2775 3584 3186 3129 
Q 3597 2675 3597 1894 
z
M 3022 2063 
Q 3016 2534 2758 2815 
Q 2500 3097 2075 3097 
Q 1594 3097 1305 2825 
Q 1016 2553 972 2059 
L 3022 2063 
z
" transform="scale(0.015625)"/>
       <path id="DejaVuSans-20" transform="scale(0.015625)"/>
       <path id="DejaVuSans-28" d="M 1984 4856 
Q 1566 4138 1362 3434 
Q 1159 2731 1159 2009 
Q 1159 1288 1364 580 
Q 1569 -128 1984 -844 
L 1484 -844 
Q 1016 -109 783 600 
Q 550 1309 550 2009 
Q 550 2706 781 3412 
Q 1013 4119 1484 4856 
L 1984 4856 
z
" transform="scale(0.015625)"/>
       <path id="DejaVuSans-73" d="M 2834 3397 
L 2834 2853 
Q 2591 2978 2328 3040 
Q 2066 3103 1784 3103 
Q 1356 3103 1142 2972 
Q 928 2841 928 2578 
Q 928 2378 1081 2264 
Q 1234 2150 1697 2047 
L 1894 2003 
Q 2506 1872 2764 1633 
Q 3022 1394 3022 966 
Q 3022 478 2636 193 
Q 2250 -91 1575 -91 
Q 1294 -91 989 -36 
Q 684 19 347 128 
L 347 722 
Q 666 556 975 473 
Q 1284 391 1588 391 
Q 1994 391 2212 530 
Q 2431 669 2431 922 
Q 2431 1156 2273 1281 
Q 2116 1406 1581 1522 
L 1381 1569 
Q 847 1681 609 1914 
Q 372 2147 372 2553 
Q 372 3047 722 3315 
Q 1072 3584 1716 3584 
Q 2034 3584 2315 3537 
Q 2597 3491 2834 3397 
z
" transform="scale(0.015625)"/>
       <path id="DejaVuSans-29" d="M 513 4856 
L 1013 4856 
Q 1481 4119 1714 3412 
Q 1947 2706 1947 2009 
Q 1947 1309 1714 600 
Q 1481 -109 1013 -844 
L 513 -844 
Q 928 -128 1133 580 
Q 1338 1288 1338 2009 
Q 1338 2731 1133 3434 
Q 928 4138 513 4856 
z
" transform="scale(0.015625)"/>
      </defs>
      <use xlink:href="#DejaVuSans-54"/>
      <use xlink:href="#DejaVuSans-69" x="57.958984"/>
      <use xlink:href="#DejaVuSans-6d" x="85.742188"/>
      <use xlink:href="#DejaVuSans-65" x="183.154297"/>
      <use xlink:href="#DejaVuSans-20" x="244.677734"/>
      <use xlink:href="#DejaVuSans-28" x="276.464844"/>
      <use xlink:href="#DejaVuSans-73" x="315.478516"/>
      <use xlink:href="#DejaVuSans-29" x="367.578125"/>
     </g>
    </g>
   </g>
   <g id="matplotlib.axis_2">
    <g id="ytick_1">
     <g id="line2d_6">
      <defs>
       <path id="mf45e93c37c" d="M 0 0 
L -3.5 0 
" style="stroke: #000000; stroke-width: 0.8"/>
      </defs>
      <g>
       <use xlink:href="#mf45e93c37c" x="50.24" y="71.77372" style="stroke: #000000; stroke-width: 0.8"/>
      </g>
     </g>
     <g id="text_5">
      <!-- 0 -->
      <g transform="translate(36.8775 75.572939) scale(0.1 -0.1)">
       <use xlink:href="#DejaVuSans-30"/>
      </g>
     </g>
    </g>
    <g id="ytick_2">
     <g id="line2d_7">
      <g>
       <use xlink:href="#mf45e93c37c" x="50.24" y="23.214646" style="stroke: #000000; stroke-width: 0.8"/>
      </g>
     </g>
     <g id="text_6">
      <!-- 5 -->
      <g transform="translate(36.8775 27.013864) scale(0.1 -0.1)">
       <defs>
        <path id="DejaVuSans-35" d="M 691 4666 
L 3169 4666 
L 3169 4134 
L 1269 4134 
L 1269 2991 
Q 1406 3038 1543 3061 
Q 1681 3084 1819 3084 
Q 2600 3084 3056 2656 
Q 3513 2228 3513 1497 
Q 3513 744 3044 326 
Q 2575 -91 1722 -91 
Q 1428 -91 1123 -41 
Q 819 9 494 109 
L 494 744 
Q 775 591 1075 516 
Q 1375 441 1709 441 
Q 2250 441 2565 725 
Q 2881 1009 2881 1497 
Q 2881 1984 2565 2268 
Q 2250 2553 1709 2553 
Q 1456 2553 1204 2497 
Q 953 2441 691 2322 
L 691 4666 
z
" transform="scale(0.015625)"/>
       </defs>
       <use xlink:href="#DejaVuSans-35"/>
      </g>
     </g>
    </g>
    <g id="text_7">
     <!-- $\mu$V -->
     <g transform="translate(30.3575 69.5) rotate(-90) scale(0.12 -0.12)">
      <defs>
       <path id="DejaVuSans-Oblique-3bc" d="M -84 -1331 
L 856 3500 
L 1434 3500 
L 1009 1322 
Q 997 1256 987 1175 
Q 978 1094 978 1013 
Q 978 722 1161 565 
Q 1344 409 1684 409 
Q 2147 409 2431 671 
Q 2716 934 2816 1459 
L 3213 3500 
L 3788 3500 
L 3266 809 
Q 3253 750 3248 706 
Q 3244 663 3244 628 
Q 3244 531 3283 486 
Q 3322 441 3406 441 
Q 3438 441 3492 456 
Q 3547 472 3647 513 
L 3559 50 
Q 3422 -19 3297 -55 
Q 3172 -91 3053 -91 
Q 2847 -91 2730 40 
Q 2613 172 2613 403 
Q 2438 153 2195 31 
Q 1953 -91 1625 -91 
Q 1334 -91 1117 43 
Q 900 178 831 397 
L 494 -1331 
L -84 -1331 
z
" transform="scale(0.015625)"/>
       <path id="DejaVuSans-56" d="M 1831 0 
L 50 4666 
L 709 4666 
L 2188 738 
L 3669 4666 
L 4325 4666 
L 2547 0 
L 1831 0 
z
" transform="scale(0.015625)"/>
      </defs>
      <use xlink:href="#DejaVuSans-Oblique-3bc" transform="translate(0 0.09375)"/>
      <use xlink:href="#DejaVuSans-56" transform="translate(63.623047 0.09375)"/>
     </g>
    </g>
    <g id="text_8">
     <!-- 1e3 -->
     <g transform="translate(50.24 18.72) scale(0.1 -0.1)">
      <defs>
       <path id="DejaVuSans-31" d="M 794 531 
L 1825 531 
L 1825 4091 
L 703 3866 
L 703 4441 
L 1819 4666 
L 2450 4666 
L 2450 531 
L 3481 531 
L 3481 0 
L 794 0 
L 794 531 
z
" transform="scale(0.015625)"/>
       <path id="DejaVuSans-2212" d="M 678 2272 
L 4684 2272 
L 4684 1741 
L 678 1741 
L 678 2272 
z
" transform="scale(0.015625)"/>
       <path id="DejaVuSans-33" d="M 2597 2516 
Q 3050 2419 3304 2112 
Q 3559 1806 3559 1356 
Q 3559 666 3084 287 
Q 2609 -91 1734 -91 
Q 1441 -91 1130 -33 
Q 819 25 488 141 
L 488 750 
Q 750 597 1062 519 
Q 1375 441 1716 441 
Q 2309 441 2620 675 
Q 2931 909 2931 1356 
Q 2931 1769 2642 2001 
Q 2353 2234 1838 2234 
L 1294 2234 
L 1294 2753 
L 1863 2753 
Q 2328 2753 2575 2939 
Q 2822 3125 2822 3475 
Q 2822 3834 2567 4026 
Q 2313 4219 1838 4219 
Q 1578 4219 1281 4162 
Q 984 4106 628 3988 
L 628 4550 
Q 988 4650 1302 4700 
Q 1616 4750 1894 4750 
Q 2613 4750 3031 4423 
Q 3450 4097 3450 3541 
Q 3450 3153 3228 2886 
Q 3006 2619 2597 2516 
z
" transform="scale(0.015625)"/>
      </defs>
      <use xlink:href="#DejaVuSans-31"/>
      <use xlink:href="#DejaVuSans-65" x="63.623047"/>
      <use xlink:href="#DejaVuSans-2212" x="125.146484"/>
      <use xlink:href="#DejaVuSans-33" x="208.935547"/>
     </g>
    </g>
   </g>
   <g id="line2d_8">
    <path d="M 55.892727 64.035992 
L 56.631646 65.480277 
L 57.370564 67.263398 
L 58.109483 69.554686 
L 58.848402 71.423573 
L 60.326239 74.345111 
L 61.065157 74.98748 
L 61.804076 75.051452 
L 62.542995 75.326913 
L 63.281913 75.043243 
L 64.020832 75.034775 
L 65.498669 73.845687 
L 66.237588 73.187833 
L 67.715425 70.853961 
L 68.454343 70.230626 
L 69.193262 70.020189 
L 69.932181 70.021792 
L 70.671099 70.313795 
L 71.410018 70.468703 
L 72.148936 70.406883 
L 72.887855 70.638217 
L 73.626774 70.589973 
L 74.365692 70.686863 
L 75.104611 71.009007 
L 75.843529 70.968073 
L 76.582448 70.721348 
L 78.060285 70.713807 
L 78.799204 69.857253 
L 79.538122 69.339788 
L 82.493797 66.15064 
L 83.232715 65.838824 
L 83.971634 65.275913 
L 84.710553 64.916578 
L 87.666227 65.424186 
L 89.144064 63.061195 
L 90.621901 60.147803 
L 91.36082 58.482178 
L 92.099739 56.337426 
L 92.838657 53.807532 
L 93.577576 50.25902 
L 95.055413 41.587517 
L 95.794332 38.129043 
L 96.53325 36.033197 
L 97.272169 34.703551 
L 98.011087 34.115222 
L 98.750006 34.395488 
L 99.488925 35.246799 
L 100.227843 36.370499 
L 100.966762 38.327812 
L 101.70568 40.981464 
L 102.444599 44.299977 
L 103.922436 53.138413 
L 105.400273 62.103111 
L 106.139192 66.223677 
L 107.617029 71.611105 
L 108.355948 72.935624 
L 109.094866 73.928745 
L 109.833785 74.372208 
L 110.572704 73.927483 
L 112.050541 72.396567 
L 112.789459 71.265434 
L 116.484052 63.575733 
L 117.222971 62.59056 
L 118.700808 61.171045 
L 119.439727 61.092256 
L 120.917564 61.341724 
L 121.656482 61.779349 
L 123.873238 64.601114 
L 124.612157 66.031705 
L 125.351075 67.15819 
L 129.045668 74.373815 
L 129.784587 75.444846 
L 130.523506 75.93262 
L 132.001343 77.430039 
L 133.47918 79.011754 
L 134.218099 79.580629 
L 134.957017 79.723777 
L 136.434854 79.49677 
L 137.173773 79.693212 
L 137.912692 78.659898 
L 139.390529 77.778034 
L 142.346203 75.41034 
L 144.562959 73.037595 
L 145.301878 72.474191 
L 146.779715 70.847463 
L 147.518633 70.354003 
L 150.474308 67.235971 
L 151.952145 66.184139 
L 152.691064 66.280362 
L 153.429982 66.536895 
L 154.168901 66.434539 
L 154.907819 66.767527 
L 155.646738 66.975064 
L 157.124575 67.034407 
L 157.863494 66.502177 
L 158.602412 66.304594 
L 159.341331 66.421166 
L 160.08025 66.341792 
L 160.819168 66.422783 
L 161.558087 66.66613 
L 164.513761 68.420312 
L 165.25268 68.716143 
L 165.991598 68.84208 
L 167.469436 68.928217 
L 168.947273 70.091212 
L 168.947273 70.091212 
" clip-path="url(#pb87b528a91)" style="fill: none; stroke: #00ffff; stroke-width: 1.5; stroke-linecap: square"/>
   </g>
   <g id="line2d_9">
    <path d="M 55.892727 61.190191 
L 56.631646 62.915135 
L 58.848402 70.930618 
L 59.58732 72.742721 
L 60.326239 74.244292 
L 61.065157 75.031077 
L 61.804076 75.30995 
L 63.281913 75.724591 
L 64.020832 75.979174 
L 64.75975 75.807864 
L 65.498669 75.45464 
L 66.237588 74.712999 
L 66.976506 73.666626 
L 67.715425 72.007834 
L 69.193262 70.17653 
L 69.932181 69.751531 
L 72.887855 69.906714 
L 75.104611 70.702926 
L 77.321367 70.16809 
L 78.799204 68.575533 
L 79.538122 67.34265 
L 81.01596 65.943401 
L 81.754878 65.683663 
L 82.493797 65.251159 
L 83.232715 64.989038 
L 84.710553 65.173248 
L 85.449471 65.515972 
L 86.18839 65.433805 
L 86.927308 65.545568 
L 87.666227 65.375199 
L 89.144064 63.029314 
L 90.621901 59.7167 
L 91.36082 57.898176 
L 92.838657 52.433767 
L 93.577576 49.107193 
L 95.055413 40.501298 
L 96.53325 34.368311 
L 97.272169 32.749992 
L 98.011087 31.71128 
L 98.750006 31.619842 
L 99.488925 32.315396 
L 100.227843 33.502 
L 101.70568 37.980121 
L 102.444599 40.998698 
L 103.922436 49.674567 
L 106.139192 63.558653 
L 106.878111 67.074825 
L 107.617029 69.881125 
L 108.355948 71.741864 
L 109.094866 73.144336 
L 109.833785 73.693633 
L 110.572704 73.690129 
L 112.050541 72.666494 
L 113.528378 69.611076 
L 115.745134 64.816737 
L 116.484052 63.545033 
L 117.961889 62.177122 
L 120.178645 61.095747 
L 120.917564 60.973495 
L 121.656482 61.338148 
L 123.873238 64.407266 
L 126.089994 67.93763 
L 129.784587 75.570063 
L 131.262424 77.769276 
L 132.001343 78.574918 
L 133.47918 79.601918 
L 134.218099 79.80984 
L 135.695936 80.022042 
L 136.434854 79.880847 
L 137.173773 79.358154 
L 137.912692 79.07633 
L 138.65161 79.000798 
L 139.390529 78.794307 
L 140.868366 77.803585 
L 141.607285 77.564479 
L 143.085122 76.452905 
L 143.82404 75.26203 
L 144.562959 73.675455 
L 146.040796 71.707004 
L 149.735389 68.657436 
L 150.474308 68.448682 
L 151.213226 67.97984 
L 152.691064 67.595063 
L 153.429982 67.385683 
L 154.907819 66.433079 
L 155.646738 66.151583 
L 156.385657 66.1486 
L 157.124575 65.632215 
L 157.863494 65.298952 
L 158.602412 65.347503 
L 159.341331 65.945329 
L 160.08025 66.211448 
L 161.558087 66.454281 
L 163.035924 67.316579 
L 163.774843 68.160737 
L 165.25268 68.72244 
L 165.991598 69.18822 
L 166.730517 69.280032 
L 167.469436 69.640801 
L 168.208354 69.629736 
L 168.947273 70.085235 
L 168.947273 70.085235 
" clip-path="url(#pb87b528a91)" style="fill: none; stroke: #40bfff; stroke-width: 1.5; stroke-linecap: square"/>
   </g>
   <g id="line2d_10">
    <path d="M 55.892727 63.124992 
L 56.631646 64.640803 
L 58.848402 71.52476 
L 59.58732 73.232981 
L 60.326239 74.207659 
L 61.065157 74.793034 
L 61.804076 75.166339 
L 62.542995 75.407875 
L 64.020832 75.294325 
L 65.498669 74.482987 
L 66.976506 71.968259 
L 67.715425 70.58518 
L 68.454343 69.444339 
L 69.193262 68.849609 
L 69.932181 69.134791 
L 71.410018 70.196499 
L 72.148936 71.111893 
L 73.626774 71.500257 
L 74.365692 71.968014 
L 75.104611 72.155076 
L 76.582448 71.458534 
L 77.321367 71.087337 
L 78.799204 69.846276 
L 81.01596 67.175556 
L 83.971634 64.584452 
L 85.449471 64.532785 
L 86.927308 65.248775 
L 87.666227 65.026628 
L 88.405146 64.684389 
L 89.144064 63.774879 
L 90.621901 61.422782 
L 91.36082 59.838405 
L 92.099739 57.979114 
L 92.838657 55.197907 
L 93.577576 51.074065 
L 95.055413 41.251417 
L 95.794332 36.980886 
L 96.53325 33.842719 
L 97.272169 31.858826 
L 98.011087 30.408913 
L 98.750006 30.015028 
L 99.488925 30.233664 
L 100.227843 31.6033 
L 100.966762 33.918866 
L 101.70568 37.080412 
L 103.183518 45.654083 
L 106.139192 63.729032 
L 106.878111 67.449998 
L 107.617029 70.365659 
L 108.355948 72.619461 
L 109.094866 74.376385 
L 109.833785 74.86199 
L 110.572704 75.009574 
L 111.311622 74.323039 
L 113.528378 71.085271 
L 114.267296 69.376956 
L 115.006215 68.117584 
L 115.745134 67.564066 
L 116.484052 66.699085 
L 117.222971 65.660541 
L 118.700808 64.895293 
L 119.439727 64.467854 
L 120.178645 64.71771 
L 120.917564 65.117864 
L 121.656482 65.657869 
L 123.13432 67.493677 
L 124.612157 70.333178 
L 126.089994 73.454787 
L 126.828913 74.714375 
L 128.30675 76.394715 
L 129.045668 77.335828 
L 129.784587 78.512993 
L 130.523506 79.199998 
L 132.740261 82.494419 
L 134.218099 83.710926 
L 134.957017 83.687431 
L 135.695936 83.410214 
L 138.65161 83.146976 
L 139.390529 82.878364 
L 140.129447 82.247906 
L 141.607285 80.208737 
L 142.346203 79.432584 
L 143.085122 78.357952 
L 143.82404 77.688978 
L 145.301878 77.029488 
L 146.040796 76.291535 
L 148.996471 71.605478 
L 149.735389 71.06295 
L 150.474308 70.291586 
L 151.213226 69.990086 
L 151.952145 70.089457 
L 152.691064 70.54603 
L 153.429982 70.415215 
L 154.168901 70.105498 
L 154.907819 69.978888 
L 155.646738 70.190362 
L 156.385657 69.883926 
L 157.124575 69.279086 
L 160.08025 69.643385 
L 160.819168 70.194636 
L 161.558087 70.529731 
L 163.035924 72.167633 
L 163.774843 72.727775 
L 164.513761 73.443782 
L 165.25268 73.864869 
L 165.991598 74.146494 
L 166.730517 74.192334 
L 167.469436 74.080725 
L 168.208354 74.251494 
L 168.947273 75.025975 
L 168.947273 75.025975 
" clip-path="url(#pb87b528a91)" style="fill: none; stroke: #807fff; stroke-width: 1.5; stroke-linecap: square"/>
   </g>
   <g id="line2d_11">
    <path d="M 55.892727 63.36036 
L 56.631646 64.550152 
L 58.109483 67.987731 
L 58.848402 69.778972 
L 61.065157 72.988197 
L 61.804076 73.593671 
L 62.542995 74.509945 
L 63.281913 75.078858 
L 64.020832 75.379531 
L 64.75975 75.045973 
L 65.498669 74.483407 
L 66.237588 73.479749 
L 66.976506 72.246069 
L 67.715425 71.425384 
L 68.454343 70.779434 
L 69.193262 70.520697 
L 69.932181 70.994775 
L 71.410018 71.698219 
L 72.148936 72.200562 
L 72.887855 72.405804 
L 73.626774 72.246727 
L 74.365692 72.479212 
L 75.104611 72.47889 
L 78.060285 71.541789 
L 78.799204 70.67153 
L 80.277041 67.828522 
L 81.754878 66.301237 
L 82.493797 65.823955 
L 83.232715 65.827612 
L 83.971634 65.450255 
L 84.710553 65.589991 
L 85.449471 65.32633 
L 86.18839 64.84941 
L 87.666227 64.581906 
L 88.405146 63.876783 
L 89.144064 63.651472 
L 89.882983 63.283655 
L 90.621901 62.656252 
L 91.36082 61.744973 
L 92.099739 60.137943 
L 92.838657 57.518628 
L 94.316494 48.722974 
L 95.794332 39.625092 
L 96.53325 36.482625 
L 97.272169 34.496161 
L 98.011087 33.180443 
L 98.750006 32.933915 
L 99.488925 33.333592 
L 100.227843 34.260854 
L 100.966762 36.126365 
L 101.70568 38.875296 
L 103.183518 46.417641 
L 106.878111 68.116616 
L 108.355948 73.173655 
L 109.094866 74.431869 
L 109.833785 75.101795 
L 110.572704 75.541434 
L 111.311622 74.929813 
L 114.267296 70.968983 
L 115.745134 70.208221 
L 117.222971 69.443831 
L 119.439727 67.898866 
L 120.178645 68.33988 
L 120.917564 69.013385 
L 121.656482 69.969241 
L 122.395401 71.490068 
L 124.612157 77.74628 
L 125.351075 79.190103 
L 128.30675 82.369151 
L 129.045668 83.475928 
L 131.262424 86.013019 
L 132.001343 87.273391 
L 132.740261 88.014044 
L 134.218099 88.376756 
L 134.957017 88.771347 
L 135.695936 88.893679 
L 137.173773 88.680637 
L 137.912692 88.276467 
L 139.390529 86.913298 
L 140.129447 86.140411 
L 141.607285 83.875624 
L 142.346203 82.705267 
L 143.085122 81.861406 
L 145.301878 78.103805 
L 146.779715 75.28695 
L 147.518633 73.944661 
L 148.257552 73.195669 
L 149.735389 72.564493 
L 150.474308 72.346343 
L 151.952145 71.320115 
L 152.691064 71.004135 
L 153.429982 70.832149 
L 154.168901 70.400244 
L 154.907819 70.125282 
L 156.385657 70.225832 
L 157.124575 70.184478 
L 157.863494 70.791851 
L 159.341331 71.642003 
L 161.558087 73.185509 
L 162.297005 73.220826 
L 163.035924 73.492288 
L 164.513761 74.853514 
L 165.25268 75.693001 
L 166.730517 77.790801 
L 167.469436 78.502184 
L 168.208354 78.82303 
L 168.947273 78.784569 
L 168.947273 78.784569 
" clip-path="url(#pb87b528a91)" style="fill: none; stroke: #c03fff; stroke-width: 1.5; stroke-linecap: square"/>
   </g>
   <g id="line2d_12">
    <path d="M 55.892727 63.076464 
L 56.631646 64.207686 
L 57.370564 65.674465 
L 58.848402 69.508705 
L 59.58732 71.607447 
L 61.065157 74.8031 
L 61.804076 75.307341 
L 63.281913 75.820742 
L 64.020832 75.298868 
L 67.715425 71.471027 
L 68.454343 71.198454 
L 69.932181 71.38667 
L 70.671099 71.18337 
L 71.410018 71.708428 
L 72.148936 71.568118 
L 72.887855 71.251753 
L 74.365692 70.181651 
L 75.843529 69.23969 
L 77.321367 69.598012 
L 78.060285 69.31447 
L 81.01596 67.118445 
L 82.493797 65.415006 
L 83.232715 64.890023 
L 83.971634 64.705506 
L 84.710553 64.054286 
L 85.449471 63.753808 
L 86.18839 63.698031 
L 86.927308 63.316404 
L 87.666227 63.322771 
L 88.405146 62.635552 
L 89.882983 60.665243 
L 91.36082 57.276269 
L 92.099739 55.165554 
L 92.838657 52.657837 
L 93.577576 49.516295 
L 95.794332 37.957506 
L 96.53325 35.120676 
L 97.272169 32.787718 
L 98.011087 31.154762 
L 98.750006 30.166259 
L 99.488925 30.173813 
L 100.227843 31.688971 
L 100.966762 34.431958 
L 102.444599 41.690914 
L 104.661355 54.883225 
L 105.400273 59.766297 
L 106.878111 67.610399 
L 107.617029 70.870698 
L 108.355948 73.267646 
L 109.094866 74.992355 
L 109.833785 75.748942 
L 110.572704 75.912724 
L 111.311622 75.52239 
L 112.050541 74.726345 
L 112.789459 73.586248 
L 115.006215 71.145337 
L 115.745134 70.843245 
L 116.484052 71.030197 
L 117.961889 70.530834 
L 118.700808 70.718485 
L 119.439727 70.534657 
L 120.178645 70.753613 
L 120.917564 71.1287 
L 121.656482 71.847831 
L 123.13432 74.941471 
L 124.612157 78.770992 
L 125.351075 80.167146 
L 128.30675 84.15666 
L 130.523506 87.1202 
L 131.262424 88.370302 
L 132.001343 89.177199 
L 132.740261 90.18154 
L 134.957017 91.86582 
L 135.695936 91.926757 
L 136.434854 91.783491 
L 138.65161 90.358142 
L 140.868366 86.785002 
L 141.607285 85.379637 
L 142.346203 84.307863 
L 143.085122 83.027353 
L 144.562959 80.857258 
L 145.301878 79.777593 
L 146.040796 78.20313 
L 146.779715 76.316072 
L 148.257552 73.589208 
L 148.996471 72.25376 
L 149.735389 71.368418 
L 150.474308 70.801065 
L 151.213226 70.392586 
L 153.429982 69.852764 
L 154.907819 70.114715 
L 155.646738 69.873562 
L 156.385657 70.310698 
L 157.863494 70.201018 
L 160.08025 70.865134 
L 160.819168 71.199086 
L 162.297005 72.292216 
L 164.513761 73.573157 
L 165.25268 73.833123 
L 168.208354 75.688489 
L 168.947273 75.939045 
L 168.947273 75.939045 
" clip-path="url(#pb87b528a91)" style="fill: none; stroke: #ff00ff; stroke-width: 1.5; stroke-linecap: square"/>
   </g>
   <g id="patch_3">
    <path d="M 50.24 101.32 
L 50.24 21.72 
" style="fill: none; stroke: #000000; stroke-width: 0.8; stroke-linejoin: miter; stroke-linecap: square"/>
   </g>
   <g id="patch_4">
    <path d="M 50.24 101.32 
L 174.6 101.32 
" style="fill: none; stroke: #000000; stroke-width: 0.8; stroke-linejoin: miter; stroke-linecap: square"/>
   </g>
  </g>
  <g id="axes_2">
   <g id="patch_5">
    <path d="M 224.84 101.32 
L 349.2 101.32 
L 349.2 21.72 
L 224.84 21.72 
z
" style="fill: #ffffff"/>
   </g>
   <g id="line2d_13">
    <path d="M 233.174746 53.346727 
L 260.11175 55.244942 
L 287.048755 57.143157 
L 313.985759 59.041372 
L 340.922763 60.939587 
" clip-path="url(#p779a4d8f98)" style="fill: none; stroke: #808080; stroke-opacity: 0.5; stroke-width: 1.5; stroke-linecap: square"/>
   </g>
   <g id="line2d_14">
    <path d="M 224.84 51.106059 
L 349.2 51.106059 
" clip-path="url(#p779a4d8f98)" style="fill: none; stroke: #d3d3d3; stroke-width: 0.5; stroke-linecap: square"/>
   </g>
   <g id="line2d_15">
    <path d="M 233.174746 57.62607 
L 233.174746 50.573134 
" clip-path="url(#p779a4d8f98)" style="fill: none; stroke: #808080; stroke-width: 1.5; stroke-linecap: square"/>
   </g>
   <g id="line2d_16">
    <path d="M 260.11175 57.791821 
L 260.11175 51.353714 
" clip-path="url(#p779a4d8f98)" style="fill: none; stroke: #808080; stroke-width: 1.5; stroke-linecap: square"/>
   </g>
   <g id="line2d_17">
    <path d="M 287.048755 59.900884 
L 287.048755 52.649032 
" clip-path="url(#p779a4d8f98)" style="fill: none; stroke: #808080; stroke-width: 1.5; stroke-linecap: square"/>
   </g>
   <g id="line2d_18">
    <path d="M 313.985759 63.467618 
L 313.985759 56.097968 
" clip-path="url(#p779a4d8f98)" style="fill: none; stroke: #808080; stroke-width: 1.5; stroke-linecap: square"/>
   </g>
   <g id="line2d_19">
    <path d="M 340.922763 64.61171 
L 340.922763 57.359618 
" clip-path="url(#p779a4d8f98)" style="fill: none; stroke: #808080; stroke-width: 1.5; stroke-linecap: square"/>
   </g>
   <g id="PathCollection_1">
    <defs>
     <path id="m52cb8cefe1" d="M 0 3.162278 
C 0.838646 3.162278 1.643056 2.82908 2.236068 2.236068 
C 2.82908 1.643056 3.162278 0.838646 3.162278 0 
C 3.162278 -0.838646 2.82908 -1.643056 2.236068 -2.236068 
C 1.643056 -2.82908 0.838646 -3.162278 0 -3.162278 
C -0.838646 -3.162278 -1.643056 -2.82908 -2.236068 -2.236068 
C -2.82908 -1.643056 -3.162278 -0.838646 -3.162278 0 
C -3.162278 0.838646 -2.82908 1.643056 -2.236068 2.236068 
C -1.643056 2.82908 -0.838646 3.162278 0 3.162278 
z
" style="stroke: #ffffff"/>
    </defs>
    <g clip-path="url(#p779a4d8f98)">
     <use xlink:href="#m52cb8cefe1" x="233.174746" y="54.099602" style="fill: #00ffff; stroke: #ffffff"/>
    </g>
   </g>
   <g id="PathCollection_2">
    <defs>
     <path id="mf66df0b141" d="M 0 3.162278 
C 0.838646 3.162278 1.643056 2.82908 2.236068 2.236068 
C 2.82908 1.643056 3.162278 0.838646 3.162278 0 
C 3.162278 -0.838646 2.82908 -1.643056 2.236068 -2.236068 
C 1.643056 -2.82908 0.838646 -3.162278 0 -3.162278 
C -0.838646 -3.162278 -1.643056 -2.82908 -2.236068 -2.236068 
C -2.82908 -1.643056 -3.162278 -0.838646 -3.162278 0 
C -3.162278 0.838646 -2.82908 1.643056 -2.236068 2.236068 
C -1.643056 2.82908 -0.838646 3.162278 0 3.162278 
z
" style="stroke: #ffffff"/>
    </defs>
    <g clip-path="url(#p779a4d8f98)">
     <use xlink:href="#mf66df0b141" x="260.11175" y="54.572768" style="fill: #40bfff; stroke: #ffffff"/>
    </g>
   </g>
   <g id="PathCollection_3">
    <defs>
     <path id="mecdbf6e1c0" d="M 0 3.162278 
C 0.838646 3.162278 1.643056 2.82908 2.236068 2.236068 
C 2.82908 1.643056 3.162278 0.838646 3.162278 0 
C 3.162278 -0.838646 2.82908 -1.643056 2.236068 -2.236068 
C 1.643056 -2.82908 0.838646 -3.162278 0 -3.162278 
C -0.838646 -3.162278 -1.643056 -2.82908 -2.236068 -2.236068 
C -2.82908 -1.643056 -3.162278 -0.838646 -3.162278 0 
C -3.162278 0.838646 -2.82908 1.643056 -2.236068 2.236068 
C -1.643056 2.82908 -0.838646 3.162278 0 3.162278 
z
" style="stroke: #ffffff"/>
    </defs>
    <g clip-path="url(#p779a4d8f98)">
     <use xlink:href="#mecdbf6e1c0" x="287.048755" y="56.274958" style="fill: #807fff; stroke: #ffffff"/>
    </g>
   </g>
   <g id="PathCollection_4">
    <defs>
     <path id="m37b6bb13ee" d="M 0 3.162278 
C 0.838646 3.162278 1.643056 2.82908 2.236068 2.236068 
C 2.82908 1.643056 3.162278 0.838646 3.162278 0 
C 3.162278 -0.838646 2.82908 -1.643056 2.236068 -2.236068 
C 1.643056 -2.82908 0.838646 -3.162278 0 -3.162278 
C -0.838646 -3.162278 -1.643056 -2.82908 -2.236068 -2.236068 
C -2.82908 -1.643056 -3.162278 -0.838646 -3.162278 0 
C -3.162278 0.838646 -2.82908 1.643056 -2.236068 2.236068 
C -1.643056 2.82908 -0.838646 3.162278 0 3.162278 
z
" style="stroke: #ffffff"/>
    </defs>
    <g clip-path="url(#p779a4d8f98)">
     <use xlink:href="#m37b6bb13ee" x="313.985759" y="59.782793" style="fill: #c03fff; stroke: #ffffff"/>
    </g>
   </g>
   <g id="PathCollection_5">
    <defs>
     <path id="ma51781abed" d="M 0 3.162278 
C 0.838646 3.162278 1.643056 2.82908 2.236068 2.236068 
C 2.82908 1.643056 3.162278 0.838646 3.162278 0 
C 3.162278 -0.838646 2.82908 -1.643056 2.236068 -2.236068 
C 1.643056 -2.82908 0.838646 -3.162278 0 -3.162278 
C -0.838646 -3.162278 -1.643056 -2.82908 -2.236068 -2.236068 
C -2.82908 -1.643056 -3.162278 -0.838646 -3.162278 0 
C -3.162278 0.838646 -2.82908 1.643056 -2.236068 2.236068 
C -1.643056 2.82908 -0.838646 3.162278 0 3.162278 
z
" style="stroke: #ffffff"/>
    </defs>
    <g clip-path="url(#p779a4d8f98)">
     <use xlink:href="#ma51781abed" x="340.922763" y="60.985664" style="fill: #ff00ff; stroke: #ffffff"/>
    </g>
   </g>
   <g id="matplotlib.axis_3">
    <g id="xtick_4">
     <g id="line2d_20">
      <g>
       <use xlink:href="#m9a5ac496d1" x="233.174746" y="101.32" style="stroke: #000000; stroke-width: 0.8"/>
      </g>
     </g>
     <g id="text_9">
      <!--   -->
      <g transform="translate(231.585683 115.918437) scale(0.1 -0.1)">
       <use xlink:href="#DejaVuSans-20"/>
      </g>
     </g>
    </g>
    <g id="xtick_5">
     <g id="line2d_21">
      <g>
       <use xlink:href="#m9a5ac496d1" x="260.11175" y="101.32" style="stroke: #000000; stroke-width: 0.8"/>
      </g>
     </g>
     <g id="text_10">
      <!--   -->
      <g transform="translate(258.522688 115.918437) scale(0.1 -0.1)">
       <use xlink:href="#DejaVuSans-20"/>
      </g>
     </g>
    </g>
    <g id="xtick_6">
     <g id="line2d_22">
      <g>
       <use xlink:href="#m9a5ac496d1" x="287.048755" y="101.32" style="stroke: #000000; stroke-width: 0.8"/>
      </g>
     </g>
     <g id="text_11">
      <!--   -->
      <g transform="translate(285.459692 115.918437) scale(0.1 -0.1)">
       <use xlink:href="#DejaVuSans-20"/>
      </g>
     </g>
    </g>
    <g id="xtick_7">
     <g id="line2d_23">
      <g>
       <use xlink:href="#m9a5ac496d1" x="313.985759" y="101.32" style="stroke: #000000; stroke-width: 0.8"/>
      </g>
     </g>
     <g id="text_12">
      <!--   -->
      <g transform="translate(312.396696 115.918437) scale(0.1 -0.1)">
       <use xlink:href="#DejaVuSans-20"/>
      </g>
     </g>
    </g>
    <g id="xtick_8">
     <g id="line2d_24">
      <g>
       <use xlink:href="#m9a5ac496d1" x="340.922763" y="101.32" style="stroke: #000000; stroke-width: 0.8"/>
      </g>
     </g>
     <g id="text_13">
      <!--   -->
      <g transform="translate(339.333701 115.918437) scale(0.1 -0.1)">
       <use xlink:href="#DejaVuSans-20"/>
      </g>
     </g>
    </g>
    <g id="text_14">
     <!-- Contrast -->
     <g transform="translate(261.383125 131.11625) scale(0.12 -0.12)">
      <defs>
       <path id="DejaVuSans-43" d="M 4122 4306 
L 4122 3641 
Q 3803 3938 3442 4084 
Q 3081 4231 2675 4231 
Q 1875 4231 1450 3742 
Q 1025 3253 1025 2328 
Q 1025 1406 1450 917 
Q 1875 428 2675 428 
Q 3081 428 3442 575 
Q 3803 722 4122 1019 
L 4122 359 
Q 3791 134 3420 21 
Q 3050 -91 2638 -91 
Q 1578 -91 968 557 
Q 359 1206 359 2328 
Q 359 3453 968 4101 
Q 1578 4750 2638 4750 
Q 3056 4750 3426 4639 
Q 3797 4528 4122 4306 
z
" transform="scale(0.015625)"/>
       <path id="DejaVuSans-6f" d="M 1959 3097 
Q 1497 3097 1228 2736 
Q 959 2375 959 1747 
Q 959 1119 1226 758 
Q 1494 397 1959 397 
Q 2419 397 2687 759 
Q 2956 1122 2956 1747 
Q 2956 2369 2687 2733 
Q 2419 3097 1959 3097 
z
M 1959 3584 
Q 2709 3584 3137 3096 
Q 3566 2609 3566 1747 
Q 3566 888 3137 398 
Q 2709 -91 1959 -91 
Q 1206 -91 779 398 
Q 353 888 353 1747 
Q 353 2609 779 3096 
Q 1206 3584 1959 3584 
z
" transform="scale(0.015625)"/>
       <path id="DejaVuSans-6e" d="M 3513 2113 
L 3513 0 
L 2938 0 
L 2938 2094 
Q 2938 2591 2744 2837 
Q 2550 3084 2163 3084 
Q 1697 3084 1428 2787 
Q 1159 2491 1159 1978 
L 1159 0 
L 581 0 
L 581 3500 
L 1159 3500 
L 1159 2956 
Q 1366 3272 1645 3428 
Q 1925 3584 2291 3584 
Q 2894 3584 3203 3211 
Q 3513 2838 3513 2113 
z
" transform="scale(0.015625)"/>
       <path id="DejaVuSans-74" d="M 1172 4494 
L 1172 3500 
L 2356 3500 
L 2356 3053 
L 1172 3053 
L 1172 1153 
Q 1172 725 1289 603 
Q 1406 481 1766 481 
L 2356 481 
L 2356 0 
L 1766 0 
Q 1100 0 847 248 
Q 594 497 594 1153 
L 594 3053 
L 172 3053 
L 172 3500 
L 594 3500 
L 594 4494 
L 1172 4494 
z
" transform="scale(0.015625)"/>
       <path id="DejaVuSans-72" d="M 2631 2963 
Q 2534 3019 2420 3045 
Q 2306 3072 2169 3072 
Q 1681 3072 1420 2755 
Q 1159 2438 1159 1844 
L 1159 0 
L 581 0 
L 581 3500 
L 1159 3500 
L 1159 2956 
Q 1341 3275 1631 3429 
Q 1922 3584 2338 3584 
Q 2397 3584 2469 3576 
Q 2541 3569 2628 3553 
L 2631 2963 
z
" transform="scale(0.015625)"/>
       <path id="DejaVuSans-61" d="M 2194 1759 
Q 1497 1759 1228 1600 
Q 959 1441 959 1056 
Q 959 750 1161 570 
Q 1363 391 1709 391 
Q 2188 391 2477 730 
Q 2766 1069 2766 1631 
L 2766 1759 
L 2194 1759 
z
M 3341 1997 
L 3341 0 
L 2766 0 
L 2766 531 
Q 2569 213 2275 61 
Q 1981 -91 1556 -91 
Q 1019 -91 701 211 
Q 384 513 384 1019 
Q 384 1609 779 1909 
Q 1175 2209 1959 2209 
L 2766 2209 
L 2766 2266 
Q 2766 2663 2505 2880 
Q 2244 3097 1772 3097 
Q 1472 3097 1187 3025 
Q 903 2953 641 2809 
L 641 3341 
Q 956 3463 1253 3523 
Q 1550 3584 1831 3584 
Q 2591 3584 2966 3190 
Q 3341 2797 3341 1997 
z
" transform="scale(0.015625)"/>
      </defs>
      <use xlink:href="#DejaVuSans-43"/>
      <use xlink:href="#DejaVuSans-6f" x="69.824219"/>
      <use xlink:href="#DejaVuSans-6e" x="131.005859"/>
      <use xlink:href="#DejaVuSans-74" x="194.384766"/>
      <use xlink:href="#DejaVuSans-72" x="233.59375"/>
      <use xlink:href="#DejaVuSans-61" x="274.707031"/>
      <use xlink:href="#DejaVuSans-73" x="335.986328"/>
      <use xlink:href="#DejaVuSans-74" x="388.085938"/>
     </g>
    </g>
   </g>
   <g id="matplotlib.axis_4">
    <g id="ytick_3">
     <g id="line2d_25">
      <g>
       <use xlink:href="#mf45e93c37c" x="224.84" y="80.372864" style="stroke: #000000; stroke-width: 0.8"/>
      </g>
     </g>
     <g id="text_15">
      <!-- 5 -->
      <g transform="translate(203.097813 84.172082) scale(0.1 -0.1)">
       <use xlink:href="#DejaVuSans-2212"/>
       <use xlink:href="#DejaVuSans-35" x="83.789062"/>
      </g>
     </g>
    </g>
    <g id="ytick_4">
     <g id="line2d_26">
      <g>
       <use xlink:href="#mf45e93c37c" x="224.84" y="51.106059" style="stroke: #000000; stroke-width: 0.8"/>
      </g>
     </g>
     <g id="text_16">
      <!-- 0 -->
      <g transform="translate(211.4775 54.905278) scale(0.1 -0.1)">
       <use xlink:href="#DejaVuSans-30"/>
      </g>
     </g>
    </g>
    <g id="ytick_5">
     <g id="line2d_27">
      <g>
       <use xlink:href="#mf45e93c37c" x="224.84" y="21.839255" style="stroke: #000000; stroke-width: 0.8"/>
      </g>
     </g>
     <g id="text_17">
      <!-- 5 -->
      <g transform="translate(211.4775 25.638474) scale(0.1 -0.1)">
       <use xlink:href="#DejaVuSans-35"/>
      </g>
     </g>
    </g>
    <g id="text_18">
     <!-- Mean amplitude ($\mu$V) -->
     <g transform="translate(196.577812 124.64) rotate(-90) scale(0.12 -0.12)">
      <defs>
       <path id="DejaVuSans-4d" d="M 628 4666 
L 1569 4666 
L 2759 1491 
L 3956 4666 
L 4897 4666 
L 4897 0 
L 4281 0 
L 4281 4097 
L 3078 897 
L 2444 897 
L 1241 4097 
L 1241 0 
L 628 0 
L 628 4666 
z
" transform="scale(0.015625)"/>
       <path id="DejaVuSans-70" d="M 1159 525 
L 1159 -1331 
L 581 -1331 
L 581 3500 
L 1159 3500 
L 1159 2969 
Q 1341 3281 1617 3432 
Q 1894 3584 2278 3584 
Q 2916 3584 3314 3078 
Q 3713 2572 3713 1747 
Q 3713 922 3314 415 
Q 2916 -91 2278 -91 
Q 1894 -91 1617 61 
Q 1341 213 1159 525 
z
M 3116 1747 
Q 3116 2381 2855 2742 
Q 2594 3103 2138 3103 
Q 1681 3103 1420 2742 
Q 1159 2381 1159 1747 
Q 1159 1113 1420 752 
Q 1681 391 2138 391 
Q 2594 391 2855 752 
Q 3116 1113 3116 1747 
z
" transform="scale(0.015625)"/>
       <path id="DejaVuSans-6c" d="M 603 4863 
L 1178 4863 
L 1178 0 
L 603 0 
L 603 4863 
z
" transform="scale(0.015625)"/>
       <path id="DejaVuSans-75" d="M 544 1381 
L 544 3500 
L 1119 3500 
L 1119 1403 
Q 1119 906 1312 657 
Q 1506 409 1894 409 
Q 2359 409 2629 706 
Q 2900 1003 2900 1516 
L 2900 3500 
L 3475 3500 
L 3475 0 
L 2900 0 
L 2900 538 
Q 2691 219 2414 64 
Q 2138 -91 1772 -91 
Q 1169 -91 856 284 
Q 544 659 544 1381 
z
M 1991 3584 
L 1991 3584 
z
" transform="scale(0.015625)"/>
       <path id="DejaVuSans-64" d="M 2906 2969 
L 2906 4863 
L 3481 4863 
L 3481 0 
L 2906 0 
L 2906 525 
Q 2725 213 2448 61 
Q 2172 -91 1784 -91 
Q 1150 -91 751 415 
Q 353 922 353 1747 
Q 353 2572 751 3078 
Q 1150 3584 1784 3584 
Q 2172 3584 2448 3432 
Q 2725 3281 2906 2969 
z
M 947 1747 
Q 947 1113 1208 752 
Q 1469 391 1925 391 
Q 2381 391 2643 752 
Q 2906 1113 2906 1747 
Q 2906 2381 2643 2742 
Q 2381 3103 1925 3103 
Q 1469 3103 1208 2742 
Q 947 2381 947 1747 
z
" transform="scale(0.015625)"/>
      </defs>
      <use xlink:href="#DejaVuSans-4d" transform="translate(0 0.015625)"/>
      <use xlink:href="#DejaVuSans-65" transform="translate(86.279297 0.015625)"/>
      <use xlink:href="#DejaVuSans-61" transform="translate(147.802734 0.015625)"/>
      <use xlink:href="#DejaVuSans-6e" transform="translate(209.082031 0.015625)"/>
      <use xlink:href="#DejaVuSans-20" transform="translate(272.460938 0.015625)"/>
      <use xlink:href="#DejaVuSans-61" transform="translate(304.248047 0.015625)"/>
      <use xlink:href="#DejaVuSans-6d" transform="translate(365.527344 0.015625)"/>
      <use xlink:href="#DejaVuSans-70" transform="translate(462.939453 0.015625)"/>
      <use xlink:href="#DejaVuSans-6c" transform="translate(526.416016 0.015625)"/>
      <use xlink:href="#DejaVuSans-69" transform="translate(554.199219 0.015625)"/>
      <use xlink:href="#DejaVuSans-74" transform="translate(581.982422 0.015625)"/>
      <use xlink:href="#DejaVuSans-75" transform="translate(621.191406 0.015625)"/>
      <use xlink:href="#DejaVuSans-64" transform="translate(684.570312 0.015625)"/>
      <use xlink:href="#DejaVuSans-65" transform="translate(748.046875 0.015625)"/>
      <use xlink:href="#DejaVuSans-20" transform="translate(809.570312 0.015625)"/>
      <use xlink:href="#DejaVuSans-28" transform="translate(841.357422 0.015625)"/>
      <use xlink:href="#DejaVuSans-Oblique-3bc" transform="translate(880.371094 0.015625)"/>
      <use xlink:href="#DejaVuSans-56" transform="translate(943.994141 0.015625)"/>
      <use xlink:href="#DejaVuSans-29" transform="translate(1012.402344 0.015625)"/>
     </g>
    </g>
    <g id="text_19">
     <!-- 1e3 -->
     <g transform="translate(224.84 18.72) scale(0.1 -0.1)">
      <use xlink:href="#DejaVuSans-31"/>
      <use xlink:href="#DejaVuSans-65" x="63.623047"/>
      <use xlink:href="#DejaVuSans-2212" x="125.146484"/>
      <use xlink:href="#DejaVuSans-33" x="208.935547"/>
     </g>
    </g>
   </g>
   <g id="patch_6">
    <path d="M 224.84 101.32 
L 224.84 21.72 
" style="fill: none; stroke: #000000; stroke-width: 0.8; stroke-linejoin: miter; stroke-linecap: square"/>
   </g>
   <g id="patch_7">
    <path d="M 224.84 101.32 
L 349.2 101.32 
" style="fill: none; stroke: #000000; stroke-width: 0.8; stroke-linejoin: miter; stroke-linecap: square"/>
   </g>
   <g id="PathCollection_6">
    <defs>
     <path id="mada0be1232" d="M 0 2 
C 0.530406 2 1.03916 1.789267 1.414214 1.414214 
C 1.789267 1.03916 2 0.530406 2 0 
C 2 -0.530406 1.789267 -1.03916 1.414214 -1.414214 
C 1.03916 -1.789267 0.530406 -2 0 -2 
C -0.530406 -2 -1.03916 -1.789267 -1.414214 -1.414214 
C -1.789267 -1.03916 -2 -0.530406 -2 0 
C -2 0.530406 -1.789267 1.03916 -1.414214 1.414214 
C -1.03916 1.789267 -0.530406 2 0 2 
z
"/>
    </defs>
    <g clip-path="url(#p779a4d8f98)">
     <use xlink:href="#mada0be1232" x="232.514512" y="48.768999" style="fill: #00ffff; fill-opacity: 0.3"/>
     <use xlink:href="#mada0be1232" x="230.492727" y="61.255971" style="fill: #00ffff; fill-opacity: 0.3"/>
     <use xlink:href="#mada0be1232" x="231.072235" y="34.616429" style="fill: #00ffff; fill-opacity: 0.3"/>
     <use xlink:href="#mada0be1232" x="232.506003" y="65.872483" style="fill: #00ffff; fill-opacity: 0.3"/>
     <use xlink:href="#mada0be1232" x="235.379606" y="40.014291" style="fill: #00ffff; fill-opacity: 0.3"/>
     <use xlink:href="#mada0be1232" x="234.338207" y="39.657065" style="fill: #00ffff; fill-opacity: 0.3"/>
     <use xlink:href="#mada0be1232" x="234.199718" y="73.005544" style="fill: #00ffff; fill-opacity: 0.3"/>
     <use xlink:href="#mada0be1232" x="231.637585" y="41.869448" style="fill: #00ffff; fill-opacity: 0.3"/>
     <use xlink:href="#mada0be1232" x="234.692038" y="54.270679" style="fill: #00ffff; fill-opacity: 0.3"/>
     <use xlink:href="#mada0be1232" x="232.955922" y="69.419121" style="fill: #00ffff; fill-opacity: 0.3"/>
     <use xlink:href="#mada0be1232" x="232.311154" y="37.036554" style="fill: #00ffff; fill-opacity: 0.3"/>
     <use xlink:href="#mada0be1232" x="233.814501" y="95.744108" style="fill: #00ffff; fill-opacity: 0.3"/>
     <use xlink:href="#mada0be1232" x="231.916134" y="55.413093" style="fill: #00ffff; fill-opacity: 0.3"/>
     <use xlink:href="#mada0be1232" x="235.616697" y="31.451708" style="fill: #00ffff; fill-opacity: 0.3"/>
     <use xlink:href="#mada0be1232" x="234.518728" y="49.723906" style="fill: #00ffff; fill-opacity: 0.3"/>
     <use xlink:href="#mada0be1232" x="231.542709" y="67.71061" style="fill: #00ffff; fill-opacity: 0.3"/>
     <use xlink:href="#mada0be1232" x="235.282128" y="69.018293" style="fill: #00ffff; fill-opacity: 0.3"/>
     <use xlink:href="#mada0be1232" x="233.941309" y="36.266785" style="fill: #00ffff; fill-opacity: 0.3"/>
     <use xlink:href="#mada0be1232" x="232.081027" y="68.115194" style="fill: #00ffff; fill-opacity: 0.3"/>
     <use xlink:href="#mada0be1232" x="234.847996" y="38.633414" style="fill: #00ffff; fill-opacity: 0.3"/>
     <use xlink:href="#mada0be1232" x="230.912292" y="58.227948" style="fill: #00ffff; fill-opacity: 0.3"/>
    </g>
   </g>
   <g id="PathCollection_7">
    <defs>
     <path id="mc00cb223ef" d="M 0 2 
C 0.530406 2 1.03916 1.789267 1.414214 1.414214 
C 1.789267 1.03916 2 0.530406 2 0 
C 2 -0.530406 1.789267 -1.03916 1.414214 -1.414214 
C 1.03916 -1.789267 0.530406 -2 0 -2 
C -0.530406 -2 -1.03916 -1.789267 -1.414214 -1.414214 
C -1.789267 -1.03916 -2 -0.530406 -2 0 
C -2 0.530406 -1.789267 1.03916 -1.414214 1.414214 
C -1.03916 1.789267 -0.530406 2 0 2 
z
"/>
    </defs>
    <g clip-path="url(#p779a4d8f98)">
     <use xlink:href="#mc00cb223ef" x="260.817848" y="49.138223" style="fill: #40bfff; fill-opacity: 0.3"/>
     <use xlink:href="#mc00cb223ef" x="261.911226" y="68.256809" style="fill: #40bfff; fill-opacity: 0.3"/>
     <use xlink:href="#mc00cb223ef" x="258.423164" y="32.265805" style="fill: #40bfff; fill-opacity: 0.3"/>
     <use xlink:href="#mc00cb223ef" x="259.121985" y="59.22401" style="fill: #40bfff; fill-opacity: 0.3"/>
     <use xlink:href="#mc00cb223ef" x="262.41924" y="42.645099" style="fill: #40bfff; fill-opacity: 0.3"/>
     <use xlink:href="#mc00cb223ef" x="262.014201" y="46.332562" style="fill: #40bfff; fill-opacity: 0.3"/>
     <use xlink:href="#mc00cb223ef" x="260.044607" y="74.416081" style="fill: #40bfff; fill-opacity: 0.3"/>
     <use xlink:href="#mc00cb223ef" x="258.520464" y="39.838108" style="fill: #40bfff; fill-opacity: 0.3"/>
     <use xlink:href="#mc00cb223ef" x="262.155692" y="60.399985" style="fill: #40bfff; fill-opacity: 0.3"/>
     <use xlink:href="#mc00cb223ef" x="258.730924" y="68.141677" style="fill: #40bfff; fill-opacity: 0.3"/>
     <use xlink:href="#mc00cb223ef" x="258.424907" y="44.243615" style="fill: #40bfff; fill-opacity: 0.3"/>
     <use xlink:href="#mc00cb223ef" x="259.532205" y="79.572577" style="fill: #40bfff; fill-opacity: 0.3"/>
     <use xlink:href="#mc00cb223ef" x="257.430012" y="53.603031" style="fill: #40bfff; fill-opacity: 0.3"/>
     <use xlink:href="#mc00cb223ef" x="258.758581" y="36.100541" style="fill: #40bfff; fill-opacity: 0.3"/>
     <use xlink:href="#mc00cb223ef" x="260.319561" y="55.501269" style="fill: #40bfff; fill-opacity: 0.3"/>
     <use xlink:href="#mc00cb223ef" x="257.43426" y="63.428888" style="fill: #40bfff; fill-opacity: 0.3"/>
     <use xlink:href="#mc00cb223ef" x="258.116198" y="71.500789" style="fill: #40bfff; fill-opacity: 0.3"/>
     <use xlink:href="#mc00cb223ef" x="259.427052" y="25.338182" style="fill: #40bfff; fill-opacity: 0.3"/>
     <use xlink:href="#mc00cb223ef" x="261.323688" y="73.721107" style="fill: #40bfff; fill-opacity: 0.3"/>
     <use xlink:href="#mc00cb223ef" x="260.771489" y="43.743292" style="fill: #40bfff; fill-opacity: 0.3"/>
     <use xlink:href="#mc00cb223ef" x="262.098952" y="58.616473" style="fill: #40bfff; fill-opacity: 0.3"/>
    </g>
   </g>
   <g id="PathCollection_8">
    <defs>
     <path id="m077479067c" d="M 0 2 
C 0.530406 2 1.03916 1.789267 1.414214 1.414214 
C 1.789267 1.03916 2 0.530406 2 0 
C 2 -0.530406 1.789267 -1.03916 1.414214 -1.414214 
C 1.03916 -1.789267 0.530406 -2 0 -2 
C -0.530406 -2 -1.03916 -1.789267 -1.414214 -1.414214 
C -1.789267 -1.03916 -2 -0.530406 -2 0 
C -2 0.530406 -1.789267 1.03916 -1.414214 1.414214 
C -1.03916 1.789267 -0.530406 2 0 2 
z
"/>
    </defs>
    <g clip-path="url(#p779a4d8f98)">
     <use xlink:href="#m077479067c" x="288.640814" y="53.553695" style="fill: #807fff; fill-opacity: 0.3"/>
     <use xlink:href="#m077479067c" x="285.699545" y="67.040898" style="fill: #807fff; fill-opacity: 0.3"/>
     <use xlink:href="#m077479067c" x="286.488095" y="31.810584" style="fill: #807fff; fill-opacity: 0.3"/>
     <use xlink:href="#m077479067c" x="287.92998" y="65.379788" style="fill: #807fff; fill-opacity: 0.3"/>
     <use xlink:href="#m077479067c" x="286.464133" y="41.238839" style="fill: #807fff; fill-opacity: 0.3"/>
     <use xlink:href="#m077479067c" x="288.949266" y="45.825037" style="fill: #807fff; fill-opacity: 0.3"/>
     <use xlink:href="#m077479067c" x="285.536515" y="68.797946" style="fill: #807fff; fill-opacity: 0.3"/>
     <use xlink:href="#m077479067c" x="289.114619" y="41.185412" style="fill: #807fff; fill-opacity: 0.3"/>
     <use xlink:href="#m077479067c" x="284.387894" y="59.32052" style="fill: #807fff; fill-opacity: 0.3"/>
     <use xlink:href="#m077479067c" x="285.773487" y="69.660042" style="fill: #807fff; fill-opacity: 0.3"/>
     <use xlink:href="#m077479067c" x="284.727477" y="44.555182" style="fill: #807fff; fill-opacity: 0.3"/>
     <use xlink:href="#m077479067c" x="288.353606" y="91.761953" style="fill: #807fff; fill-opacity: 0.3"/>
     <use xlink:href="#m077479067c" x="286.16844" y="60.666528" style="fill: #807fff; fill-opacity: 0.3"/>
     <use xlink:href="#m077479067c" x="287.452509" y="33.363918" style="fill: #807fff; fill-opacity: 0.3"/>
     <use xlink:href="#m077479067c" x="285.987619" y="55.839894" style="fill: #807fff; fill-opacity: 0.3"/>
     <use xlink:href="#m077479067c" x="287.594266" y="75.876797" style="fill: #807fff; fill-opacity: 0.3"/>
     <use xlink:href="#m077479067c" x="286.907025" y="69.999625" style="fill: #807fff; fill-opacity: 0.3"/>
     <use xlink:href="#m077479067c" x="288.340485" y="28.53757" style="fill: #807fff; fill-opacity: 0.3"/>
     <use xlink:href="#m077479067c" x="286.850254" y="78.590027" style="fill: #807fff; fill-opacity: 0.3"/>
     <use xlink:href="#m077479067c" x="285.840063" y="39.160415" style="fill: #807fff; fill-opacity: 0.3"/>
     <use xlink:href="#m077479067c" x="288.099272" y="59.609454" style="fill: #807fff; fill-opacity: 0.3"/>
    </g>
   </g>
   <g id="PathCollection_9">
    <defs>
     <path id="m9b15105372" d="M 0 2 
C 0.530406 2 1.03916 1.789267 1.414214 1.414214 
C 1.789267 1.03916 2 0.530406 2 0 
C 2 -0.530406 1.789267 -1.03916 1.414214 -1.414214 
C 1.03916 -1.789267 0.530406 -2 0 -2 
C -0.530406 -2 -1.03916 -1.789267 -1.414214 -1.414214 
C -1.789267 -1.03916 -2 -0.530406 -2 0 
C -2 0.530406 -1.789267 1.03916 -1.414214 1.414214 
C -1.03916 1.789267 -0.530406 2 0 2 
z
"/>
    </defs>
    <g clip-path="url(#p779a4d8f98)">
     <use xlink:href="#m9b15105372" x="312.864212" y="56.710303" style="fill: #c03fff; fill-opacity: 0.3"/>
     <use xlink:href="#m9b15105372" x="315.18967" y="71.234851" style="fill: #c03fff; fill-opacity: 0.3"/>
     <use xlink:href="#m9b15105372" x="311.452886" y="34.45699" style="fill: #c03fff; fill-opacity: 0.3"/>
     <use xlink:href="#m9b15105372" x="314.543093" y="69.975671" style="fill: #c03fff; fill-opacity: 0.3"/>
     <use xlink:href="#m9b15105372" x="313.753242" y="43.010781" style="fill: #c03fff; fill-opacity: 0.3"/>
     <use xlink:href="#m9b15105372" x="313.144556" y="53.024899" style="fill: #c03fff; fill-opacity: 0.3"/>
     <use xlink:href="#m9b15105372" x="316.182094" y="78.637881" style="fill: #c03fff; fill-opacity: 0.3"/>
     <use xlink:href="#m9b15105372" x="312.803223" y="38.967323" style="fill: #c03fff; fill-opacity: 0.3"/>
     <use xlink:href="#m9b15105372" x="315.759183" y="60.604911" style="fill: #c03fff; fill-opacity: 0.3"/>
     <use xlink:href="#m9b15105372" x="312.300736" y="72.924338" style="fill: #c03fff; fill-opacity: 0.3"/>
     <use xlink:href="#m9b15105372" x="315.670578" y="49.660338" style="fill: #c03fff; fill-opacity: 0.3"/>
     <use xlink:href="#m9b15105372" x="313.788182" y="94.989089" style="fill: #c03fff; fill-opacity: 0.3"/>
     <use xlink:href="#m9b15105372" x="313.143344" y="55.06188" style="fill: #c03fff; fill-opacity: 0.3"/>
     <use xlink:href="#m9b15105372" x="316.663472" y="39.844135" style="fill: #c03fff; fill-opacity: 0.3"/>
     <use xlink:href="#m9b15105372" x="311.742821" y="60.072747" style="fill: #c03fff; fill-opacity: 0.3"/>
     <use xlink:href="#m9b15105372" x="315.785234" y="77.152456" style="fill: #c03fff; fill-opacity: 0.3"/>
     <use xlink:href="#m9b15105372" x="311.477214" y="76.523347" style="fill: #c03fff; fill-opacity: 0.3"/>
     <use xlink:href="#m9b15105372" x="312.296512" y="34.484813" style="fill: #c03fff; fill-opacity: 0.3"/>
     <use xlink:href="#m9b15105372" x="313.206204" y="83.905165" style="fill: #c03fff; fill-opacity: 0.3"/>
     <use xlink:href="#m9b15105372" x="313.658329" y="44.065702" style="fill: #c03fff; fill-opacity: 0.3"/>
     <use xlink:href="#m9b15105372" x="316.034846" y="60.13103" style="fill: #c03fff; fill-opacity: 0.3"/>
    </g>
   </g>
   <g id="PathCollection_10">
    <defs>
     <path id="ma5b6185134" d="M 0 2 
C 0.530406 2 1.03916 1.789267 1.414214 1.414214 
C 1.789267 1.03916 2 0.530406 2 0 
C 2 -0.530406 1.789267 -1.03916 1.414214 -1.414214 
C 1.03916 -1.789267 0.530406 -2 0 -2 
C -0.530406 -2 -1.03916 -1.789267 -1.414214 -1.414214 
C -1.789267 -1.03916 -2 -0.530406 -2 0 
C -2 0.530406 -1.789267 1.03916 -1.414214 1.414214 
C -1.03916 1.789267 -0.530406 2 0 2 
z
"/>
    </defs>
    <g clip-path="url(#p779a4d8f98)">
     <use xlink:href="#ma5b6185134" x="339.810696" y="54.164875" style="fill: #ff00ff; fill-opacity: 0.3"/>
     <use xlink:href="#ma5b6185134" x="342.143283" y="70.888088" style="fill: #ff00ff; fill-opacity: 0.3"/>
     <use xlink:href="#ma5b6185134" x="340.05464" y="37.840159" style="fill: #ff00ff; fill-opacity: 0.3"/>
     <use xlink:href="#ma5b6185134" x="338.248755" y="71.762853" style="fill: #ff00ff; fill-opacity: 0.3"/>
     <use xlink:href="#ma5b6185134" x="342.767217" y="41.897279" style="fill: #ff00ff; fill-opacity: 0.3"/>
     <use xlink:href="#ma5b6185134" x="338.687402" y="51.15282" style="fill: #ff00ff; fill-opacity: 0.3"/>
     <use xlink:href="#ma5b6185134" x="340.305305" y="84.692143" style="fill: #ff00ff; fill-opacity: 0.3"/>
     <use xlink:href="#ma5b6185134" x="341.224126" y="40.607638" style="fill: #ff00ff; fill-opacity: 0.3"/>
     <use xlink:href="#ma5b6185134" x="343.49342" y="64.47314" style="fill: #ff00ff; fill-opacity: 0.3"/>
     <use xlink:href="#ma5b6185134" x="338.973242" y="72.461016" style="fill: #ff00ff; fill-opacity: 0.3"/>
     <use xlink:href="#ma5b6185134" x="341.076816" y="50.850186" style="fill: #ff00ff; fill-opacity: 0.3"/>
     <use xlink:href="#ma5b6185134" x="342.809825" y="97.701818" style="fill: #ff00ff; fill-opacity: 0.3"/>
     <use xlink:href="#ma5b6185134" x="342.10267" y="64.545871" style="fill: #ff00ff; fill-opacity: 0.3"/>
     <use xlink:href="#ma5b6185134" x="340.384469" y="40.385415" style="fill: #ff00ff; fill-opacity: 0.3"/>
     <use xlink:href="#ma5b6185134" x="342.731754" y="61.893947" style="fill: #ff00ff; fill-opacity: 0.3"/>
     <use xlink:href="#ma5b6185134" x="339.822822" y="70.533765" style="fill: #ff00ff; fill-opacity: 0.3"/>
     <use xlink:href="#ma5b6185134" x="343.547273" y="75.269902" style="fill: #ff00ff; fill-opacity: 0.3"/>
     <use xlink:href="#ma5b6185134" x="343.37284" y="35.604829" style="fill: #ff00ff; fill-opacity: 0.3"/>
     <use xlink:href="#ma5b6185134" x="339.083898" y="80.57388" style="fill: #ff00ff; fill-opacity: 0.3"/>
     <use xlink:href="#ma5b6185134" x="342.248597" y="47.446172" style="fill: #ff00ff; fill-opacity: 0.3"/>
     <use xlink:href="#ma5b6185134" x="342.24231" y="65.953145" style="fill: #ff00ff; fill-opacity: 0.3"/>
    </g>
   </g>
  </g>
 </g>
 <defs>
  <clipPath id="pb87b528a91">
   <rect x="50.24" y="21.72" width="124.36" height="79.6"/>
  </clipPath>
  <clipPath id="p779a4d8f98">
   <rect x="224.84" y="21.72" width="124.36" height="79.6"/>
  </clipPath>
 </defs>
</svg>
