<?xml version="1.0" encoding="utf-8" standalone="no"?>
<!DOCTYPE svg PUBLIC "-//W3C//DTD SVG 1.1//EN"
  "http://www.w3.org/Graphics/SVG/1.1/DTD/svg11.dtd">
<svg xmlns:xlink="http://www.w3.org/1999/xlink" width="360pt" height="144pt" viewBox="0 0 360 144" xmlns="http://www.w3.org/2000/svg" version="1.1">
 <metadata>
  <rdf:RDF xmlns:dc="http://purl.org/dc/elements/1.1/" xmlns:cc="http://creativecommons.org/ns#" xmlns:rdf="http://www.w3.org/1999/02/22-rdf-syntax-ns#">
   <cc:Work>
    <dc:type rdf:resource="http://purl.org/dc/dcmitype/StillImage"/>
    <dc:date>2024-05-30T16:36:31.682003</dc:date>
    <dc:format>image/svg+xml</dc:format>
    <dc:creator>
     <cc:Agent>
      <dc:title>Matplotlib v3.7.2, https://matplotlib.org/</dc:title>
     </cc:Agent>
    </dc:creator>
   </cc:Work>
  </rdf:RDF>
 </metadata>
 <defs>
  <style type="text/css">*{stroke-linejoin: round; stroke-linecap: butt}</style>
 </defs>
 <g id="figure_1">
  <g id="patch_1">
   <path d="M 0 144 
L 360 144 
L 360 0 
L 0 0 
z
" style="fill: #ffffff"/>
  </g>
  <g id="axes_1">
   <g id="patch_2">
    <path d="M 50.24 101.32 
L 169.83 101.32 
L 169.83 21.72 
L 50.24 21.72 
z
" style="fill: #ffffff"/>
   </g>
   <g id="line2d_1">
    <path d="M 50.24 58.280134 
L 169.83 58.280134 
" clip-path="url(#p5ed871ffa8)" style="fill: none; stroke: #d3d3d3; stroke-width: 0.5; stroke-linecap: square"/>
   </g>
   <g id="line2d_2">
    <path d="M 73.866664 101.32 
L 73.866664 21.72 
" clip-path="url(#p5ed871ffa8)" style="fill: none; stroke: #d3d3d3; stroke-width: 0.5; stroke-linecap: square"/>
   </g>
   <g id="PolyCollection_1">
    <defs>
     <path id="meffcec65b5" d="M 55.675909 -100.470726 
L 55.675909 -95.461039 
L 56.386485 -96.550634 
L 57.097062 -98.073916 
L 57.807638 -98.021206 
L 58.518214 -96.83785 
L 59.228791 -93.84198 
L 59.939367 -89.750725 
L 60.649944 -85.007195 
L 61.36052 -80.720187 
L 62.071096 -76.919692 
L 62.781673 -74.681999 
L 63.492249 -73.417155 
L 64.202825 -73.754219 
L 64.913402 -74.564717 
L 65.623978 -75.996095 
L 66.334554 -77.661971 
L 67.045131 -79.28383 
L 67.755707 -80.345042 
L 68.466283 -81.416704 
L 69.17686 -82.046285 
L 69.887436 -82.232083 
L 70.598012 -82.379393 
L 71.308589 -82.850126 
L 72.019165 -83.339428 
L 72.729742 -84.052489 
L 73.440318 -84.462815 
L 74.150894 -84.69019 
L 74.861471 -84.886141 
L 75.572047 -85.206445 
L 76.282623 -84.813741 
L 76.9932 -84.115482 
L 77.703776 -83.851097 
L 78.414352 -82.975578 
L 79.124929 -82.004409 
L 79.835505 -81.093108 
L 80.546081 -79.688094 
L 81.256658 -78.688307 
L 81.967234 -78.115841 
L 82.67781 -78.751453 
L 83.388387 -79.375687 
L 84.098963 -79.7979 
L 84.80954 -80.242751 
L 85.520116 -79.697043 
L 86.230692 -79.241259 
L 86.941269 -80.535001 
L 87.651845 -82.40655 
L 88.362421 -86.372794 
L 89.072998 -91.184894 
L 89.783574 -95.987906 
L 90.49415 -99.926904 
L 91.204727 -101.750376 
L 91.915303 -101.643991 
L 92.625879 -99.72826 
L 93.336456 -95.548935 
L 94.047032 -90.312121 
L 94.757608 -85.192235 
L 95.468185 -81.308944 
L 96.178761 -78.874614 
L 96.889337 -76.836743 
L 97.599914 -74.775146 
L 98.31049 -72.773693 
L 99.021067 -69.499302 
L 99.731643 -66.264529 
L 100.442219 -63.685128 
L 101.152796 -61.687357 
L 101.863372 -60.545028 
L 102.573948 -59.791077 
L 103.284525 -59.495115 
L 103.995101 -59.008053 
L 104.705677 -58.871953 
L 105.416254 -58.414305 
L 106.12683 -58.483983 
L 106.837406 -58.768512 
L 107.547983 -59.478428 
L 108.258559 -60.566729 
L 108.969135 -61.830794 
L 109.679712 -62.875816 
L 110.390288 -63.654686 
L 111.100865 -64.532306 
L 111.811441 -65.13745 
L 112.522017 -66.05601 
L 113.232594 -66.758876 
L 113.94317 -67.529659 
L 114.653746 -67.984243 
L 115.364323 -68.298204 
L 116.074899 -68.436647 
L 116.785475 -67.854149 
L 117.496052 -67.443211 
L 118.206628 -66.92829 
L 118.917204 -66.285697 
L 119.627781 -65.616402 
L 120.338357 -65.103419 
L 121.048933 -64.90515 
L 121.75951 -64.290485 
L 122.470086 -64.077945 
L 123.180663 -63.702279 
L 123.891239 -63.108735 
L 124.601815 -62.729991 
L 125.312392 -62.514856 
L 126.022968 -62.000815 
L 126.733544 -61.533742 
L 127.444121 -61.639232 
L 128.154697 -61.336197 
L 128.865273 -60.962272 
L 129.57585 -60.060163 
L 130.286426 -59.42022 
L 130.997002 -58.617505 
L 131.707579 -58.2481 
L 132.418155 -57.664066 
L 133.128731 -57.039718 
L 133.839308 -55.679367 
L 134.549884 -55.754899 
L 135.26046 -55.407195 
L 135.971037 -55.45811 
L 136.681613 -55.309865 
L 137.39219 -55.513472 
L 138.102766 -55.692865 
L 138.813342 -55.966571 
L 139.523919 -56.256888 
L 140.234495 -56.790915 
L 140.945071 -57.026325 
L 141.655648 -57.269498 
L 142.366224 -57.137237 
L 143.0768 -56.880307 
L 143.787377 -56.181665 
L 144.497953 -55.797151 
L 145.208529 -54.659756 
L 145.919106 -54.186585 
L 146.629682 -53.404186 
L 147.340258 -52.828608 
L 148.050835 -52.362948 
L 148.761411 -51.861309 
L 149.471988 -51.204691 
L 150.182564 -51.207997 
L 150.89314 -50.970825 
L 151.603717 -50.988036 
L 152.314293 -51.051588 
L 153.024869 -51.254742 
L 153.735446 -51.949933 
L 154.446022 -52.441064 
L 155.156598 -52.261462 
L 155.867175 -52.906106 
L 156.577751 -52.949003 
L 157.288327 -53.094541 
L 157.998904 -52.527178 
L 158.70948 -52.422415 
L 159.420056 -52.38612 
L 160.130633 -52.054298 
L 160.841209 -51.241971 
L 161.551786 -50.826574 
L 162.262362 -50.577876 
L 162.972938 -50.739228 
L 163.683515 -50.33833 
L 164.394091 -50.594944 
L 164.394091 -62.737737 
L 164.394091 -62.737737 
L 163.683515 -62.709466 
L 162.972938 -63.144438 
L 162.262362 -63.084807 
L 161.551786 -63.314275 
L 160.841209 -63.608767 
L 160.130633 -64.110183 
L 159.420056 -64.199951 
L 158.70948 -64.014861 
L 157.998904 -63.931132 
L 157.288327 -64.261137 
L 156.577751 -64.167561 
L 155.867175 -64.36051 
L 155.156598 -64.006307 
L 154.446022 -64.414906 
L 153.735446 -64.321575 
L 153.024869 -64.028285 
L 152.314293 -63.978967 
L 151.603717 -64.153992 
L 150.89314 -64.490918 
L 150.182564 -64.926597 
L 149.471988 -65.070856 
L 148.761411 -65.76329 
L 148.050835 -66.227042 
L 147.340258 -66.711621 
L 146.629682 -67.29473 
L 145.919106 -68.130604 
L 145.208529 -68.897284 
L 144.497953 -69.962268 
L 143.787377 -70.346806 
L 143.0768 -71.193787 
L 142.366224 -71.323854 
L 141.655648 -71.478107 
L 140.945071 -71.373575 
L 140.234495 -71.110863 
L 139.523919 -70.647695 
L 138.813342 -70.242349 
L 138.102766 -70.220924 
L 137.39219 -70.240255 
L 136.681613 -70.290954 
L 135.971037 -70.745005 
L 135.26046 -71.12151 
L 134.549884 -71.658311 
L 133.839308 -71.689744 
L 133.128731 -72.682823 
L 132.418155 -73.065986 
L 131.707579 -73.402821 
L 130.997002 -73.421002 
L 130.286426 -73.879245 
L 129.57585 -74.152521 
L 128.865273 -74.917765 
L 128.154697 -75.258732 
L 127.444121 -75.374031 
L 126.733544 -75.005552 
L 126.022968 -75.176219 
L 125.312392 -75.307648 
L 124.601815 -74.990693 
L 123.891239 -74.928209 
L 123.180663 -74.909166 
L 122.470086 -74.942236 
L 121.75951 -74.962018 
L 121.048933 -75.489075 
L 120.338357 -75.788052 
L 119.627781 -76.271528 
L 118.917204 -76.874338 
L 118.206628 -77.605994 
L 117.496052 -78.052141 
L 116.785475 -78.495955 
L 116.074899 -79.151501 
L 115.364323 -79.189382 
L 114.653746 -79.106973 
L 113.94317 -79.119135 
L 113.232594 -79.002307 
L 112.522017 -78.945603 
L 111.811441 -78.845504 
L 111.100865 -79.017158 
L 110.390288 -78.912454 
L 109.679712 -78.907879 
L 108.969135 -78.60334 
L 108.258559 -77.732757 
L 107.547983 -76.875678 
L 106.837406 -76.163983 
L 106.12683 -75.669958 
L 105.416254 -75.159026 
L 104.705677 -75.035777 
L 103.995101 -74.281862 
L 103.284525 -74.008283 
L 102.573948 -73.315444 
L 101.863372 -73.073007 
L 101.152796 -73.30668 
L 100.442219 -74.707197 
L 99.731643 -76.795129 
L 99.021067 -79.889068 
L 98.31049 -83.263301 
L 97.599914 -85.748866 
L 96.889337 -88.44946 
L 96.178761 -91.282626 
L 95.468185 -94.349676 
L 94.757608 -98.615277 
L 94.047032 -103.69682 
L 93.336456 -108.387344 
L 92.625879 -111.86642 
L 91.915303 -113.168837 
L 91.204727 -112.931306 
L 90.49415 -110.632517 
L 89.783574 -106.14404 
L 89.072998 -100.725256 
L 88.362421 -95.187284 
L 87.651845 -90.620962 
L 86.941269 -87.714729 
L 86.230692 -85.624799 
L 85.520116 -85.267392 
L 84.80954 -84.94259 
L 84.098963 -84.188955 
L 83.388387 -83.609834 
L 82.67781 -83.065378 
L 81.967234 -82.587578 
L 81.256658 -83.197394 
L 80.546081 -84.134896 
L 79.835505 -85.385957 
L 79.124929 -86.313797 
L 78.414352 -87.352016 
L 77.703776 -88.291269 
L 76.9932 -88.892907 
L 76.282623 -90.013536 
L 75.572047 -90.739018 
L 74.861471 -90.825894 
L 74.150894 -91.019363 
L 73.440318 -90.899 
L 72.729742 -90.411541 
L 72.019165 -89.465569 
L 71.308589 -88.476591 
L 70.598012 -87.388498 
L 69.887436 -86.320815 
L 69.17686 -85.363907 
L 68.466283 -84.261362 
L 67.755707 -82.864513 
L 67.045131 -81.607639 
L 66.334554 -80.082075 
L 65.623978 -79.184392 
L 64.913402 -78.763384 
L 64.202825 -78.907461 
L 63.492249 -79.10023 
L 62.781673 -80.492845 
L 62.071096 -82.156521 
L 61.36052 -85.306226 
L 60.649944 -88.94346 
L 59.939367 -93.277097 
L 59.228791 -97.530762 
L 58.518214 -100.755675 
L 57.807638 -102.226549 
L 57.097062 -102.644888 
L 56.386485 -101.35458 
L 55.675909 -100.470726 
z
" style="stroke: #00ffff; stroke-opacity: 0.2"/>
    </defs>
    <g clip-path="url(#p5ed871ffa8)">
     <use xlink:href="#meffcec65b5" x="0" y="144" style="fill: #00ffff; fill-opacity: 0.2; stroke: #00ffff; stroke-opacity: 0.2"/>
    </g>
   </g>
   <g id="PolyCollection_2">
    <defs>
     <path id="m7da813a24b" d="M 55.675909 -100.308156 
L 55.675909 -95.785652 
L 56.386485 -96.923067 
L 57.097062 -98.396147 
L 57.807638 -97.952005 
L 58.518214 -96.4038 
L 59.228791 -93.316319 
L 59.939367 -88.763441 
L 60.649944 -83.455176 
L 61.36052 -78.889222 
L 62.071096 -75.289808 
L 62.781673 -73.238517 
L 63.492249 -72.836778 
L 64.202825 -73.976456 
L 64.913402 -75.527993 
L 65.623978 -77.660515 
L 66.334554 -79.51078 
L 67.045131 -81.231612 
L 67.755707 -81.904359 
L 68.466283 -82.052915 
L 69.17686 -81.746682 
L 69.887436 -81.530122 
L 70.598012 -81.296281 
L 71.308589 -81.633589 
L 72.019165 -82.138069 
L 72.729742 -82.889627 
L 73.440318 -83.689915 
L 74.150894 -83.940344 
L 74.861471 -84.355461 
L 75.572047 -84.428059 
L 76.282623 -83.809252 
L 76.9932 -84.165589 
L 77.703776 -83.628441 
L 78.414352 -83.507192 
L 79.124929 -82.848679 
L 79.835505 -82.156543 
L 80.546081 -80.972994 
L 81.256658 -80.462791 
L 81.967234 -80.337823 
L 82.67781 -80.764124 
L 83.388387 -81.031098 
L 84.098963 -81.047488 
L 84.80954 -81.146155 
L 85.520116 -79.921331 
L 86.230692 -78.977084 
L 86.941269 -79.74821 
L 87.651845 -81.516298 
L 88.362421 -85.405631 
L 89.072998 -91.172404 
L 89.783574 -96.918907 
L 90.49415 -102.108783 
L 91.204727 -105.13249 
L 91.915303 -105.636176 
L 92.625879 -104.091029 
L 93.336456 -99.825951 
L 94.047032 -94.032135 
L 94.757608 -88.788481 
L 95.468185 -84.322105 
L 96.178761 -81.208421 
L 96.889337 -79.091005 
L 97.599914 -77.255195 
L 98.31049 -75.209242 
L 99.021067 -72.473678 
L 99.731643 -69.826995 
L 100.442219 -67.490434 
L 101.152796 -65.384236 
L 101.863372 -64.010588 
L 102.573948 -63.153921 
L 103.284525 -62.241995 
L 103.995101 -61.638484 
L 104.705677 -61.347771 
L 105.416254 -61.255631 
L 106.12683 -61.284051 
L 106.837406 -61.502405 
L 107.547983 -62.223408 
L 108.258559 -63.235381 
L 108.969135 -64.336182 
L 109.679712 -64.968513 
L 110.390288 -65.918446 
L 111.100865 -66.615711 
L 111.811441 -67.39299 
L 112.522017 -67.951344 
L 113.232594 -68.682662 
L 113.94317 -69.200231 
L 114.653746 -69.231999 
L 115.364323 -69.269207 
L 116.074899 -69.251505 
L 116.785475 -69.165813 
L 117.496052 -69.13505 
L 118.206628 -69.349766 
L 118.917204 -69.273192 
L 119.627781 -68.747237 
L 120.338357 -68.370804 
L 121.048933 -67.67528 
L 121.75951 -67.053466 
L 122.470086 -66.456038 
L 123.180663 -66.143324 
L 123.891239 -65.761556 
L 124.601815 -65.606318 
L 125.312392 -65.68492 
L 126.022968 -65.602529 
L 126.733544 -65.269261 
L 127.444121 -65.145245 
L 128.154697 -64.499851 
L 128.865273 -64.261941 
L 129.57585 -63.883511 
L 130.286426 -63.40398 
L 130.997002 -62.815599 
L 131.707579 -62.05682 
L 132.418155 -61.254769 
L 133.128731 -60.649647 
L 133.839308 -60.034526 
L 134.549884 -59.489569 
L 135.26046 -58.663277 
L 135.971037 -58.333978 
L 136.681613 -58.10391 
L 137.39219 -58.074509 
L 138.102766 -57.793846 
L 138.813342 -57.741654 
L 139.523919 -57.60653 
L 140.234495 -57.869158 
L 140.945071 -58.532123 
L 141.655648 -59.329163 
L 142.366224 -59.551245 
L 143.0768 -59.806589 
L 143.787377 -59.671039 
L 144.497953 -59.551788 
L 145.208529 -59.142503 
L 145.919106 -58.908554 
L 146.629682 -58.025812 
L 147.340258 -57.900493 
L 148.050835 -57.444944 
L 148.761411 -57.127632 
L 149.471988 -56.621627 
L 150.182564 -56.385582 
L 150.89314 -55.8078 
L 151.603717 -55.315892 
L 152.314293 -54.265761 
L 153.024869 -54.406193 
L 153.735446 -54.454983 
L 154.446022 -54.57188 
L 155.156598 -54.108576 
L 155.867175 -54.361117 
L 156.577751 -54.587683 
L 157.288327 -54.780656 
L 157.998904 -54.567343 
L 158.70948 -54.794381 
L 159.420056 -54.406774 
L 160.130633 -54.822789 
L 160.841209 -54.658728 
L 161.551786 -54.37051 
L 162.262362 -54.119475 
L 162.972938 -53.639103 
L 163.683515 -53.357778 
L 164.394091 -53.327531 
L 164.394091 -63.707564 
L 164.394091 -63.707564 
L 163.683515 -63.644714 
L 162.972938 -63.826561 
L 162.262362 -64.335894 
L 161.551786 -64.473995 
L 160.841209 -64.811651 
L 160.130633 -65.023371 
L 159.420056 -64.896708 
L 158.70948 -65.460399 
L 157.998904 -65.493729 
L 157.288327 -65.743173 
L 156.577751 -65.779149 
L 155.867175 -65.855055 
L 155.156598 -65.779836 
L 154.446022 -66.27047 
L 153.735446 -66.376657 
L 153.024869 -66.574594 
L 152.314293 -66.732648 
L 151.603717 -67.788726 
L 150.89314 -68.505585 
L 150.182564 -69.035879 
L 149.471988 -69.304889 
L 148.761411 -69.677049 
L 148.050835 -69.759769 
L 147.340258 -70.126126 
L 146.629682 -70.139923 
L 145.919106 -70.820321 
L 145.208529 -71.054618 
L 144.497953 -71.402621 
L 143.787377 -71.598266 
L 143.0768 -71.722897 
L 142.366224 -71.742825 
L 141.655648 -71.891121 
L 140.945071 -71.560458 
L 140.234495 -71.34314 
L 139.523919 -71.383159 
L 138.813342 -71.847182 
L 138.102766 -72.149424 
L 137.39219 -72.466141 
L 136.681613 -72.519516 
L 135.971037 -72.795169 
L 135.26046 -73.175215 
L 134.549884 -73.892916 
L 133.839308 -74.408672 
L 133.128731 -74.762226 
L 132.418155 -75.148705 
L 131.707579 -75.559099 
L 130.997002 -76.116135 
L 130.286426 -76.321778 
L 129.57585 -76.763316 
L 128.865273 -77.044004 
L 128.154697 -77.080256 
L 127.444121 -77.461418 
L 126.733544 -77.313552 
L 126.022968 -77.256397 
L 125.312392 -77.033557 
L 124.601815 -76.543193 
L 123.891239 -76.393252 
L 123.180663 -76.630726 
L 122.470086 -76.745893 
L 121.75951 -77.122641 
L 121.048933 -77.562826 
L 120.338357 -78.125007 
L 119.627781 -78.636543 
L 118.917204 -79.202245 
L 118.206628 -79.251486 
L 117.496052 -79.103889 
L 116.785475 -79.174726 
L 116.074899 -79.28421 
L 115.364323 -79.360533 
L 114.653746 -79.253944 
L 113.94317 -79.427886 
L 113.232594 -79.169335 
L 112.522017 -78.999123 
L 111.811441 -79.293345 
L 111.100865 -79.409919 
L 110.390288 -79.503902 
L 109.679712 -79.317459 
L 108.969135 -79.310029 
L 108.258559 -78.660173 
L 107.547983 -77.686652 
L 106.837406 -76.858023 
L 106.12683 -76.641383 
L 105.416254 -76.27126 
L 104.705677 -75.877262 
L 103.995101 -75.326273 
L 103.284525 -75.055869 
L 102.573948 -75.050035 
L 101.863372 -75.165949 
L 101.152796 -75.951358 
L 100.442219 -77.688929 
L 99.731643 -79.819309 
L 99.021067 -82.301659 
L 98.31049 -85.348766 
L 97.599914 -88.142631 
L 96.889337 -90.676581 
L 96.178761 -93.581145 
L 95.468185 -96.97995 
L 94.757608 -101.846424 
L 94.047032 -107.083835 
L 93.336456 -112.553769 
L 92.625879 -116.456689 
L 91.915303 -117.691599 
L 91.204727 -116.892229 
L 90.49415 -113.487033 
L 89.783574 -107.769158 
L 89.072998 -101.357692 
L 88.362421 -94.838701 
L 87.651845 -89.916201 
L 86.941269 -87.231982 
L 86.230692 -85.756159 
L 85.520116 -85.85192 
L 84.80954 -86.461698 
L 84.098963 -86.170497 
L 83.388387 -85.817269 
L 82.67781 -85.226043 
L 81.967234 -84.592427 
L 81.256658 -84.357226 
L 80.546081 -84.789192 
L 79.835505 -86.000758 
L 79.124929 -87.004129 
L 78.414352 -88.075287 
L 77.703776 -88.66441 
L 76.9932 -89.476874 
L 76.282623 -89.547008 
L 75.572047 -90.312857 
L 74.861471 -90.386683 
L 74.150894 -90.255742 
L 73.440318 -90.215951 
L 72.729742 -89.551094 
L 72.019165 -88.859847 
L 71.308589 -88.224422 
L 70.598012 -87.319888 
L 69.887436 -86.765422 
L 69.17686 -86.108413 
L 68.466283 -85.492472 
L 67.755707 -84.432851 
L 67.045131 -83.312176 
L 66.334554 -81.785547 
L 65.623978 -80.858773 
L 64.913402 -79.889501 
L 64.202825 -79.429054 
L 63.492249 -79.125181 
L 62.781673 -80.025865 
L 62.071096 -82.024853 
L 61.36052 -85.101704 
L 60.649944 -88.939195 
L 59.939367 -93.424168 
L 59.228791 -97.430709 
L 58.518214 -100.315294 
L 57.807638 -101.743959 
L 57.097062 -102.224957 
L 56.386485 -101.138822 
L 55.675909 -100.308156 
z
" style="stroke: #40bfff; stroke-opacity: 0.2"/>
    </defs>
    <g clip-path="url(#p5ed871ffa8)">
     <use xlink:href="#m7da813a24b" x="0" y="144" style="fill: #40bfff; fill-opacity: 0.2; stroke: #40bfff; stroke-opacity: 0.2"/>
    </g>
   </g>
   <g id="PolyCollection_3">
    <defs>
     <path id="mdc98de60f0" d="M 55.675909 -100.550249 
L 55.675909 -95.152368 
L 56.386485 -96.675743 
L 57.097062 -97.939009 
L 57.807638 -97.473016 
L 58.518214 -96.014249 
L 59.228791 -92.899797 
L 59.939367 -88.825214 
L 60.649944 -83.646844 
L 61.36052 -78.894546 
L 62.071096 -75.244072 
L 62.781673 -73.300906 
L 63.492249 -72.753485 
L 64.202825 -73.817386 
L 64.913402 -75.367134 
L 65.623978 -77.687712 
L 66.334554 -79.262441 
L 67.045131 -80.494552 
L 67.755707 -81.248407 
L 68.466283 -81.880815 
L 69.17686 -81.854461 
L 69.887436 -82.118285 
L 70.598012 -82.081909 
L 71.308589 -82.301242 
L 72.019165 -83.134845 
L 72.729742 -83.972625 
L 73.440318 -84.163756 
L 74.150894 -84.375721 
L 74.861471 -84.327442 
L 75.572047 -84.124666 
L 76.282623 -83.568538 
L 76.9932 -83.187472 
L 77.703776 -82.845365 
L 78.414352 -82.467308 
L 79.124929 -81.881628 
L 79.835505 -80.939855 
L 80.546081 -79.57628 
L 81.256658 -78.651463 
L 81.967234 -78.50755 
L 82.67781 -79.17505 
L 83.388387 -79.755953 
L 84.098963 -80.55086 
L 84.80954 -80.496536 
L 85.520116 -80.179346 
L 86.230692 -79.913799 
L 86.941269 -80.336727 
L 87.651845 -82.488447 
L 88.362421 -86.268178 
L 89.072998 -91.018867 
L 89.783574 -96.64461 
L 90.49415 -101.229452 
L 91.204727 -104.013905 
L 91.915303 -104.805613 
L 92.625879 -103.559795 
L 93.336456 -99.94157 
L 94.047032 -94.941483 
L 94.757608 -89.558156 
L 95.468185 -84.891325 
L 96.178761 -81.713067 
L 96.889337 -79.012235 
L 97.599914 -76.752371 
L 98.31049 -74.260279 
L 99.021067 -71.122848 
L 99.731643 -67.94561 
L 100.442219 -64.865731 
L 101.152796 -62.628116 
L 101.863372 -61.029314 
L 102.573948 -59.9949 
L 103.284525 -59.628752 
L 103.995101 -59.299901 
L 104.705677 -58.851899 
L 105.416254 -58.274925 
L 106.12683 -58.161298 
L 106.837406 -58.205929 
L 107.547983 -59.132262 
L 108.258559 -59.917681 
L 108.969135 -61.149698 
L 109.679712 -62.18721 
L 110.390288 -63.053824 
L 111.100865 -63.630495 
L 111.811441 -64.489382 
L 112.522017 -65.133489 
L 113.232594 -65.173511 
L 113.94317 -65.433902 
L 114.653746 -65.606986 
L 115.364323 -65.31966 
L 116.074899 -65.036656 
L 116.785475 -64.90141 
L 117.496052 -64.482553 
L 118.206628 -64.028025 
L 118.917204 -63.82168 
L 119.627781 -63.57007 
L 120.338357 -63.524779 
L 121.048933 -63.028534 
L 121.75951 -62.697948 
L 122.470086 -62.017814 
L 123.180663 -61.597041 
L 123.891239 -61.03549 
L 124.601815 -60.735733 
L 125.312392 -60.362521 
L 126.022968 -59.941824 
L 126.733544 -59.388064 
L 127.444121 -59.423964 
L 128.154697 -58.880689 
L 128.865273 -58.626498 
L 129.57585 -57.646728 
L 130.286426 -56.663648 
L 130.997002 -55.50124 
L 131.707579 -55.13365 
L 132.418155 -54.616384 
L 133.128731 -54.220508 
L 133.839308 -53.89907 
L 134.549884 -53.87112 
L 135.26046 -53.548399 
L 135.971037 -53.795689 
L 136.681613 -54.030165 
L 137.39219 -54.456535 
L 138.102766 -54.633058 
L 138.813342 -54.554402 
L 139.523919 -54.687148 
L 140.234495 -54.736827 
L 140.945071 -54.648683 
L 141.655648 -54.485432 
L 142.366224 -54.370871 
L 143.0768 -54.524025 
L 143.787377 -54.379725 
L 144.497953 -54.538905 
L 145.208529 -54.02296 
L 145.919106 -53.504066 
L 146.629682 -52.908781 
L 147.340258 -52.24788 
L 148.050835 -51.577866 
L 148.761411 -50.951803 
L 149.471988 -50.6258 
L 150.182564 -50.727052 
L 150.89314 -50.697162 
L 151.603717 -50.435469 
L 152.314293 -50.427326 
L 153.024869 -51.069927 
L 153.735446 -50.951921 
L 154.446022 -51.264005 
L 155.156598 -51.43613 
L 155.867175 -52.122582 
L 156.577751 -51.63202 
L 157.288327 -51.568454 
L 157.998904 -50.775672 
L 158.70948 -50.180545 
L 159.420056 -49.403583 
L 160.130633 -49.114292 
L 160.841209 -48.478411 
L 161.551786 -48.183457 
L 162.262362 -47.584214 
L 162.972938 -47.509166 
L 163.683515 -46.963266 
L 164.394091 -46.298182 
L 164.394091 -59.800742 
L 164.394091 -59.800742 
L 163.683515 -60.191865 
L 162.972938 -60.518212 
L 162.262362 -60.500382 
L 161.551786 -60.853312 
L 160.841209 -60.947674 
L 160.130633 -61.397904 
L 159.420056 -61.493123 
L 158.70948 -61.985057 
L 157.998904 -62.627255 
L 157.288327 -63.385088 
L 156.577751 -63.567211 
L 155.867175 -64.212035 
L 155.156598 -64.097017 
L 154.446022 -64.301307 
L 153.735446 -64.286751 
L 153.024869 -64.857004 
L 152.314293 -64.821147 
L 151.603717 -65.023717 
L 150.89314 -65.531161 
L 150.182564 -65.59728 
L 149.471988 -65.482342 
L 148.761411 -65.848643 
L 148.050835 -66.303591 
L 147.340258 -66.74891 
L 146.629682 -67.272773 
L 145.919106 -67.704018 
L 145.208529 -68.144923 
L 144.497953 -68.529884 
L 143.787377 -68.48222 
L 143.0768 -68.697542 
L 142.366224 -68.62174 
L 141.655648 -68.89346 
L 140.945071 -69.157008 
L 140.234495 -69.472422 
L 139.523919 -69.700059 
L 138.813342 -69.840721 
L 138.102766 -70.200343 
L 137.39219 -70.328735 
L 136.681613 -70.394429 
L 135.971037 -70.510712 
L 135.26046 -70.564281 
L 134.549884 -70.748386 
L 133.839308 -70.574681 
L 133.128731 -70.760427 
L 132.418155 -71.269055 
L 131.707579 -71.573938 
L 130.997002 -71.849853 
L 130.286426 -72.451253 
L 129.57585 -72.681734 
L 128.865273 -73.06072 
L 128.154697 -72.858073 
L 127.444121 -72.978793 
L 126.733544 -72.583836 
L 126.022968 -72.754428 
L 125.312392 -73.003327 
L 124.601815 -72.990805 
L 123.891239 -72.922878 
L 123.180663 -72.971921 
L 122.470086 -72.966767 
L 121.75951 -73.171216 
L 121.048933 -73.203454 
L 120.338357 -73.450783 
L 119.627781 -73.478936 
L 118.917204 -73.702903 
L 118.206628 -74.093853 
L 117.496052 -74.778711 
L 116.785475 -75.4691 
L 116.074899 -75.848059 
L 115.364323 -76.409227 
L 114.653746 -76.95281 
L 113.94317 -76.978136 
L 113.232594 -77.163868 
L 112.522017 -77.657757 
L 111.811441 -77.753168 
L 111.100865 -77.699959 
L 110.390288 -77.892803 
L 109.679712 -77.802015 
L 108.969135 -77.420352 
L 108.258559 -76.858615 
L 107.547983 -76.483626 
L 106.837406 -75.867314 
L 106.12683 -75.728835 
L 105.416254 -75.561617 
L 104.705677 -75.660233 
L 103.995101 -75.351837 
L 103.284525 -74.929086 
L 102.573948 -74.363929 
L 101.863372 -74.167249 
L 101.152796 -74.797577 
L 100.442219 -76.312865 
L 99.731643 -78.843679 
L 99.021067 -81.816918 
L 98.31049 -85.112975 
L 97.599914 -88.095624 
L 96.889337 -90.684943 
L 96.178761 -93.832359 
L 95.468185 -97.421033 
L 94.757608 -102.282044 
L 94.047032 -107.744905 
L 93.336456 -112.548548 
L 92.625879 -115.753204 
L 91.915303 -116.582713 
L 91.204727 -115.116691 
L 90.49415 -111.504677 
L 89.783574 -106.091205 
L 89.072998 -99.657262 
L 88.362421 -93.886586 
L 87.651845 -89.315678 
L 86.941269 -86.468373 
L 86.230692 -85.464495 
L 85.520116 -85.260041 
L 84.80954 -85.522682 
L 84.098963 -85.51384 
L 83.388387 -84.823155 
L 82.67781 -84.428499 
L 81.967234 -83.880766 
L 81.256658 -84.090888 
L 80.546081 -84.998305 
L 79.835505 -86.355825 
L 79.124929 -87.393569 
L 78.414352 -88.091599 
L 77.703776 -88.523215 
L 76.9932 -89.002986 
L 76.282623 -89.477396 
L 75.572047 -89.985318 
L 74.861471 -90.259823 
L 74.150894 -90.301263 
L 73.440318 -90.113505 
L 72.729742 -89.747408 
L 72.019165 -88.925473 
L 71.308589 -88.015024 
L 70.598012 -87.506733 
L 69.887436 -87.055357 
L 69.17686 -86.467079 
L 68.466283 -85.936876 
L 67.755707 -84.702503 
L 67.045131 -83.354463 
L 66.334554 -81.577976 
L 65.623978 -80.108277 
L 64.913402 -78.666509 
L 64.202825 -78.29806 
L 63.492249 -78.364512 
L 62.781673 -79.593254 
L 62.071096 -81.529797 
L 61.36052 -84.697193 
L 60.649944 -88.902569 
L 59.939367 -93.873297 
L 59.228791 -97.946904 
L 58.518214 -101.058347 
L 57.807638 -102.212142 
L 57.097062 -102.657959 
L 56.386485 -101.629647 
L 55.675909 -100.550249 
z
" style="stroke: #807fff; stroke-opacity: 0.2"/>
    </defs>
    <g clip-path="url(#p5ed871ffa8)">
     <use xlink:href="#mdc98de60f0" x="0" y="144" style="fill: #807fff; fill-opacity: 0.2; stroke: #807fff; stroke-opacity: 0.2"/>
    </g>
   </g>
   <g id="PolyCollection_4">
    <defs>
     <path id="mf1f3f99b0f" d="M 55.675909 -100.730512 
L 55.675909 -95.806359 
L 56.386485 -97.259867 
L 57.097062 -98.786414 
L 57.807638 -98.8945 
L 58.518214 -96.910967 
L 59.228791 -93.68677 
L 59.939367 -89.583939 
L 60.649944 -84.461008 
L 61.36052 -80.484612 
L 62.071096 -77.015574 
L 62.781673 -75.008976 
L 63.492249 -74.325449 
L 64.202825 -75.108324 
L 64.913402 -76.116175 
L 65.623978 -77.379411 
L 66.334554 -78.441726 
L 67.045131 -79.327888 
L 67.755707 -80.32091 
L 68.466283 -81.021453 
L 69.17686 -81.346002 
L 69.887436 -81.591404 
L 70.598012 -81.671982 
L 71.308589 -81.657609 
L 72.019165 -81.989036 
L 72.729742 -82.901983 
L 73.440318 -83.311658 
L 74.150894 -83.729483 
L 74.861471 -84.127361 
L 75.572047 -84.067273 
L 76.282623 -83.430388 
L 76.9932 -82.184427 
L 77.703776 -81.474286 
L 78.414352 -81.213818 
L 79.124929 -80.553482 
L 79.835505 -79.702726 
L 80.546081 -78.855911 
L 81.256658 -78.429456 
L 81.967234 -77.98039 
L 82.67781 -78.554961 
L 83.388387 -78.683906 
L 84.098963 -78.940156 
L 84.80954 -79.305832 
L 85.520116 -78.994683 
L 86.230692 -78.48579 
L 86.941269 -79.369077 
L 87.651845 -81.369781 
L 88.362421 -85.075629 
L 89.072998 -90.278997 
L 89.783574 -96.180986 
L 90.49415 -101.094123 
L 91.204727 -104.785075 
L 91.915303 -106.591869 
L 92.625879 -105.564905 
L 93.336456 -102.057683 
L 94.047032 -96.790392 
L 94.757608 -90.707885 
L 95.468185 -85.161749 
L 96.178761 -81.094621 
L 96.889337 -77.919159 
L 97.599914 -75.472097 
L 98.31049 -73.138278 
L 99.021067 -70.482114 
L 99.731643 -67.731692 
L 100.442219 -65.254794 
L 101.152796 -63.668516 
L 101.863372 -62.755642 
L 102.573948 -62.059163 
L 103.284525 -61.609001 
L 103.995101 -61.346243 
L 104.705677 -60.641238 
L 105.416254 -60.249346 
L 106.12683 -59.699124 
L 106.837406 -59.789962 
L 107.547983 -60.120167 
L 108.258559 -59.97659 
L 108.969135 -60.352822 
L 109.679712 -60.993198 
L 110.390288 -61.423314 
L 111.100865 -61.884298 
L 111.811441 -62.923093 
L 112.522017 -63.7138 
L 113.232594 -64.434363 
L 113.94317 -64.970083 
L 114.653746 -65.298208 
L 115.364323 -65.240332 
L 116.074899 -64.961901 
L 116.785475 -64.650462 
L 117.496052 -64.128798 
L 118.206628 -63.840587 
L 118.917204 -64.035887 
L 119.627781 -64.030788 
L 120.338357 -63.723563 
L 121.048933 -63.036467 
L 121.75951 -62.60928 
L 122.470086 -61.963721 
L 123.180663 -61.630048 
L 123.891239 -61.290372 
L 124.601815 -61.023862 
L 125.312392 -60.805064 
L 126.022968 -60.323864 
L 126.733544 -60.069773 
L 127.444121 -59.958928 
L 128.154697 -59.786238 
L 128.865273 -58.872608 
L 129.57585 -58.032012 
L 130.286426 -57.582647 
L 130.997002 -56.798439 
L 131.707579 -55.703982 
L 132.418155 -55.002354 
L 133.128731 -54.652171 
L 133.839308 -54.292376 
L 134.549884 -54.314848 
L 135.26046 -54.189371 
L 135.971037 -54.052837 
L 136.681613 -53.765033 
L 137.39219 -54.007593 
L 138.102766 -54.007509 
L 138.813342 -54.36271 
L 139.523919 -54.545852 
L 140.234495 -55.072027 
L 140.945071 -55.542311 
L 141.655648 -56.229782 
L 142.366224 -56.407064 
L 143.0768 -56.629812 
L 143.787377 -56.835351 
L 144.497953 -56.611234 
L 145.208529 -55.805762 
L 145.919106 -55.373471 
L 146.629682 -54.88691 
L 147.340258 -54.332973 
L 148.050835 -53.673345 
L 148.761411 -53.204372 
L 149.471988 -52.422556 
L 150.182564 -52.098628 
L 150.89314 -51.721127 
L 151.603717 -51.113294 
L 152.314293 -50.528835 
L 153.024869 -50.700035 
L 153.735446 -50.142175 
L 154.446022 -50.479523 
L 155.156598 -50.31655 
L 155.867175 -50.343729 
L 156.577751 -50.037187 
L 157.288327 -49.748728 
L 157.998904 -49.487828 
L 158.70948 -49.408022 
L 159.420056 -48.726686 
L 160.130633 -48.480063 
L 160.841209 -48.274622 
L 161.551786 -47.868449 
L 162.262362 -47.470875 
L 162.972938 -47.258985 
L 163.683515 -47.158347 
L 164.394091 -47.368353 
L 164.394091 -60.852165 
L 164.394091 -60.852165 
L 163.683515 -60.668501 
L 162.972938 -60.745019 
L 162.262362 -60.899176 
L 161.551786 -61.105103 
L 160.841209 -61.332321 
L 160.130633 -61.280138 
L 159.420056 -61.512286 
L 158.70948 -62.158648 
L 157.998904 -62.325292 
L 157.288327 -62.581568 
L 156.577751 -63.011197 
L 155.867175 -63.465797 
L 155.156598 -63.494055 
L 154.446022 -63.696933 
L 153.735446 -63.684478 
L 153.024869 -64.44148 
L 152.314293 -64.425076 
L 151.603717 -65.053518 
L 150.89314 -65.968471 
L 150.182564 -66.390537 
L 149.471988 -66.903623 
L 148.761411 -67.68094 
L 148.050835 -68.101497 
L 147.340258 -68.524635 
L 146.629682 -68.978679 
L 145.919106 -69.357753 
L 145.208529 -69.640757 
L 144.497953 -70.406652 
L 143.787377 -70.681265 
L 143.0768 -70.619929 
L 142.366224 -70.474427 
L 141.655648 -70.541838 
L 140.945071 -70.215811 
L 140.234495 -70.122023 
L 139.523919 -69.825944 
L 138.813342 -70.044717 
L 138.102766 -70.120072 
L 137.39219 -70.416199 
L 136.681613 -70.513686 
L 135.971037 -71.007238 
L 135.26046 -71.234454 
L 134.549884 -71.432082 
L 133.839308 -71.319299 
L 133.128731 -71.443909 
L 132.418155 -71.694902 
L 131.707579 -72.13702 
L 130.997002 -72.961403 
L 130.286426 -73.409622 
L 129.57585 -73.694804 
L 128.865273 -74.221387 
L 128.154697 -74.60819 
L 127.444121 -74.370725 
L 126.733544 -74.217268 
L 126.022968 -74.006708 
L 125.312392 -74.019273 
L 124.601815 -73.987463 
L 123.891239 -73.643314 
L 123.180663 -73.51464 
L 122.470086 -73.546649 
L 121.75951 -73.868238 
L 121.048933 -73.994024 
L 120.338357 -74.378846 
L 119.627781 -74.724341 
L 118.917204 -74.631631 
L 118.206628 -74.628027 
L 117.496052 -74.831003 
L 116.785475 -75.380875 
L 116.074899 -75.670033 
L 115.364323 -75.981326 
L 114.653746 -76.335309 
L 113.94317 -76.402126 
L 113.232594 -76.42332 
L 112.522017 -76.514458 
L 111.811441 -76.607996 
L 111.100865 -76.599984 
L 110.390288 -77.126523 
L 109.679712 -77.37924 
L 108.969135 -77.262566 
L 108.258559 -77.021473 
L 107.547983 -77.268441 
L 106.837406 -76.785053 
L 106.12683 -76.220595 
L 105.416254 -76.215546 
L 104.705677 -75.882077 
L 103.995101 -75.97101 
L 103.284525 -75.475308 
L 102.573948 -75.288594 
L 101.863372 -75.312166 
L 101.152796 -75.593133 
L 100.442219 -76.476777 
L 99.731643 -78.509751 
L 99.021067 -81.018764 
L 98.31049 -83.741822 
L 97.599914 -86.546201 
L 96.889337 -89.761596 
L 96.178761 -93.570102 
L 95.468185 -97.931998 
L 94.757608 -103.402207 
L 94.047032 -109.258456 
L 93.336456 -114.106063 
L 92.625879 -117.170387 
L 91.915303 -117.786601 
L 91.204727 -115.640538 
L 90.49415 -111.325149 
L 89.783574 -105.685246 
L 89.072998 -99.066616 
L 88.362421 -92.945408 
L 87.651845 -88.474845 
L 86.941269 -85.851124 
L 86.230692 -84.428108 
L 85.520116 -84.616606 
L 84.80954 -84.812212 
L 84.098963 -84.366491 
L 83.388387 -83.892073 
L 82.67781 -83.463571 
L 81.967234 -82.688796 
L 81.256658 -82.872644 
L 80.546081 -83.181191 
L 79.835505 -84.041143 
L 79.124929 -84.836136 
L 78.414352 -85.606683 
L 77.703776 -86.371026 
L 76.9932 -87.504225 
L 76.282623 -88.968536 
L 75.572047 -89.897439 
L 74.861471 -89.889936 
L 74.150894 -89.401163 
L 73.440318 -88.840727 
L 72.729742 -88.342205 
L 72.019165 -87.403478 
L 71.308589 -87.001901 
L 70.598012 -86.782461 
L 69.887436 -86.341036 
L 69.17686 -85.580052 
L 68.466283 -84.977444 
L 67.755707 -83.85792 
L 67.045131 -82.343328 
L 66.334554 -81.026678 
L 65.623978 -80.161881 
L 64.913402 -79.482096 
L 64.202825 -79.524389 
L 63.492249 -79.58399 
L 62.781673 -80.579849 
L 62.071096 -82.488226 
L 61.36052 -85.54555 
L 60.649944 -89.062662 
L 59.939367 -93.900605 
L 59.228791 -97.606813 
L 58.518214 -100.487034 
L 57.807638 -102.432458 
L 57.097062 -102.477554 
L 56.386485 -101.559337 
L 55.675909 -100.730512 
z
" style="stroke: #c03fff; stroke-opacity: 0.2"/>
    </defs>
    <g clip-path="url(#p5ed871ffa8)">
     <use xlink:href="#mf1f3f99b0f" x="0" y="144" style="fill: #c03fff; fill-opacity: 0.2; stroke: #c03fff; stroke-opacity: 0.2"/>
    </g>
   </g>
   <g id="PolyCollection_5">
    <defs>
     <path id="m2c822ab266" d="M 55.675909 -102.453757 
L 55.675909 -96.84688 
L 56.386485 -97.699442 
L 57.097062 -98.950446 
L 57.807638 -98.67197 
L 58.518214 -97.101196 
L 59.228791 -93.515917 
L 59.939367 -89.473054 
L 60.649944 -84.528825 
L 61.36052 -79.979208 
L 62.071096 -75.935768 
L 62.781673 -73.137435 
L 63.492249 -72.098752 
L 64.202825 -72.776856 
L 64.913402 -73.908254 
L 65.623978 -76.121816 
L 66.334554 -78.197082 
L 67.045131 -80.205553 
L 67.755707 -81.191016 
L 68.466283 -81.896842 
L 69.17686 -82.134772 
L 69.887436 -82.712925 
L 70.598012 -82.419339 
L 71.308589 -82.615282 
L 72.019165 -82.723372 
L 72.729742 -83.24596 
L 73.440318 -83.599735 
L 74.150894 -84.299302 
L 74.861471 -84.61435 
L 75.572047 -84.540301 
L 76.282623 -84.2693 
L 76.9932 -84.38201 
L 77.703776 -84.093443 
L 78.414352 -83.435987 
L 79.124929 -82.516165 
L 79.835505 -81.184929 
L 80.546081 -80.25906 
L 81.256658 -79.594497 
L 81.967234 -79.303422 
L 82.67781 -79.460544 
L 83.388387 -80.233022 
L 84.098963 -80.718693 
L 84.80954 -81.070949 
L 85.520116 -81.209105 
L 86.230692 -80.408342 
L 86.941269 -81.21038 
L 87.651845 -82.832952 
L 88.362421 -85.884695 
L 89.072998 -90.936829 
L 89.783574 -96.59293 
L 90.49415 -101.613671 
L 91.204727 -105.164638 
L 91.915303 -106.899752 
L 92.625879 -106.449986 
L 93.336456 -103.507732 
L 94.047032 -98.348365 
L 94.757608 -92.459458 
L 95.468185 -87.092367 
L 96.178761 -82.959284 
L 96.889337 -79.919634 
L 97.599914 -77.565158 
L 98.31049 -74.836427 
L 99.021067 -71.752407 
L 99.731643 -68.91144 
L 100.442219 -66.395806 
L 101.152796 -64.363181 
L 101.863372 -62.761725 
L 102.573948 -61.727182 
L 103.284525 -60.676212 
L 103.995101 -60.284558 
L 104.705677 -60.161179 
L 105.416254 -59.799246 
L 106.12683 -59.96405 
L 106.837406 -60.17437 
L 107.547983 -60.818834 
L 108.258559 -61.583114 
L 108.969135 -62.252641 
L 109.679712 -62.570593 
L 110.390288 -63.121393 
L 111.100865 -63.398622 
L 111.811441 -63.994014 
L 112.522017 -64.569472 
L 113.232594 -64.995733 
L 113.94317 -64.699358 
L 114.653746 -64.638865 
L 115.364323 -64.435506 
L 116.074899 -63.672188 
L 116.785475 -63.075878 
L 117.496052 -62.286818 
L 118.206628 -62.048374 
L 118.917204 -61.992092 
L 119.627781 -61.740767 
L 120.338357 -61.394803 
L 121.048933 -61.000088 
L 121.75951 -60.608135 
L 122.470086 -60.220333 
L 123.180663 -60.27494 
L 123.891239 -60.472248 
L 124.601815 -60.634615 
L 125.312392 -60.898096 
L 126.022968 -61.324874 
L 126.733544 -61.307388 
L 127.444121 -60.828012 
L 128.154697 -60.03635 
L 128.865273 -59.375186 
L 129.57585 -58.18572 
L 130.286426 -57.36024 
L 130.997002 -56.355647 
L 131.707579 -55.592636 
L 132.418155 -54.846211 
L 133.128731 -54.437577 
L 133.839308 -54.070866 
L 134.549884 -53.601339 
L 135.26046 -53.06802 
L 135.971037 -53.332697 
L 136.681613 -53.285882 
L 137.39219 -53.659356 
L 138.102766 -54.444857 
L 138.813342 -55.634372 
L 139.523919 -56.831977 
L 140.234495 -57.621121 
L 140.945071 -58.520505 
L 141.655648 -59.204807 
L 142.366224 -59.890311 
L 143.0768 -60.716996 
L 143.787377 -60.760743 
L 144.497953 -60.937872 
L 145.208529 -60.513177 
L 145.919106 -59.95805 
L 146.629682 -58.787379 
L 147.340258 -57.915067 
L 148.050835 -56.804033 
L 148.761411 -55.933381 
L 149.471988 -55.52095 
L 150.182564 -54.818559 
L 150.89314 -54.234734 
L 151.603717 -54.546542 
L 152.314293 -53.902374 
L 153.024869 -53.542199 
L 153.735446 -52.818354 
L 154.446022 -52.002577 
L 155.156598 -51.374471 
L 155.867175 -51.137542 
L 156.577751 -50.805849 
L 157.288327 -51.081532 
L 157.998904 -51.128676 
L 158.70948 -51.475301 
L 159.420056 -51.507146 
L 160.130633 -51.339712 
L 160.841209 -50.614456 
L 161.551786 -49.989837 
L 162.262362 -49.158713 
L 162.972938 -49.246865 
L 163.683515 -48.749911 
L 164.394091 -48.930314 
L 164.394091 -61.283866 
L 164.394091 -61.283866 
L 163.683515 -61.013425 
L 162.972938 -61.361434 
L 162.262362 -61.324967 
L 161.551786 -62.043757 
L 160.841209 -62.5163 
L 160.130633 -63.015458 
L 159.420056 -63.146947 
L 158.70948 -63.236164 
L 157.998904 -63.049112 
L 157.288327 -63.167547 
L 156.577751 -63.297323 
L 155.867175 -63.862318 
L 155.156598 -64.398381 
L 154.446022 -65.231482 
L 153.735446 -66.040995 
L 153.024869 -66.64283 
L 152.314293 -66.951558 
L 151.603717 -67.468431 
L 150.89314 -67.210944 
L 150.182564 -67.639683 
L 149.471988 -68.372783 
L 148.761411 -68.836191 
L 148.050835 -69.72792 
L 147.340258 -70.737422 
L 146.629682 -71.256801 
L 145.919106 -72.217631 
L 145.208529 -72.615741 
L 144.497953 -72.820682 
L 143.787377 -72.627111 
L 143.0768 -72.749006 
L 142.366224 -72.252387 
L 141.655648 -71.974419 
L 140.945071 -71.908131 
L 140.234495 -71.556655 
L 139.523919 -71.208195 
L 138.813342 -70.493764 
L 138.102766 -69.989839 
L 137.39219 -69.622863 
L 136.681613 -69.700903 
L 135.971037 -70.104477 
L 135.26046 -70.236762 
L 134.549884 -71.060251 
L 133.839308 -71.746916 
L 133.128731 -72.0696 
L 132.418155 -72.384835 
L 131.707579 -72.611431 
L 130.997002 -72.779423 
L 130.286426 -72.949886 
L 129.57585 -73.284363 
L 128.865273 -74.064249 
L 128.154697 -74.182339 
L 127.444121 -74.625872 
L 126.733544 -74.945199 
L 126.022968 -74.698232 
L 125.312392 -73.900501 
L 124.601815 -73.321206 
L 123.891239 -72.940462 
L 123.180663 -72.336095 
L 122.470086 -72.170052 
L 121.75951 -72.326847 
L 121.048933 -72.472056 
L 120.338357 -72.756007 
L 119.627781 -73.181345 
L 118.917204 -73.381699 
L 118.206628 -73.302769 
L 117.496052 -73.514687 
L 116.785475 -74.238509 
L 116.074899 -74.854994 
L 115.364323 -75.796297 
L 114.653746 -76.180264 
L 113.94317 -76.504913 
L 113.232594 -77.087086 
L 112.522017 -76.990837 
L 111.811441 -76.857094 
L 111.100865 -76.800583 
L 110.390288 -77.332906 
L 109.679712 -77.53222 
L 108.969135 -77.853494 
L 108.258559 -77.780623 
L 107.547983 -77.323147 
L 106.837406 -76.690418 
L 106.12683 -76.381625 
L 105.416254 -75.906878 
L 104.705677 -75.883147 
L 103.995101 -75.269093 
L 103.284525 -75.175406 
L 102.573948 -75.49096 
L 101.863372 -75.524887 
L 101.152796 -76.293765 
L 100.442219 -77.591548 
L 99.731643 -79.593269 
L 99.021067 -82.359969 
L 98.31049 -85.83935 
L 97.599914 -89.199806 
L 96.889337 -92.406704 
L 96.178761 -96.09019 
L 95.468185 -100.673273 
L 94.757608 -106.015109 
L 94.047032 -111.420102 
L 93.336456 -116.01862 
L 92.625879 -118.506164 
L 91.915303 -118.661818 
L 91.204727 -116.795337 
L 90.49415 -112.723875 
L 89.783574 -106.70713 
L 89.072998 -99.952822 
L 88.362421 -93.659466 
L 87.651845 -89.282272 
L 86.941269 -86.478682 
L 86.230692 -85.178641 
L 85.520116 -85.371663 
L 84.80954 -84.904398 
L 84.098963 -84.613579 
L 83.388387 -84.226836 
L 82.67781 -83.427179 
L 81.967234 -83.16437 
L 81.256658 -83.531863 
L 80.546081 -84.15599 
L 79.835505 -85.144318 
L 79.124929 -86.75663 
L 78.414352 -88.119348 
L 77.703776 -89.085218 
L 76.9932 -89.845564 
L 76.282623 -90.225371 
L 75.572047 -90.783101 
L 74.861471 -91.024474 
L 74.150894 -90.746512 
L 73.440318 -90.079233 
L 72.729742 -89.696738 
L 72.019165 -88.946362 
L 71.308589 -88.456851 
L 70.598012 -87.804049 
L 69.887436 -87.358101 
L 69.17686 -86.185397 
L 68.466283 -85.359935 
L 67.755707 -84.126669 
L 67.045131 -82.795593 
L 66.334554 -80.884277 
L 65.623978 -79.737 
L 64.913402 -78.7672 
L 64.202825 -78.578443 
L 63.492249 -78.53419 
L 62.781673 -79.580835 
L 62.071096 -81.708456 
L 61.36052 -84.773868 
L 60.649944 -88.373863 
L 59.939367 -92.790047 
L 59.228791 -96.988247 
L 58.518214 -100.704218 
L 57.807638 -102.566187 
L 57.097062 -103.470421 
L 56.386485 -102.88632 
L 55.675909 -102.453757 
z
" style="stroke: #ff00ff; stroke-opacity: 0.2"/>
    </defs>
    <g clip-path="url(#p5ed871ffa8)">
     <use xlink:href="#m2c822ab266" x="0" y="144" style="fill: #ff00ff; fill-opacity: 0.2; stroke: #ff00ff; stroke-opacity: 0.2"/>
    </g>
   </g>
   <g id="matplotlib.axis_1">
    <g id="xtick_1">
     <g id="line2d_3">
      <defs>
       <path id="mda96e8d53b" d="M 0 0 
L 0 3.5 
" style="stroke: #000000; stroke-width: 0.8"/>
      </defs>
      <g>
       <use xlink:href="#mda96e8d53b" x="73.866664" y="101.32" style="stroke: #000000; stroke-width: 0.8"/>
      </g>
     </g>
     <g id="text_1">
      <!-- 0.00 -->
      <g transform="translate(62.733851 115.918437) scale(0.1 -0.1)">
       <defs>
        <path id="DejaVuSans-30" d="M 2034 4250 
Q 1547 4250 1301 3770 
Q 1056 3291 1056 2328 
Q 1056 1369 1301 889 
Q 1547 409 2034 409 
Q 2525 409 2770 889 
Q 3016 1369 3016 2328 
Q 3016 3291 2770 3770 
Q 2525 4250 2034 4250 
z
M 2034 4750 
Q 2819 4750 3233 4129 
Q 3647 3509 3647 2328 
Q 3647 1150 3233 529 
Q 2819 -91 2034 -91 
Q 1250 -91 836 529 
Q 422 1150 422 2328 
Q 422 3509 836 4129 
Q 1250 4750 2034 4750 
z
" transform="scale(0.015625)"/>
        <path id="DejaVuSans-2e" d="M 684 794 
L 1344 794 
L 1344 0 
L 684 0 
L 684 794 
z
" transform="scale(0.015625)"/>
       </defs>
       <use xlink:href="#DejaVuSans-30"/>
       <use xlink:href="#DejaVuSans-2e" x="63.623047"/>
       <use xlink:href="#DejaVuSans-30" x="95.410156"/>
       <use xlink:href="#DejaVuSans-30" x="159.033203"/>
      </g>
     </g>
    </g>
    <g id="xtick_2">
     <g id="line2d_4">
      <g>
       <use xlink:href="#mda96e8d53b" x="119.34355" y="101.32" style="stroke: #000000; stroke-width: 0.8"/>
      </g>
     </g>
     <g id="text_2">
      <!-- 0.25 -->
      <g transform="translate(108.210738 115.918437) scale(0.1 -0.1)">
       <defs>
        <path id="DejaVuSans-32" d="M 1228 531 
L 3431 531 
L 3431 0 
L 469 0 
L 469 531 
Q 828 903 1448 1529 
Q 2069 2156 2228 2338 
Q 2531 2678 2651 2914 
Q 2772 3150 2772 3378 
Q 2772 3750 2511 3984 
Q 2250 4219 1831 4219 
Q 1534 4219 1204 4116 
Q 875 4013 500 3803 
L 500 4441 
Q 881 4594 1212 4672 
Q 1544 4750 1819 4750 
Q 2544 4750 2975 4387 
Q 3406 4025 3406 3419 
Q 3406 3131 3298 2873 
Q 3191 2616 2906 2266 
Q 2828 2175 2409 1742 
Q 1991 1309 1228 531 
z
" transform="scale(0.015625)"/>
        <path id="DejaVuSans-35" d="M 691 4666 
L 3169 4666 
L 3169 4134 
L 1269 4134 
L 1269 2991 
Q 1406 3038 1543 3061 
Q 1681 3084 1819 3084 
Q 2600 3084 3056 2656 
Q 3513 2228 3513 1497 
Q 3513 744 3044 326 
Q 2575 -91 1722 -91 
Q 1428 -91 1123 -41 
Q 819 9 494 109 
L 494 744 
Q 775 591 1075 516 
Q 1375 441 1709 441 
Q 2250 441 2565 725 
Q 2881 1009 2881 1497 
Q 2881 1984 2565 2268 
Q 2250 2553 1709 2553 
Q 1456 2553 1204 2497 
Q 953 2441 691 2322 
L 691 4666 
z
" transform="scale(0.015625)"/>
       </defs>
       <use xlink:href="#DejaVuSans-30"/>
       <use xlink:href="#DejaVuSans-2e" x="63.623047"/>
       <use xlink:href="#DejaVuSans-32" x="95.410156"/>
       <use xlink:href="#DejaVuSans-35" x="159.033203"/>
      </g>
     </g>
    </g>
    <g id="xtick_3">
     <g id="line2d_5">
      <g>
       <use xlink:href="#mda96e8d53b" x="164.820437" y="101.32" style="stroke: #000000; stroke-width: 0.8"/>
      </g>
     </g>
     <g id="text_3">
      <!-- 0.50 -->
      <g transform="translate(153.687624 115.918437) scale(0.1 -0.1)">
       <use xlink:href="#DejaVuSans-30"/>
       <use xlink:href="#DejaVuSans-2e" x="63.623047"/>
       <use xlink:href="#DejaVuSans-35" x="95.410156"/>
       <use xlink:href="#DejaVuSans-30" x="159.033203"/>
      </g>
     </g>
    </g>
    <g id="text_4">
     <!-- Time (s) -->
     <g transform="translate(85.640313 131.11625) scale(0.12 -0.12)">
      <defs>
       <path id="DejaVuSans-54" d="M -19 4666 
L 3928 4666 
L 3928 4134 
L 2272 4134 
L 2272 0 
L 1638 0 
L 1638 4134 
L -19 4134 
L -19 4666 
z
" transform="scale(0.015625)"/>
       <path id="DejaVuSans-69" d="M 603 3500 
L 1178 3500 
L 1178 0 
L 603 0 
L 603 3500 
z
M 603 4863 
L 1178 4863 
L 1178 4134 
L 603 4134 
L 603 4863 
z
" transform="scale(0.015625)"/>
       <path id="DejaVuSans-6d" d="M 3328 2828 
Q 3544 3216 3844 3400 
Q 4144 3584 4550 3584 
Q 5097 3584 5394 3201 
Q 5691 2819 5691 2113 
L 5691 0 
L 5113 0 
L 5113 2094 
Q 5113 2597 4934 2840 
Q 4756 3084 4391 3084 
Q 3944 3084 3684 2787 
Q 3425 2491 3425 1978 
L 3425 0 
L 2847 0 
L 2847 2094 
Q 2847 2600 2669 2842 
Q 2491 3084 2119 3084 
Q 1678 3084 1418 2786 
Q 1159 2488 1159 1978 
L 1159 0 
L 581 0 
L 581 3500 
L 1159 3500 
L 1159 2956 
Q 1356 3278 1631 3431 
Q 1906 3584 2284 3584 
Q 2666 3584 2933 3390 
Q 3200 3197 3328 2828 
z
" transform="scale(0.015625)"/>
       <path id="DejaVuSans-65" d="M 3597 1894 
L 3597 1613 
L 953 1613 
Q 991 1019 1311 708 
Q 1631 397 2203 397 
Q 2534 397 2845 478 
Q 3156 559 3463 722 
L 3463 178 
Q 3153 47 2828 -22 
Q 2503 -91 2169 -91 
Q 1331 -91 842 396 
Q 353 884 353 1716 
Q 353 2575 817 3079 
Q 1281 3584 2069 3584 
Q 2775 3584 3186 3129 
Q 3597 2675 3597 1894 
z
M 3022 2063 
Q 3016 2534 2758 2815 
Q 2500 3097 2075 3097 
Q 1594 3097 1305 2825 
Q 1016 2553 972 2059 
L 3022 2063 
z
" transform="scale(0.015625)"/>
       <path id="DejaVuSans-20" transform="scale(0.015625)"/>
       <path id="DejaVuSans-28" d="M 1984 4856 
Q 1566 4138 1362 3434 
Q 1159 2731 1159 2009 
Q 1159 1288 1364 580 
Q 1569 -128 1984 -844 
L 1484 -844 
Q 1016 -109 783 600 
Q 550 1309 550 2009 
Q 550 2706 781 3412 
Q 1013 4119 1484 4856 
L 1984 4856 
z
" transform="scale(0.015625)"/>
       <path id="DejaVuSans-73" d="M 2834 3397 
L 2834 2853 
Q 2591 2978 2328 3040 
Q 2066 3103 1784 3103 
Q 1356 3103 1142 2972 
Q 928 2841 928 2578 
Q 928 2378 1081 2264 
Q 1234 2150 1697 2047 
L 1894 2003 
Q 2506 1872 2764 1633 
Q 3022 1394 3022 966 
Q 3022 478 2636 193 
Q 2250 -91 1575 -91 
Q 1294 -91 989 -36 
Q 684 19 347 128 
L 347 722 
Q 666 556 975 473 
Q 1284 391 1588 391 
Q 1994 391 2212 530 
Q 2431 669 2431 922 
Q 2431 1156 2273 1281 
Q 2116 1406 1581 1522 
L 1381 1569 
Q 847 1681 609 1914 
Q 372 2147 372 2553 
Q 372 3047 722 3315 
Q 1072 3584 1716 3584 
Q 2034 3584 2315 3537 
Q 2597 3491 2834 3397 
z
" transform="scale(0.015625)"/>
       <path id="DejaVuSans-29" d="M 513 4856 
L 1013 4856 
Q 1481 4119 1714 3412 
Q 1947 2706 1947 2009 
Q 1947 1309 1714 600 
Q 1481 -109 1013 -844 
L 513 -844 
Q 928 -128 1133 580 
Q 1338 1288 1338 2009 
Q 1338 2731 1133 3434 
Q 928 4138 513 4856 
z
" transform="scale(0.015625)"/>
      </defs>
      <use xlink:href="#DejaVuSans-54"/>
      <use xlink:href="#DejaVuSans-69" x="57.958984"/>
      <use xlink:href="#DejaVuSans-6d" x="85.742188"/>
      <use xlink:href="#DejaVuSans-65" x="183.154297"/>
      <use xlink:href="#DejaVuSans-20" x="244.677734"/>
      <use xlink:href="#DejaVuSans-28" x="276.464844"/>
      <use xlink:href="#DejaVuSans-73" x="315.478516"/>
      <use xlink:href="#DejaVuSans-29" x="367.578125"/>
     </g>
    </g>
   </g>
   <g id="matplotlib.axis_2">
    <g id="ytick_1">
     <g id="line2d_6">
      <defs>
       <path id="m75c68086c0" d="M 0 0 
L -3.5 0 
" style="stroke: #000000; stroke-width: 0.8"/>
      </defs>
      <g>
       <use xlink:href="#m75c68086c0" x="50.24" y="83.370802" style="stroke: #000000; stroke-width: 0.8"/>
      </g>
     </g>
     <g id="text_5">
      <!-- −2.5 -->
      <g transform="translate(18.957188 87.170021) scale(0.1 -0.1)">
       <defs>
        <path id="DejaVuSans-2212" d="M 678 2272 
L 4684 2272 
L 4684 1741 
L 678 1741 
L 678 2272 
z
" transform="scale(0.015625)"/>
       </defs>
       <use xlink:href="#DejaVuSans-2212"/>
       <use xlink:href="#DejaVuSans-32" x="83.789062"/>
       <use xlink:href="#DejaVuSans-2e" x="147.412109"/>
       <use xlink:href="#DejaVuSans-35" x="179.199219"/>
      </g>
     </g>
    </g>
    <g id="ytick_2">
     <g id="line2d_7">
      <g>
       <use xlink:href="#m75c68086c0" x="50.24" y="58.280134" style="stroke: #000000; stroke-width: 0.8"/>
      </g>
     </g>
     <g id="text_6">
      <!-- 0.0 -->
      <g transform="translate(27.336875 62.079352) scale(0.1 -0.1)">
       <use xlink:href="#DejaVuSans-30"/>
       <use xlink:href="#DejaVuSans-2e" x="63.623047"/>
       <use xlink:href="#DejaVuSans-30" x="95.410156"/>
      </g>
     </g>
    </g>
    <g id="ytick_3">
     <g id="line2d_8">
      <g>
       <use xlink:href="#m75c68086c0" x="50.24" y="33.189465" style="stroke: #000000; stroke-width: 0.8"/>
      </g>
     </g>
     <g id="text_7">
      <!-- 2.5 -->
      <g transform="translate(27.336875 36.988684) scale(0.1 -0.1)">
       <use xlink:href="#DejaVuSans-32"/>
       <use xlink:href="#DejaVuSans-2e" x="63.623047"/>
       <use xlink:href="#DejaVuSans-35" x="95.410156"/>
      </g>
     </g>
    </g>
    <g id="text_8">
     <!-- $\mu$V -->
     <g transform="translate(12.437188 69.5) rotate(-90) scale(0.12 -0.12)">
      <defs>
       <path id="DejaVuSans-Oblique-3bc" d="M -84 -1331 
L 856 3500 
L 1434 3500 
L 1009 1322 
Q 997 1256 987 1175 
Q 978 1094 978 1013 
Q 978 722 1161 565 
Q 1344 409 1684 409 
Q 2147 409 2431 671 
Q 2716 934 2816 1459 
L 3213 3500 
L 3788 3500 
L 3266 809 
Q 3253 750 3248 706 
Q 3244 663 3244 628 
Q 3244 531 3283 486 
Q 3322 441 3406 441 
Q 3438 441 3492 456 
Q 3547 472 3647 513 
L 3559 50 
Q 3422 -19 3297 -55 
Q 3172 -91 3053 -91 
Q 2847 -91 2730 40 
Q 2613 172 2613 403 
Q 2438 153 2195 31 
Q 1953 -91 1625 -91 
Q 1334 -91 1117 43 
Q 900 178 831 397 
L 494 -1331 
L -84 -1331 
z
" transform="scale(0.015625)"/>
       <path id="DejaVuSans-56" d="M 1831 0 
L 50 4666 
L 709 4666 
L 2188 738 
L 3669 4666 
L 4325 4666 
L 2547 0 
L 1831 0 
z
" transform="scale(0.015625)"/>
      </defs>
      <use xlink:href="#DejaVuSans-Oblique-3bc" transform="translate(0 0.09375)"/>
      <use xlink:href="#DejaVuSans-56" transform="translate(63.623047 0.09375)"/>
     </g>
    </g>
    <g id="text_9">
     <!-- 1e−3 -->
     <g transform="translate(50.24 18.72) scale(0.1 -0.1)">
      <defs>
       <path id="DejaVuSans-31" d="M 794 531 
L 1825 531 
L 1825 4091 
L 703 3866 
L 703 4441 
L 1819 4666 
L 2450 4666 
L 2450 531 
L 3481 531 
L 3481 0 
L 794 0 
L 794 531 
z
" transform="scale(0.015625)"/>
       <path id="DejaVuSans-33" d="M 2597 2516 
Q 3050 2419 3304 2112 
Q 3559 1806 3559 1356 
Q 3559 666 3084 287 
Q 2609 -91 1734 -91 
Q 1441 -91 1130 -33 
Q 819 25 488 141 
L 488 750 
Q 750 597 1062 519 
Q 1375 441 1716 441 
Q 2309 441 2620 675 
Q 2931 909 2931 1356 
Q 2931 1769 2642 2001 
Q 2353 2234 1838 2234 
L 1294 2234 
L 1294 2753 
L 1863 2753 
Q 2328 2753 2575 2939 
Q 2822 3125 2822 3475 
Q 2822 3834 2567 4026 
Q 2313 4219 1838 4219 
Q 1578 4219 1281 4162 
Q 984 4106 628 3988 
L 628 4550 
Q 988 4650 1302 4700 
Q 1616 4750 1894 4750 
Q 2613 4750 3031 4423 
Q 3450 4097 3450 3541 
Q 3450 3153 3228 2886 
Q 3006 2619 2597 2516 
z
" transform="scale(0.015625)"/>
      </defs>
      <use xlink:href="#DejaVuSans-31"/>
      <use xlink:href="#DejaVuSans-65" x="63.623047"/>
      <use xlink:href="#DejaVuSans-2212" x="125.146484"/>
      <use xlink:href="#DejaVuSans-33" x="208.935547"/>
     </g>
    </g>
   </g>
   <g id="line2d_9">
    <path d="M 55.675909 46.034118 
L 56.386485 45.047393 
L 57.097062 43.640598 
L 57.807638 43.876123 
L 58.518214 45.203238 
L 59.228791 48.313629 
L 62.071096 64.461894 
L 62.781673 66.412578 
L 63.492249 67.741307 
L 64.202825 67.66916 
L 64.913402 67.335949 
L 65.623978 66.409756 
L 66.334554 65.127977 
L 67.045131 63.554266 
L 68.466283 61.160967 
L 69.17686 60.294904 
L 70.598012 59.116055 
L 72.729742 56.767985 
L 73.440318 56.319092 
L 74.150894 56.145224 
L 74.861471 56.143982 
L 75.572047 56.027268 
L 76.282623 56.586362 
L 76.9932 57.495805 
L 77.703776 57.928817 
L 79.835505 60.760467 
L 80.546081 62.088505 
L 81.256658 63.05715 
L 81.967234 63.64829 
L 84.80954 61.407329 
L 86.230692 61.566971 
L 86.941269 59.875135 
L 87.651845 57.486244 
L 88.362421 53.219961 
L 89.783574 42.934027 
L 90.49415 38.720289 
L 91.204727 36.659159 
L 91.915303 36.593586 
L 92.625879 38.20266 
L 93.336456 42.031861 
L 95.468185 56.17069 
L 96.889337 61.356899 
L 98.31049 65.981503 
L 99.731643 72.470171 
L 100.442219 74.803837 
L 101.152796 76.502981 
L 101.863372 77.190983 
L 102.573948 77.446739 
L 103.284525 77.248301 
L 103.995101 77.355043 
L 104.705677 77.046135 
L 105.416254 77.213334 
L 106.837406 76.533753 
L 107.547983 75.822947 
L 108.969135 73.782933 
L 109.679712 73.108153 
L 114.653746 70.454392 
L 115.364323 70.256207 
L 116.074899 70.205926 
L 116.785475 70.824948 
L 118.206628 71.732858 
L 119.627781 73.056035 
L 120.338357 73.554264 
L 121.048933 73.802888 
L 121.75951 74.373748 
L 123.180663 74.694277 
L 123.891239 74.981528 
L 124.601815 75.139658 
L 125.312392 75.088748 
L 126.733544 75.730353 
L 127.444121 75.493368 
L 128.154697 75.702536 
L 128.865273 76.059982 
L 129.57585 76.893658 
L 130.286426 77.350268 
L 130.997002 77.980747 
L 131.707579 78.17454 
L 133.128731 79.13873 
L 133.839308 80.315445 
L 134.549884 80.293395 
L 135.26046 80.735648 
L 135.971037 80.898442 
L 136.681613 81.199591 
L 138.813342 80.89554 
L 139.523919 80.547708 
L 140.234495 80.049111 
L 141.655648 79.626197 
L 143.0768 79.962953 
L 143.787377 80.735765 
L 144.497953 81.120291 
L 145.208529 82.22148 
L 145.919106 82.841406 
L 146.629682 83.650542 
L 148.050835 84.705005 
L 148.761411 85.187701 
L 149.471988 85.862227 
L 150.182564 85.932703 
L 150.89314 86.269128 
L 152.314293 86.484722 
L 153.024869 86.358487 
L 153.735446 85.864246 
L 154.446022 85.572015 
L 155.156598 85.866115 
L 155.867175 85.366692 
L 156.577751 85.441718 
L 157.288327 85.322161 
L 157.998904 85.770845 
L 159.420056 85.706964 
L 160.130633 85.917759 
L 160.841209 86.574631 
L 162.262362 87.168658 
L 162.972938 87.058167 
L 163.683515 87.476102 
L 164.394091 87.33366 
L 164.394091 87.33366 
" clip-path="url(#p5ed871ffa8)" style="fill: none; stroke: #00ffff; stroke-width: 1.5; stroke-linecap: square"/>
   </g>
   <g id="line2d_10">
    <path d="M 55.675909 45.953096 
L 56.386485 44.969056 
L 57.097062 43.689448 
L 57.807638 44.152018 
L 58.518214 45.640453 
L 59.228791 48.626486 
L 62.071096 65.34267 
L 62.781673 67.367809 
L 63.492249 68.019021 
L 64.202825 67.297245 
L 64.913402 66.291253 
L 67.045131 61.728106 
L 67.755707 60.831395 
L 68.466283 60.227306 
L 70.598012 59.691916 
L 72.729742 57.779639 
L 73.440318 57.047067 
L 74.150894 56.901957 
L 74.861471 56.628928 
L 75.572047 56.629542 
L 76.282623 57.32187 
L 76.9932 57.178769 
L 77.703776 57.853574 
L 78.414352 58.208761 
L 79.835505 59.92135 
L 80.546081 61.118907 
L 81.256658 61.589991 
L 81.967234 61.534875 
L 83.388387 60.575816 
L 84.80954 60.196074 
L 85.520116 61.113375 
L 86.230692 61.633379 
L 86.941269 60.509904 
L 87.651845 58.283751 
L 88.362421 53.877834 
L 90.49415 36.202092 
L 91.204727 32.98764 
L 91.915303 32.336113 
L 92.625879 33.726141 
L 93.336456 37.81014 
L 94.757608 48.682547 
L 95.468185 53.348972 
L 96.178761 56.605217 
L 97.599914 61.301087 
L 98.31049 63.720996 
L 99.731643 69.176848 
L 101.152796 73.332203 
L 101.863372 74.411732 
L 103.284525 75.351068 
L 103.995101 75.517622 
L 106.12683 75.037283 
L 106.837406 74.819786 
L 107.547983 74.04497 
L 108.969135 72.176895 
L 109.679712 71.857014 
L 110.390288 71.288826 
L 111.811441 70.656833 
L 112.522017 70.524767 
L 113.94317 69.685941 
L 114.653746 69.757028 
L 115.364323 69.68513 
L 117.496052 69.880531 
L 118.206628 69.699374 
L 118.917204 69.762281 
L 122.470086 72.399035 
L 124.601815 72.925244 
L 125.312392 72.640761 
L 126.022968 72.570537 
L 126.733544 72.708594 
L 127.444121 72.696669 
L 128.154697 73.209946 
L 128.865273 73.347028 
L 129.57585 73.676586 
L 130.997002 74.534133 
L 132.418155 75.798263 
L 134.549884 77.308758 
L 135.26046 78.080754 
L 136.681613 78.688287 
L 137.39219 78.729675 
L 138.102766 79.028365 
L 138.813342 79.205582 
L 139.523919 79.505156 
L 140.234495 79.393851 
L 141.655648 78.389858 
L 143.787377 78.365347 
L 144.497953 78.522796 
L 145.208529 78.901439 
L 145.919106 79.135563 
L 146.629682 79.917133 
L 147.340258 79.98669 
L 148.050835 80.397643 
L 148.761411 80.59766 
L 149.471988 81.036742 
L 150.182564 81.289269 
L 151.603717 82.447691 
L 152.314293 83.500796 
L 154.446022 83.578825 
L 155.156598 84.055794 
L 156.577751 83.816584 
L 157.288327 83.738085 
L 157.998904 83.969464 
L 158.70948 83.87261 
L 159.420056 84.348259 
L 160.130633 84.07692 
L 160.841209 84.264811 
L 163.683515 85.498754 
L 164.394091 85.482453 
L 164.394091 85.482453 
" clip-path="url(#p5ed871ffa8)" style="fill: none; stroke: #40bfff; stroke-width: 1.5; stroke-linecap: square"/>
   </g>
   <g id="line2d_11">
    <path d="M 55.675909 46.148691 
L 57.097062 43.701516 
L 57.807638 44.157421 
L 58.518214 45.463702 
L 59.228791 48.576649 
L 59.939367 52.650744 
L 61.36052 62.20413 
L 62.071096 65.613065 
L 62.781673 67.55292 
L 63.492249 68.441002 
L 64.202825 67.942277 
L 64.913402 66.983178 
L 65.623978 65.102006 
L 67.045131 62.075492 
L 68.466283 60.091155 
L 69.17686 59.83923 
L 69.887436 59.413179 
L 70.598012 59.205679 
L 71.308589 58.841867 
L 72.729742 57.139984 
L 74.150894 56.661508 
L 74.861471 56.706368 
L 75.572047 56.945008 
L 76.9932 57.904771 
L 78.414352 58.720546 
L 79.124929 59.362402 
L 79.835505 60.35216 
L 80.546081 61.712707 
L 81.256658 62.628824 
L 81.967234 62.805842 
L 84.098963 60.96765 
L 84.80954 60.990391 
L 85.520116 61.280306 
L 86.230692 61.310853 
L 86.941269 60.59745 
L 87.651845 58.097937 
L 88.362421 53.922618 
L 90.49415 37.632935 
L 91.204727 34.434702 
L 91.915303 33.305837 
L 92.625879 34.3435 
L 93.336456 37.754941 
L 95.468185 52.843821 
L 96.889337 59.151411 
L 98.31049 64.313373 
L 99.731643 70.605355 
L 100.442219 73.410702 
L 101.152796 75.287153 
L 101.863372 76.401718 
L 102.573948 76.820585 
L 103.995101 76.674131 
L 104.705677 76.743934 
L 105.416254 77.081729 
L 106.837406 76.963378 
L 107.547983 76.192056 
L 108.258559 75.611852 
L 108.969135 74.714975 
L 109.679712 74.005387 
L 110.390288 73.526687 
L 111.100865 73.334773 
L 111.811441 72.878725 
L 112.522017 72.604377 
L 113.232594 72.831311 
L 114.653746 72.720102 
L 116.074899 73.557643 
L 116.785475 73.814745 
L 118.206628 74.939061 
L 119.627781 75.475497 
L 120.338357 75.512219 
L 121.048933 75.884006 
L 121.75951 76.065418 
L 122.470086 76.507709 
L 126.022968 77.651874 
L 126.733544 78.01405 
L 127.444121 77.798621 
L 128.154697 78.130619 
L 128.865273 78.156391 
L 130.997002 80.324453 
L 132.418155 81.057281 
L 133.128731 81.509532 
L 133.839308 81.763124 
L 134.549884 81.690247 
L 135.26046 81.94366 
L 138.102766 81.5833 
L 138.813342 81.802438 
L 140.234495 81.895375 
L 142.366224 82.503695 
L 143.0768 82.389216 
L 143.787377 82.569027 
L 144.497953 82.465606 
L 146.629682 83.909223 
L 148.761411 85.599777 
L 149.471988 85.945929 
L 150.182564 85.837834 
L 150.89314 85.885839 
L 151.603717 86.270407 
L 152.314293 86.375764 
L 153.024869 86.036535 
L 153.735446 86.380664 
L 154.446022 86.217344 
L 155.156598 86.233427 
L 155.867175 85.832691 
L 156.577751 86.400384 
L 157.288327 86.523229 
L 158.70948 87.917199 
L 159.420056 88.551647 
L 160.130633 88.743902 
L 160.841209 89.286958 
L 161.551786 89.481615 
L 162.262362 89.957702 
L 162.972938 89.986311 
L 164.394091 90.950538 
L 164.394091 90.950538 
" clip-path="url(#p5ed871ffa8)" style="fill: none; stroke: #807fff; stroke-width: 1.5; stroke-linecap: square"/>
   </g>
   <g id="line2d_12">
    <path d="M 55.675909 45.731565 
L 57.097062 43.368016 
L 57.807638 43.336521 
L 58.518214 45.300999 
L 59.228791 48.353208 
L 59.939367 52.257728 
L 60.649944 57.238165 
L 62.071096 64.2481 
L 62.781673 66.205587 
L 63.492249 67.045281 
L 64.913402 66.200864 
L 67.045131 63.164392 
L 67.755707 61.910585 
L 68.466283 61.000552 
L 69.887436 60.03378 
L 70.598012 59.772779 
L 71.308589 59.670245 
L 72.019165 59.303743 
L 72.729742 58.377906 
L 74.861471 56.991352 
L 75.572047 57.017644 
L 76.282623 57.800538 
L 76.9932 59.155674 
L 77.703776 60.077344 
L 78.414352 60.589749 
L 79.835505 62.128066 
L 80.546081 62.981449 
L 81.967234 63.665407 
L 82.67781 62.990734 
L 84.098963 62.346677 
L 84.80954 61.940978 
L 86.230692 62.543051 
L 86.941269 61.389899 
L 87.651845 59.077687 
L 88.362421 54.989482 
L 90.49415 37.790364 
L 91.204727 33.787194 
L 91.915303 31.810765 
L 92.625879 32.632354 
L 93.336456 35.918127 
L 94.047032 40.975576 
L 95.468185 52.453126 
L 96.178761 56.667638 
L 96.889337 60.159623 
L 99.021067 68.249561 
L 100.442219 73.134215 
L 101.152796 74.369175 
L 101.863372 74.966096 
L 102.573948 75.326122 
L 103.284525 75.457846 
L 103.995101 75.341373 
L 104.705677 75.738343 
L 105.416254 75.767554 
L 106.12683 76.04014 
L 107.547983 75.305696 
L 108.258559 75.500969 
L 109.679712 74.813781 
L 110.390288 74.725082 
L 111.100865 74.757859 
L 111.811441 74.234456 
L 113.232594 73.571158 
L 113.94317 73.313895 
L 114.653746 73.183242 
L 116.074899 73.684033 
L 116.785475 73.984332 
L 117.496052 74.520099 
L 118.206628 74.765693 
L 119.627781 74.622435 
L 120.338357 74.948795 
L 121.048933 75.484755 
L 121.75951 75.761241 
L 122.470086 76.244815 
L 123.891239 76.533157 
L 124.601815 76.494337 
L 125.312392 76.587832 
L 126.022968 76.834714 
L 128.154697 76.802786 
L 129.57585 78.136592 
L 130.286426 78.503866 
L 130.997002 79.120079 
L 131.707579 80.079499 
L 132.418155 80.651372 
L 133.839308 81.194163 
L 134.549884 81.126535 
L 135.971037 81.469963 
L 136.681613 81.86064 
L 137.39219 81.788104 
L 138.102766 81.93621 
L 138.813342 81.796286 
L 139.523919 81.814102 
L 140.234495 81.402975 
L 140.945071 81.120939 
L 141.655648 80.61419 
L 142.366224 80.559255 
L 143.787377 80.241692 
L 144.497953 80.491057 
L 145.208529 81.27674 
L 146.629682 82.067206 
L 148.761411 83.557344 
L 149.471988 84.33691 
L 150.89314 85.155201 
L 152.314293 86.523044 
L 153.024869 86.429243 
L 153.735446 87.086673 
L 154.446022 86.911772 
L 155.156598 87.094698 
L 155.867175 87.095237 
L 157.288327 87.834852 
L 157.998904 88.09344 
L 158.70948 88.216665 
L 159.420056 88.880514 
L 160.130633 89.119899 
L 160.841209 89.196528 
L 162.262362 89.814975 
L 163.683515 90.086576 
L 164.394091 89.889741 
L 164.394091 89.889741 
" clip-path="url(#p5ed871ffa8)" style="fill: none; stroke: #c03fff; stroke-width: 1.5; stroke-linecap: square"/>
   </g>
   <g id="line2d_13">
    <path d="M 55.675909 44.349681 
L 56.386485 43.707119 
L 57.097062 42.789566 
L 57.807638 43.380922 
L 58.518214 45.097293 
L 59.939367 52.86845 
L 61.36052 61.623462 
L 62.071096 65.177888 
L 62.781673 67.640865 
L 63.492249 68.683529 
L 64.202825 68.322351 
L 64.913402 67.662273 
L 66.334554 64.45932 
L 67.045131 62.499427 
L 68.466283 60.371611 
L 69.17686 59.839916 
L 69.887436 58.964487 
L 70.598012 58.888306 
L 73.440318 57.160516 
L 74.150894 56.477093 
L 74.861471 56.180588 
L 75.572047 56.338299 
L 76.282623 56.752665 
L 76.9932 56.886213 
L 77.703776 57.41067 
L 78.414352 58.222332 
L 79.124929 59.363602 
L 79.835505 60.835376 
L 80.546081 61.792475 
L 81.256658 62.43682 
L 81.967234 62.766104 
L 82.67781 62.556138 
L 83.388387 61.770071 
L 84.80954 61.012326 
L 85.520116 60.709616 
L 86.230692 61.206508 
L 86.941269 60.155469 
L 87.651845 57.942388 
L 88.362421 54.227919 
L 90.49415 36.831227 
L 91.204727 33.020012 
L 91.915303 31.219215 
L 92.625879 31.521925 
L 93.336456 34.236824 
L 94.757608 44.762716 
L 95.468185 50.11718 
L 96.178761 54.475263 
L 96.889337 57.836831 
L 98.31049 63.662112 
L 99.731643 69.747646 
L 100.442219 72.006323 
L 101.152796 73.671527 
L 101.863372 74.856694 
L 102.573948 75.390929 
L 103.284525 76.074191 
L 103.995101 76.223175 
L 104.705677 75.977837 
L 105.416254 76.146938 
L 106.837406 75.567606 
L 108.258559 74.318132 
L 108.969135 73.946932 
L 109.679712 73.948593 
L 110.390288 73.772851 
L 111.100865 73.900398 
L 113.232594 72.958591 
L 113.94317 73.397864 
L 115.364323 73.884098 
L 116.074899 74.736409 
L 116.785475 75.342806 
L 117.496052 76.099248 
L 118.206628 76.324428 
L 118.917204 76.313105 
L 119.627781 76.538944 
L 121.048933 77.263928 
L 122.470086 77.804807 
L 123.180663 77.694482 
L 123.891239 77.293645 
L 124.601815 77.022089 
L 125.312392 76.600701 
L 126.022968 75.988447 
L 126.733544 75.873707 
L 127.444121 76.273058 
L 128.154697 76.890656 
L 128.865273 77.280282 
L 129.57585 78.264959 
L 131.707579 79.897966 
L 133.128731 80.746412 
L 133.839308 81.091109 
L 135.26046 82.347609 
L 135.971037 82.281413 
L 136.681613 82.506607 
L 137.39219 82.35889 
L 138.102766 81.782652 
L 140.234495 79.411112 
L 140.945071 78.785682 
L 142.366224 77.928651 
L 143.0768 77.266999 
L 143.787377 77.306073 
L 144.497953 77.120723 
L 145.208529 77.435541 
L 145.919106 77.912159 
L 146.629682 78.97791 
L 147.340258 79.673756 
L 148.761411 81.615214 
L 149.471988 82.053134 
L 150.182564 82.770879 
L 150.89314 83.277161 
L 151.603717 82.992514 
L 152.314293 83.573034 
L 153.024869 83.907486 
L 154.446022 85.38297 
L 155.156598 86.113574 
L 156.577751 86.948414 
L 159.420056 86.672954 
L 160.130633 86.822415 
L 162.262362 88.75816 
L 162.972938 88.69585 
L 163.683515 89.118332 
L 164.394091 88.89291 
L 164.394091 88.89291 
" clip-path="url(#p5ed871ffa8)" style="fill: none; stroke: #ff00ff; stroke-width: 1.5; stroke-linecap: square"/>
   </g>
   <g id="patch_3">
    <path d="M 50.24 101.32 
L 50.24 21.72 
" style="fill: none; stroke: #000000; stroke-width: 0.8; stroke-linejoin: miter; stroke-linecap: square"/>
   </g>
   <g id="patch_4">
    <path d="M 50.24 101.32 
L 169.83 101.32 
" style="fill: none; stroke: #000000; stroke-width: 0.8; stroke-linejoin: miter; stroke-linecap: square"/>
   </g>
  </g>
  <g id="axes_2">
   <g id="patch_5">
    <path d="M 229.61 101.32 
L 349.2 101.32 
L 349.2 21.72 
L 229.61 21.72 
z
" style="fill: #ffffff"/>
   </g>
   <g id="line2d_14">
    <path d="M 237.606501 46.806351 
L 263.559557 47.083859 
L 289.512613 47.361367 
L 315.46567 47.638876 
L 341.418726 47.916384 
" clip-path="url(#pa313993efe)" style="fill: none; stroke: #808080; stroke-opacity: 0.5; stroke-width: 1.5; stroke-linecap: square"/>
   </g>
   <g id="line2d_15">
    <path d="M 229.61 38.992305 
L 349.2 38.992305 
" clip-path="url(#pa313993efe)" style="fill: none; stroke: #d3d3d3; stroke-width: 0.5; stroke-linecap: square"/>
   </g>
   <g id="line2d_16">
    <path d="M 237.606501 50.42347 
L 237.606501 44.012136 
" clip-path="url(#pa313993efe)" style="fill: none; stroke: #808080; stroke-width: 1.5; stroke-linecap: square"/>
   </g>
   <g id="line2d_17">
    <path d="M 263.559557 48.792475 
L 263.559557 42.995279 
" clip-path="url(#pa313993efe)" style="fill: none; stroke: #808080; stroke-width: 1.5; stroke-linecap: square"/>
   </g>
   <g id="line2d_18">
    <path d="M 289.512613 51.495483 
L 289.512613 44.995689 
" clip-path="url(#pa313993efe)" style="fill: none; stroke: #808080; stroke-width: 1.5; stroke-linecap: square"/>
   </g>
   <g id="line2d_19">
    <path d="M 315.46567 51.240713 
L 315.46567 44.348432 
" clip-path="url(#pa313993efe)" style="fill: none; stroke: #808080; stroke-width: 1.5; stroke-linecap: square"/>
   </g>
   <g id="line2d_20">
    <path d="M 341.418726 50.95907 
L 341.418726 44.350924 
" clip-path="url(#pa313993efe)" style="fill: none; stroke: #808080; stroke-width: 1.5; stroke-linecap: square"/>
   </g>
   <g id="PathCollection_1">
    <defs>
     <path id="mc7fc7616d5" d="M 0 3.162278 
C 0.838646 3.162278 1.643056 2.82908 2.236068 2.236068 
C 2.82908 1.643056 3.162278 0.838646 3.162278 0 
C 3.162278 -0.838646 2.82908 -1.643056 2.236068 -2.236068 
C 1.643056 -2.82908 0.838646 -3.162278 0 -3.162278 
C -0.838646 -3.162278 -1.643056 -2.82908 -2.236068 -2.236068 
C -2.82908 -1.643056 -3.162278 -0.838646 -3.162278 0 
C -3.162278 0.838646 -2.82908 1.643056 -2.236068 2.236068 
C -1.643056 2.82908 -0.838646 3.162278 0 3.162278 
z
" style="stroke: #ffffff"/>
    </defs>
    <g clip-path="url(#pa313993efe)">
     <use xlink:href="#mc7fc7616d5" x="237.606501" y="47.217803" style="fill: #00ffff; stroke: #ffffff"/>
    </g>
   </g>
   <g id="PathCollection_2">
    <defs>
     <path id="ma3c64d4d04" d="M 0 3.162278 
C 0.838646 3.162278 1.643056 2.82908 2.236068 2.236068 
C 2.82908 1.643056 3.162278 0.838646 3.162278 0 
C 3.162278 -0.838646 2.82908 -1.643056 2.236068 -2.236068 
C 1.643056 -2.82908 0.838646 -3.162278 0 -3.162278 
C -0.838646 -3.162278 -1.643056 -2.82908 -2.236068 -2.236068 
C -2.82908 -1.643056 -3.162278 -0.838646 -3.162278 0 
C -3.162278 0.838646 -2.82908 1.643056 -2.236068 2.236068 
C -1.643056 2.82908 -0.838646 3.162278 0 3.162278 
z
" style="stroke: #ffffff"/>
    </defs>
    <g clip-path="url(#pa313993efe)">
     <use xlink:href="#ma3c64d4d04" x="263.559557" y="45.893877" style="fill: #40bfff; stroke: #ffffff"/>
    </g>
   </g>
   <g id="PathCollection_3">
    <defs>
     <path id="m16d93b861c" d="M 0 3.162278 
C 0.838646 3.162278 1.643056 2.82908 2.236068 2.236068 
C 2.82908 1.643056 3.162278 0.838646 3.162278 0 
C 3.162278 -0.838646 2.82908 -1.643056 2.236068 -2.236068 
C 1.643056 -2.82908 0.838646 -3.162278 0 -3.162278 
C -0.838646 -3.162278 -1.643056 -2.82908 -2.236068 -2.236068 
C -2.82908 -1.643056 -3.162278 -0.838646 -3.162278 0 
C -3.162278 0.838646 -2.82908 1.643056 -2.236068 2.236068 
C -1.643056 2.82908 -0.838646 3.162278 0 3.162278 
z
" style="stroke: #ffffff"/>
    </defs>
    <g clip-path="url(#pa313993efe)">
     <use xlink:href="#m16d93b861c" x="289.512613" y="48.245586" style="fill: #807fff; stroke: #ffffff"/>
    </g>
   </g>
   <g id="PathCollection_4">
    <defs>
     <path id="m01b75ffe82" d="M 0 3.162278 
C 0.838646 3.162278 1.643056 2.82908 2.236068 2.236068 
C 2.82908 1.643056 3.162278 0.838646 3.162278 0 
C 3.162278 -0.838646 2.82908 -1.643056 2.236068 -2.236068 
C 1.643056 -2.82908 0.838646 -3.162278 0 -3.162278 
C -0.838646 -3.162278 -1.643056 -2.82908 -2.236068 -2.236068 
C -2.82908 -1.643056 -3.162278 -0.838646 -3.162278 0 
C -3.162278 0.838646 -2.82908 1.643056 -2.236068 2.236068 
C -1.643056 2.82908 -0.838646 3.162278 0 3.162278 
z
" style="stroke: #ffffff"/>
    </defs>
    <g clip-path="url(#pa313993efe)">
     <use xlink:href="#m01b75ffe82" x="315.46567" y="47.794573" style="fill: #c03fff; stroke: #ffffff"/>
    </g>
   </g>
   <g id="PathCollection_5">
    <defs>
     <path id="m1c9365f09b" d="M 0 3.162278 
C 0.838646 3.162278 1.643056 2.82908 2.236068 2.236068 
C 2.82908 1.643056 3.162278 0.838646 3.162278 0 
C 3.162278 -0.838646 2.82908 -1.643056 2.236068 -2.236068 
C 1.643056 -2.82908 0.838646 -3.162278 0 -3.162278 
C -0.838646 -3.162278 -1.643056 -2.82908 -2.236068 -2.236068 
C -2.82908 -1.643056 -3.162278 -0.838646 -3.162278 0 
C -3.162278 0.838646 -2.82908 1.643056 -2.236068 2.236068 
C -1.643056 2.82908 -0.838646 3.162278 0 3.162278 
z
" style="stroke: #ffffff"/>
    </defs>
    <g clip-path="url(#pa313993efe)">
     <use xlink:href="#m1c9365f09b" x="341.418726" y="47.654997" style="fill: #ff00ff; stroke: #ffffff"/>
    </g>
   </g>
   <g id="matplotlib.axis_3">
    <g id="xtick_4">
     <g id="line2d_21">
      <g>
       <use xlink:href="#mda96e8d53b" x="237.606501" y="101.32" style="stroke: #000000; stroke-width: 0.8"/>
      </g>
     </g>
     <g id="text_10">
      <!--   -->
      <g transform="translate(236.017438 115.918437) scale(0.1 -0.1)">
       <use xlink:href="#DejaVuSans-20"/>
      </g>
     </g>
    </g>
    <g id="xtick_5">
     <g id="line2d_22">
      <g>
       <use xlink:href="#mda96e8d53b" x="263.559557" y="101.32" style="stroke: #000000; stroke-width: 0.8"/>
      </g>
     </g>
     <g id="text_11">
      <!--   -->
      <g transform="translate(261.970495 115.918437) scale(0.1 -0.1)">
       <use xlink:href="#DejaVuSans-20"/>
      </g>
     </g>
    </g>
    <g id="xtick_6">
     <g id="line2d_23">
      <g>
       <use xlink:href="#mda96e8d53b" x="289.512613" y="101.32" style="stroke: #000000; stroke-width: 0.8"/>
      </g>
     </g>
     <g id="text_12">
      <!--   -->
      <g transform="translate(287.923551 115.918437) scale(0.1 -0.1)">
       <use xlink:href="#DejaVuSans-20"/>
      </g>
     </g>
    </g>
    <g id="xtick_7">
     <g id="line2d_24">
      <g>
       <use xlink:href="#mda96e8d53b" x="315.46567" y="101.32" style="stroke: #000000; stroke-width: 0.8"/>
      </g>
     </g>
     <g id="text_13">
      <!--   -->
      <g transform="translate(313.876607 115.918437) scale(0.1 -0.1)">
       <use xlink:href="#DejaVuSans-20"/>
      </g>
     </g>
    </g>
    <g id="xtick_8">
     <g id="line2d_25">
      <g>
       <use xlink:href="#mda96e8d53b" x="341.418726" y="101.32" style="stroke: #000000; stroke-width: 0.8"/>
      </g>
     </g>
     <g id="text_14">
      <!--   -->
      <g transform="translate(339.829663 115.918437) scale(0.1 -0.1)">
       <use xlink:href="#DejaVuSans-20"/>
      </g>
     </g>
    </g>
    <g id="text_15">
     <!-- Contrast -->
     <g transform="translate(263.768125 131.11625) scale(0.12 -0.12)">
      <defs>
       <path id="DejaVuSans-43" d="M 4122 4306 
L 4122 3641 
Q 3803 3938 3442 4084 
Q 3081 4231 2675 4231 
Q 1875 4231 1450 3742 
Q 1025 3253 1025 2328 
Q 1025 1406 1450 917 
Q 1875 428 2675 428 
Q 3081 428 3442 575 
Q 3803 722 4122 1019 
L 4122 359 
Q 3791 134 3420 21 
Q 3050 -91 2638 -91 
Q 1578 -91 968 557 
Q 359 1206 359 2328 
Q 359 3453 968 4101 
Q 1578 4750 2638 4750 
Q 3056 4750 3426 4639 
Q 3797 4528 4122 4306 
z
" transform="scale(0.015625)"/>
       <path id="DejaVuSans-6f" d="M 1959 3097 
Q 1497 3097 1228 2736 
Q 959 2375 959 1747 
Q 959 1119 1226 758 
Q 1494 397 1959 397 
Q 2419 397 2687 759 
Q 2956 1122 2956 1747 
Q 2956 2369 2687 2733 
Q 2419 3097 1959 3097 
z
M 1959 3584 
Q 2709 3584 3137 3096 
Q 3566 2609 3566 1747 
Q 3566 888 3137 398 
Q 2709 -91 1959 -91 
Q 1206 -91 779 398 
Q 353 888 353 1747 
Q 353 2609 779 3096 
Q 1206 3584 1959 3584 
z
" transform="scale(0.015625)"/>
       <path id="DejaVuSans-6e" d="M 3513 2113 
L 3513 0 
L 2938 0 
L 2938 2094 
Q 2938 2591 2744 2837 
Q 2550 3084 2163 3084 
Q 1697 3084 1428 2787 
Q 1159 2491 1159 1978 
L 1159 0 
L 581 0 
L 581 3500 
L 1159 3500 
L 1159 2956 
Q 1366 3272 1645 3428 
Q 1925 3584 2291 3584 
Q 2894 3584 3203 3211 
Q 3513 2838 3513 2113 
z
" transform="scale(0.015625)"/>
       <path id="DejaVuSans-74" d="M 1172 4494 
L 1172 3500 
L 2356 3500 
L 2356 3053 
L 1172 3053 
L 1172 1153 
Q 1172 725 1289 603 
Q 1406 481 1766 481 
L 2356 481 
L 2356 0 
L 1766 0 
Q 1100 0 847 248 
Q 594 497 594 1153 
L 594 3053 
L 172 3053 
L 172 3500 
L 594 3500 
L 594 4494 
L 1172 4494 
z
" transform="scale(0.015625)"/>
       <path id="DejaVuSans-72" d="M 2631 2963 
Q 2534 3019 2420 3045 
Q 2306 3072 2169 3072 
Q 1681 3072 1420 2755 
Q 1159 2438 1159 1844 
L 1159 0 
L 581 0 
L 581 3500 
L 1159 3500 
L 1159 2956 
Q 1341 3275 1631 3429 
Q 1922 3584 2338 3584 
Q 2397 3584 2469 3576 
Q 2541 3569 2628 3553 
L 2631 2963 
z
" transform="scale(0.015625)"/>
       <path id="DejaVuSans-61" d="M 2194 1759 
Q 1497 1759 1228 1600 
Q 959 1441 959 1056 
Q 959 750 1161 570 
Q 1363 391 1709 391 
Q 2188 391 2477 730 
Q 2766 1069 2766 1631 
L 2766 1759 
L 2194 1759 
z
M 3341 1997 
L 3341 0 
L 2766 0 
L 2766 531 
Q 2569 213 2275 61 
Q 1981 -91 1556 -91 
Q 1019 -91 701 211 
Q 384 513 384 1019 
Q 384 1609 779 1909 
Q 1175 2209 1959 2209 
L 2766 2209 
L 2766 2266 
Q 2766 2663 2505 2880 
Q 2244 3097 1772 3097 
Q 1472 3097 1187 3025 
Q 903 2953 641 2809 
L 641 3341 
Q 956 3463 1253 3523 
Q 1550 3584 1831 3584 
Q 2591 3584 2966 3190 
Q 3341 2797 3341 1997 
z
" transform="scale(0.015625)"/>
      </defs>
      <use xlink:href="#DejaVuSans-43"/>
      <use xlink:href="#DejaVuSans-6f" x="69.824219"/>
      <use xlink:href="#DejaVuSans-6e" x="131.005859"/>
      <use xlink:href="#DejaVuSans-74" x="194.384766"/>
      <use xlink:href="#DejaVuSans-72" x="233.59375"/>
      <use xlink:href="#DejaVuSans-61" x="274.707031"/>
      <use xlink:href="#DejaVuSans-73" x="335.986328"/>
      <use xlink:href="#DejaVuSans-74" x="388.085938"/>
     </g>
    </g>
   </g>
   <g id="matplotlib.axis_4">
    <g id="ytick_4">
     <g id="line2d_26">
      <g>
       <use xlink:href="#m75c68086c0" x="229.61" y="85.643539" style="stroke: #000000; stroke-width: 0.8"/>
      </g>
     </g>
     <g id="text_16">
      <!-- −1 -->
      <g transform="translate(207.867812 89.442757) scale(0.1 -0.1)">
       <use xlink:href="#DejaVuSans-2212"/>
       <use xlink:href="#DejaVuSans-31" x="83.789062"/>
      </g>
     </g>
    </g>
    <g id="ytick_5">
     <g id="line2d_27">
      <g>
       <use xlink:href="#m75c68086c0" x="229.61" y="38.992305" style="stroke: #000000; stroke-width: 0.8"/>
      </g>
     </g>
     <g id="text_17">
      <!-- 0 -->
      <g transform="translate(216.2475 42.791523) scale(0.1 -0.1)">
       <use xlink:href="#DejaVuSans-30"/>
      </g>
     </g>
    </g>
    <g id="text_18">
     <!-- Mean amplitude ($\mu$V) -->
     <g transform="translate(201.347812 124.64) rotate(-90) scale(0.12 -0.12)">
      <defs>
       <path id="DejaVuSans-4d" d="M 628 4666 
L 1569 4666 
L 2759 1491 
L 3956 4666 
L 4897 4666 
L 4897 0 
L 4281 0 
L 4281 4097 
L 3078 897 
L 2444 897 
L 1241 4097 
L 1241 0 
L 628 0 
L 628 4666 
z
" transform="scale(0.015625)"/>
       <path id="DejaVuSans-70" d="M 1159 525 
L 1159 -1331 
L 581 -1331 
L 581 3500 
L 1159 3500 
L 1159 2969 
Q 1341 3281 1617 3432 
Q 1894 3584 2278 3584 
Q 2916 3584 3314 3078 
Q 3713 2572 3713 1747 
Q 3713 922 3314 415 
Q 2916 -91 2278 -91 
Q 1894 -91 1617 61 
Q 1341 213 1159 525 
z
M 3116 1747 
Q 3116 2381 2855 2742 
Q 2594 3103 2138 3103 
Q 1681 3103 1420 2742 
Q 1159 2381 1159 1747 
Q 1159 1113 1420 752 
Q 1681 391 2138 391 
Q 2594 391 2855 752 
Q 3116 1113 3116 1747 
z
" transform="scale(0.015625)"/>
       <path id="DejaVuSans-6c" d="M 603 4863 
L 1178 4863 
L 1178 0 
L 603 0 
L 603 4863 
z
" transform="scale(0.015625)"/>
       <path id="DejaVuSans-75" d="M 544 1381 
L 544 3500 
L 1119 3500 
L 1119 1403 
Q 1119 906 1312 657 
Q 1506 409 1894 409 
Q 2359 409 2629 706 
Q 2900 1003 2900 1516 
L 2900 3500 
L 3475 3500 
L 3475 0 
L 2900 0 
L 2900 538 
Q 2691 219 2414 64 
Q 2138 -91 1772 -91 
Q 1169 -91 856 284 
Q 544 659 544 1381 
z
M 1991 3584 
L 1991 3584 
z
" transform="scale(0.015625)"/>
       <path id="DejaVuSans-64" d="M 2906 2969 
L 2906 4863 
L 3481 4863 
L 3481 0 
L 2906 0 
L 2906 525 
Q 2725 213 2448 61 
Q 2172 -91 1784 -91 
Q 1150 -91 751 415 
Q 353 922 353 1747 
Q 353 2572 751 3078 
Q 1150 3584 1784 3584 
Q 2172 3584 2448 3432 
Q 2725 3281 2906 2969 
z
M 947 1747 
Q 947 1113 1208 752 
Q 1469 391 1925 391 
Q 2381 391 2643 752 
Q 2906 1113 2906 1747 
Q 2906 2381 2643 2742 
Q 2381 3103 1925 3103 
Q 1469 3103 1208 2742 
Q 947 2381 947 1747 
z
" transform="scale(0.015625)"/>
      </defs>
      <use xlink:href="#DejaVuSans-4d" transform="translate(0 0.015625)"/>
      <use xlink:href="#DejaVuSans-65" transform="translate(86.279297 0.015625)"/>
      <use xlink:href="#DejaVuSans-61" transform="translate(147.802734 0.015625)"/>
      <use xlink:href="#DejaVuSans-6e" transform="translate(209.082031 0.015625)"/>
      <use xlink:href="#DejaVuSans-20" transform="translate(272.460938 0.015625)"/>
      <use xlink:href="#DejaVuSans-61" transform="translate(304.248047 0.015625)"/>
      <use xlink:href="#DejaVuSans-6d" transform="translate(365.527344 0.015625)"/>
      <use xlink:href="#DejaVuSans-70" transform="translate(462.939453 0.015625)"/>
      <use xlink:href="#DejaVuSans-6c" transform="translate(526.416016 0.015625)"/>
      <use xlink:href="#DejaVuSans-69" transform="translate(554.199219 0.015625)"/>
      <use xlink:href="#DejaVuSans-74" transform="translate(581.982422 0.015625)"/>
      <use xlink:href="#DejaVuSans-75" transform="translate(621.191406 0.015625)"/>
      <use xlink:href="#DejaVuSans-64" transform="translate(684.570312 0.015625)"/>
      <use xlink:href="#DejaVuSans-65" transform="translate(748.046875 0.015625)"/>
      <use xlink:href="#DejaVuSans-20" transform="translate(809.570312 0.015625)"/>
      <use xlink:href="#DejaVuSans-28" transform="translate(841.357422 0.015625)"/>
      <use xlink:href="#DejaVuSans-Oblique-3bc" transform="translate(880.371094 0.015625)"/>
      <use xlink:href="#DejaVuSans-56" transform="translate(943.994141 0.015625)"/>
      <use xlink:href="#DejaVuSans-29" transform="translate(1012.402344 0.015625)"/>
     </g>
    </g>
    <g id="text_19">
     <!-- 1e−2 -->
     <g transform="translate(229.61 18.72) scale(0.1 -0.1)">
      <use xlink:href="#DejaVuSans-31"/>
      <use xlink:href="#DejaVuSans-65" x="63.623047"/>
      <use xlink:href="#DejaVuSans-2212" x="125.146484"/>
      <use xlink:href="#DejaVuSans-32" x="208.935547"/>
     </g>
    </g>
   </g>
   <g id="patch_6">
    <path d="M 229.61 101.32 
L 229.61 21.72 
" style="fill: none; stroke: #000000; stroke-width: 0.8; stroke-linejoin: miter; stroke-linecap: square"/>
   </g>
   <g id="patch_7">
    <path d="M 229.61 101.32 
L 349.2 101.32 
" style="fill: none; stroke: #000000; stroke-width: 0.8; stroke-linejoin: miter; stroke-linecap: square"/>
   </g>
   <g id="PathCollection_6">
    <defs>
     <path id="m1f871dfab7" d="M 0 2 
C 0.530406 2 1.03916 1.789267 1.414214 1.414214 
C 1.789267 1.03916 2 0.530406 2 0 
C 2 -0.530406 1.789267 -1.03916 1.414214 -1.414214 
C 1.03916 -1.789267 0.530406 -2 0 -2 
C -0.530406 -2 -1.03916 -1.789267 -1.414214 -1.414214 
C -1.789267 -1.03916 -2 -0.530406 -2 0 
C -2 0.530406 -1.789267 1.03916 -1.414214 1.414214 
C -1.03916 1.789267 -0.530406 2 0 2 
z
"/>
    </defs>
    <g clip-path="url(#pa313993efe)">
     <use xlink:href="#m1f871dfab7" x="238.579073" y="32.039091" style="fill: #00ffff; fill-opacity: 0.3"/>
     <use xlink:href="#m1f871dfab7" x="238.980532" y="25.338182" style="fill: #00ffff; fill-opacity: 0.3"/>
     <use xlink:href="#m1f871dfab7" x="236.390213" y="51.918609" style="fill: #00ffff; fill-opacity: 0.3"/>
     <use xlink:href="#m1f871dfab7" x="235.351215" y="51.300682" style="fill: #00ffff; fill-opacity: 0.3"/>
     <use xlink:href="#m1f871dfab7" x="238.076435" y="33.558082" style="fill: #00ffff; fill-opacity: 0.3"/>
     <use xlink:href="#m1f871dfab7" x="237.478532" y="35.464747" style="fill: #00ffff; fill-opacity: 0.3"/>
     <use xlink:href="#m1f871dfab7" x="235.565144" y="43.874046" style="fill: #00ffff; fill-opacity: 0.3"/>
     <use xlink:href="#m1f871dfab7" x="236.521632" y="35.564731" style="fill: #00ffff; fill-opacity: 0.3"/>
     <use xlink:href="#m1f871dfab7" x="235.045909" y="43.954806" style="fill: #00ffff; fill-opacity: 0.3"/>
     <use xlink:href="#m1f871dfab7" x="237.947983" y="41.962055" style="fill: #00ffff; fill-opacity: 0.3"/>
     <use xlink:href="#m1f871dfab7" x="237.491423" y="39.350584" style="fill: #00ffff; fill-opacity: 0.3"/>
     <use xlink:href="#m1f871dfab7" x="239.423646" y="91.405399" style="fill: #00ffff; fill-opacity: 0.3"/>
     <use xlink:href="#m1f871dfab7" x="238.475283" y="54.101304" style="fill: #00ffff; fill-opacity: 0.3"/>
     <use xlink:href="#m1f871dfab7" x="239.318859" y="34.052841" style="fill: #00ffff; fill-opacity: 0.3"/>
     <use xlink:href="#m1f871dfab7" x="239.062333" y="46.328542" style="fill: #00ffff; fill-opacity: 0.3"/>
     <use xlink:href="#m1f871dfab7" x="235.15508" y="56.240755" style="fill: #00ffff; fill-opacity: 0.3"/>
     <use xlink:href="#m1f871dfab7" x="237.208646" y="41.254732" style="fill: #00ffff; fill-opacity: 0.3"/>
     <use xlink:href="#m1f871dfab7" x="236.617248" y="52.461355" style="fill: #00ffff; fill-opacity: 0.3"/>
     <use xlink:href="#m1f871dfab7" x="235.328629" y="74.129514" style="fill: #00ffff; fill-opacity: 0.3"/>
     <use xlink:href="#m1f871dfab7" x="239.211098" y="60.230837" style="fill: #00ffff; fill-opacity: 0.3"/>
     <use xlink:href="#m1f871dfab7" x="238.148438" y="47.042973" style="fill: #00ffff; fill-opacity: 0.3"/>
    </g>
   </g>
   <g id="PathCollection_7">
    <defs>
     <path id="mdc09057d22" d="M 0 2 
C 0.530406 2 1.03916 1.789267 1.414214 1.414214 
C 1.789267 1.03916 2 0.530406 2 0 
C 2 -0.530406 1.789267 -1.03916 1.414214 -1.414214 
C 1.03916 -1.789267 0.530406 -2 0 -2 
C -0.530406 -2 -1.03916 -1.789267 -1.414214 -1.414214 
C -1.789267 -1.03916 -2 -0.530406 -2 0 
C -2 0.530406 -1.789267 1.03916 -1.414214 1.414214 
C -1.03916 1.789267 -0.530406 2 0 2 
z
"/>
    </defs>
    <g clip-path="url(#pa313993efe)">
     <use xlink:href="#mdc09057d22" x="261.11036" y="31.833073" style="fill: #40bfff; fill-opacity: 0.3"/>
     <use xlink:href="#mdc09057d22" x="263.724716" y="28.996591" style="fill: #40bfff; fill-opacity: 0.3"/>
     <use xlink:href="#mdc09057d22" x="262.227173" y="47.167658" style="fill: #40bfff; fill-opacity: 0.3"/>
     <use xlink:href="#mdc09057d22" x="266.094625" y="50.679905" style="fill: #40bfff; fill-opacity: 0.3"/>
     <use xlink:href="#mdc09057d22" x="265.747984" y="29.93421" style="fill: #40bfff; fill-opacity: 0.3"/>
     <use xlink:href="#mdc09057d22" x="262.082636" y="32.407355" style="fill: #40bfff; fill-opacity: 0.3"/>
     <use xlink:href="#mdc09057d22" x="265.768698" y="41.039207" style="fill: #40bfff; fill-opacity: 0.3"/>
     <use xlink:href="#mdc09057d22" x="262.668896" y="38.11795" style="fill: #40bfff; fill-opacity: 0.3"/>
     <use xlink:href="#mdc09057d22" x="265.931374" y="42.371845" style="fill: #40bfff; fill-opacity: 0.3"/>
     <use xlink:href="#mdc09057d22" x="266.14303" y="43.349794" style="fill: #40bfff; fill-opacity: 0.3"/>
     <use xlink:href="#mdc09057d22" x="263.660579" y="34.857153" style="fill: #40bfff; fill-opacity: 0.3"/>
     <use xlink:href="#mdc09057d22" x="265.257155" y="83.899574" style="fill: #40bfff; fill-opacity: 0.3"/>
     <use xlink:href="#mdc09057d22" x="265.62843" y="52.734746" style="fill: #40bfff; fill-opacity: 0.3"/>
     <use xlink:href="#mdc09057d22" x="263.602692" y="35.738794" style="fill: #40bfff; fill-opacity: 0.3"/>
     <use xlink:href="#mdc09057d22" x="265.35345" y="44.700108" style="fill: #40bfff; fill-opacity: 0.3"/>
     <use xlink:href="#mdc09057d22" x="260.987218" y="58.652534" style="fill: #40bfff; fill-opacity: 0.3"/>
     <use xlink:href="#mdc09057d22" x="262.123301" y="42.485497" style="fill: #40bfff; fill-opacity: 0.3"/>
     <use xlink:href="#mdc09057d22" x="265.15438" y="49.197479" style="fill: #40bfff; fill-opacity: 0.3"/>
     <use xlink:href="#mdc09057d22" x="262.59171" y="70.140064" style="fill: #40bfff; fill-opacity: 0.3"/>
     <use xlink:href="#mdc09057d22" x="261.0204" y="58.800619" style="fill: #40bfff; fill-opacity: 0.3"/>
     <use xlink:href="#mdc09057d22" x="264.223009" y="46.667272" style="fill: #40bfff; fill-opacity: 0.3"/>
    </g>
   </g>
   <g id="PathCollection_8">
    <defs>
     <path id="m48b04b100e" d="M 0 2 
C 0.530406 2 1.03916 1.789267 1.414214 1.414214 
C 1.789267 1.03916 2 0.530406 2 0 
C 2 -0.530406 1.789267 -1.03916 1.414214 -1.414214 
C 1.03916 -1.789267 0.530406 -2 0 -2 
C -0.530406 -2 -1.03916 -1.789267 -1.414214 -1.414214 
C -1.789267 -1.03916 -2 -0.530406 -2 0 
C -2 0.530406 -1.789267 1.03916 -1.414214 1.414214 
C -1.03916 1.789267 -0.530406 2 0 2 
z
"/>
    </defs>
    <g clip-path="url(#pa313993efe)">
     <use xlink:href="#m48b04b100e" x="288.734874" y="33.585289" style="fill: #807fff; fill-opacity: 0.3"/>
     <use xlink:href="#m48b04b100e" x="287.143502" y="30.115525" style="fill: #807fff; fill-opacity: 0.3"/>
     <use xlink:href="#m48b04b100e" x="287.210281" y="47.83727" style="fill: #807fff; fill-opacity: 0.3"/>
     <use xlink:href="#m48b04b100e" x="290.698368" y="50.539878" style="fill: #807fff; fill-opacity: 0.3"/>
     <use xlink:href="#m48b04b100e" x="288.712574" y="32.602381" style="fill: #807fff; fill-opacity: 0.3"/>
     <use xlink:href="#m48b04b100e" x="290.203368" y="33.761616" style="fill: #807fff; fill-opacity: 0.3"/>
     <use xlink:href="#m48b04b100e" x="287.726313" y="44.41403" style="fill: #807fff; fill-opacity: 0.3"/>
     <use xlink:href="#m48b04b100e" x="287.02756" y="42.096652" style="fill: #807fff; fill-opacity: 0.3"/>
     <use xlink:href="#m48b04b100e" x="287.627547" y="43.361408" style="fill: #807fff; fill-opacity: 0.3"/>
     <use xlink:href="#m48b04b100e" x="290.182621" y="40.434966" style="fill: #807fff; fill-opacity: 0.3"/>
     <use xlink:href="#m48b04b100e" x="291.200099" y="38.705946" style="fill: #807fff; fill-opacity: 0.3"/>
     <use xlink:href="#m48b04b100e" x="289.094917" y="94.148412" style="fill: #807fff; fill-opacity: 0.3"/>
     <use xlink:href="#m48b04b100e" x="289.837375" y="54.897605" style="fill: #807fff; fill-opacity: 0.3"/>
     <use xlink:href="#m48b04b100e" x="288.296685" y="38.146066" style="fill: #807fff; fill-opacity: 0.3"/>
     <use xlink:href="#m48b04b100e" x="287.595517" y="49.048929" style="fill: #807fff; fill-opacity: 0.3"/>
     <use xlink:href="#m48b04b100e" x="290.620469" y="66.265316" style="fill: #807fff; fill-opacity: 0.3"/>
     <use xlink:href="#m48b04b100e" x="289.518265" y="42.92479" style="fill: #807fff; fill-opacity: 0.3"/>
     <use xlink:href="#m48b04b100e" x="290.998866" y="53.423056" style="fill: #807fff; fill-opacity: 0.3"/>
     <use xlink:href="#m48b04b100e" x="287.544073" y="75.217072" style="fill: #807fff; fill-opacity: 0.3"/>
     <use xlink:href="#m48b04b100e" x="287.758387" y="55.885062" style="fill: #807fff; fill-opacity: 0.3"/>
     <use xlink:href="#m48b04b100e" x="287.270844" y="45.746039" style="fill: #807fff; fill-opacity: 0.3"/>
    </g>
   </g>
   <g id="PathCollection_9">
    <defs>
     <path id="m6a2cc6bfc5" d="M 0 2 
C 0.530406 2 1.03916 1.789267 1.414214 1.414214 
C 1.789267 1.03916 2 0.530406 2 0 
C 2 -0.530406 1.789267 -1.03916 1.414214 -1.414214 
C 1.03916 -1.789267 0.530406 -2 0 -2 
C -0.530406 -2 -1.03916 -1.789267 -1.414214 -1.414214 
C -1.789267 -1.03916 -2 -0.530406 -2 0 
C -2 0.530406 -1.789267 1.03916 -1.414214 1.414214 
C -1.03916 1.789267 -0.530406 2 0 2 
z
"/>
    </defs>
    <g clip-path="url(#pa313993efe)">
     <use xlink:href="#m6a2cc6bfc5" x="317.192744" y="33.461287" style="fill: #c03fff; fill-opacity: 0.3"/>
     <use xlink:href="#m6a2cc6bfc5" x="313.207261" y="25.499612" style="fill: #c03fff; fill-opacity: 0.3"/>
     <use xlink:href="#m6a2cc6bfc5" x="315.21637" y="49.738732" style="fill: #c03fff; fill-opacity: 0.3"/>
     <use xlink:href="#m6a2cc6bfc5" x="315.154695" y="53.216163" style="fill: #c03fff; fill-opacity: 0.3"/>
     <use xlink:href="#m6a2cc6bfc5" x="317.152422" y="34.555601" style="fill: #c03fff; fill-opacity: 0.3"/>
     <use xlink:href="#m6a2cc6bfc5" x="315.042103" y="33.923737" style="fill: #c03fff; fill-opacity: 0.3"/>
     <use xlink:href="#m6a2cc6bfc5" x="317.737372" y="41.321206" style="fill: #c03fff; fill-opacity: 0.3"/>
     <use xlink:href="#m6a2cc6bfc5" x="313.973242" y="40.225086" style="fill: #c03fff; fill-opacity: 0.3"/>
     <use xlink:href="#m6a2cc6bfc5" x="316.00789" y="40.265693" style="fill: #c03fff; fill-opacity: 0.3"/>
     <use xlink:href="#m6a2cc6bfc5" x="314.731477" y="41.726374" style="fill: #c03fff; fill-opacity: 0.3"/>
     <use xlink:href="#m6a2cc6bfc5" x="315.826707" y="34.228067" style="fill: #c03fff; fill-opacity: 0.3"/>
     <use xlink:href="#m6a2cc6bfc5" x="313.742659" y="97.701818" style="fill: #c03fff; fill-opacity: 0.3"/>
     <use xlink:href="#m6a2cc6bfc5" x="314.895542" y="51.771064" style="fill: #c03fff; fill-opacity: 0.3"/>
     <use xlink:href="#m6a2cc6bfc5" x="315.687326" y="39.831845" style="fill: #c03fff; fill-opacity: 0.3"/>
     <use xlink:href="#m6a2cc6bfc5" x="316.560859" y="48.721314" style="fill: #c03fff; fill-opacity: 0.3"/>
     <use xlink:href="#m6a2cc6bfc5" x="313.796021" y="60.479883" style="fill: #c03fff; fill-opacity: 0.3"/>
     <use xlink:href="#m6a2cc6bfc5" x="315.301212" y="42.0865" style="fill: #c03fff; fill-opacity: 0.3"/>
     <use xlink:href="#m6a2cc6bfc5" x="316.645385" y="53.069324" style="fill: #c03fff; fill-opacity: 0.3"/>
     <use xlink:href="#m6a2cc6bfc5" x="316.248213" y="76.680245" style="fill: #c03fff; fill-opacity: 0.3"/>
     <use xlink:href="#m6a2cc6bfc5" x="315.795783" y="59.096033" style="fill: #c03fff; fill-opacity: 0.3"/>
     <use xlink:href="#m6a2cc6bfc5" x="315.314116" y="46.086441" style="fill: #c03fff; fill-opacity: 0.3"/>
    </g>
   </g>
   <g id="PathCollection_10">
    <defs>
     <path id="m71d82584f6" d="M 0 2 
C 0.530406 2 1.03916 1.789267 1.414214 1.414214 
C 1.789267 1.03916 2 0.530406 2 0 
C 2 -0.530406 1.789267 -1.03916 1.414214 -1.414214 
C 1.03916 -1.789267 0.530406 -2 0 -2 
C -0.530406 -2 -1.03916 -1.789267 -1.414214 -1.414214 
C -1.789267 -1.03916 -2 -0.530406 -2 0 
C -2 0.530406 -1.789267 1.03916 -1.414214 1.414214 
C -1.03916 1.789267 -0.530406 2 0 2 
z
"/>
    </defs>
    <g clip-path="url(#pa313993efe)">
     <use xlink:href="#m71d82584f6" x="339.386582" y="32.349948" style="fill: #ff00ff; fill-opacity: 0.3"/>
     <use xlink:href="#m71d82584f6" x="342.608571" y="27.040276" style="fill: #ff00ff; fill-opacity: 0.3"/>
     <use xlink:href="#m71d82584f6" x="340.097667" y="48.793181" style="fill: #ff00ff; fill-opacity: 0.3"/>
     <use xlink:href="#m71d82584f6" x="342.14626" y="51.737868" style="fill: #ff00ff; fill-opacity: 0.3"/>
     <use xlink:href="#m71d82584f6" x="343.653282" y="30.834556" style="fill: #ff00ff; fill-opacity: 0.3"/>
     <use xlink:href="#m71d82584f6" x="338.825408" y="32.463515" style="fill: #ff00ff; fill-opacity: 0.3"/>
     <use xlink:href="#m71d82584f6" x="341.191192" y="44.162712" style="fill: #ff00ff; fill-opacity: 0.3"/>
     <use xlink:href="#m71d82584f6" x="341.892192" y="36.879442" style="fill: #ff00ff; fill-opacity: 0.3"/>
     <use xlink:href="#m71d82584f6" x="340.836796" y="44.709174" style="fill: #ff00ff; fill-opacity: 0.3"/>
     <use xlink:href="#m71d82584f6" x="340.543108" y="43.318044" style="fill: #ff00ff; fill-opacity: 0.3"/>
     <use xlink:href="#m71d82584f6" x="340.982788" y="37.44012" style="fill: #ff00ff; fill-opacity: 0.3"/>
     <use xlink:href="#m71d82584f6" x="343.764091" y="94.903607" style="fill: #ff00ff; fill-opacity: 0.3"/>
     <use xlink:href="#m71d82584f6" x="340.951439" y="55.610881" style="fill: #ff00ff; fill-opacity: 0.3"/>
     <use xlink:href="#m71d82584f6" x="340.527788" y="37.866839" style="fill: #ff00ff; fill-opacity: 0.3"/>
     <use xlink:href="#m71d82584f6" x="342.711077" y="48.418642" style="fill: #ff00ff; fill-opacity: 0.3"/>
     <use xlink:href="#m71d82584f6" x="343.013704" y="60.054222" style="fill: #ff00ff; fill-opacity: 0.3"/>
     <use xlink:href="#m71d82584f6" x="341.264142" y="43.846061" style="fill: #ff00ff; fill-opacity: 0.3"/>
     <use xlink:href="#m71d82584f6" x="342.374205" y="54.99513" style="fill: #ff00ff; fill-opacity: 0.3"/>
     <use xlink:href="#m71d82584f6" x="340.001316" y="73.869452" style="fill: #ff00ff; fill-opacity: 0.3"/>
     <use xlink:href="#m71d82584f6" x="339.496898" y="55.365606" style="fill: #ff00ff; fill-opacity: 0.3"/>
     <use xlink:href="#m71d82584f6" x="341.382902" y="46.095665" style="fill: #ff00ff; fill-opacity: 0.3"/>
    </g>
   </g>
  </g>
 </g>
 <defs>
  <clipPath id="p5ed871ffa8">
   <rect x="50.24" y="21.72" width="119.59" height="79.6"/>
  </clipPath>
  <clipPath id="pa313993efe">
   <rect x="229.61" y="21.72" width="119.59" height="79.6"/>
  </clipPath>
 </defs>
</svg>
