<?xml version="1.0" encoding="utf-8" standalone="no"?>
<!DOCTYPE svg PUBLIC "-//W3C//DTD SVG 1.1//EN"
  "http://www.w3.org/Graphics/SVG/1.1/DTD/svg11.dtd">
<svg xmlns:xlink="http://www.w3.org/1999/xlink" width="360pt" height="144pt" viewBox="0 0 360 144" xmlns="http://www.w3.org/2000/svg" version="1.1">
 <metadata>
  <rdf:RDF xmlns:dc="http://purl.org/dc/elements/1.1/" xmlns:cc="http://creativecommons.org/ns#" xmlns:rdf="http://www.w3.org/1999/02/22-rdf-syntax-ns#">
   <cc:Work>
    <dc:type rdf:resource="http://purl.org/dc/dcmitype/StillImage"/>
    <dc:date>2024-05-30T16:36:30.914871</dc:date>
    <dc:format>image/svg+xml</dc:format>
    <dc:creator>
     <cc:Agent>
      <dc:title>Matplotlib v3.7.2, https://matplotlib.org/</dc:title>
     </cc:Agent>
    </dc:creator>
   </cc:Work>
  </rdf:RDF>
 </metadata>
 <defs>
  <style type="text/css">*{stroke-linejoin: round; stroke-linecap: butt}</style>
 </defs>
 <g id="figure_1">
  <g id="patch_1">
   <path d="M 0 144 
L 360 144 
L 360 0 
L 0 0 
z
" style="fill: #ffffff"/>
  </g>
  <g id="axes_1">
   <g id="patch_2">
    <path d="M 50.24 101.32 
L 178.785 101.32 
L 178.785 21.72 
L 50.24 21.72 
z
" style="fill: #ffffff"/>
   </g>
   <g id="line2d_1">
    <path d="M 50.24 78.725342 
L 178.785 78.725342 
" clip-path="url(#p923240f41c)" style="fill: none; stroke: #d3d3d3; stroke-width: 0.5; stroke-linecap: square"/>
   </g>
   <g id="line2d_2">
    <path d="M 75.635848 101.32 
L 75.635848 21.72 
" clip-path="url(#p923240f41c)" style="fill: none; stroke: #d3d3d3; stroke-width: 0.5; stroke-linecap: square"/>
   </g>
   <g id="PolyCollection_1">
    <defs>
     <path id="m50fb946e61" d="M 56.082955 -63.44376 
L 56.082955 -58.491781 
L 56.846739 -58.756348 
L 57.610524 -59.249984 
L 58.374309 -60.412554 
L 59.138094 -61.652462 
L 59.901879 -63.287209 
L 60.665664 -64.839954 
L 61.429449 -65.740156 
L 62.193234 -66.172366 
L 62.957019 -65.870867 
L 63.720804 -65.288799 
L 64.484589 -64.663496 
L 65.248373 -64.67829 
L 66.012158 -64.380091 
L 66.775943 -63.789478 
L 67.539728 -63.254939 
L 68.303513 -62.972925 
L 69.067298 -62.88894 
L 69.831083 -62.96855 
L 70.594868 -62.982094 
L 71.358653 -61.824361 
L 72.122438 -62.575504 
L 72.886223 -62.853741 
L 73.650007 -63.660528 
L 74.413792 -63.678353 
L 75.177577 -64.107187 
L 75.941362 -63.888118 
L 76.705147 -64.082705 
L 77.468932 -65.016346 
L 78.232717 -65.835964 
L 78.996502 -65.084903 
L 79.760287 -65.866572 
L 80.524072 -66.304908 
L 81.287857 -65.725015 
L 82.051641 -65.149499 
L 82.815426 -63.935215 
L 83.579211 -64.111704 
L 84.342996 -63.662759 
L 85.106781 -64.544132 
L 85.870566 -64.958216 
L 86.634351 -64.232846 
L 87.398136 -65.078335 
L 88.161921 -63.776296 
L 88.925706 -61.511657 
L 89.68949 -62.703837 
L 90.453275 -63.292731 
L 91.21706 -64.028365 
L 91.980845 -64.51984 
L 92.74463 -63.909576 
L 93.508415 -63.356998 
L 94.2722 -61.640546 
L 95.035985 -60.747984 
L 95.79977 -60.713231 
L 96.563555 -59.539154 
L 97.32734 -56.913888 
L 98.091124 -53.418073 
L 98.854909 -51.097389 
L 99.618694 -50.684503 
L 100.382479 -51.075321 
L 101.146264 -52.051113 
L 101.910049 -53.355205 
L 102.673834 -53.19579 
L 103.437619 -53.659615 
L 104.201404 -55.565623 
L 104.965189 -57.777958 
L 105.728974 -61.111494 
L 106.492758 -64.574717 
L 107.256543 -68.06554 
L 108.020328 -70.414358 
L 108.784113 -73.653763 
L 109.547898 -74.746305 
L 110.311683 -76.356378 
L 111.075468 -77.250313 
L 111.839253 -77.895305 
L 112.603038 -78.724481 
L 113.366823 -79.649969 
L 114.130608 -80.640916 
L 114.894392 -80.804667 
L 115.658177 -81.772721 
L 116.421962 -82.218904 
L 117.185747 -83.100674 
L 117.949532 -82.822375 
L 118.713317 -82.482574 
L 119.477102 -81.459777 
L 120.240887 -80.976733 
L 121.004672 -80.720738 
L 121.768457 -79.704393 
L 122.532242 -79.484368 
L 123.296026 -79.751702 
L 124.059811 -79.40887 
L 124.823596 -79.352003 
L 125.587381 -78.908342 
L 126.351166 -78.627742 
L 127.114951 -78.038053 
L 127.878736 -78.638556 
L 128.642521 -79.236316 
L 129.406306 -79.954614 
L 130.170091 -80.774188 
L 130.933876 -82.367382 
L 131.69766 -83.30327 
L 132.461445 -84.958698 
L 133.22523 -87.356362 
L 133.989015 -88.80836 
L 134.7528 -89.943753 
L 135.516585 -90.456868 
L 136.28037 -91.895229 
L 137.044155 -92.498491 
L 137.80794 -93.778096 
L 138.571725 -94.694642 
L 139.33551 -95.131595 
L 140.099294 -94.10556 
L 140.863079 -95.710873 
L 141.626864 -95.856908 
L 142.390649 -95.786372 
L 143.154434 -95.475953 
L 143.918219 -95.394533 
L 144.682004 -95.049417 
L 145.445789 -94.428955 
L 146.209574 -93.91324 
L 146.973359 -93.401564 
L 147.737143 -92.768993 
L 148.500928 -91.765805 
L 149.264713 -90.175249 
L 150.028498 -89.476583 
L 150.792283 -88.519716 
L 151.556068 -88.479579 
L 152.319853 -88.112876 
L 153.083638 -88.018335 
L 153.847423 -87.960149 
L 154.611208 -87.762751 
L 155.374993 -87.867889 
L 156.138777 -87.761334 
L 156.902562 -87.3447 
L 157.666347 -87.420382 
L 158.430132 -87.669879 
L 159.193917 -87.587117 
L 159.957702 -87.457643 
L 160.721487 -87.552123 
L 161.485272 -87.442398 
L 162.249057 -86.249537 
L 163.012842 -85.21489 
L 163.776627 -85.708851 
L 164.540411 -85.726803 
L 165.304196 -84.865986 
L 166.067981 -83.293143 
L 166.831766 -82.982089 
L 167.595551 -84.109441 
L 168.359336 -84.031425 
L 169.123121 -83.944145 
L 169.886906 -84.444807 
L 170.650691 -85.364574 
L 171.414476 -86.229605 
L 172.178261 -86.467667 
L 172.942045 -87.178174 
L 172.942045 -97.062387 
L 172.942045 -97.062387 
L 172.178261 -96.583958 
L 171.414476 -96.10608 
L 170.650691 -95.282042 
L 169.886906 -94.419405 
L 169.123121 -93.881933 
L 168.359336 -94.14503 
L 167.595551 -93.813274 
L 166.831766 -92.487573 
L 166.067981 -92.754697 
L 165.304196 -94.179923 
L 164.540411 -94.720726 
L 163.776627 -94.772311 
L 163.012842 -94.18024 
L 162.249057 -95.155201 
L 161.485272 -96.620756 
L 160.721487 -96.407034 
L 159.957702 -96.347033 
L 159.193917 -96.416523 
L 158.430132 -96.091922 
L 157.666347 -95.90524 
L 156.902562 -96.340757 
L 156.138777 -96.500087 
L 155.374993 -96.54488 
L 154.611208 -96.353132 
L 153.847423 -96.768238 
L 153.083638 -97.213697 
L 152.319853 -97.292742 
L 151.556068 -97.968311 
L 150.792283 -98.351708 
L 150.028498 -98.702507 
L 149.264713 -99.251398 
L 148.500928 -100.922392 
L 147.737143 -101.983397 
L 146.973359 -102.857897 
L 146.209574 -103.537359 
L 145.445789 -104.002281 
L 144.682004 -104.868398 
L 143.918219 -105.809107 
L 143.154434 -105.892192 
L 142.390649 -106.71888 
L 141.626864 -106.651489 
L 140.863079 -106.699129 
L 140.099294 -105.336438 
L 139.33551 -106.38941 
L 138.571725 -105.752033 
L 137.80794 -104.337816 
L 137.044155 -102.675607 
L 136.28037 -101.925997 
L 135.516585 -100.474752 
L 134.7528 -100.101718 
L 133.989015 -98.943791 
L 133.22523 -97.846796 
L 132.461445 -96.437158 
L 131.69766 -94.923107 
L 130.933876 -94.066711 
L 130.170091 -92.491042 
L 129.406306 -91.517953 
L 128.642521 -90.596944 
L 127.878736 -89.886138 
L 127.114951 -89.208851 
L 126.351166 -89.367498 
L 125.587381 -89.243437 
L 124.823596 -89.442834 
L 124.059811 -89.112409 
L 123.296026 -89.321475 
L 122.532242 -88.582173 
L 121.768457 -88.657567 
L 121.004672 -89.61265 
L 120.240887 -90.086325 
L 119.477102 -90.903187 
L 118.713317 -92.31089 
L 117.949532 -92.628095 
L 117.185747 -93.000605 
L 116.421962 -92.368359 
L 115.658177 -92.277487 
L 114.894392 -91.750399 
L 114.130608 -91.762561 
L 113.366823 -90.944 
L 112.603038 -89.877739 
L 111.839253 -88.783247 
L 111.075468 -87.961193 
L 110.311683 -86.884311 
L 109.547898 -84.653051 
L 108.784113 -82.987744 
L 108.020328 -78.818641 
L 107.256543 -75.9819 
L 106.492758 -71.908659 
L 105.728974 -68.336801 
L 104.965189 -65.512217 
L 104.201404 -63.996578 
L 103.437619 -62.833021 
L 102.673834 -62.838924 
L 101.910049 -63.427624 
L 101.146264 -62.632334 
L 100.382479 -62.669594 
L 99.618694 -62.590001 
L 98.854909 -63.639194 
L 98.091124 -66.42352 
L 97.32734 -69.933352 
L 96.563555 -72.635554 
L 95.79977 -74.340012 
L 95.035985 -74.487388 
L 94.2722 -74.470292 
L 93.508415 -75.584317 
L 92.74463 -75.21563 
L 91.980845 -74.304108 
L 91.21706 -72.896007 
L 90.453275 -70.973948 
L 89.68949 -69.893178 
L 88.925706 -67.902594 
L 88.161921 -68.937801 
L 87.398136 -69.818182 
L 86.634351 -68.893492 
L 85.870566 -69.674382 
L 85.106781 -69.424818 
L 84.342996 -68.498678 
L 83.579211 -69.141856 
L 82.815426 -69.300496 
L 82.051641 -70.344999 
L 81.287857 -70.574249 
L 80.524072 -70.770628 
L 79.760287 -71.091475 
L 78.996502 -70.132938 
L 78.232717 -70.685041 
L 77.468932 -70.467399 
L 76.705147 -69.673872 
L 75.941362 -69.661958 
L 75.177577 -69.955508 
L 74.413792 -69.421113 
L 73.650007 -68.937104 
L 72.886223 -67.793335 
L 72.122438 -66.276776 
L 71.358653 -65.130192 
L 70.594868 -65.201612 
L 69.831083 -65.444903 
L 69.067298 -65.927073 
L 68.303513 -66.223387 
L 67.539728 -66.657149 
L 66.775943 -67.288153 
L 66.012158 -68.33691 
L 65.248373 -69.401834 
L 64.484589 -69.402203 
L 63.720804 -69.896237 
L 62.957019 -70.913825 
L 62.193234 -69.597053 
L 61.429449 -68.56982 
L 60.665664 -67.492491 
L 59.901879 -66.25782 
L 59.138094 -65.358264 
L 58.374309 -64.563829 
L 57.610524 -63.782125 
L 56.846739 -63.355023 
L 56.082955 -63.44376 
z
" style="stroke: #00ffff; stroke-opacity: 0.2"/>
    </defs>
    <g clip-path="url(#p923240f41c)">
     <use xlink:href="#m50fb946e61" x="0" y="144" style="fill: #00ffff; fill-opacity: 0.2; stroke: #00ffff; stroke-opacity: 0.2"/>
    </g>
   </g>
   <g id="PolyCollection_2">
    <defs>
     <path id="m5995df47af" d="M 56.082955 -59.048723 
L 56.082955 -54.342517 
L 56.846739 -55.509178 
L 57.610524 -57.323443 
L 58.374309 -58.380057 
L 59.138094 -60.720593 
L 59.901879 -63.087054 
L 60.665664 -64.430778 
L 61.429449 -65.48745 
L 62.193234 -65.927254 
L 62.957019 -66.259985 
L 63.720804 -65.990842 
L 64.484589 -65.837704 
L 65.248373 -66.379873 
L 66.012158 -66.420205 
L 66.775943 -65.435668 
L 67.539728 -64.863138 
L 68.303513 -64.140378 
L 69.067298 -62.853561 
L 69.831083 -61.52671 
L 70.594868 -61.059743 
L 71.358653 -61.026045 
L 72.122438 -61.902434 
L 72.886223 -63.506095 
L 73.650007 -64.291581 
L 74.413792 -64.389749 
L 75.177577 -65.798003 
L 75.941362 -65.499791 
L 76.705147 -66.00878 
L 77.468932 -66.042846 
L 78.232717 -65.119378 
L 78.996502 -65.433731 
L 79.760287 -65.932268 
L 80.524072 -65.660948 
L 81.287857 -64.737502 
L 82.051641 -64.809438 
L 82.815426 -63.395747 
L 83.579211 -63.400161 
L 84.342996 -64.665443 
L 85.106781 -65.529061 
L 85.870566 -65.591337 
L 86.634351 -65.723841 
L 87.398136 -64.993989 
L 88.161921 -63.533056 
L 88.925706 -63.021716 
L 89.68949 -63.194583 
L 90.453275 -63.108819 
L 91.21706 -63.119651 
L 91.980845 -63.705123 
L 92.74463 -63.005369 
L 93.508415 -61.753875 
L 94.2722 -60.660371 
L 95.035985 -60.265165 
L 95.79977 -61.137901 
L 96.563555 -60.062242 
L 97.32734 -57.168561 
L 98.091124 -54.152114 
L 98.854909 -51.435519 
L 99.618694 -51.124556 
L 100.382479 -51.417115 
L 101.146264 -51.73427 
L 101.910049 -51.70684 
L 102.673834 -51.829413 
L 103.437619 -52.15228 
L 104.201404 -54.407145 
L 104.965189 -56.403553 
L 105.728974 -59.382863 
L 106.492758 -63.351772 
L 107.256543 -66.927858 
L 108.020328 -70.46655 
L 108.784113 -73.80212 
L 109.547898 -76.331781 
L 110.311683 -77.535484 
L 111.075468 -78.463624 
L 111.839253 -79.536152 
L 112.603038 -80.990374 
L 113.366823 -81.992762 
L 114.130608 -81.767139 
L 114.894392 -82.04059 
L 115.658177 -82.46005 
L 116.421962 -82.701119 
L 117.185747 -82.26345 
L 117.949532 -82.819248 
L 118.713317 -83.366587 
L 119.477102 -82.944954 
L 120.240887 -82.418794 
L 121.004672 -81.639177 
L 121.768457 -80.979734 
L 122.532242 -80.309828 
L 123.296026 -80.092903 
L 124.059811 -79.708953 
L 124.823596 -79.419056 
L 125.587381 -79.199029 
L 126.351166 -80.130421 
L 127.114951 -80.690592 
L 127.878736 -81.909401 
L 128.642521 -83.27867 
L 129.406306 -84.081933 
L 130.170091 -84.721037 
L 130.933876 -86.295482 
L 131.69766 -87.351741 
L 132.461445 -88.84582 
L 133.22523 -90.798991 
L 133.989015 -91.904141 
L 134.7528 -93.937484 
L 135.516585 -95.574494 
L 136.28037 -96.19058 
L 137.044155 -97.153864 
L 137.80794 -96.912537 
L 138.571725 -97.819223 
L 139.33551 -97.794025 
L 140.099294 -98.207353 
L 140.863079 -98.322164 
L 141.626864 -98.39837 
L 142.390649 -98.314501 
L 143.154434 -98.516803 
L 143.918219 -97.79059 
L 144.682004 -97.241355 
L 145.445789 -96.682294 
L 146.209574 -95.851166 
L 146.973359 -95.239272 
L 147.737143 -95.448239 
L 148.500928 -95.534271 
L 149.264713 -94.525873 
L 150.028498 -93.286656 
L 150.792283 -92.268473 
L 151.556068 -91.880205 
L 152.319853 -91.123125 
L 153.083638 -90.535753 
L 153.847423 -89.892509 
L 154.611208 -90.031998 
L 155.374993 -89.42864 
L 156.138777 -88.692546 
L 156.902562 -89.229244 
L 157.666347 -88.925051 
L 158.430132 -89.606921 
L 159.193917 -89.700186 
L 159.957702 -89.048076 
L 160.721487 -89.389501 
L 161.485272 -89.529478 
L 162.249057 -89.466001 
L 163.012842 -88.695624 
L 163.776627 -88.186329 
L 164.540411 -88.312849 
L 165.304196 -88.482308 
L 166.067981 -89.146207 
L 166.831766 -88.820648 
L 167.595551 -88.347931 
L 168.359336 -88.768292 
L 169.123121 -89.238902 
L 169.886906 -89.247112 
L 170.650691 -90.180264 
L 171.414476 -89.727456 
L 172.178261 -90.881388 
L 172.942045 -90.321393 
L 172.942045 -100.686897 
L 172.942045 -100.686897 
L 172.178261 -100.679702 
L 171.414476 -99.654143 
L 170.650691 -100.022023 
L 169.886906 -98.929183 
L 169.123121 -99.04786 
L 168.359336 -98.458152 
L 167.595551 -98.109052 
L 166.831766 -98.316096 
L 166.067981 -98.389453 
L 165.304196 -98.061632 
L 164.540411 -97.76756 
L 163.776627 -97.596095 
L 163.012842 -97.815915 
L 162.249057 -98.145551 
L 161.485272 -98.40269 
L 160.721487 -98.523915 
L 159.957702 -98.181537 
L 159.193917 -98.788879 
L 158.430132 -98.903774 
L 157.666347 -98.506223 
L 156.902562 -99.083267 
L 156.138777 -98.813137 
L 155.374993 -99.55089 
L 154.611208 -99.939443 
L 153.847423 -99.881099 
L 153.083638 -100.691865 
L 152.319853 -100.835658 
L 151.556068 -101.252767 
L 150.792283 -101.688537 
L 150.028498 -102.682085 
L 149.264713 -103.731052 
L 148.500928 -104.728408 
L 147.737143 -104.760262 
L 146.973359 -104.905578 
L 146.209574 -105.64445 
L 145.445789 -106.930709 
L 144.682004 -107.641388 
L 143.918219 -108.413976 
L 143.154434 -109.198828 
L 142.390649 -109.191497 
L 141.626864 -109.072141 
L 140.863079 -109.194375 
L 140.099294 -109.04712 
L 139.33551 -108.610449 
L 138.571725 -108.502422 
L 137.80794 -107.345734 
L 137.044155 -107.272509 
L 136.28037 -106.289723 
L 135.516585 -105.478686 
L 134.7528 -103.939734 
L 133.989015 -102.110135 
L 133.22523 -101.042634 
L 132.461445 -99.374735 
L 131.69766 -98.052425 
L 130.933876 -97.24761 
L 130.170091 -95.628967 
L 129.406306 -94.809499 
L 128.642521 -93.822486 
L 127.878736 -92.1414 
L 127.114951 -90.755363 
L 126.351166 -89.967321 
L 125.587381 -89.256542 
L 124.823596 -89.259704 
L 124.059811 -89.100643 
L 123.296026 -89.309103 
L 122.532242 -89.748538 
L 121.768457 -90.408379 
L 121.004672 -91.086213 
L 120.240887 -92.126094 
L 119.477102 -93.001581 
L 118.713317 -93.255829 
L 117.949532 -92.82302 
L 117.185747 -92.685715 
L 116.421962 -93.368641 
L 115.658177 -93.262984 
L 114.894392 -93.090045 
L 114.130608 -93.274718 
L 113.366823 -93.422975 
L 112.603038 -91.950006 
L 111.839253 -90.13152 
L 111.075468 -88.399438 
L 110.311683 -86.622752 
L 109.547898 -85.351874 
L 108.784113 -81.951224 
L 108.020328 -78.065036 
L 107.256543 -74.302288 
L 106.492758 -70.869585 
L 105.728974 -67.216144 
L 104.965189 -64.842216 
L 104.201404 -63.953453 
L 103.437619 -62.586679 
L 102.673834 -62.70452 
L 101.910049 -63.100498 
L 101.146264 -63.155723 
L 100.382479 -63.41047 
L 99.618694 -63.221241 
L 98.854909 -64.131226 
L 98.091124 -66.806677 
L 97.32734 -69.509027 
L 96.563555 -72.711769 
L 95.79977 -74.019435 
L 95.035985 -73.624982 
L 94.2722 -74.033079 
L 93.508415 -74.438003 
L 92.74463 -73.900717 
L 91.980845 -73.166291 
L 91.21706 -71.464186 
L 90.453275 -71.200109 
L 89.68949 -70.904426 
L 88.925706 -70.059082 
L 88.161921 -70.295504 
L 87.398136 -70.870111 
L 86.634351 -70.615548 
L 85.870566 -70.498932 
L 85.106781 -70.328105 
L 84.342996 -69.270335 
L 83.579211 -68.156247 
L 82.815426 -67.903994 
L 82.051641 -69.154423 
L 81.287857 -69.18833 
L 80.524072 -69.753502 
L 79.760287 -70.031722 
L 78.996502 -70.52421 
L 78.232717 -70.026116 
L 77.468932 -71.122476 
L 76.705147 -71.360585 
L 75.941362 -70.580416 
L 75.177577 -70.890283 
L 74.413792 -69.852264 
L 73.650007 -69.305105 
L 72.886223 -67.717361 
L 72.122438 -66.102291 
L 71.358653 -64.965247 
L 70.594868 -63.992109 
L 69.831083 -64.117484 
L 69.067298 -65.320192 
L 68.303513 -66.438859 
L 67.539728 -67.39013 
L 66.775943 -69.036276 
L 66.012158 -70.697152 
L 65.248373 -71.002265 
L 64.484589 -71.139925 
L 63.720804 -71.589719 
L 62.957019 -71.626249 
L 62.193234 -70.79229 
L 61.429449 -69.670646 
L 60.665664 -67.296826 
L 59.901879 -65.968457 
L 59.138094 -63.533276 
L 58.374309 -61.838677 
L 57.610524 -60.994777 
L 56.846739 -59.907535 
L 56.082955 -59.048723 
z
" style="stroke: #40bfff; stroke-opacity: 0.2"/>
    </defs>
    <g clip-path="url(#p923240f41c)">
     <use xlink:href="#m5995df47af" x="0" y="144" style="fill: #40bfff; fill-opacity: 0.2; stroke: #40bfff; stroke-opacity: 0.2"/>
    </g>
   </g>
   <g id="PolyCollection_3">
    <defs>
     <path id="m4ce0fe3b00" d="M 56.082955 -63.25008 
L 56.082955 -58.958513 
L 56.846739 -60.070185 
L 57.610524 -60.343225 
L 58.374309 -60.754404 
L 59.138094 -62.147434 
L 59.901879 -63.999142 
L 60.665664 -65.25801 
L 61.429449 -66.172201 
L 62.193234 -66.511671 
L 62.957019 -66.916401 
L 63.720804 -66.679365 
L 64.484589 -65.977408 
L 65.248373 -64.844523 
L 66.012158 -63.593882 
L 66.775943 -62.634297 
L 67.539728 -61.272809 
L 68.303513 -59.881692 
L 69.067298 -59.637588 
L 69.831083 -60.381883 
L 70.594868 -61.090953 
L 71.358653 -61.589112 
L 72.122438 -62.933007 
L 72.886223 -63.501447 
L 73.650007 -64.495394 
L 74.413792 -65.180411 
L 75.177577 -65.802734 
L 75.941362 -66.145175 
L 76.705147 -66.640706 
L 77.468932 -66.017058 
L 78.232717 -66.192754 
L 78.996502 -65.905067 
L 79.760287 -66.621113 
L 80.524072 -66.887321 
L 81.287857 -66.355538 
L 82.051641 -65.544741 
L 82.815426 -64.681248 
L 83.579211 -63.988881 
L 84.342996 -64.290747 
L 85.106781 -65.339246 
L 85.870566 -66.013272 
L 86.634351 -66.752565 
L 87.398136 -66.335072 
L 88.161921 -65.369603 
L 88.925706 -64.507188 
L 89.68949 -65.194193 
L 90.453275 -66.429515 
L 91.21706 -67.276303 
L 91.980845 -68.055849 
L 92.74463 -67.866603 
L 93.508415 -66.453714 
L 94.2722 -64.946455 
L 95.035985 -63.360733 
L 95.79977 -61.802581 
L 96.563555 -59.855805 
L 97.32734 -56.090515 
L 98.091124 -52.085959 
L 98.854909 -48.457362 
L 99.618694 -46.890028 
L 100.382479 -46.298182 
L 101.146264 -47.268038 
L 101.910049 -47.883957 
L 102.673834 -49.038962 
L 103.437619 -50.328853 
L 104.201404 -51.636749 
L 104.965189 -54.56071 
L 105.728974 -57.550914 
L 106.492758 -61.256681 
L 107.256543 -65.372689 
L 108.020328 -68.982181 
L 108.784113 -72.224693 
L 109.547898 -74.046934 
L 110.311683 -76.033238 
L 111.075468 -77.434995 
L 111.839253 -79.05176 
L 112.603038 -79.940855 
L 113.366823 -80.818019 
L 114.130608 -81.906818 
L 114.894392 -82.528502 
L 115.658177 -82.993406 
L 116.421962 -83.207182 
L 117.185747 -84.419641 
L 117.949532 -84.29513 
L 118.713317 -84.08476 
L 119.477102 -84.175559 
L 120.240887 -83.910382 
L 121.004672 -83.476808 
L 121.768457 -83.05173 
L 122.532242 -81.78676 
L 123.296026 -82.027884 
L 124.059811 -81.50017 
L 124.823596 -81.709462 
L 125.587381 -82.214913 
L 126.351166 -82.105368 
L 127.114951 -81.853479 
L 127.878736 -81.846095 
L 128.642521 -82.961558 
L 129.406306 -84.171327 
L 130.170091 -85.473047 
L 130.933876 -87.338379 
L 131.69766 -88.076659 
L 132.461445 -88.918345 
L 133.22523 -90.842173 
L 133.989015 -91.854225 
L 134.7528 -93.169293 
L 135.516585 -93.833839 
L 136.28037 -94.942822 
L 137.044155 -95.292699 
L 137.80794 -96.107752 
L 138.571725 -97.448656 
L 139.33551 -97.590569 
L 140.099294 -98.063114 
L 140.863079 -98.828091 
L 141.626864 -98.971622 
L 142.390649 -99.052097 
L 143.154434 -99.350318 
L 143.918219 -98.738983 
L 144.682004 -99.352891 
L 145.445789 -98.841995 
L 146.209574 -97.80318 
L 146.973359 -97.830588 
L 147.737143 -97.848534 
L 148.500928 -96.955517 
L 149.264713 -95.872579 
L 150.028498 -94.689527 
L 150.792283 -93.25338 
L 151.556068 -92.170444 
L 152.319853 -91.090991 
L 153.083638 -90.271062 
L 153.847423 -90.148889 
L 154.611208 -90.212055 
L 155.374993 -91.092182 
L 156.138777 -91.185915 
L 156.902562 -90.979873 
L 157.666347 -91.318854 
L 158.430132 -91.878357 
L 159.193917 -91.216408 
L 159.957702 -91.646251 
L 160.721487 -92.32972 
L 161.485272 -91.89368 
L 162.249057 -91.860833 
L 163.012842 -91.883575 
L 163.776627 -92.000477 
L 164.540411 -91.062235 
L 165.304196 -90.977301 
L 166.067981 -90.679059 
L 166.831766 -90.473282 
L 167.595551 -91.179549 
L 168.359336 -91.603603 
L 169.123121 -91.459717 
L 169.886906 -91.182023 
L 170.650691 -91.874684 
L 171.414476 -92.068517 
L 172.178261 -92.004851 
L 172.942045 -91.856366 
L 172.942045 -102.848487 
L 172.942045 -102.848487 
L 172.178261 -102.959554 
L 171.414476 -102.436464 
L 170.650691 -102.088872 
L 169.886906 -101.313169 
L 169.123121 -101.344857 
L 168.359336 -101.117031 
L 167.595551 -100.687582 
L 166.831766 -100.017583 
L 166.067981 -100.325032 
L 165.304196 -100.502118 
L 164.540411 -100.391627 
L 163.776627 -101.168804 
L 163.012842 -100.964373 
L 162.249057 -101.070048 
L 161.485272 -100.915463 
L 160.721487 -101.54539 
L 159.957702 -101.212282 
L 159.193917 -100.962295 
L 158.430132 -101.388205 
L 157.666347 -100.766367 
L 156.902562 -100.572867 
L 156.138777 -100.510688 
L 155.374993 -100.40313 
L 154.611208 -99.67515 
L 153.847423 -99.819987 
L 153.083638 -100.006863 
L 152.319853 -100.999602 
L 151.556068 -101.821281 
L 150.792283 -102.865743 
L 150.028498 -104.158825 
L 149.264713 -105.284695 
L 148.500928 -106.529493 
L 147.737143 -107.613571 
L 146.973359 -107.587706 
L 146.209574 -107.806476 
L 145.445789 -108.980545 
L 144.682004 -109.270072 
L 143.918219 -109.080773 
L 143.154434 -109.913557 
L 142.390649 -109.814877 
L 141.626864 -109.745464 
L 140.863079 -109.787386 
L 140.099294 -108.961573 
L 139.33551 -108.42718 
L 138.571725 -108.208109 
L 137.80794 -106.819906 
L 137.044155 -105.705989 
L 136.28037 -105.324686 
L 135.516585 -104.358431 
L 134.7528 -103.647428 
L 133.989015 -102.429346 
L 133.22523 -101.492924 
L 132.461445 -99.529589 
L 131.69766 -98.98907 
L 130.933876 -98.316989 
L 130.170091 -96.528226 
L 129.406306 -95.357014 
L 128.642521 -93.533074 
L 127.878736 -91.904557 
L 127.114951 -91.526537 
L 126.351166 -91.748447 
L 125.587381 -91.907016 
L 124.823596 -91.088419 
L 124.059811 -90.719944 
L 123.296026 -91.266909 
L 122.532242 -91.010437 
L 121.768457 -92.35271 
L 121.004672 -93.054359 
L 120.240887 -93.523507 
L 119.477102 -93.891989 
L 118.713317 -94.51739 
L 117.949532 -95.040224 
L 117.185747 -95.265193 
L 116.421962 -94.486387 
L 115.658177 -94.821928 
L 114.894392 -94.867702 
L 114.130608 -94.534135 
L 113.366823 -93.625994 
L 112.603038 -92.170637 
L 111.839253 -90.756954 
L 111.075468 -87.956385 
L 110.311683 -85.704305 
L 109.547898 -83.079867 
L 108.784113 -80.51656 
L 108.020328 -76.783786 
L 107.256543 -72.99353 
L 106.492758 -68.688125 
L 105.728974 -65.538609 
L 104.965189 -63.214111 
L 104.201404 -60.984772 
L 103.437619 -60.099411 
L 102.673834 -59.592192 
L 101.910049 -58.934751 
L 101.146264 -58.562059 
L 100.382479 -57.951204 
L 99.618694 -59.007722 
L 98.854909 -60.692824 
L 98.091124 -64.25345 
L 97.32734 -68.45669 
L 96.563555 -72.33867 
L 95.79977 -74.606401 
L 95.035985 -75.982567 
L 94.2722 -77.004815 
L 93.508415 -77.625845 
L 92.74463 -77.395482 
L 91.980845 -76.152313 
L 91.21706 -74.266824 
L 90.453275 -72.819869 
L 89.68949 -71.217461 
L 88.925706 -70.3663 
L 88.161921 -70.64011 
L 87.398136 -71.401166 
L 86.634351 -71.54998 
L 85.870566 -70.8055 
L 85.106781 -70.331595 
L 84.342996 -69.26819 
L 83.579211 -69.252042 
L 82.815426 -69.828485 
L 82.051641 -70.706847 
L 81.287857 -71.475355 
L 80.524072 -71.848374 
L 79.760287 -71.723114 
L 78.996502 -71.131395 
L 78.232717 -71.544358 
L 77.468932 -71.640622 
L 76.705147 -72.030334 
L 75.941362 -71.275055 
L 75.177577 -70.934825 
L 74.413792 -70.556715 
L 73.650007 -69.359489 
L 72.886223 -67.929022 
L 72.122438 -67.227348 
L 71.358653 -65.840344 
L 70.594868 -64.803197 
L 69.831083 -64.287679 
L 69.067298 -63.501747 
L 68.303513 -63.535881 
L 67.539728 -64.552887 
L 66.775943 -65.659186 
L 66.012158 -66.457252 
L 65.248373 -68.240234 
L 64.484589 -70.021677 
L 63.720804 -70.800251 
L 62.957019 -71.15703 
L 62.193234 -70.558636 
L 61.429449 -70.130412 
L 60.665664 -69.075647 
L 59.901879 -67.624753 
L 59.138094 -66.232735 
L 58.374309 -64.89122 
L 57.610524 -64.399475 
L 56.846739 -64.286094 
L 56.082955 -63.25008 
z
" style="stroke: #807fff; stroke-opacity: 0.2"/>
    </defs>
    <g clip-path="url(#p923240f41c)">
     <use xlink:href="#m4ce0fe3b00" x="0" y="144" style="fill: #807fff; fill-opacity: 0.2; stroke: #807fff; stroke-opacity: 0.2"/>
    </g>
   </g>
   <g id="PolyCollection_4">
    <defs>
     <path id="m486f240d02" d="M 56.082955 -62.224257 
L 56.082955 -58.050005 
L 56.846739 -58.857655 
L 57.610524 -59.381648 
L 58.374309 -60.336412 
L 59.138094 -60.536405 
L 59.901879 -62.108698 
L 60.665664 -63.840035 
L 61.429449 -64.56441 
L 62.193234 -65.233572 
L 62.957019 -65.82751 
L 63.720804 -65.011847 
L 64.484589 -64.844114 
L 65.248373 -64.662425 
L 66.012158 -64.241928 
L 66.775943 -63.560017 
L 67.539728 -63.189533 
L 68.303513 -62.931189 
L 69.067298 -62.409981 
L 69.831083 -62.307159 
L 70.594868 -61.795132 
L 71.358653 -62.75651 
L 72.122438 -63.998035 
L 72.886223 -64.884038 
L 73.650007 -65.674268 
L 74.413792 -67.064932 
L 75.177577 -67.270143 
L 75.941362 -66.715752 
L 76.705147 -67.154321 
L 77.468932 -67.403367 
L 78.232717 -66.688792 
L 78.996502 -65.834718 
L 79.760287 -66.35317 
L 80.524072 -67.404389 
L 81.287857 -67.418063 
L 82.051641 -66.651371 
L 82.815426 -65.507493 
L 83.579211 -65.090073 
L 84.342996 -64.73079 
L 85.106781 -65.540162 
L 85.870566 -64.762681 
L 86.634351 -63.919006 
L 87.398136 -65.100477 
L 88.161921 -64.6058 
L 88.925706 -62.991791 
L 89.68949 -64.03006 
L 90.453275 -64.937554 
L 91.21706 -65.798616 
L 91.980845 -67.592362 
L 92.74463 -67.839884 
L 93.508415 -65.943339 
L 94.2722 -64.091946 
L 95.035985 -62.460713 
L 95.79977 -61.201727 
L 96.563555 -59.506827 
L 97.32734 -56.845113 
L 98.091124 -53.5824 
L 98.854909 -51.371925 
L 99.618694 -49.920062 
L 100.382479 -49.68629 
L 101.146264 -50.60521 
L 101.910049 -51.16038 
L 102.673834 -51.536651 
L 103.437619 -52.001092 
L 104.201404 -53.359587 
L 104.965189 -55.998608 
L 105.728974 -59.673169 
L 106.492758 -63.613185 
L 107.256543 -66.94262 
L 108.020328 -70.34189 
L 108.784113 -72.335839 
L 109.547898 -73.981736 
L 110.311683 -74.866885 
L 111.075468 -76.630966 
L 111.839253 -77.580296 
L 112.603038 -77.842097 
L 113.366823 -79.103701 
L 114.130608 -80.316441 
L 114.894392 -80.884793 
L 115.658177 -81.302925 
L 116.421962 -82.346305 
L 117.185747 -82.416361 
L 117.949532 -82.605287 
L 118.713317 -83.034483 
L 119.477102 -83.518052 
L 120.240887 -83.373182 
L 121.004672 -82.946681 
L 121.768457 -83.035892 
L 122.532242 -82.378297 
L 123.296026 -81.886954 
L 124.059811 -82.916244 
L 124.823596 -83.459457 
L 125.587381 -83.292659 
L 126.351166 -84.295731 
L 127.114951 -84.989662 
L 127.878736 -85.606106 
L 128.642521 -86.31682 
L 129.406306 -87.917751 
L 130.170091 -88.927539 
L 130.933876 -89.556794 
L 131.69766 -90.147326 
L 132.461445 -90.751396 
L 133.22523 -91.751252 
L 133.989015 -94.054316 
L 134.7528 -94.602506 
L 135.516585 -95.516301 
L 136.28037 -96.74944 
L 137.044155 -98.602484 
L 137.80794 -98.498599 
L 138.571725 -99.305218 
L 139.33551 -100.374692 
L 140.099294 -101.178319 
L 140.863079 -101.625951 
L 141.626864 -101.88453 
L 142.390649 -100.88874 
L 143.154434 -100.76623 
L 143.918219 -100.771623 
L 144.682004 -100.095986 
L 145.445789 -99.407101 
L 146.209574 -98.728331 
L 146.973359 -98.41531 
L 147.737143 -97.809584 
L 148.500928 -96.802518 
L 149.264713 -95.91329 
L 150.028498 -94.801313 
L 150.792283 -94.270925 
L 151.556068 -93.289423 
L 152.319853 -92.043524 
L 153.083638 -91.787294 
L 153.847423 -92.220198 
L 154.611208 -91.505515 
L 155.374993 -91.694292 
L 156.138777 -91.767662 
L 156.902562 -91.181077 
L 157.666347 -90.811269 
L 158.430132 -91.426455 
L 159.193917 -90.529608 
L 159.957702 -90.995629 
L 160.721487 -91.614739 
L 161.485272 -91.904847 
L 162.249057 -92.437583 
L 163.012842 -93.174248 
L 163.776627 -93.007801 
L 164.540411 -92.250064 
L 165.304196 -92.024482 
L 166.067981 -92.331068 
L 166.831766 -92.211134 
L 167.595551 -91.835197 
L 168.359336 -92.0443 
L 169.123121 -93.40403 
L 169.886906 -93.291569 
L 170.650691 -93.95042 
L 171.414476 -93.758832 
L 172.178261 -93.768583 
L 172.942045 -94.037831 
L 172.942045 -103.791891 
L 172.942045 -103.791891 
L 172.178261 -103.485046 
L 171.414476 -103.080929 
L 170.650691 -103.6259 
L 169.886906 -102.711877 
L 169.123121 -102.61884 
L 168.359336 -101.224264 
L 167.595551 -100.812102 
L 166.831766 -101.01613 
L 166.067981 -101.308417 
L 165.304196 -100.950548 
L 164.540411 -101.284808 
L 163.776627 -101.973927 
L 163.012842 -102.138607 
L 162.249057 -101.429271 
L 161.485272 -101.009722 
L 160.721487 -100.927172 
L 159.957702 -100.565943 
L 159.193917 -100.317855 
L 158.430132 -101.289777 
L 157.666347 -100.783826 
L 156.902562 -101.438495 
L 156.138777 -102.065466 
L 155.374993 -101.7689 
L 154.611208 -101.314178 
L 153.847423 -101.643598 
L 153.083638 -101.194087 
L 152.319853 -101.461796 
L 151.556068 -102.743477 
L 150.792283 -103.906911 
L 150.028498 -104.478621 
L 149.264713 -105.702985 
L 148.500928 -106.28448 
L 147.737143 -107.755427 
L 146.973359 -108.627924 
L 146.209574 -109.137826 
L 145.445789 -109.81467 
L 144.682004 -110.848402 
L 143.918219 -111.686066 
L 143.154434 -112.073492 
L 142.390649 -112.161739 
L 141.626864 -113.600632 
L 140.863079 -113.102523 
L 140.099294 -112.740085 
L 139.33551 -112.156823 
L 138.571725 -110.911533 
L 137.80794 -110.039374 
L 137.044155 -110.157862 
L 136.28037 -108.001144 
L 135.516585 -106.768027 
L 134.7528 -105.672277 
L 133.989015 -105.249425 
L 133.22523 -103.195346 
L 132.461445 -102.169366 
L 131.69766 -101.421725 
L 130.933876 -101.02174 
L 130.170091 -100.301849 
L 129.406306 -99.587461 
L 128.642521 -97.604404 
L 127.878736 -96.693255 
L 127.114951 -95.896476 
L 126.351166 -95.083061 
L 125.587381 -94.251329 
L 124.823596 -94.089907 
L 124.059811 -93.676244 
L 123.296026 -93.021004 
L 122.532242 -93.568288 
L 121.768457 -94.331221 
L 121.004672 -94.23992 
L 120.240887 -95.14892 
L 119.477102 -95.209526 
L 118.713317 -94.708516 
L 117.949532 -94.517709 
L 117.185747 -94.779979 
L 116.421962 -95.025024 
L 115.658177 -94.281389 
L 114.894392 -93.848221 
L 114.130608 -93.774885 
L 113.366823 -92.179779 
L 112.603038 -90.726745 
L 111.839253 -89.151973 
L 111.075468 -87.41797 
L 110.311683 -85.432431 
L 109.547898 -83.223658 
L 108.784113 -80.833775 
L 108.020328 -77.777895 
L 107.256543 -73.820418 
L 106.492758 -70.341861 
L 105.728974 -66.663429 
L 104.965189 -63.799147 
L 104.201404 -61.861945 
L 103.437619 -61.142702 
L 102.673834 -61.62771 
L 101.910049 -61.685856 
L 101.146264 -61.312955 
L 100.382479 -60.855956 
L 99.618694 -61.326502 
L 98.854909 -63.139494 
L 98.091124 -65.917328 
L 97.32734 -69.762353 
L 96.563555 -72.788006 
L 95.79977 -74.645826 
L 95.035985 -75.646054 
L 94.2722 -76.48665 
L 93.508415 -77.128942 
L 92.74463 -77.134286 
L 91.980845 -75.125336 
L 91.21706 -72.519583 
L 90.453275 -70.958628 
L 89.68949 -69.431086 
L 88.925706 -68.100772 
L 88.161921 -69.329508 
L 87.398136 -70.041071 
L 86.634351 -69.482828 
L 85.870566 -69.831612 
L 85.106781 -70.02913 
L 84.342996 -69.002912 
L 83.579211 -69.447291 
L 82.815426 -69.502231 
L 82.051641 -70.323323 
L 81.287857 -71.152477 
L 80.524072 -71.273288 
L 79.760287 -70.33379 
L 78.996502 -69.888507 
L 78.232717 -70.754716 
L 77.468932 -71.395682 
L 76.705147 -71.149889 
L 75.941362 -71.068892 
L 75.177577 -71.665832 
L 74.413792 -71.36349 
L 73.650007 -69.913786 
L 72.886223 -68.691898 
L 72.122438 -67.633989 
L 71.358653 -66.227504 
L 70.594868 -65.758696 
L 69.831083 -65.783839 
L 69.067298 -65.729686 
L 68.303513 -65.758009 
L 67.539728 -66.024709 
L 66.775943 -66.607342 
L 66.012158 -67.864819 
L 65.248373 -68.153143 
L 64.484589 -68.516877 
L 63.720804 -69.25792 
L 62.957019 -70.051848 
L 62.193234 -69.196449 
L 61.429449 -68.623424 
L 60.665664 -67.053397 
L 59.901879 -64.621622 
L 59.138094 -63.030869 
L 58.374309 -63.32116 
L 57.610524 -62.810473 
L 56.846739 -62.784533 
L 56.082955 -62.224257 
z
" style="stroke: #c03fff; stroke-opacity: 0.2"/>
    </defs>
    <g clip-path="url(#p923240f41c)">
     <use xlink:href="#m486f240d02" x="0" y="144" style="fill: #c03fff; fill-opacity: 0.2; stroke: #c03fff; stroke-opacity: 0.2"/>
    </g>
   </g>
   <g id="PolyCollection_5">
    <defs>
     <path id="ma032f3d556" d="M 56.082955 -61.907906 
L 56.082955 -57.338918 
L 56.846739 -57.853278 
L 57.610524 -59.036227 
L 58.374309 -60.280081 
L 59.138094 -61.911107 
L 59.901879 -62.358711 
L 60.665664 -63.755287 
L 61.429449 -65.037751 
L 62.193234 -65.13588 
L 62.957019 -65.613712 
L 63.720804 -64.946967 
L 64.484589 -64.934744 
L 65.248373 -64.695042 
L 66.012158 -63.830694 
L 66.775943 -62.995854 
L 67.539728 -62.472379 
L 68.303513 -62.491323 
L 69.067298 -62.767413 
L 69.831083 -62.921981 
L 70.594868 -63.343878 
L 71.358653 -64.079295 
L 72.122438 -64.581428 
L 72.886223 -64.905648 
L 73.650007 -64.924878 
L 74.413792 -65.103843 
L 75.177577 -64.746074 
L 75.941362 -64.820333 
L 76.705147 -64.277871 
L 77.468932 -63.934655 
L 78.232717 -64.075577 
L 78.996502 -65.273419 
L 79.760287 -65.694176 
L 80.524072 -66.425679 
L 81.287857 -66.480026 
L 82.051641 -65.438353 
L 82.815426 -66.053552 
L 83.579211 -66.213724 
L 84.342996 -65.875843 
L 85.106781 -66.016658 
L 85.870566 -66.677564 
L 86.634351 -66.203276 
L 87.398136 -66.007902 
L 88.161921 -65.37966 
L 88.925706 -62.981406 
L 89.68949 -62.778983 
L 90.453275 -62.769149 
L 91.21706 -62.406113 
L 91.980845 -63.778379 
L 92.74463 -63.289884 
L 93.508415 -62.619093 
L 94.2722 -60.918785 
L 95.035985 -59.522281 
L 95.79977 -59.425523 
L 96.563555 -58.207289 
L 97.32734 -56.112403 
L 98.091124 -53.478536 
L 98.854909 -50.244378 
L 99.618694 -48.794728 
L 100.382479 -48.625976 
L 101.146264 -49.57855 
L 101.910049 -50.795545 
L 102.673834 -50.934374 
L 103.437619 -52.695433 
L 104.201404 -55.173992 
L 104.965189 -57.914605 
L 105.728974 -60.639119 
L 106.492758 -64.777632 
L 107.256543 -67.895627 
L 108.020328 -71.362617 
L 108.784113 -74.805799 
L 109.547898 -76.116552 
L 110.311683 -77.849273 
L 111.075468 -79.025885 
L 111.839253 -80.147326 
L 112.603038 -81.692443 
L 113.366823 -82.843273 
L 114.130608 -84.036895 
L 114.894392 -85.340935 
L 115.658177 -85.855346 
L 116.421962 -87.082089 
L 117.185747 -87.947664 
L 117.949532 -87.961523 
L 118.713317 -87.730343 
L 119.477102 -88.012434 
L 120.240887 -88.212318 
L 121.004672 -87.510362 
L 121.768457 -87.982709 
L 122.532242 -87.299516 
L 123.296026 -87.437709 
L 124.059811 -87.844037 
L 124.823596 -87.537177 
L 125.587381 -87.403073 
L 126.351166 -87.866775 
L 127.114951 -88.1624 
L 127.878736 -88.95245 
L 128.642521 -90.002071 
L 129.406306 -91.380973 
L 130.170091 -91.073472 
L 130.933876 -91.540022 
L 131.69766 -92.916584 
L 132.461445 -94.296155 
L 133.22523 -95.242765 
L 133.989015 -97.250931 
L 134.7528 -99.787544 
L 135.516585 -101.114171 
L 136.28037 -102.004625 
L 137.044155 -103.272515 
L 137.80794 -103.540052 
L 138.571725 -103.595369 
L 139.33551 -104.193638 
L 140.099294 -105.685485 
L 140.863079 -105.807596 
L 141.626864 -105.623131 
L 142.390649 -106.319678 
L 143.154434 -105.906736 
L 143.918219 -104.953583 
L 144.682004 -104.74397 
L 145.445789 -103.922918 
L 146.209574 -103.956593 
L 146.973359 -102.689812 
L 147.737143 -102.355585 
L 148.500928 -100.414712 
L 149.264713 -99.612526 
L 150.028498 -98.934457 
L 150.792283 -97.419484 
L 151.556068 -96.700427 
L 152.319853 -95.891111 
L 153.083638 -94.852643 
L 153.847423 -94.022511 
L 154.611208 -94.783321 
L 155.374993 -94.462558 
L 156.138777 -94.128591 
L 156.902562 -95.349796 
L 157.666347 -94.340716 
L 158.430132 -94.231566 
L 159.193917 -94.532365 
L 159.957702 -94.355981 
L 160.721487 -93.971074 
L 161.485272 -94.453958 
L 162.249057 -93.867698 
L 163.012842 -93.824 
L 163.776627 -93.964743 
L 164.540411 -94.234176 
L 165.304196 -93.659422 
L 166.067981 -93.615663 
L 166.831766 -93.624511 
L 167.595551 -93.852 
L 168.359336 -93.488361 
L 169.123121 -94.278595 
L 169.886906 -94.512143 
L 170.650691 -94.699597 
L 171.414476 -95.836233 
L 172.178261 -96.629936 
L 172.942045 -96.869041 
L 172.942045 -108.156531 
L 172.942045 -108.156531 
L 172.178261 -107.525694 
L 171.414476 -106.739627 
L 170.650691 -105.502514 
L 169.886906 -104.947473 
L 169.123121 -104.585327 
L 168.359336 -103.96934 
L 167.595551 -104.03655 
L 166.831766 -103.392976 
L 166.067981 -103.39995 
L 165.304196 -103.443521 
L 164.540411 -103.881736 
L 163.776627 -103.99178 
L 163.012842 -103.893635 
L 162.249057 -103.919157 
L 161.485272 -104.704028 
L 160.721487 -104.423473 
L 159.957702 -104.815215 
L 159.193917 -104.858307 
L 158.430132 -104.476308 
L 157.666347 -104.27063 
L 156.902562 -105.342556 
L 156.138777 -103.914569 
L 155.374993 -103.998753 
L 154.611208 -104.165934 
L 153.847423 -103.902625 
L 153.083638 -104.73272 
L 152.319853 -106.046631 
L 151.556068 -106.812035 
L 150.792283 -107.398655 
L 150.028498 -108.796854 
L 149.264713 -109.621625 
L 148.500928 -110.189109 
L 147.737143 -112.313586 
L 146.973359 -112.974631 
L 146.209574 -114.700608 
L 145.445789 -114.6943 
L 144.682004 -116.177604 
L 143.918219 -116.742527 
L 143.154434 -118.247109 
L 142.390649 -118.661818 
L 141.626864 -117.794525 
L 140.863079 -118.240615 
L 140.099294 -118.07344 
L 139.33551 -116.308837 
L 138.571725 -115.201175 
L 137.80794 -115.155322 
L 137.044155 -114.120927 
L 136.28037 -112.66997 
L 135.516585 -111.709044 
L 134.7528 -110.544783 
L 133.989015 -108.657703 
L 133.22523 -106.88681 
L 132.461445 -105.952352 
L 131.69766 -104.765567 
L 130.933876 -103.430153 
L 130.170091 -102.83097 
L 129.406306 -103.02065 
L 128.642521 -101.854627 
L 127.878736 -100.85298 
L 127.114951 -99.747272 
L 126.351166 -99.431237 
L 125.587381 -98.436688 
L 124.823596 -98.442569 
L 124.059811 -98.740132 
L 123.296026 -98.173953 
L 122.532242 -97.734786 
L 121.768457 -98.552004 
L 121.004672 -97.99866 
L 120.240887 -98.789509 
L 119.477102 -98.85109 
L 118.713317 -98.481753 
L 117.949532 -98.725574 
L 117.185747 -99.043728 
L 116.421962 -98.569683 
L 115.658177 -97.4452 
L 114.894392 -97.064373 
L 114.130608 -95.865887 
L 113.366823 -94.986093 
L 112.603038 -93.524776 
L 111.839253 -91.554722 
L 111.075468 -90.217898 
L 110.311683 -88.58902 
L 109.547898 -85.870052 
L 108.784113 -83.914404 
L 108.020328 -79.635008 
L 107.256543 -75.518004 
L 106.492758 -72.256819 
L 105.728974 -68.544526 
L 104.965189 -66.090666 
L 104.201404 -63.842382 
L 103.437619 -62.071699 
L 102.673834 -60.690758 
L 101.910049 -60.743991 
L 101.146264 -59.949984 
L 100.382479 -59.199824 
L 99.618694 -59.667102 
L 98.854909 -61.590928 
L 98.091124 -65.366725 
L 97.32734 -69.209776 
L 96.563555 -71.967941 
L 95.79977 -73.412475 
L 95.035985 -73.650603 
L 94.2722 -74.261926 
L 93.508415 -74.292907 
L 92.74463 -73.059716 
L 91.980845 -71.11897 
L 91.21706 -68.557503 
L 90.453275 -68.145814 
L 89.68949 -67.253156 
L 88.925706 -67.074439 
L 88.161921 -69.12888 
L 87.398136 -69.6543 
L 86.634351 -69.805704 
L 85.870566 -70.189792 
L 85.106781 -69.727074 
L 84.342996 -69.850175 
L 83.579211 -70.124393 
L 82.815426 -69.801965 
L 82.051641 -69.443875 
L 81.287857 -70.315982 
L 80.524072 -70.761009 
L 79.760287 -70.704006 
L 78.996502 -69.897245 
L 78.232717 -69.174827 
L 77.468932 -69.282104 
L 76.705147 -69.973879 
L 75.941362 -70.53338 
L 75.177577 -70.388234 
L 74.413792 -70.386266 
L 73.650007 -70.043176 
L 72.886223 -69.419759 
L 72.122438 -68.335619 
L 71.358653 -67.410523 
L 70.594868 -66.121655 
L 69.831083 -65.968656 
L 69.067298 -66.178341 
L 68.303513 -66.526282 
L 67.539728 -66.642528 
L 66.775943 -66.989641 
L 66.012158 -67.65267 
L 65.248373 -68.623001 
L 64.484589 -68.574819 
L 63.720804 -68.505825 
L 62.957019 -68.961211 
L 62.193234 -67.918711 
L 61.429449 -67.402927 
L 60.665664 -66.160586 
L 59.901879 -65.117425 
L 59.138094 -65.408337 
L 58.374309 -64.200141 
L 57.610524 -63.382566 
L 56.846739 -62.690539 
L 56.082955 -61.907906 
z
" style="stroke: #ff00ff; stroke-opacity: 0.2"/>
    </defs>
    <g clip-path="url(#p923240f41c)">
     <use xlink:href="#ma032f3d556" x="0" y="144" style="fill: #ff00ff; fill-opacity: 0.2; stroke: #ff00ff; stroke-opacity: 0.2"/>
    </g>
   </g>
   <g id="matplotlib.axis_1">
    <g id="xtick_1">
     <g id="line2d_3">
      <defs>
       <path id="m35c3c10da9" d="M 0 0 
L 0 3.5 
" style="stroke: #000000; stroke-width: 0.8"/>
      </defs>
      <g>
       <use xlink:href="#m35c3c10da9" x="75.635848" y="101.32" style="stroke: #000000; stroke-width: 0.8"/>
      </g>
     </g>
     <g id="text_1">
      <!-- 0.0 -->
      <g transform="translate(67.684286 115.918437) scale(0.1 -0.1)">
       <defs>
        <path id="DejaVuSans-30" d="M 2034 4250 
Q 1547 4250 1301 3770 
Q 1056 3291 1056 2328 
Q 1056 1369 1301 889 
Q 1547 409 2034 409 
Q 2525 409 2770 889 
Q 3016 1369 3016 2328 
Q 3016 3291 2770 3770 
Q 2525 4250 2034 4250 
z
M 2034 4750 
Q 2819 4750 3233 4129 
Q 3647 3509 3647 2328 
Q 3647 1150 3233 529 
Q 2819 -91 2034 -91 
Q 1250 -91 836 529 
Q 422 1150 422 2328 
Q 422 3509 836 4129 
Q 1250 4750 2034 4750 
z
" transform="scale(0.015625)"/>
        <path id="DejaVuSans-2e" d="M 684 794 
L 1344 794 
L 1344 0 
L 684 0 
L 684 794 
z
" transform="scale(0.015625)"/>
       </defs>
       <use xlink:href="#DejaVuSans-30"/>
       <use xlink:href="#DejaVuSans-2e" x="63.623047"/>
       <use xlink:href="#DejaVuSans-30" x="95.410156"/>
      </g>
     </g>
    </g>
    <g id="xtick_2">
     <g id="line2d_4">
      <g>
       <use xlink:href="#m35c3c10da9" x="114.741635" y="101.32" style="stroke: #000000; stroke-width: 0.8"/>
      </g>
     </g>
     <g id="text_2">
      <!-- 0.2 -->
      <g transform="translate(106.790073 115.918437) scale(0.1 -0.1)">
       <defs>
        <path id="DejaVuSans-32" d="M 1228 531 
L 3431 531 
L 3431 0 
L 469 0 
L 469 531 
Q 828 903 1448 1529 
Q 2069 2156 2228 2338 
Q 2531 2678 2651 2914 
Q 2772 3150 2772 3378 
Q 2772 3750 2511 3984 
Q 2250 4219 1831 4219 
Q 1534 4219 1204 4116 
Q 875 4013 500 3803 
L 500 4441 
Q 881 4594 1212 4672 
Q 1544 4750 1819 4750 
Q 2544 4750 2975 4387 
Q 3406 4025 3406 3419 
Q 3406 3131 3298 2873 
Q 3191 2616 2906 2266 
Q 2828 2175 2409 1742 
Q 1991 1309 1228 531 
z
" transform="scale(0.015625)"/>
       </defs>
       <use xlink:href="#DejaVuSans-30"/>
       <use xlink:href="#DejaVuSans-2e" x="63.623047"/>
       <use xlink:href="#DejaVuSans-32" x="95.410156"/>
      </g>
     </g>
    </g>
    <g id="xtick_3">
     <g id="line2d_5">
      <g>
       <use xlink:href="#m35c3c10da9" x="153.847423" y="101.32" style="stroke: #000000; stroke-width: 0.8"/>
      </g>
     </g>
     <g id="text_3">
      <!-- 0.4 -->
      <g transform="translate(145.89586 115.918437) scale(0.1 -0.1)">
       <defs>
        <path id="DejaVuSans-34" d="M 2419 4116 
L 825 1625 
L 2419 1625 
L 2419 4116 
z
M 2253 4666 
L 3047 4666 
L 3047 1625 
L 3713 1625 
L 3713 1100 
L 3047 1100 
L 3047 0 
L 2419 0 
L 2419 1100 
L 313 1100 
L 313 1709 
L 2253 4666 
z
" transform="scale(0.015625)"/>
       </defs>
       <use xlink:href="#DejaVuSans-30"/>
       <use xlink:href="#DejaVuSans-2e" x="63.623047"/>
       <use xlink:href="#DejaVuSans-34" x="95.410156"/>
      </g>
     </g>
    </g>
    <g id="text_4">
     <!-- Time (s) -->
     <g transform="translate(90.117812 131.11625) scale(0.12 -0.12)">
      <defs>
       <path id="DejaVuSans-54" d="M -19 4666 
L 3928 4666 
L 3928 4134 
L 2272 4134 
L 2272 0 
L 1638 0 
L 1638 4134 
L -19 4134 
L -19 4666 
z
" transform="scale(0.015625)"/>
       <path id="DejaVuSans-69" d="M 603 3500 
L 1178 3500 
L 1178 0 
L 603 0 
L 603 3500 
z
M 603 4863 
L 1178 4863 
L 1178 4134 
L 603 4134 
L 603 4863 
z
" transform="scale(0.015625)"/>
       <path id="DejaVuSans-6d" d="M 3328 2828 
Q 3544 3216 3844 3400 
Q 4144 3584 4550 3584 
Q 5097 3584 5394 3201 
Q 5691 2819 5691 2113 
L 5691 0 
L 5113 0 
L 5113 2094 
Q 5113 2597 4934 2840 
Q 4756 3084 4391 3084 
Q 3944 3084 3684 2787 
Q 3425 2491 3425 1978 
L 3425 0 
L 2847 0 
L 2847 2094 
Q 2847 2600 2669 2842 
Q 2491 3084 2119 3084 
Q 1678 3084 1418 2786 
Q 1159 2488 1159 1978 
L 1159 0 
L 581 0 
L 581 3500 
L 1159 3500 
L 1159 2956 
Q 1356 3278 1631 3431 
Q 1906 3584 2284 3584 
Q 2666 3584 2933 3390 
Q 3200 3197 3328 2828 
z
" transform="scale(0.015625)"/>
       <path id="DejaVuSans-65" d="M 3597 1894 
L 3597 1613 
L 953 1613 
Q 991 1019 1311 708 
Q 1631 397 2203 397 
Q 2534 397 2845 478 
Q 3156 559 3463 722 
L 3463 178 
Q 3153 47 2828 -22 
Q 2503 -91 2169 -91 
Q 1331 -91 842 396 
Q 353 884 353 1716 
Q 353 2575 817 3079 
Q 1281 3584 2069 3584 
Q 2775 3584 3186 3129 
Q 3597 2675 3597 1894 
z
M 3022 2063 
Q 3016 2534 2758 2815 
Q 2500 3097 2075 3097 
Q 1594 3097 1305 2825 
Q 1016 2553 972 2059 
L 3022 2063 
z
" transform="scale(0.015625)"/>
       <path id="DejaVuSans-20" transform="scale(0.015625)"/>
       <path id="DejaVuSans-28" d="M 1984 4856 
Q 1566 4138 1362 3434 
Q 1159 2731 1159 2009 
Q 1159 1288 1364 580 
Q 1569 -128 1984 -844 
L 1484 -844 
Q 1016 -109 783 600 
Q 550 1309 550 2009 
Q 550 2706 781 3412 
Q 1013 4119 1484 4856 
L 1984 4856 
z
" transform="scale(0.015625)"/>
       <path id="DejaVuSans-73" d="M 2834 3397 
L 2834 2853 
Q 2591 2978 2328 3040 
Q 2066 3103 1784 3103 
Q 1356 3103 1142 2972 
Q 928 2841 928 2578 
Q 928 2378 1081 2264 
Q 1234 2150 1697 2047 
L 1894 2003 
Q 2506 1872 2764 1633 
Q 3022 1394 3022 966 
Q 3022 478 2636 193 
Q 2250 -91 1575 -91 
Q 1294 -91 989 -36 
Q 684 19 347 128 
L 347 722 
Q 666 556 975 473 
Q 1284 391 1588 391 
Q 1994 391 2212 530 
Q 2431 669 2431 922 
Q 2431 1156 2273 1281 
Q 2116 1406 1581 1522 
L 1381 1569 
Q 847 1681 609 1914 
Q 372 2147 372 2553 
Q 372 3047 722 3315 
Q 1072 3584 1716 3584 
Q 2034 3584 2315 3537 
Q 2597 3491 2834 3397 
z
" transform="scale(0.015625)"/>
       <path id="DejaVuSans-29" d="M 513 4856 
L 1013 4856 
Q 1481 4119 1714 3412 
Q 1947 2706 1947 2009 
Q 1947 1309 1714 600 
Q 1481 -109 1013 -844 
L 513 -844 
Q 928 -128 1133 580 
Q 1338 1288 1338 2009 
Q 1338 2731 1133 3434 
Q 928 4138 513 4856 
z
" transform="scale(0.015625)"/>
      </defs>
      <use xlink:href="#DejaVuSans-54"/>
      <use xlink:href="#DejaVuSans-69" x="57.958984"/>
      <use xlink:href="#DejaVuSans-6d" x="85.742188"/>
      <use xlink:href="#DejaVuSans-65" x="183.154297"/>
      <use xlink:href="#DejaVuSans-20" x="244.677734"/>
      <use xlink:href="#DejaVuSans-28" x="276.464844"/>
      <use xlink:href="#DejaVuSans-73" x="315.478516"/>
      <use xlink:href="#DejaVuSans-29" x="367.578125"/>
     </g>
    </g>
   </g>
   <g id="matplotlib.axis_2">
    <g id="ytick_1">
     <g id="line2d_6">
      <defs>
       <path id="m95f3e530b2" d="M 0 0 
L -3.5 0 
" style="stroke: #000000; stroke-width: 0.8"/>
      </defs>
      <g>
       <use xlink:href="#m95f3e530b2" x="50.24" y="78.725342" style="stroke: #000000; stroke-width: 0.8"/>
      </g>
     </g>
     <g id="text_5">
      <!-- 0 -->
      <g transform="translate(36.8775 82.52456) scale(0.1 -0.1)">
       <use xlink:href="#DejaVuSans-30"/>
      </g>
     </g>
    </g>
    <g id="ytick_2">
     <g id="line2d_7">
      <g>
       <use xlink:href="#m95f3e530b2" x="50.24" y="43.951249" style="stroke: #000000; stroke-width: 0.8"/>
      </g>
     </g>
     <g id="text_6">
      <!-- 2 -->
      <g transform="translate(36.8775 47.750468) scale(0.1 -0.1)">
       <use xlink:href="#DejaVuSans-32"/>
      </g>
     </g>
    </g>
    <g id="text_7">
     <!-- $\mu$V -->
     <g transform="translate(30.3575 69.5) rotate(-90) scale(0.12 -0.12)">
      <defs>
       <path id="DejaVuSans-Oblique-3bc" d="M -84 -1331 
L 856 3500 
L 1434 3500 
L 1009 1322 
Q 997 1256 987 1175 
Q 978 1094 978 1013 
Q 978 722 1161 565 
Q 1344 409 1684 409 
Q 2147 409 2431 671 
Q 2716 934 2816 1459 
L 3213 3500 
L 3788 3500 
L 3266 809 
Q 3253 750 3248 706 
Q 3244 663 3244 628 
Q 3244 531 3283 486 
Q 3322 441 3406 441 
Q 3438 441 3492 456 
Q 3547 472 3647 513 
L 3559 50 
Q 3422 -19 3297 -55 
Q 3172 -91 3053 -91 
Q 2847 -91 2730 40 
Q 2613 172 2613 403 
Q 2438 153 2195 31 
Q 1953 -91 1625 -91 
Q 1334 -91 1117 43 
Q 900 178 831 397 
L 494 -1331 
L -84 -1331 
z
" transform="scale(0.015625)"/>
       <path id="DejaVuSans-56" d="M 1831 0 
L 50 4666 
L 709 4666 
L 2188 738 
L 3669 4666 
L 4325 4666 
L 2547 0 
L 1831 0 
z
" transform="scale(0.015625)"/>
      </defs>
      <use xlink:href="#DejaVuSans-Oblique-3bc" transform="translate(0 0.09375)"/>
      <use xlink:href="#DejaVuSans-56" transform="translate(63.623047 0.09375)"/>
     </g>
    </g>
    <g id="text_8">
     <!-- 1e−3 -->
     <g transform="translate(50.24 18.72) scale(0.1 -0.1)">
      <defs>
       <path id="DejaVuSans-31" d="M 794 531 
L 1825 531 
L 1825 4091 
L 703 3866 
L 703 4441 
L 1819 4666 
L 2450 4666 
L 2450 531 
L 3481 531 
L 3481 0 
L 794 0 
L 794 531 
z
" transform="scale(0.015625)"/>
       <path id="DejaVuSans-2212" d="M 678 2272 
L 4684 2272 
L 4684 1741 
L 678 1741 
L 678 2272 
z
" transform="scale(0.015625)"/>
       <path id="DejaVuSans-33" d="M 2597 2516 
Q 3050 2419 3304 2112 
Q 3559 1806 3559 1356 
Q 3559 666 3084 287 
Q 2609 -91 1734 -91 
Q 1441 -91 1130 -33 
Q 819 25 488 141 
L 488 750 
Q 750 597 1062 519 
Q 1375 441 1716 441 
Q 2309 441 2620 675 
Q 2931 909 2931 1356 
Q 2931 1769 2642 2001 
Q 2353 2234 1838 2234 
L 1294 2234 
L 1294 2753 
L 1863 2753 
Q 2328 2753 2575 2939 
Q 2822 3125 2822 3475 
Q 2822 3834 2567 4026 
Q 2313 4219 1838 4219 
Q 1578 4219 1281 4162 
Q 984 4106 628 3988 
L 628 4550 
Q 988 4650 1302 4700 
Q 1616 4750 1894 4750 
Q 2613 4750 3031 4423 
Q 3450 4097 3450 3541 
Q 3450 3153 3228 2886 
Q 3006 2619 2597 2516 
z
" transform="scale(0.015625)"/>
      </defs>
      <use xlink:href="#DejaVuSans-31"/>
      <use xlink:href="#DejaVuSans-65" x="63.623047"/>
      <use xlink:href="#DejaVuSans-2212" x="125.146484"/>
      <use xlink:href="#DejaVuSans-33" x="208.935547"/>
     </g>
    </g>
   </g>
   <g id="line2d_8">
    <path d="M 56.082955 83.03223 
L 56.846739 82.944315 
L 57.610524 82.483945 
L 59.138094 80.494637 
L 61.429449 76.845012 
L 62.193234 76.115291 
L 62.957019 75.607654 
L 63.720804 76.407482 
L 64.484589 76.967151 
L 65.248373 76.959938 
L 67.539728 79.043956 
L 68.303513 79.401844 
L 70.594868 79.908147 
L 71.358653 80.522723 
L 73.650007 77.701184 
L 74.413792 77.450267 
L 75.177577 76.968652 
L 75.941362 77.224962 
L 76.705147 77.121711 
L 77.468932 76.258128 
L 78.232717 75.739498 
L 78.996502 76.39108 
L 79.760287 75.520976 
L 80.524072 75.462232 
L 82.051641 76.252751 
L 82.815426 77.382144 
L 83.579211 77.37322 
L 84.342996 77.919281 
L 85.106781 77.015525 
L 85.870566 76.683701 
L 86.634351 77.436831 
L 87.398136 76.551742 
L 88.161921 77.642951 
L 88.925706 79.292874 
L 89.68949 77.701493 
L 90.453275 76.86666 
L 91.21706 75.537814 
L 91.980845 74.588026 
L 92.74463 74.437397 
L 93.508415 74.529343 
L 94.2722 75.944581 
L 95.035985 76.382314 
L 95.79977 76.473379 
L 96.563555 77.912646 
L 97.32734 80.57638 
L 98.091124 84.079204 
L 98.854909 86.631709 
L 99.618694 87.362748 
L 100.382479 87.127542 
L 101.146264 86.658277 
L 101.910049 85.608586 
L 102.673834 85.982643 
L 103.437619 85.753682 
L 104.201404 84.218899 
L 104.965189 82.354913 
L 106.492758 75.758312 
L 107.256543 71.97628 
L 108.020328 69.383501 
L 108.784113 65.679246 
L 109.547898 64.300322 
L 110.311683 62.379655 
L 111.075468 61.394247 
L 111.839253 60.660724 
L 114.130608 57.798262 
L 114.894392 57.722467 
L 115.658177 56.974896 
L 116.421962 56.706368 
L 117.185747 55.94936 
L 118.713317 56.603268 
L 119.477102 57.818518 
L 120.240887 58.468471 
L 121.004672 58.833306 
L 121.768457 59.81902 
L 122.532242 59.96673 
L 123.296026 59.463411 
L 124.059811 59.73936 
L 124.823596 59.602582 
L 125.587381 59.924111 
L 126.351166 60.00238 
L 127.114951 60.376548 
L 128.642521 59.08337 
L 130.170091 57.367385 
L 130.933876 55.782953 
L 131.69766 54.886811 
L 132.461445 53.302072 
L 133.22523 51.398421 
L 134.7528 48.977265 
L 135.516585 48.53419 
L 136.28037 47.089387 
L 137.044155 46.412951 
L 137.80794 44.942044 
L 138.571725 43.776662 
L 139.33551 43.239497 
L 140.099294 44.279001 
L 140.863079 42.794999 
L 142.390649 42.747374 
L 143.154434 43.315928 
L 143.918219 43.39818 
L 147.737143 46.623805 
L 148.500928 47.655901 
L 149.264713 49.286677 
L 150.792283 50.564288 
L 151.556068 50.776055 
L 152.319853 51.297191 
L 153.083638 51.383984 
L 154.611208 51.942059 
L 155.374993 51.793615 
L 156.138777 51.869289 
L 157.666347 52.337189 
L 159.193917 51.99818 
L 159.957702 52.097662 
L 161.485272 51.968423 
L 162.249057 53.297631 
L 163.012842 54.302435 
L 163.776627 53.759419 
L 164.540411 53.776236 
L 165.304196 54.477045 
L 166.067981 55.97608 
L 166.831766 56.265169 
L 167.595551 55.038642 
L 168.359336 54.911773 
L 169.123121 55.086961 
L 169.886906 54.567894 
L 171.414476 52.832158 
L 172.178261 52.474188 
L 172.942045 51.87972 
L 172.942045 51.87972 
" clip-path="url(#p923240f41c)" style="fill: none; stroke: #00ffff; stroke-width: 1.5; stroke-linecap: square"/>
   </g>
   <g id="line2d_9">
    <path d="M 56.082955 87.30438 
L 56.846739 86.291643 
L 57.610524 84.84089 
L 58.374309 83.890633 
L 59.138094 81.873066 
L 59.901879 79.472244 
L 60.665664 78.136198 
L 61.429449 76.420952 
L 62.193234 75.640228 
L 62.957019 75.056883 
L 63.720804 75.20972 
L 64.484589 75.511185 
L 65.248373 75.308931 
L 66.012158 75.441322 
L 67.539728 77.873366 
L 68.303513 78.710382 
L 69.831083 81.177903 
L 70.594868 81.474074 
L 71.358653 81.004354 
L 72.122438 79.997637 
L 72.886223 78.388272 
L 73.650007 77.201657 
L 74.413792 76.878993 
L 75.177577 75.655857 
L 75.941362 75.959896 
L 76.705147 75.315318 
L 77.468932 75.417339 
L 78.232717 76.427253 
L 78.996502 76.02103 
L 79.760287 76.018005 
L 80.524072 76.292775 
L 81.287857 77.037084 
L 82.051641 77.018069 
L 82.815426 78.35013 
L 83.579211 78.221796 
L 84.342996 77.032111 
L 85.106781 76.071417 
L 86.634351 75.830306 
L 87.398136 76.06795 
L 88.161921 77.08572 
L 88.925706 77.459601 
L 89.68949 76.950495 
L 91.21706 76.708081 
L 91.980845 75.564293 
L 92.74463 75.546957 
L 93.508415 75.904061 
L 94.2722 76.653275 
L 95.035985 77.054926 
L 95.79977 76.421332 
L 96.563555 77.612994 
L 98.091124 83.520605 
L 98.854909 86.216627 
L 99.618694 86.827101 
L 100.382479 86.586207 
L 101.910049 86.596331 
L 102.673834 86.733033 
L 103.437619 86.630521 
L 104.201404 84.819701 
L 104.965189 83.377116 
L 105.728974 80.700497 
L 108.020328 69.734207 
L 108.784113 66.123328 
L 109.547898 63.158172 
L 111.075468 60.568469 
L 111.839253 59.166164 
L 112.603038 57.52981 
L 113.366823 56.292132 
L 114.130608 56.479072 
L 114.894392 56.434683 
L 115.658177 56.138483 
L 116.421962 55.96512 
L 117.185747 56.525418 
L 117.949532 56.178866 
L 118.713317 55.688792 
L 119.477102 56.026733 
L 120.240887 56.727556 
L 121.004672 57.637305 
L 122.532242 58.970817 
L 124.059811 59.595202 
L 125.587381 59.772215 
L 127.114951 58.277022 
L 127.878736 56.9746 
L 128.642521 55.449422 
L 130.170091 53.824998 
L 130.933876 52.228454 
L 131.69766 51.297917 
L 132.461445 49.889723 
L 133.22523 48.079188 
L 133.989015 46.992862 
L 134.7528 45.061391 
L 135.516585 43.47341 
L 136.28037 42.759848 
L 137.044155 41.786813 
L 137.80794 41.870865 
L 138.571725 40.839177 
L 139.33551 40.797763 
L 140.099294 40.372764 
L 140.863079 40.241731 
L 142.390649 40.247001 
L 143.154434 40.142184 
L 144.682004 41.558628 
L 145.445789 42.193499 
L 146.209574 43.252192 
L 146.973359 43.927575 
L 148.500928 43.86866 
L 150.792283 47.021495 
L 151.556068 47.433514 
L 152.319853 48.020608 
L 153.083638 48.386191 
L 153.847423 49.113196 
L 154.611208 49.014279 
L 155.374993 49.510235 
L 156.138777 50.247159 
L 156.902562 49.843745 
L 157.666347 50.284363 
L 158.430132 49.744653 
L 159.193917 49.755468 
L 159.957702 50.385194 
L 160.721487 50.043292 
L 161.485272 50.033916 
L 162.249057 50.194224 
L 163.012842 50.74423 
L 163.776627 51.108788 
L 165.304196 50.72803 
L 166.067981 50.23217 
L 166.831766 50.431628 
L 167.595551 50.771509 
L 168.359336 50.386778 
L 169.123121 49.856619 
L 169.886906 49.911853 
L 170.650691 48.898856 
L 171.414476 49.309201 
L 172.178261 48.219455 
L 172.942045 48.495855 
L 172.942045 48.495855 
" clip-path="url(#p923240f41c)" style="fill: none; stroke: #40bfff; stroke-width: 1.5; stroke-linecap: square"/>
   </g>
   <g id="line2d_10">
    <path d="M 56.082955 82.895703 
L 56.846739 81.82186 
L 57.610524 81.62865 
L 58.374309 81.177188 
L 59.138094 79.809916 
L 59.901879 78.188053 
L 60.665664 76.833171 
L 61.429449 75.848693 
L 62.957019 74.963285 
L 63.720804 75.260192 
L 64.484589 76.000458 
L 66.012158 78.974433 
L 66.775943 79.853259 
L 68.303513 82.291213 
L 69.067298 82.430333 
L 71.358653 80.285272 
L 72.122438 78.919822 
L 72.886223 78.284766 
L 73.650007 77.072558 
L 74.413792 76.131437 
L 75.177577 75.63122 
L 75.941362 75.289885 
L 76.705147 74.66448 
L 77.468932 75.17116 
L 78.232717 75.131444 
L 78.996502 75.481769 
L 79.760287 74.827886 
L 80.524072 74.632152 
L 81.287857 75.084554 
L 83.579211 77.379538 
L 84.342996 77.220531 
L 85.106781 76.16458 
L 85.870566 75.590614 
L 86.634351 74.848727 
L 87.398136 75.131881 
L 88.161921 75.995144 
L 88.925706 76.563256 
L 89.68949 75.794173 
L 90.453275 74.375308 
L 91.980845 71.895919 
L 92.74463 71.368958 
L 93.508415 71.960221 
L 94.2722 73.024365 
L 95.79977 75.795509 
L 96.563555 77.902763 
L 98.854909 89.424907 
L 99.618694 91.051125 
L 100.382479 91.875307 
L 101.146264 91.084952 
L 101.910049 90.590646 
L 103.437619 88.785868 
L 104.201404 87.689239 
L 105.728974 82.455238 
L 106.492758 79.027597 
L 108.020328 71.117017 
L 108.784113 67.629374 
L 111.839253 59.095643 
L 114.130608 55.779523 
L 114.894392 55.301898 
L 115.658177 55.092333 
L 116.421962 55.153216 
L 117.185747 54.157583 
L 117.949532 54.332323 
L 119.477102 54.966226 
L 120.240887 55.283056 
L 121.768457 56.29778 
L 122.532242 57.601402 
L 123.296026 57.352604 
L 124.059811 57.889943 
L 124.823596 57.60106 
L 125.587381 56.939035 
L 127.114951 57.309992 
L 127.878736 57.124674 
L 130.170091 52.999363 
L 130.933876 51.172316 
L 132.461445 49.776033 
L 133.22523 47.832452 
L 133.989015 46.858215 
L 134.7528 45.591639 
L 135.516585 44.903865 
L 136.28037 43.866246 
L 137.044155 43.500656 
L 137.80794 42.536171 
L 138.571725 41.171618 
L 139.33551 40.991125 
L 140.099294 40.487657 
L 140.863079 39.692262 
L 142.390649 39.566513 
L 143.154434 39.368063 
L 143.918219 40.090122 
L 144.682004 39.688519 
L 145.445789 40.08873 
L 146.209574 41.195172 
L 146.973359 41.290853 
L 147.737143 41.268948 
L 149.264713 43.421363 
L 150.028498 44.575824 
L 150.792283 45.940439 
L 152.319853 47.954703 
L 153.083638 48.861038 
L 153.847423 49.015562 
L 154.611208 49.056397 
L 155.374993 48.252344 
L 156.138777 48.151699 
L 156.902562 48.22363 
L 157.666347 47.957389 
L 158.430132 47.366719 
L 159.193917 47.910649 
L 159.957702 47.570734 
L 160.721487 47.062445 
L 161.485272 47.595429 
L 163.776627 47.41536 
L 164.540411 48.273069 
L 165.304196 48.26029 
L 166.831766 48.754567 
L 167.595551 48.066434 
L 168.359336 47.639683 
L 169.123121 47.597713 
L 169.886906 47.752404 
L 170.650691 47.018222 
L 172.178261 46.517798 
L 172.942045 46.647574 
L 172.942045 46.647574 
" clip-path="url(#p923240f41c)" style="fill: none; stroke: #807fff; stroke-width: 1.5; stroke-linecap: square"/>
   </g>
   <g id="line2d_11">
    <path d="M 56.082955 83.862869 
L 56.846739 83.178906 
L 57.610524 82.903939 
L 58.374309 82.171214 
L 59.138094 82.216363 
L 59.901879 80.63484 
L 60.665664 78.553284 
L 61.429449 77.406083 
L 62.957019 76.060321 
L 63.720804 76.865117 
L 64.484589 77.319504 
L 66.012158 77.946626 
L 66.775943 78.916321 
L 67.539728 79.392879 
L 69.067298 79.930166 
L 69.831083 79.954501 
L 70.594868 80.223086 
L 71.358653 79.507993 
L 72.122438 78.183988 
L 73.650007 76.205973 
L 74.413792 74.785789 
L 75.177577 74.532012 
L 75.941362 75.107678 
L 77.468932 74.600475 
L 78.232717 75.278246 
L 78.996502 76.138388 
L 79.760287 75.65652 
L 80.524072 74.661161 
L 81.287857 74.71473 
L 82.051641 75.512653 
L 82.815426 76.495138 
L 83.579211 76.731318 
L 84.342996 77.133149 
L 85.106781 76.215354 
L 86.634351 77.299083 
L 87.398136 76.429226 
L 88.161921 77.032346 
L 88.925706 78.453719 
L 91.21706 74.8409 
L 91.980845 72.641151 
L 92.74463 71.512915 
L 93.508415 72.463859 
L 95.79977 76.076223 
L 96.563555 77.852583 
L 97.32734 80.696267 
L 98.091124 84.250136 
L 98.854909 86.744291 
L 99.618694 88.376718 
L 100.382479 88.728877 
L 101.146264 88.040917 
L 101.910049 87.576882 
L 102.673834 87.41782 
L 103.437619 87.428103 
L 104.201404 86.389234 
L 104.965189 84.101123 
L 105.728974 80.831701 
L 108.020328 69.940108 
L 108.784113 67.415193 
L 109.547898 65.397303 
L 110.311683 63.850342 
L 111.075468 61.975532 
L 111.839253 60.633866 
L 112.603038 59.715579 
L 114.130608 56.954337 
L 115.658177 56.207843 
L 116.421962 55.314335 
L 117.949532 55.438502 
L 118.713317 55.128501 
L 119.477102 54.636211 
L 120.240887 54.738949 
L 121.004672 55.4067 
L 121.768457 55.316444 
L 122.532242 56.026708 
L 123.296026 56.546021 
L 124.059811 55.703756 
L 124.823596 55.225318 
L 125.587381 55.228006 
L 127.114951 53.556931 
L 128.642521 52.039388 
L 129.406306 50.247394 
L 130.170091 49.385306 
L 130.933876 48.710733 
L 131.69766 48.215475 
L 132.461445 47.539619 
L 133.22523 46.526701 
L 133.989015 44.34813 
L 134.7528 43.862608 
L 135.516585 42.857836 
L 136.28037 41.624708 
L 137.044155 39.619827 
L 137.80794 39.731014 
L 138.571725 38.891624 
L 139.33551 37.734242 
L 140.099294 37.040798 
L 141.626864 36.257419 
L 142.390649 37.47476 
L 143.918219 37.771156 
L 146.209574 40.066922 
L 146.973359 40.478383 
L 147.737143 41.217494 
L 148.500928 42.456501 
L 149.264713 43.191863 
L 150.028498 44.360033 
L 150.792283 44.911082 
L 152.319853 47.24734 
L 153.083638 47.509309 
L 153.847423 47.068102 
L 154.611208 47.590153 
L 155.374993 47.268404 
L 156.138777 47.083436 
L 157.666347 48.202452 
L 158.430132 47.641884 
L 159.193917 48.576269 
L 159.957702 48.219214 
L 160.721487 47.729044 
L 161.485272 47.542715 
L 162.249057 47.066573 
L 163.012842 46.343573 
L 163.776627 46.509136 
L 164.540411 47.232564 
L 165.304196 47.512485 
L 166.067981 47.180258 
L 167.595551 47.676351 
L 168.359336 47.365718 
L 169.123121 45.988565 
L 169.886906 45.998277 
L 170.650691 45.21184 
L 171.414476 45.580119 
L 172.942045 45.085139 
L 172.942045 45.085139 
" clip-path="url(#p923240f41c)" style="fill: none; stroke: #c03fff; stroke-width: 1.5; stroke-linecap: square"/>
   </g>
   <g id="line2d_12">
    <path d="M 56.082955 84.376588 
L 56.846739 83.728092 
L 58.374309 81.759889 
L 59.138094 80.340278 
L 59.901879 80.261932 
L 61.429449 77.779661 
L 62.193234 77.472704 
L 62.957019 76.712539 
L 63.720804 77.273604 
L 64.484589 77.245218 
L 65.248373 77.340979 
L 66.775943 79.007252 
L 67.539728 79.442547 
L 69.831083 79.554682 
L 70.594868 79.267234 
L 71.358653 78.255091 
L 72.886223 76.837296 
L 74.413792 76.254946 
L 75.177577 76.432846 
L 75.941362 76.323143 
L 77.468932 77.391621 
L 78.232717 77.374798 
L 78.996502 76.414668 
L 79.760287 75.800909 
L 80.524072 75.406656 
L 81.287857 75.601996 
L 82.051641 76.558886 
L 82.815426 76.072242 
L 83.579211 75.830941 
L 84.342996 76.136991 
L 85.106781 76.128134 
L 85.870566 75.566322 
L 86.634351 75.99551 
L 87.398136 76.168899 
L 88.161921 76.74573 
L 88.925706 78.972077 
L 89.68949 78.98393 
L 90.453275 78.542518 
L 91.21706 78.518192 
L 91.980845 76.551325 
L 92.74463 75.8252 
L 93.508415 75.544 
L 95.035985 77.413558 
L 95.79977 77.581001 
L 96.563555 78.912385 
L 97.32734 81.33891 
L 98.854909 88.082347 
L 99.618694 89.769085 
L 100.382479 90.0871 
L 101.910049 88.230232 
L 102.673834 88.187434 
L 103.437619 86.616434 
L 104.201404 84.491813 
L 105.728974 79.408177 
L 106.492758 75.482775 
L 107.256543 72.293185 
L 108.784113 64.639898 
L 109.547898 63.006698 
L 110.311683 60.780853 
L 113.366823 55.085317 
L 114.130608 54.048609 
L 114.894392 52.797346 
L 115.658177 52.349727 
L 116.421962 51.174114 
L 117.185747 50.504304 
L 118.713317 50.893952 
L 119.477102 50.568238 
L 120.240887 50.499086 
L 121.004672 51.245489 
L 121.768457 50.732644 
L 122.532242 51.482849 
L 123.296026 51.194169 
L 124.059811 50.707915 
L 124.823596 51.010127 
L 125.587381 51.080119 
L 126.351166 50.350994 
L 127.114951 50.045164 
L 128.642521 48.071651 
L 129.406306 46.799189 
L 130.170091 47.047779 
L 130.933876 46.514912 
L 132.461445 43.875747 
L 133.22523 42.935212 
L 133.989015 41.045683 
L 134.7528 38.833837 
L 135.516585 37.588392 
L 136.28037 36.662703 
L 137.044155 35.303279 
L 137.80794 34.652313 
L 138.571725 34.601728 
L 139.33551 33.748763 
L 140.099294 32.120537 
L 140.863079 31.975894 
L 141.626864 32.291172 
L 142.390649 31.509252 
L 143.154434 31.923077 
L 143.918219 33.151945 
L 144.682004 33.539213 
L 145.445789 34.691391 
L 146.209574 34.6714 
L 146.973359 36.167779 
L 147.737143 36.665415 
L 148.500928 38.69809 
L 150.028498 40.134345 
L 150.792283 41.590931 
L 152.319853 43.031129 
L 153.083638 44.207319 
L 153.847423 45.037432 
L 154.611208 44.525373 
L 156.138777 44.97842 
L 156.902562 43.653824 
L 157.666347 44.694327 
L 158.430132 44.646063 
L 159.193917 44.304664 
L 159.957702 44.414402 
L 160.721487 44.802726 
L 161.485272 44.421007 
L 162.249057 45.106572 
L 163.012842 45.141182 
L 164.540411 44.942044 
L 165.304196 45.448528 
L 166.831766 45.491256 
L 167.595551 45.055725 
L 168.359336 45.27115 
L 169.123121 44.568039 
L 170.650691 43.898944 
L 171.414476 42.71207 
L 172.178261 41.922185 
L 172.942045 41.487214 
L 172.942045 41.487214 
" clip-path="url(#p923240f41c)" style="fill: none; stroke: #ff00ff; stroke-width: 1.5; stroke-linecap: square"/>
   </g>
   <g id="patch_3">
    <path d="M 50.24 101.32 
L 50.24 21.72 
" style="fill: none; stroke: #000000; stroke-width: 0.8; stroke-linejoin: miter; stroke-linecap: square"/>
   </g>
   <g id="patch_4">
    <path d="M 50.24 101.32 
L 178.785 101.32 
" style="fill: none; stroke: #000000; stroke-width: 0.8; stroke-linejoin: miter; stroke-linecap: square"/>
   </g>
  </g>
  <g id="axes_2">
   <g id="patch_5">
    <path d="M 220.655 101.32 
L 349.2 101.32 
L 349.2 21.72 
L 220.655 21.72 
z
" style="fill: #ffffff"/>
   </g>
   <g id="line2d_13">
    <path d="M 228.886313 67.910719 
L 256.987682 66.444802 
L 285.089051 64.978886 
L 313.190421 63.512969 
L 341.29179 62.047052 
" clip-path="url(#p797193bf60)" style="fill: none; stroke: #808080; stroke-opacity: 0.5; stroke-width: 1.5; stroke-linecap: square"/>
   </g>
   <g id="line2d_14">
    <path d="M 220.655 87.931788 
L 349.2 87.931788 
" clip-path="url(#p797193bf60)" style="fill: none; stroke: #d3d3d3; stroke-width: 0.5; stroke-linecap: square"/>
   </g>
   <g id="line2d_15">
    <path d="M 228.886313 71.717652 
L 228.886313 64.496393 
" clip-path="url(#p797193bf60)" style="fill: none; stroke: #808080; stroke-width: 1.5; stroke-linecap: square"/>
   </g>
   <g id="line2d_16">
    <path d="M 256.987682 68.99688 
L 256.987682 61.930415 
" clip-path="url(#p797193bf60)" style="fill: none; stroke: #808080; stroke-width: 1.5; stroke-linecap: square"/>
   </g>
   <g id="line2d_17">
    <path d="M 285.089051 69.337616 
L 285.089051 62.00097 
" clip-path="url(#p797193bf60)" style="fill: none; stroke: #808080; stroke-width: 1.5; stroke-linecap: square"/>
   </g>
   <g id="line2d_18">
    <path d="M 313.190421 68.206922 
L 313.190421 60.37389 
" clip-path="url(#p797193bf60)" style="fill: none; stroke: #808080; stroke-width: 1.5; stroke-linecap: square"/>
   </g>
   <g id="line2d_19">
    <path d="M 341.29179 65.259483 
L 341.29179 57.468638 
" clip-path="url(#p797193bf60)" style="fill: none; stroke: #808080; stroke-width: 1.5; stroke-linecap: square"/>
   </g>
   <g id="PathCollection_1">
    <defs>
     <path id="maafaf284ee" d="M 0 3.162278 
C 0.838646 3.162278 1.643056 2.82908 2.236068 2.236068 
C 2.82908 1.643056 3.162278 0.838646 3.162278 0 
C 3.162278 -0.838646 2.82908 -1.643056 2.236068 -2.236068 
C 1.643056 -2.82908 0.838646 -3.162278 0 -3.162278 
C -0.838646 -3.162278 -1.643056 -2.82908 -2.236068 -2.236068 
C -2.82908 -1.643056 -3.162278 -0.838646 -3.162278 0 
C -3.162278 0.838646 -2.82908 1.643056 -2.236068 2.236068 
C -1.643056 2.82908 -0.838646 3.162278 0 3.162278 
z
" style="stroke: #ffffff"/>
    </defs>
    <g clip-path="url(#p797193bf60)">
     <use xlink:href="#maafaf284ee" x="228.886313" y="68.107023" style="fill: #00ffff; stroke: #ffffff"/>
    </g>
   </g>
   <g id="PathCollection_2">
    <defs>
     <path id="m404d6a731b" d="M 0 3.162278 
C 0.838646 3.162278 1.643056 2.82908 2.236068 2.236068 
C 2.82908 1.643056 3.162278 0.838646 3.162278 0 
C 3.162278 -0.838646 2.82908 -1.643056 2.236068 -2.236068 
C 1.643056 -2.82908 0.838646 -3.162278 0 -3.162278 
C -0.838646 -3.162278 -1.643056 -2.82908 -2.236068 -2.236068 
C -2.82908 -1.643056 -3.162278 -0.838646 -3.162278 0 
C -3.162278 0.838646 -2.82908 1.643056 -2.236068 2.236068 
C -1.643056 2.82908 -0.838646 3.162278 0 3.162278 
z
" style="stroke: #ffffff"/>
    </defs>
    <g clip-path="url(#p797193bf60)">
     <use xlink:href="#m404d6a731b" x="256.987682" y="65.463648" style="fill: #40bfff; stroke: #ffffff"/>
    </g>
   </g>
   <g id="PathCollection_3">
    <defs>
     <path id="m8e5338d8bb" d="M 0 3.162278 
C 0.838646 3.162278 1.643056 2.82908 2.236068 2.236068 
C 2.82908 1.643056 3.162278 0.838646 3.162278 0 
C 3.162278 -0.838646 2.82908 -1.643056 2.236068 -2.236068 
C 1.643056 -2.82908 0.838646 -3.162278 0 -3.162278 
C -0.838646 -3.162278 -1.643056 -2.82908 -2.236068 -2.236068 
C -2.82908 -1.643056 -3.162278 -0.838646 -3.162278 0 
C -3.162278 0.838646 -2.82908 1.643056 -2.236068 2.236068 
C -1.643056 2.82908 -0.838646 3.162278 0 3.162278 
z
" style="stroke: #ffffff"/>
    </defs>
    <g clip-path="url(#p797193bf60)">
     <use xlink:href="#m8e5338d8bb" x="285.089051" y="65.669293" style="fill: #807fff; stroke: #ffffff"/>
    </g>
   </g>
   <g id="PathCollection_4">
    <defs>
     <path id="maabd5038ed" d="M 0 3.162278 
C 0.838646 3.162278 1.643056 2.82908 2.236068 2.236068 
C 2.82908 1.643056 3.162278 0.838646 3.162278 0 
C 3.162278 -0.838646 2.82908 -1.643056 2.236068 -2.236068 
C 1.643056 -2.82908 0.838646 -3.162278 0 -3.162278 
C -0.838646 -3.162278 -1.643056 -2.82908 -2.236068 -2.236068 
C -2.82908 -1.643056 -3.162278 -0.838646 -3.162278 0 
C -3.162278 0.838646 -2.82908 1.643056 -2.236068 2.236068 
C -1.643056 2.82908 -0.838646 3.162278 0 3.162278 
z
" style="stroke: #ffffff"/>
    </defs>
    <g clip-path="url(#p797193bf60)">
     <use xlink:href="#maabd5038ed" x="313.190421" y="64.290406" style="fill: #c03fff; stroke: #ffffff"/>
    </g>
   </g>
   <g id="PathCollection_5">
    <defs>
     <path id="mfb47648b69" d="M 0 3.162278 
C 0.838646 3.162278 1.643056 2.82908 2.236068 2.236068 
C 2.82908 1.643056 3.162278 0.838646 3.162278 0 
C 3.162278 -0.838646 2.82908 -1.643056 2.236068 -2.236068 
C 1.643056 -2.82908 0.838646 -3.162278 0 -3.162278 
C -0.838646 -3.162278 -1.643056 -2.82908 -2.236068 -2.236068 
C -2.82908 -1.643056 -3.162278 -0.838646 -3.162278 0 
C -3.162278 0.838646 -2.82908 1.643056 -2.236068 2.236068 
C -1.643056 2.82908 -0.838646 3.162278 0 3.162278 
z
" style="stroke: #ffffff"/>
    </defs>
    <g clip-path="url(#p797193bf60)">
     <use xlink:href="#mfb47648b69" x="341.29179" y="61.36406" style="fill: #ff00ff; stroke: #ffffff"/>
    </g>
   </g>
   <g id="matplotlib.axis_3">
    <g id="xtick_4">
     <g id="line2d_20">
      <g>
       <use xlink:href="#m35c3c10da9" x="228.886313" y="101.32" style="stroke: #000000; stroke-width: 0.8"/>
      </g>
     </g>
     <g id="text_9">
      <!--   -->
      <g transform="translate(227.29725 115.918437) scale(0.1 -0.1)">
       <use xlink:href="#DejaVuSans-20"/>
      </g>
     </g>
    </g>
    <g id="xtick_5">
     <g id="line2d_21">
      <g>
       <use xlink:href="#m35c3c10da9" x="256.987682" y="101.32" style="stroke: #000000; stroke-width: 0.8"/>
      </g>
     </g>
     <g id="text_10">
      <!--   -->
      <g transform="translate(255.398619 115.918437) scale(0.1 -0.1)">
       <use xlink:href="#DejaVuSans-20"/>
      </g>
     </g>
    </g>
    <g id="xtick_6">
     <g id="line2d_22">
      <g>
       <use xlink:href="#m35c3c10da9" x="285.089051" y="101.32" style="stroke: #000000; stroke-width: 0.8"/>
      </g>
     </g>
     <g id="text_11">
      <!--   -->
      <g transform="translate(283.499989 115.918437) scale(0.1 -0.1)">
       <use xlink:href="#DejaVuSans-20"/>
      </g>
     </g>
    </g>
    <g id="xtick_7">
     <g id="line2d_23">
      <g>
       <use xlink:href="#m35c3c10da9" x="313.190421" y="101.32" style="stroke: #000000; stroke-width: 0.8"/>
      </g>
     </g>
     <g id="text_12">
      <!--   -->
      <g transform="translate(311.601358 115.918437) scale(0.1 -0.1)">
       <use xlink:href="#DejaVuSans-20"/>
      </g>
     </g>
    </g>
    <g id="xtick_8">
     <g id="line2d_24">
      <g>
       <use xlink:href="#m35c3c10da9" x="341.29179" y="101.32" style="stroke: #000000; stroke-width: 0.8"/>
      </g>
     </g>
     <g id="text_13">
      <!--   -->
      <g transform="translate(339.702728 115.918437) scale(0.1 -0.1)">
       <use xlink:href="#DejaVuSans-20"/>
      </g>
     </g>
    </g>
    <g id="text_14">
     <!-- Contrast -->
     <g transform="translate(259.290625 131.11625) scale(0.12 -0.12)">
      <defs>
       <path id="DejaVuSans-43" d="M 4122 4306 
L 4122 3641 
Q 3803 3938 3442 4084 
Q 3081 4231 2675 4231 
Q 1875 4231 1450 3742 
Q 1025 3253 1025 2328 
Q 1025 1406 1450 917 
Q 1875 428 2675 428 
Q 3081 428 3442 575 
Q 3803 722 4122 1019 
L 4122 359 
Q 3791 134 3420 21 
Q 3050 -91 2638 -91 
Q 1578 -91 968 557 
Q 359 1206 359 2328 
Q 359 3453 968 4101 
Q 1578 4750 2638 4750 
Q 3056 4750 3426 4639 
Q 3797 4528 4122 4306 
z
" transform="scale(0.015625)"/>
       <path id="DejaVuSans-6f" d="M 1959 3097 
Q 1497 3097 1228 2736 
Q 959 2375 959 1747 
Q 959 1119 1226 758 
Q 1494 397 1959 397 
Q 2419 397 2687 759 
Q 2956 1122 2956 1747 
Q 2956 2369 2687 2733 
Q 2419 3097 1959 3097 
z
M 1959 3584 
Q 2709 3584 3137 3096 
Q 3566 2609 3566 1747 
Q 3566 888 3137 398 
Q 2709 -91 1959 -91 
Q 1206 -91 779 398 
Q 353 888 353 1747 
Q 353 2609 779 3096 
Q 1206 3584 1959 3584 
z
" transform="scale(0.015625)"/>
       <path id="DejaVuSans-6e" d="M 3513 2113 
L 3513 0 
L 2938 0 
L 2938 2094 
Q 2938 2591 2744 2837 
Q 2550 3084 2163 3084 
Q 1697 3084 1428 2787 
Q 1159 2491 1159 1978 
L 1159 0 
L 581 0 
L 581 3500 
L 1159 3500 
L 1159 2956 
Q 1366 3272 1645 3428 
Q 1925 3584 2291 3584 
Q 2894 3584 3203 3211 
Q 3513 2838 3513 2113 
z
" transform="scale(0.015625)"/>
       <path id="DejaVuSans-74" d="M 1172 4494 
L 1172 3500 
L 2356 3500 
L 2356 3053 
L 1172 3053 
L 1172 1153 
Q 1172 725 1289 603 
Q 1406 481 1766 481 
L 2356 481 
L 2356 0 
L 1766 0 
Q 1100 0 847 248 
Q 594 497 594 1153 
L 594 3053 
L 172 3053 
L 172 3500 
L 594 3500 
L 594 4494 
L 1172 4494 
z
" transform="scale(0.015625)"/>
       <path id="DejaVuSans-72" d="M 2631 2963 
Q 2534 3019 2420 3045 
Q 2306 3072 2169 3072 
Q 1681 3072 1420 2755 
Q 1159 2438 1159 1844 
L 1159 0 
L 581 0 
L 581 3500 
L 1159 3500 
L 1159 2956 
Q 1341 3275 1631 3429 
Q 1922 3584 2338 3584 
Q 2397 3584 2469 3576 
Q 2541 3569 2628 3553 
L 2631 2963 
z
" transform="scale(0.015625)"/>
       <path id="DejaVuSans-61" d="M 2194 1759 
Q 1497 1759 1228 1600 
Q 959 1441 959 1056 
Q 959 750 1161 570 
Q 1363 391 1709 391 
Q 2188 391 2477 730 
Q 2766 1069 2766 1631 
L 2766 1759 
L 2194 1759 
z
M 3341 1997 
L 3341 0 
L 2766 0 
L 2766 531 
Q 2569 213 2275 61 
Q 1981 -91 1556 -91 
Q 1019 -91 701 211 
Q 384 513 384 1019 
Q 384 1609 779 1909 
Q 1175 2209 1959 2209 
L 2766 2209 
L 2766 2266 
Q 2766 2663 2505 2880 
Q 2244 3097 1772 3097 
Q 1472 3097 1187 3025 
Q 903 2953 641 2809 
L 641 3341 
Q 956 3463 1253 3523 
Q 1550 3584 1831 3584 
Q 2591 3584 2966 3190 
Q 3341 2797 3341 1997 
z
" transform="scale(0.015625)"/>
      </defs>
      <use xlink:href="#DejaVuSans-43"/>
      <use xlink:href="#DejaVuSans-6f" x="69.824219"/>
      <use xlink:href="#DejaVuSans-6e" x="131.005859"/>
      <use xlink:href="#DejaVuSans-74" x="194.384766"/>
      <use xlink:href="#DejaVuSans-72" x="233.59375"/>
      <use xlink:href="#DejaVuSans-61" x="274.707031"/>
      <use xlink:href="#DejaVuSans-73" x="335.986328"/>
      <use xlink:href="#DejaVuSans-74" x="388.085938"/>
     </g>
    </g>
   </g>
   <g id="matplotlib.axis_4">
    <g id="ytick_3">
     <g id="line2d_25">
      <g>
       <use xlink:href="#m95f3e530b2" x="220.655" y="87.931788" style="stroke: #000000; stroke-width: 0.8"/>
      </g>
     </g>
     <g id="text_15">
      <!-- 0.0 -->
      <g transform="translate(197.751875 91.731007) scale(0.1 -0.1)">
       <use xlink:href="#DejaVuSans-30"/>
       <use xlink:href="#DejaVuSans-2e" x="63.623047"/>
       <use xlink:href="#DejaVuSans-30" x="95.410156"/>
      </g>
     </g>
    </g>
    <g id="ytick_4">
     <g id="line2d_26">
      <g>
       <use xlink:href="#m95f3e530b2" x="220.655" y="57.436701" style="stroke: #000000; stroke-width: 0.8"/>
      </g>
     </g>
     <g id="text_16">
      <!-- 2.5 -->
      <g transform="translate(197.751875 61.235919) scale(0.1 -0.1)">
       <defs>
        <path id="DejaVuSans-35" d="M 691 4666 
L 3169 4666 
L 3169 4134 
L 1269 4134 
L 1269 2991 
Q 1406 3038 1543 3061 
Q 1681 3084 1819 3084 
Q 2600 3084 3056 2656 
Q 3513 2228 3513 1497 
Q 3513 744 3044 326 
Q 2575 -91 1722 -91 
Q 1428 -91 1123 -41 
Q 819 9 494 109 
L 494 744 
Q 775 591 1075 516 
Q 1375 441 1709 441 
Q 2250 441 2565 725 
Q 2881 1009 2881 1497 
Q 2881 1984 2565 2268 
Q 2250 2553 1709 2553 
Q 1456 2553 1204 2497 
Q 953 2441 691 2322 
L 691 4666 
z
" transform="scale(0.015625)"/>
       </defs>
       <use xlink:href="#DejaVuSans-32"/>
       <use xlink:href="#DejaVuSans-2e" x="63.623047"/>
       <use xlink:href="#DejaVuSans-35" x="95.410156"/>
      </g>
     </g>
    </g>
    <g id="ytick_5">
     <g id="line2d_27">
      <g>
       <use xlink:href="#m95f3e530b2" x="220.655" y="26.941613" style="stroke: #000000; stroke-width: 0.8"/>
      </g>
     </g>
     <g id="text_17">
      <!-- 5.0 -->
      <g transform="translate(197.751875 30.740832) scale(0.1 -0.1)">
       <use xlink:href="#DejaVuSans-35"/>
       <use xlink:href="#DejaVuSans-2e" x="63.623047"/>
       <use xlink:href="#DejaVuSans-30" x="95.410156"/>
      </g>
     </g>
    </g>
    <g id="text_18">
     <!-- Mean amplitude ($\mu$V) -->
     <g transform="translate(191.231875 124.64) rotate(-90) scale(0.12 -0.12)">
      <defs>
       <path id="DejaVuSans-4d" d="M 628 4666 
L 1569 4666 
L 2759 1491 
L 3956 4666 
L 4897 4666 
L 4897 0 
L 4281 0 
L 4281 4097 
L 3078 897 
L 2444 897 
L 1241 4097 
L 1241 0 
L 628 0 
L 628 4666 
z
" transform="scale(0.015625)"/>
       <path id="DejaVuSans-70" d="M 1159 525 
L 1159 -1331 
L 581 -1331 
L 581 3500 
L 1159 3500 
L 1159 2969 
Q 1341 3281 1617 3432 
Q 1894 3584 2278 3584 
Q 2916 3584 3314 3078 
Q 3713 2572 3713 1747 
Q 3713 922 3314 415 
Q 2916 -91 2278 -91 
Q 1894 -91 1617 61 
Q 1341 213 1159 525 
z
M 3116 1747 
Q 3116 2381 2855 2742 
Q 2594 3103 2138 3103 
Q 1681 3103 1420 2742 
Q 1159 2381 1159 1747 
Q 1159 1113 1420 752 
Q 1681 391 2138 391 
Q 2594 391 2855 752 
Q 3116 1113 3116 1747 
z
" transform="scale(0.015625)"/>
       <path id="DejaVuSans-6c" d="M 603 4863 
L 1178 4863 
L 1178 0 
L 603 0 
L 603 4863 
z
" transform="scale(0.015625)"/>
       <path id="DejaVuSans-75" d="M 544 1381 
L 544 3500 
L 1119 3500 
L 1119 1403 
Q 1119 906 1312 657 
Q 1506 409 1894 409 
Q 2359 409 2629 706 
Q 2900 1003 2900 1516 
L 2900 3500 
L 3475 3500 
L 3475 0 
L 2900 0 
L 2900 538 
Q 2691 219 2414 64 
Q 2138 -91 1772 -91 
Q 1169 -91 856 284 
Q 544 659 544 1381 
z
M 1991 3584 
L 1991 3584 
z
" transform="scale(0.015625)"/>
       <path id="DejaVuSans-64" d="M 2906 2969 
L 2906 4863 
L 3481 4863 
L 3481 0 
L 2906 0 
L 2906 525 
Q 2725 213 2448 61 
Q 2172 -91 1784 -91 
Q 1150 -91 751 415 
Q 353 922 353 1747 
Q 353 2572 751 3078 
Q 1150 3584 1784 3584 
Q 2172 3584 2448 3432 
Q 2725 3281 2906 2969 
z
M 947 1747 
Q 947 1113 1208 752 
Q 1469 391 1925 391 
Q 2381 391 2643 752 
Q 2906 1113 2906 1747 
Q 2906 2381 2643 2742 
Q 2381 3103 1925 3103 
Q 1469 3103 1208 2742 
Q 947 2381 947 1747 
z
" transform="scale(0.015625)"/>
      </defs>
      <use xlink:href="#DejaVuSans-4d" transform="translate(0 0.015625)"/>
      <use xlink:href="#DejaVuSans-65" transform="translate(86.279297 0.015625)"/>
      <use xlink:href="#DejaVuSans-61" transform="translate(147.802734 0.015625)"/>
      <use xlink:href="#DejaVuSans-6e" transform="translate(209.082031 0.015625)"/>
      <use xlink:href="#DejaVuSans-20" transform="translate(272.460938 0.015625)"/>
      <use xlink:href="#DejaVuSans-61" transform="translate(304.248047 0.015625)"/>
      <use xlink:href="#DejaVuSans-6d" transform="translate(365.527344 0.015625)"/>
      <use xlink:href="#DejaVuSans-70" transform="translate(462.939453 0.015625)"/>
      <use xlink:href="#DejaVuSans-6c" transform="translate(526.416016 0.015625)"/>
      <use xlink:href="#DejaVuSans-69" transform="translate(554.199219 0.015625)"/>
      <use xlink:href="#DejaVuSans-74" transform="translate(581.982422 0.015625)"/>
      <use xlink:href="#DejaVuSans-75" transform="translate(621.191406 0.015625)"/>
      <use xlink:href="#DejaVuSans-64" transform="translate(684.570312 0.015625)"/>
      <use xlink:href="#DejaVuSans-65" transform="translate(748.046875 0.015625)"/>
      <use xlink:href="#DejaVuSans-20" transform="translate(809.570312 0.015625)"/>
      <use xlink:href="#DejaVuSans-28" transform="translate(841.357422 0.015625)"/>
      <use xlink:href="#DejaVuSans-Oblique-3bc" transform="translate(880.371094 0.015625)"/>
      <use xlink:href="#DejaVuSans-56" transform="translate(943.994141 0.015625)"/>
      <use xlink:href="#DejaVuSans-29" transform="translate(1012.402344 0.015625)"/>
     </g>
    </g>
    <g id="text_19">
     <!-- 1e−3 -->
     <g transform="translate(220.655 18.72) scale(0.1 -0.1)">
      <use xlink:href="#DejaVuSans-31"/>
      <use xlink:href="#DejaVuSans-65" x="63.623047"/>
      <use xlink:href="#DejaVuSans-2212" x="125.146484"/>
      <use xlink:href="#DejaVuSans-33" x="208.935547"/>
     </g>
    </g>
   </g>
   <g id="patch_6">
    <path d="M 220.655 101.32 
L 220.655 21.72 
" style="fill: none; stroke: #000000; stroke-width: 0.8; stroke-linejoin: miter; stroke-linecap: square"/>
   </g>
   <g id="patch_7">
    <path d="M 220.655 101.32 
L 349.2 101.32 
" style="fill: none; stroke: #000000; stroke-width: 0.8; stroke-linejoin: miter; stroke-linecap: square"/>
   </g>
   <g id="PathCollection_6">
    <defs>
     <path id="ma50509766d" d="M 0 2 
C 0.530406 2 1.03916 1.789267 1.414214 1.414214 
C 1.789267 1.03916 2 0.530406 2 0 
C 2 -0.530406 1.789267 -1.03916 1.414214 -1.414214 
C 1.03916 -1.789267 0.530406 -2 0 -2 
C -0.530406 -2 -1.03916 -1.789267 -1.414214 -1.414214 
C -1.789267 -1.03916 -2 -0.530406 -2 0 
C -2 0.530406 -1.789267 1.03916 -1.414214 1.414214 
C -1.03916 1.789267 -0.530406 2 0 2 
z
"/>
    </defs>
    <g clip-path="url(#p797193bf60)">
     <use xlink:href="#ma50509766d" x="229.397996" y="67.729874" style="fill: #00ffff; fill-opacity: 0.3"/>
     <use xlink:href="#ma50509766d" x="227.557167" y="66.853931" style="fill: #00ffff; fill-opacity: 0.3"/>
     <use xlink:href="#ma50509766d" x="230.471948" y="97.701818" style="fill: #00ffff; fill-opacity: 0.3"/>
     <use xlink:href="#ma50509766d" x="230.74241" y="50.808976" style="fill: #00ffff; fill-opacity: 0.3"/>
     <use xlink:href="#ma50509766d" x="227.237805" y="84.130128" style="fill: #00ffff; fill-opacity: 0.3"/>
     <use xlink:href="#ma50509766d" x="227.134054" y="81.873622" style="fill: #00ffff; fill-opacity: 0.3"/>
     <use xlink:href="#ma50509766d" x="230.103706" y="38.66517" style="fill: #00ffff; fill-opacity: 0.3"/>
     <use xlink:href="#ma50509766d" x="228.43389" y="79.809352" style="fill: #00ffff; fill-opacity: 0.3"/>
     <use xlink:href="#ma50509766d" x="229.813964" y="64.594112" style="fill: #00ffff; fill-opacity: 0.3"/>
     <use xlink:href="#ma50509766d" x="229.015033" y="82.482229" style="fill: #00ffff; fill-opacity: 0.3"/>
     <use xlink:href="#ma50509766d" x="226.497955" y="75.820231" style="fill: #00ffff; fill-opacity: 0.3"/>
     <use xlink:href="#ma50509766d" x="227.161754" y="30.147997" style="fill: #00ffff; fill-opacity: 0.3"/>
     <use xlink:href="#ma50509766d" x="231.474935" y="63.71869" style="fill: #00ffff; fill-opacity: 0.3"/>
     <use xlink:href="#ma50509766d" x="230.666361" y="63.176678" style="fill: #00ffff; fill-opacity: 0.3"/>
     <use xlink:href="#ma50509766d" x="227.196784" y="84.578759" style="fill: #00ffff; fill-opacity: 0.3"/>
     <use xlink:href="#ma50509766d" x="230.721829" y="77.417046" style="fill: #00ffff; fill-opacity: 0.3"/>
     <use xlink:href="#ma50509766d" x="231.450829" y="63.442675" style="fill: #00ffff; fill-opacity: 0.3"/>
     <use xlink:href="#ma50509766d" x="230.077932" y="73.381591" style="fill: #00ffff; fill-opacity: 0.3"/>
     <use xlink:href="#ma50509766d" x="227.129922" y="44.092701" style="fill: #00ffff; fill-opacity: 0.3"/>
     <use xlink:href="#ma50509766d" x="229.11178" y="83.4875" style="fill: #00ffff; fill-opacity: 0.3"/>
     <use xlink:href="#ma50509766d" x="228.573255" y="56.334394" style="fill: #00ffff; fill-opacity: 0.3"/>
    </g>
   </g>
   <g id="PathCollection_7">
    <defs>
     <path id="me151eb4b48" d="M 0 2 
C 0.530406 2 1.03916 1.789267 1.414214 1.414214 
C 1.789267 1.03916 2 0.530406 2 0 
C 2 -0.530406 1.789267 -1.03916 1.414214 -1.414214 
C 1.03916 -1.789267 0.530406 -2 0 -2 
C -0.530406 -2 -1.03916 -1.789267 -1.414214 -1.414214 
C -1.789267 -1.03916 -2 -0.530406 -2 0 
C -2 0.530406 -1.789267 1.03916 -1.414214 1.414214 
C -1.03916 1.789267 -0.530406 2 0 2 
z
"/>
    </defs>
    <g clip-path="url(#p797193bf60)">
     <use xlink:href="#me151eb4b48" x="257.163299" y="54.014329" style="fill: #40bfff; fill-opacity: 0.3"/>
     <use xlink:href="#me151eb4b48" x="256.093045" y="56.524634" style="fill: #40bfff; fill-opacity: 0.3"/>
     <use xlink:href="#me151eb4b48" x="254.658032" y="93.495906" style="fill: #40bfff; fill-opacity: 0.3"/>
     <use xlink:href="#me151eb4b48" x="257.991745" y="51.256261" style="fill: #40bfff; fill-opacity: 0.3"/>
     <use xlink:href="#me151eb4b48" x="256.385609" y="85.184376" style="fill: #40bfff; fill-opacity: 0.3"/>
     <use xlink:href="#me151eb4b48" x="255.200841" y="76.878721" style="fill: #40bfff; fill-opacity: 0.3"/>
     <use xlink:href="#me151eb4b48" x="256.589608" y="43.048086" style="fill: #40bfff; fill-opacity: 0.3"/>
     <use xlink:href="#me151eb4b48" x="257.91381" y="84.410204" style="fill: #40bfff; fill-opacity: 0.3"/>
     <use xlink:href="#me151eb4b48" x="258.544106" y="61.918196" style="fill: #40bfff; fill-opacity: 0.3"/>
     <use xlink:href="#me151eb4b48" x="259.372956" y="79.82376" style="fill: #40bfff; fill-opacity: 0.3"/>
     <use xlink:href="#me151eb4b48" x="259.56637" y="71.493279" style="fill: #40bfff; fill-opacity: 0.3"/>
     <use xlink:href="#me151eb4b48" x="258.279069" y="29.425418" style="fill: #40bfff; fill-opacity: 0.3"/>
     <use xlink:href="#me151eb4b48" x="259.460936" y="62.750591" style="fill: #40bfff; fill-opacity: 0.3"/>
     <use xlink:href="#me151eb4b48" x="256.919623" y="53.027818" style="fill: #40bfff; fill-opacity: 0.3"/>
     <use xlink:href="#me151eb4b48" x="257.275171" y="83.618778" style="fill: #40bfff; fill-opacity: 0.3"/>
     <use xlink:href="#me151eb4b48" x="257.570395" y="68.869663" style="fill: #40bfff; fill-opacity: 0.3"/>
     <use xlink:href="#me151eb4b48" x="255.612538" y="55.987163" style="fill: #40bfff; fill-opacity: 0.3"/>
     <use xlink:href="#me151eb4b48" x="255.038231" y="82.851155" style="fill: #40bfff; fill-opacity: 0.3"/>
     <use xlink:href="#me151eb4b48" x="257.667722" y="48.417645" style="fill: #40bfff; fill-opacity: 0.3"/>
     <use xlink:href="#me151eb4b48" x="255.831112" y="75.511214" style="fill: #40bfff; fill-opacity: 0.3"/>
     <use xlink:href="#me151eb4b48" x="256.415399" y="56.2294" style="fill: #40bfff; fill-opacity: 0.3"/>
    </g>
   </g>
   <g id="PathCollection_8">
    <defs>
     <path id="m8e20c3159d" d="M 0 2 
C 0.530406 2 1.03916 1.789267 1.414214 1.414214 
C 1.789267 1.03916 2 0.530406 2 0 
C 2 -0.530406 1.789267 -1.03916 1.414214 -1.414214 
C 1.03916 -1.789267 0.530406 -2 0 -2 
C -0.530406 -2 -1.03916 -1.789267 -1.414214 -1.414214 
C -1.789267 -1.03916 -2 -0.530406 -2 0 
C -2 0.530406 -1.789267 1.03916 -1.414214 1.414214 
C -1.03916 1.789267 -0.530406 2 0 2 
z
"/>
    </defs>
    <g clip-path="url(#p797193bf60)">
     <use xlink:href="#m8e20c3159d" x="284.312166" y="57.256569" style="fill: #807fff; fill-opacity: 0.3"/>
     <use xlink:href="#m8e20c3159d" x="284.055393" y="56.372346" style="fill: #807fff; fill-opacity: 0.3"/>
     <use xlink:href="#m8e20c3159d" x="283.938143" y="97.114782" style="fill: #807fff; fill-opacity: 0.3"/>
     <use xlink:href="#m8e20c3159d" x="285.638026" y="47.595245" style="fill: #807fff; fill-opacity: 0.3"/>
     <use xlink:href="#m8e20c3159d" x="283.958447" y="81.359052" style="fill: #807fff; fill-opacity: 0.3"/>
     <use xlink:href="#m8e20c3159d" x="287.441775" y="77.695368" style="fill: #807fff; fill-opacity: 0.3"/>
     <use xlink:href="#m8e20c3159d" x="286.745084" y="43.657869" style="fill: #807fff; fill-opacity: 0.3"/>
     <use xlink:href="#m8e20c3159d" x="287.407537" y="82.577047" style="fill: #807fff; fill-opacity: 0.3"/>
     <use xlink:href="#m8e20c3159d" x="282.565645" y="66.494056" style="fill: #807fff; fill-opacity: 0.3"/>
     <use xlink:href="#m8e20c3159d" x="283.997176" y="82.846517" style="fill: #807fff; fill-opacity: 0.3"/>
     <use xlink:href="#m8e20c3159d" x="286.915807" y="62.734218" style="fill: #807fff; fill-opacity: 0.3"/>
     <use xlink:href="#m8e20c3159d" x="287.642845" y="26.33671" style="fill: #807fff; fill-opacity: 0.3"/>
     <use xlink:href="#m8e20c3159d" x="284.535219" y="60.983378" style="fill: #807fff; fill-opacity: 0.3"/>
     <use xlink:href="#m8e20c3159d" x="284.474847" y="64.12189" style="fill: #807fff; fill-opacity: 0.3"/>
     <use xlink:href="#m8e20c3159d" x="285.376016" y="79.285783" style="fill: #807fff; fill-opacity: 0.3"/>
     <use xlink:href="#m8e20c3159d" x="285.850722" y="73.089001" style="fill: #807fff; fill-opacity: 0.3"/>
     <use xlink:href="#m8e20c3159d" x="283.290449" y="60.313694" style="fill: #807fff; fill-opacity: 0.3"/>
     <use xlink:href="#m8e20c3159d" x="284.891956" y="79.080352" style="fill: #807fff; fill-opacity: 0.3"/>
     <use xlink:href="#m8e20c3159d" x="284.751092" y="40.579039" style="fill: #807fff; fill-opacity: 0.3"/>
     <use xlink:href="#m8e20c3159d" x="284.127266" y="82.279118" style="fill: #807fff; fill-opacity: 0.3"/>
     <use xlink:href="#m8e20c3159d" x="287.175021" y="57.283113" style="fill: #807fff; fill-opacity: 0.3"/>
    </g>
   </g>
   <g id="PathCollection_9">
    <defs>
     <path id="m69b99d184b" d="M 0 2 
C 0.530406 2 1.03916 1.789267 1.414214 1.414214 
C 1.789267 1.03916 2 0.530406 2 0 
C 2 -0.530406 1.789267 -1.03916 1.414214 -1.414214 
C 1.03916 -1.789267 0.530406 -2 0 -2 
C -0.530406 -2 -1.03916 -1.789267 -1.414214 -1.414214 
C -1.789267 -1.03916 -2 -0.530406 -2 0 
C -2 0.530406 -1.789267 1.03916 -1.414214 1.414214 
C -1.03916 1.789267 -0.530406 2 0 2 
z
"/>
    </defs>
    <g clip-path="url(#p797193bf60)">
     <use xlink:href="#m69b99d184b" x="311.215542" y="58.896097" style="fill: #c03fff; fill-opacity: 0.3"/>
     <use xlink:href="#m69b99d184b" x="315.780399" y="64.233836" style="fill: #c03fff; fill-opacity: 0.3"/>
     <use xlink:href="#m69b99d184b" x="311.655774" y="93.04417" style="fill: #c03fff; fill-opacity: 0.3"/>
     <use xlink:href="#m69b99d184b" x="312.647659" y="40.593118" style="fill: #c03fff; fill-opacity: 0.3"/>
     <use xlink:href="#m69b99d184b" x="311.064897" y="85.83114" style="fill: #c03fff; fill-opacity: 0.3"/>
     <use xlink:href="#m69b99d184b" x="311.998998" y="72.47045" style="fill: #c03fff; fill-opacity: 0.3"/>
     <use xlink:href="#m69b99d184b" x="314.800499" y="35.676321" style="fill: #c03fff; fill-opacity: 0.3"/>
     <use xlink:href="#m69b99d184b" x="310.560611" y="92.511902" style="fill: #c03fff; fill-opacity: 0.3"/>
     <use xlink:href="#m69b99d184b" x="310.833846" y="60.933606" style="fill: #c03fff; fill-opacity: 0.3"/>
     <use xlink:href="#m69b99d184b" x="312.270428" y="78.500822" style="fill: #c03fff; fill-opacity: 0.3"/>
     <use xlink:href="#m69b99d184b" x="315.066873" y="70.063351" style="fill: #c03fff; fill-opacity: 0.3"/>
     <use xlink:href="#m69b99d184b" x="315.572717" y="26.052383" style="fill: #c03fff; fill-opacity: 0.3"/>
     <use xlink:href="#m69b99d184b" x="312.317423" y="66.757192" style="fill: #c03fff; fill-opacity: 0.3"/>
     <use xlink:href="#m69b99d184b" x="315.275042" y="57.840664" style="fill: #c03fff; fill-opacity: 0.3"/>
     <use xlink:href="#m69b99d184b" x="312.426619" y="84.667956" style="fill: #c03fff; fill-opacity: 0.3"/>
     <use xlink:href="#m69b99d184b" x="312.038771" y="66.876896" style="fill: #c03fff; fill-opacity: 0.3"/>
     <use xlink:href="#m69b99d184b" x="311.554746" y="53.208347" style="fill: #c03fff; fill-opacity: 0.3"/>
     <use xlink:href="#m69b99d184b" x="315.064472" y="73.557827" style="fill: #c03fff; fill-opacity: 0.3"/>
     <use xlink:href="#m69b99d184b" x="312.033123" y="38.448734" style="fill: #c03fff; fill-opacity: 0.3"/>
     <use xlink:href="#m69b99d184b" x="313.453293" y="73.489303" style="fill: #c03fff; fill-opacity: 0.3"/>
     <use xlink:href="#m69b99d184b" x="311.103035" y="56.444401" style="fill: #c03fff; fill-opacity: 0.3"/>
    </g>
   </g>
   <g id="PathCollection_10">
    <defs>
     <path id="md385532857" d="M 0 2 
C 0.530406 2 1.03916 1.789267 1.414214 1.414214 
C 1.789267 1.03916 2 0.530406 2 0 
C 2 -0.530406 1.789267 -1.03916 1.414214 -1.414214 
C 1.03916 -1.789267 0.530406 -2 0 -2 
C -0.530406 -2 -1.03916 -1.789267 -1.414214 -1.414214 
C -1.789267 -1.03916 -2 -0.530406 -2 0 
C -2 0.530406 -1.789267 1.03916 -1.414214 1.414214 
C -1.03916 1.789267 -0.530406 2 0 2 
z
"/>
    </defs>
    <g clip-path="url(#p797193bf60)">
     <use xlink:href="#md385532857" x="338.877293" y="56.68372" style="fill: #ff00ff; fill-opacity: 0.3"/>
     <use xlink:href="#md385532857" x="341.897939" y="57.117462" style="fill: #ff00ff; fill-opacity: 0.3"/>
     <use xlink:href="#md385532857" x="339.246714" y="86.568138" style="fill: #ff00ff; fill-opacity: 0.3"/>
     <use xlink:href="#md385532857" x="340.756734" y="41.780777" style="fill: #ff00ff; fill-opacity: 0.3"/>
     <use xlink:href="#md385532857" x="338.659196" y="84.381313" style="fill: #ff00ff; fill-opacity: 0.3"/>
     <use xlink:href="#md385532857" x="342.800237" y="79.380164" style="fill: #ff00ff; fill-opacity: 0.3"/>
     <use xlink:href="#md385532857" x="341.877981" y="30.261802" style="fill: #ff00ff; fill-opacity: 0.3"/>
     <use xlink:href="#md385532857" x="342.466468" y="82.322065" style="fill: #ff00ff; fill-opacity: 0.3"/>
     <use xlink:href="#md385532857" x="342.181958" y="55.259312" style="fill: #ff00ff; fill-opacity: 0.3"/>
     <use xlink:href="#md385532857" x="340.431288" y="76.687335" style="fill: #ff00ff; fill-opacity: 0.3"/>
     <use xlink:href="#md385532857" x="343.357045" y="61.722504" style="fill: #ff00ff; fill-opacity: 0.3"/>
     <use xlink:href="#md385532857" x="338.645388" y="25.338182" style="fill: #ff00ff; fill-opacity: 0.3"/>
     <use xlink:href="#md385532857" x="340.366087" y="57.743818" style="fill: #ff00ff; fill-opacity: 0.3"/>
     <use xlink:href="#md385532857" x="343.003179" y="53.399105" style="fill: #ff00ff; fill-opacity: 0.3"/>
     <use xlink:href="#md385532857" x="342.312683" y="78.225784" style="fill: #ff00ff; fill-opacity: 0.3"/>
     <use xlink:href="#md385532857" x="341.007351" y="72.571149" style="fill: #ff00ff; fill-opacity: 0.3"/>
     <use xlink:href="#md385532857" x="342.713143" y="49.817424" style="fill: #ff00ff; fill-opacity: 0.3"/>
     <use xlink:href="#md385532857" x="340.521621" y="75.512935" style="fill: #ff00ff; fill-opacity: 0.3"/>
     <use xlink:href="#md385532857" x="342.993303" y="36.01729" style="fill: #ff00ff; fill-opacity: 0.3"/>
     <use xlink:href="#md385532857" x="338.868768" y="76.705968" style="fill: #ff00ff; fill-opacity: 0.3"/>
     <use xlink:href="#md385532857" x="343.131765" y="51.149022" style="fill: #ff00ff; fill-opacity: 0.3"/>
    </g>
   </g>
  </g>
 </g>
 <defs>
  <clipPath id="p923240f41c">
   <rect x="50.24" y="21.72" width="128.545" height="79.6"/>
  </clipPath>
  <clipPath id="p797193bf60">
   <rect x="220.655" y="21.72" width="128.545" height="79.6"/>
  </clipPath>
 </defs>
</svg>
