<?xml version="1.0" encoding="utf-8" standalone="no"?>
<!DOCTYPE svg PUBLIC "-//W3C//DTD SVG 1.1//EN"
  "http://www.w3.org/Graphics/SVG/1.1/DTD/svg11.dtd">
<svg xmlns:xlink="http://www.w3.org/1999/xlink" width="360pt" height="144pt" viewBox="0 0 360 144" xmlns="http://www.w3.org/2000/svg" version="1.1">
 <metadata>
  <rdf:RDF xmlns:dc="http://purl.org/dc/elements/1.1/" xmlns:cc="http://creativecommons.org/ns#" xmlns:rdf="http://www.w3.org/1999/02/22-rdf-syntax-ns#">
   <cc:Work>
    <dc:type rdf:resource="http://purl.org/dc/dcmitype/StillImage"/>
    <dc:date>2025-07-10T08:18:37.662758</dc:date>
    <dc:format>image/svg+xml</dc:format>
    <dc:creator>
     <cc:Agent>
      <dc:title>Matplotlib v3.7.1, https://matplotlib.org/</dc:title>
     </cc:Agent>
    </dc:creator>
   </cc:Work>
  </rdf:RDF>
 </metadata>
 <defs>
  <style type="text/css">*{stroke-linejoin: round; stroke-linecap: butt}</style>
 </defs>
 <g id="figure_1">
  <g id="patch_1">
   <path d="M 0 144 
L 360 144 
L 360 0 
L 0 0 
z
" style="fill: #ffffff"/>
  </g>
  <g id="axes_1">
   <g id="patch_2">
    <path d="M 50.24 101.32 
L 174.6 101.32 
L 174.6 10.8 
L 50.24 10.8 
z
" style="fill: #ffffff"/>
   </g>
   <g id="line2d_1">
    <path d="M 50.24 67.720386 
L 174.6 67.720386 
" clip-path="url(#pa42f10fd04)" style="fill: none; stroke: #d3d3d3; stroke-width: 0.5; stroke-linecap: square"/>
   </g>
   <g id="line2d_2">
    <path d="M 74.809043 101.32 
L 74.809043 10.8 
" clip-path="url(#pa42f10fd04)" style="fill: none; stroke: #d3d3d3; stroke-width: 0.5; stroke-linecap: square"/>
   </g>
   <g id="PolyCollection_1">
    <defs>
     <path id="mde322100c2" d="M 55.892727 -87.648578 
L 55.892727 -82.50912 
L 56.631646 -81.037068 
L 57.370564 -79.316902 
L 58.109483 -76.975089 
L 58.848402 -75.031155 
L 59.58732 -73.376733 
L 60.326239 -71.995987 
L 61.065157 -71.354792 
L 61.804076 -71.396453 
L 62.542995 -71.085931 
L 63.281913 -71.381974 
L 64.020832 -71.330212 
L 64.75975 -71.943398 
L 65.498669 -72.637534 
L 66.237588 -73.378754 
L 66.976506 -74.556405 
L 67.715425 -75.952271 
L 68.454343 -76.714385 
L 69.193262 -77.000672 
L 69.932181 -77.087743 
L 70.671099 -76.803339 
L 71.410018 -76.622286 
L 72.148936 -76.597753 
L 72.887855 -76.065657 
L 73.626774 -75.888543 
L 74.365692 -75.62135 
L 75.104611 -75.081196 
L 75.843529 -75.103936 
L 76.582448 -75.442252 
L 77.321367 -75.505922 
L 78.060285 -75.486061 
L 78.799204 -76.443112 
L 79.538122 -77.024604 
L 80.277041 -77.776659 
L 81.01596 -78.715058 
L 81.754878 -79.291507 
L 82.493797 -80.031765 
L 83.232715 -80.411147 
L 83.971634 -81.213136 
L 84.710553 -81.726189 
L 85.449471 -81.686355 
L 86.18839 -81.740759 
L 86.927308 -81.379664 
L 87.666227 -80.919987 
L 88.405146 -81.728954 
L 89.144064 -82.515968 
L 89.882983 -83.617981 
L 90.621901 -84.672613 
L 91.36082 -85.920529 
L 92.099739 -87.800595 
L 92.838657 -90.097199 
L 93.577576 -93.93212 
L 94.316494 -98.943853 
L 95.055413 -103.843247 
L 95.794332 -108.067284 
L 96.53325 -110.872036 
L 97.272169 -112.886093 
L 98.011087 -114.033555 
L 98.750006 -114.089796 
L 99.488925 -113.283131 
L 100.227843 -112.092687 
L 100.966762 -109.805505 
L 101.70568 -106.849929 
L 102.444599 -103.11211 
L 103.183518 -98.31863 
L 103.922436 -92.869362 
L 104.661355 -87.393608 
L 105.400273 -82.262045 
L 106.139192 -77.374387 
L 106.878111 -73.890253 
L 107.617029 -70.802874 
L 108.355948 -69.033177 
L 109.094866 -67.655317 
L 109.833785 -66.841837 
L 110.572704 -67.147965 
L 111.311622 -67.806938 
L 112.050541 -68.746912 
L 112.789459 -70.266115 
L 113.528378 -72.264839 
L 114.267296 -74.338523 
L 115.006215 -76.613054 
L 115.745134 -78.346649 
L 116.484052 -80.087735 
L 117.222971 -81.322367 
L 117.961889 -82.308444 
L 118.700808 -83.160381 
L 119.439727 -83.298927 
L 120.178645 -83.123438 
L 120.917564 -82.940395 
L 121.656482 -82.415047 
L 122.395401 -81.106986 
L 123.13432 -79.744318 
L 123.873238 -78.475863 
L 124.612157 -76.634329 
L 125.351075 -75.104125 
L 126.089994 -73.192937 
L 126.828913 -71.303257 
L 127.567831 -69.197346 
L 128.30675 -67.683196 
L 129.045668 -66.124992 
L 129.784587 -65.021795 
L 130.523506 -64.600407 
L 131.262424 -63.997391 
L 132.001343 -63.369137 
L 132.740261 -62.650798 
L 133.47918 -61.875758 
L 134.218099 -61.320755 
L 134.957017 -61.220022 
L 135.695936 -61.372621 
L 136.434854 -61.575872 
L 137.173773 -61.27194 
L 137.912692 -62.533842 
L 138.65161 -63.050986 
L 139.390529 -63.725197 
L 140.129447 -64.46828 
L 140.868366 -65.080296 
L 141.607285 -65.874889 
L 142.346203 -66.417506 
L 143.085122 -67.339226 
L 143.82404 -68.299394 
L 144.562959 -68.820594 
L 145.301878 -69.439613 
L 146.040796 -70.264448 
L 146.779715 -71.054753 
L 147.518633 -71.484065 
L 148.257552 -72.206182 
L 148.996471 -72.812577 
L 149.735389 -73.92499 
L 150.474308 -74.724089 
L 151.213226 -75.412566 
L 151.952145 -76.253224 
L 152.691064 -76.396844 
L 153.429982 -76.310082 
L 154.168901 -76.595531 
L 154.907819 -76.346283 
L 155.646738 -76.12018 
L 156.385657 -76.100693 
L 157.124575 -75.947244 
L 157.863494 -76.605877 
L 158.602412 -76.822654 
L 159.341331 -76.613904 
L 160.08025 -76.655572 
L 160.819168 -76.486308 
L 161.558087 -76.201462 
L 162.297005 -75.705422 
L 163.035924 -75.07903 
L 163.774843 -74.641726 
L 164.513761 -74.117647 
L 165.25268 -73.785862 
L 165.991598 -73.629984 
L 166.730517 -73.638733 
L 167.469436 -73.541662 
L 168.208354 -72.920815 
L 168.947273 -72.277425 
L 168.947273 -84.108452 
L 168.947273 -84.108452 
L 168.208354 -84.798406 
L 167.469436 -85.489298 
L 166.730517 -85.595155 
L 165.991598 -85.596882 
L 165.25268 -85.727433 
L 164.513761 -86.068477 
L 163.774843 -86.617384 
L 163.035924 -86.907022 
L 162.297005 -87.449238 
L 161.558087 -87.974325 
L 160.819168 -88.24294 
L 160.08025 -88.25788 
L 159.341331 -88.119023 
L 158.602412 -88.175399 
L 157.863494 -87.942799 
L 157.124575 -87.390944 
L 156.385657 -87.382983 
L 155.646738 -87.352976 
L 154.907819 -87.598889 
L 154.168901 -88.106979 
L 153.429982 -88.159634 
L 152.691064 -88.656322 
L 151.952145 -89.01879 
L 151.213226 -88.547563 
L 150.474308 -88.155668 
L 149.735389 -87.470675 
L 148.996471 -86.317067 
L 148.257552 -85.43614 
L 147.518633 -84.304127 
L 146.779715 -83.611128 
L 146.040796 -82.485175 
L 145.301878 -81.526483 
L 144.562959 -80.864112 
L 143.82404 -79.967826 
L 143.085122 -78.833057 
L 142.346203 -77.870695 
L 141.607285 -77.253283 
L 140.868366 -76.369554 
L 140.129447 -75.764554 
L 139.390529 -75.177988 
L 138.65161 -74.799951 
L 137.912692 -74.363657 
L 137.173773 -73.275417 
L 136.434854 -73.418268 
L 135.695936 -73.307366 
L 134.957017 -73.257819 
L 134.218099 -73.482659 
L 133.47918 -74.22149 
L 132.740261 -75.178226 
L 132.001343 -76.325518 
L 131.262424 -77.48275 
L 130.523506 -78.499935 
L 129.784587 -79.187928 
L 129.045668 -80.520654 
L 128.30675 -82.178976 
L 127.567831 -83.451038 
L 126.828913 -85.02957 
L 126.089994 -86.556097 
L 125.351075 -87.952535 
L 124.612157 -88.984375 
L 123.873238 -90.396539 
L 123.13432 -91.285462 
L 122.395401 -92.054974 
L 121.656482 -92.875098 
L 120.917564 -93.34507 
L 120.178645 -93.315914 
L 119.439727 -93.553922 
L 118.700808 -93.513272 
L 117.961889 -92.917944 
L 117.222971 -92.122781 
L 116.484052 -91.116764 
L 115.745134 -89.79514 
L 115.006215 -88.442842 
L 114.267296 -86.685796 
L 113.528378 -85.044391 
L 112.789459 -83.449144 
L 112.050541 -82.39573 
L 111.311622 -81.523382 
L 110.572704 -80.512806 
L 109.833785 -79.807462 
L 109.094866 -80.002583 
L 108.355948 -80.883449 
L 107.617029 -82.126201 
L 106.878111 -84.715854 
L 106.139192 -87.807703 
L 105.400273 -92.291744 
L 104.661355 -96.978522 
L 103.922436 -102.073483 
L 103.183518 -107.158155 
L 102.444599 -111.932624 
L 101.70568 -115.742339 
L 100.966762 -118.822154 
L 100.227843 -120.98663 
L 99.488925 -122.351897 
L 98.750006 -123.481431 
L 98.011087 -124.1751 
L 97.272169 -123.984484 
L 96.53325 -122.974431 
L 95.794332 -121.012451 
L 95.055413 -117.370631 
L 94.316494 -112.659892 
L 93.577576 -107.559536 
L 92.838657 -103.323821 
L 92.099739 -99.866505 
L 91.36082 -96.868607 
L 90.621901 -94.328273 
L 89.882983 -92.039775 
L 89.144064 -89.858782 
L 88.405146 -87.963932 
L 87.666227 -86.080442 
L 86.927308 -85.890159 
L 86.18839 -86.068453 
L 85.449471 -86.226124 
L 84.710553 -86.428729 
L 83.971634 -86.124522 
L 83.232715 -85.646242 
L 82.493797 -85.316439 
L 81.754878 -84.289932 
L 81.01596 -83.26882 
L 80.277041 -82.156963 
L 79.538122 -81.07029 
L 78.799204 -80.474874 
L 78.060285 -79.483803 
L 77.321367 -79.481079 
L 76.582448 -79.510462 
L 75.843529 -79.287632 
L 75.104611 -79.217273 
L 74.365692 -79.409796 
L 73.626774 -79.362965 
L 72.887855 -79.076127 
L 72.148936 -79.07017 
L 71.410018 -78.905036 
L 70.671099 -79.076301 
L 69.932181 -79.456021 
L 69.193262 -79.546736 
L 68.454343 -79.354412 
L 67.715425 -78.698831 
L 66.976506 -77.238711 
L 66.237588 -75.964254 
L 65.498669 -75.209271 
L 64.75975 -74.429635 
L 64.020832 -73.812164 
L 63.281913 -73.741142 
L 62.542995 -73.392015 
L 61.804076 -73.707992 
L 61.065157 -73.89515 
L 60.326239 -74.714941 
L 59.58732 -76.47489 
L 58.848402 -78.324436 
L 58.109483 -80.631047 
L 57.370564 -83.500475 
L 56.631646 -85.835791 
L 55.892727 -87.648578 
z
" style="stroke: #00ffff; stroke-opacity: 0.2"/>
    </defs>
    <g clip-path="url(#pa42f10fd04)">
     <use xlink:href="#mde322100c2" x="0" y="144" style="fill: #00ffff; fill-opacity: 0.2; stroke: #00ffff; stroke-opacity: 0.2"/>
    </g>
   </g>
   <g id="PolyCollection_2">
    <defs>
     <path id="md5758a93ea" d="M 55.892727 -90.550017 
L 55.892727 -86.080093 
L 56.631646 -84.182621 
L 57.370564 -81.403431 
L 58.109483 -78.322236 
L 58.848402 -75.789929 
L 59.58732 -73.983456 
L 60.326239 -72.326273 
L 61.065157 -71.280307 
L 61.804076 -70.814293 
L 62.542995 -70.55709 
L 63.281913 -70.246568 
L 64.020832 -69.963732 
L 64.75975 -70.214777 
L 65.498669 -70.702696 
L 66.237588 -71.733072 
L 66.976506 -73.149617 
L 67.715425 -75.199016 
L 68.454343 -76.428026 
L 69.193262 -77.391048 
L 69.932181 -77.835554 
L 70.671099 -77.628931 
L 71.410018 -77.516903 
L 72.148936 -77.214419 
L 72.887855 -76.765777 
L 73.626774 -76.348798 
L 74.365692 -76.162508 
L 75.104611 -75.770745 
L 75.843529 -75.977916 
L 76.582448 -76.269267 
L 77.321367 -76.289322 
L 78.060285 -77.202985 
L 78.799204 -78.075972 
L 79.538122 -79.452542 
L 80.277041 -80.256117 
L 81.01596 -81.016678 
L 81.754878 -81.260133 
L 82.493797 -81.667288 
L 83.232715 -81.883263 
L 83.971634 -81.74463 
L 84.710553 -81.576595 
L 85.449471 -81.122353 
L 86.18839 -81.223547 
L 86.927308 -81.094892 
L 87.666227 -81.121441 
L 88.405146 -82.037817 
L 89.144064 -83.0283 
L 89.882983 -84.145459 
L 90.621901 -85.473526 
L 91.36082 -86.787867 
L 92.099739 -88.99834 
L 92.838657 -91.732964 
L 93.577576 -95.404977 
L 94.316494 -100.589006 
L 95.055413 -105.578864 
L 95.794332 -109.732031 
L 96.53325 -113.335878 
L 97.272169 -115.486577 
L 98.011087 -116.869179 
L 98.750006 -117.01355 
L 99.488925 -116.282981 
L 100.227843 -114.966985 
L 100.966762 -112.497857 
L 101.70568 -109.947913 
L 102.444599 -106.525609 
L 103.183518 -101.972606 
L 103.922436 -96.904221 
L 104.661355 -91.490588 
L 105.400273 -85.967285 
L 106.139192 -81.02935 
L 106.878111 -76.896349 
L 107.617029 -73.401334 
L 108.355948 -70.890837 
L 109.094866 -68.906554 
L 109.833785 -67.846145 
L 110.572704 -67.592853 
L 111.311622 -68.07414 
L 112.050541 -68.721811 
L 112.789459 -70.43553 
L 113.528378 -72.349656 
L 114.267296 -74.372586 
L 115.006215 -76.321238 
L 115.745134 -78.314715 
L 116.484052 -79.971215 
L 117.222971 -81.088728 
L 117.961889 -82.148498 
L 118.700808 -82.898172 
L 119.439727 -83.489753 
L 120.178645 -83.750192 
L 120.917564 -83.75261 
L 121.656482 -83.186159 
L 122.395401 -81.995675 
L 123.13432 -80.699374 
L 123.873238 -79.306732 
L 124.612157 -77.813833 
L 125.351075 -76.158112 
L 126.089994 -74.744838 
L 126.828913 -72.755226 
L 127.567831 -70.906792 
L 128.30675 -69.067343 
L 129.045668 -67.202535 
L 129.784587 -65.594228 
L 130.523506 -64.460341 
L 131.262424 -63.342672 
L 132.001343 -62.59093 
L 132.740261 -62.10481 
L 133.47918 -61.646102 
L 134.218099 -61.457866 
L 134.957017 -61.380255 
L 135.695936 -61.229284 
L 136.434854 -61.442354 
L 137.173773 -62.012621 
L 137.912692 -62.323945 
L 138.65161 -62.374082 
L 139.390529 -62.652414 
L 140.129447 -63.191145 
L 140.868366 -63.766487 
L 141.607285 -64.03568 
L 142.346203 -64.628241 
L 143.085122 -65.281123 
L 143.82404 -66.639355 
L 144.562959 -68.492022 
L 145.301878 -69.766647 
L 146.040796 -70.828566 
L 146.779715 -71.647386 
L 147.518633 -72.363942 
L 148.257552 -73.210982 
L 148.996471 -73.76116 
L 149.735389 -74.53005 
L 150.474308 -74.635895 
L 151.213226 -75.118639 
L 151.952145 -75.20682 
L 152.691064 -75.459143 
L 153.429982 -75.619521 
L 154.168901 -76.253801 
L 154.907819 -76.77384 
L 155.646738 -77.050745 
L 156.385657 -77.027219 
L 157.124575 -77.546649 
L 157.863494 -77.786284 
L 158.602412 -77.630725 
L 159.341331 -76.854717 
L 160.08025 -76.587417 
L 160.819168 -76.545981 
L 161.558087 -76.478741 
L 162.297005 -76.026226 
L 163.035924 -75.640832 
L 163.774843 -74.605424 
L 164.513761 -74.199092 
L 165.25268 -73.762649 
L 165.991598 -73.127595 
L 166.730517 -73.069732 
L 167.469436 -72.647663 
L 168.208354 -72.649107 
L 168.947273 -72.209588 
L 168.947273 -84.189883 
L 168.947273 -84.189883 
L 168.208354 -84.786337 
L 167.469436 -84.762614 
L 166.730517 -85.161071 
L 165.991598 -85.312022 
L 165.25268 -85.736323 
L 164.513761 -85.956943 
L 163.774843 -86.17107 
L 163.035924 -87.055593 
L 162.297005 -87.652729 
L 161.558087 -88.178869 
L 160.819168 -88.409979 
L 160.08025 -88.622486 
L 159.341331 -88.96044 
L 158.602412 -89.544111 
L 157.863494 -89.498973 
L 157.124575 -88.980646 
L 156.385657 -88.325623 
L 155.646738 -88.295312 
L 154.907819 -87.931992 
L 154.168901 -87.39544 
L 153.429982 -86.919736 
L 152.691064 -86.603904 
L 151.952145 -86.303364 
L 151.213226 -86.069283 
L 150.474308 -85.485706 
L 149.735389 -85.116767 
L 148.996471 -84.388552 
L 148.257552 -83.856096 
L 147.518633 -83.043077 
L 146.779715 -82.488223 
L 146.040796 -81.882399 
L 145.301878 -80.903758 
L 144.562959 -79.741953 
L 143.82404 -77.986158 
L 143.085122 -76.635898 
L 142.346203 -75.895553 
L 141.607285 -75.353208 
L 140.868366 -75.078586 
L 140.129447 -74.495131 
L 139.390529 -73.939389 
L 138.65161 -73.748084 
L 137.912692 -73.626431 
L 137.173773 -73.296782 
L 136.434854 -72.678252 
L 135.695936 -72.570191 
L 134.957017 -72.705719 
L 134.218099 -72.824237 
L 133.47918 -73.108893 
L 132.740261 -73.912053 
L 132.001343 -74.499844 
L 131.262424 -75.580431 
L 130.523506 -76.970167 
L 129.784587 -78.330703 
L 129.045668 -80.152958 
L 128.30675 -81.968476 
L 127.567831 -83.50107 
L 126.828913 -84.941784 
L 126.089994 -86.539085 
L 125.351075 -87.629529 
L 124.612157 -88.856961 
L 123.873238 -90.006552 
L 123.13432 -91.077189 
L 122.395401 -92.098598 
L 121.656482 -93.10744 
L 120.917564 -93.370345 
L 120.178645 -93.094716 
L 119.439727 -92.716908 
L 118.700808 -92.386395 
L 117.961889 -92.236963 
L 117.222971 -91.77061 
L 116.484052 -91.303108 
L 115.745134 -90.067278 
L 115.006215 -88.519667 
L 114.267296 -86.934523 
L 113.528378 -85.128228 
L 112.789459 -83.415464 
L 112.050541 -81.806918 
L 111.311622 -81.189536 
L 110.572704 -80.607748 
L 109.833785 -80.346486 
L 109.094866 -80.535383 
L 108.355948 -81.740843 
L 107.617029 -83.462359 
L 106.878111 -86.349914 
L 106.139192 -90.213994 
L 105.400273 -95.036195 
L 104.661355 -100.507979 
L 103.922436 -105.916698 
L 103.183518 -111.235137 
L 102.444599 -116.027464 
L 101.70568 -119.470526 
L 100.966762 -122.165506 
L 100.227843 -124.636365 
L 99.488925 -126.019147 
L 98.750006 -126.870527 
L 98.011087 -126.806934 
L 97.272169 -125.82712 
L 96.53325 -124.29716 
L 95.794332 -121.399466 
L 95.055413 -118.105481 
L 94.316494 -113.638987 
L 93.577576 -108.706363 
L 92.838657 -104.81251 
L 92.099739 -101.036842 
L 91.36082 -97.329508 
L 90.621901 -94.507849 
L 89.882983 -91.782991 
L 89.144064 -89.418958 
L 88.405146 -87.615993 
L 87.666227 -85.990403 
L 86.927308 -85.62947 
L 86.18839 -85.755004 
L 85.449471 -85.66932 
L 84.710553 -85.99456 
L 83.971634 -86.083749 
L 83.232715 -86.106854 
L 82.493797 -85.72667 
L 81.754878 -85.150148 
L 81.01596 -84.802864 
L 80.277041 -84.083899 
L 79.538122 -83.184586 
L 78.799204 -81.757122 
L 78.060285 -80.7804 
L 77.321367 -79.921707 
L 76.582448 -79.705646 
L 75.843529 -79.480087 
L 75.104611 -79.223866 
L 74.365692 -79.737379 
L 73.626774 -79.922584 
L 72.887855 -80.039717 
L 72.148936 -79.991641 
L 71.410018 -79.816957 
L 70.671099 -79.501232 
L 69.932181 -79.322884 
L 69.193262 -78.800784 
L 68.454343 -77.882147 
L 67.715425 -76.82775 
L 66.976506 -75.104439 
L 66.237588 -74.141143 
L 65.498669 -73.48475 
L 64.75975 -73.169308 
L 64.020832 -73.03073 
L 63.281913 -73.32691 
L 62.542995 -73.608778 
L 61.804076 -73.702232 
L 61.065157 -73.87048 
L 60.326239 -74.613956 
L 59.58732 -76.371903 
L 58.848402 -78.686827 
L 58.109483 -81.869522 
L 57.370564 -85.471245 
L 56.631646 -88.524323 
L 55.892727 -90.550017 
z
" style="stroke: #40bfff; stroke-opacity: 0.2"/>
    </defs>
    <g clip-path="url(#pa42f10fd04)">
     <use xlink:href="#md5758a93ea" x="0" y="144" style="fill: #40bfff; fill-opacity: 0.2; stroke: #40bfff; stroke-opacity: 0.2"/>
    </g>
   </g>
   <g id="PolyCollection_3">
    <defs>
     <path id="m107a3d2b7e" d="M 55.892727 -87.957286 
L 55.892727 -84.272364 
L 56.631646 -82.695913 
L 57.370564 -80.18928 
L 58.109483 -77.535837 
L 58.848402 -75.038419 
L 59.58732 -73.095554 
L 60.326239 -71.991203 
L 61.065157 -71.341667 
L 61.804076 -70.958812 
L 62.542995 -70.721373 
L 63.281913 -70.869369 
L 64.020832 -71.058122 
L 64.75975 -71.514648 
L 65.498669 -71.994988 
L 66.237588 -73.343425 
L 66.976506 -74.753587 
L 67.715425 -76.342538 
L 68.454343 -77.597478 
L 69.193262 -78.190741 
L 69.932181 -77.801523 
L 70.671099 -77.255527 
L 71.410018 -76.632323 
L 72.148936 -75.512223 
L 72.887855 -75.20052 
L 73.626774 -74.923104 
L 74.365692 -74.320566 
L 75.104611 -74.166859 
L 75.843529 -74.599211 
L 76.582448 -75.105974 
L 77.321367 -75.652682 
L 78.060285 -76.32647 
L 78.799204 -76.925393 
L 79.538122 -77.820974 
L 80.277041 -78.764725 
L 81.01596 -79.389273 
L 81.754878 -79.926058 
L 82.493797 -80.509297 
L 83.232715 -81.144932 
L 83.971634 -81.983479 
L 84.710553 -81.86607 
L 85.449471 -81.958057 
L 86.18839 -81.603961 
L 86.927308 -81.21176 
L 87.666227 -81.421895 
L 88.405146 -81.702143 
L 89.144064 -82.37846 
L 89.882983 -83.082763 
L 90.621901 -83.809723 
L 91.36082 -84.931249 
L 92.099739 -86.401268 
L 92.838657 -88.951446 
L 93.577576 -93.194306 
L 94.316494 -98.87987 
L 95.055413 -104.549275 
L 95.794332 -109.662762 
L 96.53325 -113.514815 
L 97.272169 -116.065392 
L 98.011087 -117.924509 
L 98.750006 -118.448567 
L 99.488925 -118.204704 
L 100.227843 -116.65155 
L 100.966762 -114.044399 
L 101.70568 -110.566573 
L 102.444599 -106.167319 
L 103.183518 -101.142573 
L 103.922436 -95.968909 
L 104.661355 -90.289597 
L 105.400273 -85.279417 
L 106.139192 -80.565562 
L 106.878111 -76.057938 
L 107.617029 -72.38629 
L 108.355948 -69.408309 
L 109.094866 -66.99247 
L 109.833785 -66.03788 
L 110.572704 -65.580888 
L 111.311622 -66.246551 
L 112.050541 -67.51165 
L 112.789459 -68.860043 
L 113.528378 -70.324283 
L 114.267296 -72.556122 
L 115.006215 -74.229927 
L 115.745134 -75.086384 
L 116.484052 -76.272776 
L 117.222971 -77.61554 
L 117.961889 -78.318031 
L 118.700808 -78.89525 
L 119.439727 -79.523148 
L 120.178645 -79.184816 
L 120.917564 -78.665468 
L 121.656482 -77.967141 
L 122.395401 -76.811038 
L 123.13432 -75.537435 
L 123.873238 -73.775544 
L 124.612157 -71.991402 
L 125.351075 -69.954075 
L 126.089994 -68.194636 
L 126.828913 -66.525632 
L 127.567831 -65.349972 
L 128.30675 -64.060935 
L 129.045668 -62.863027 
L 129.784587 -61.494771 
L 130.523506 -60.781837 
L 131.262424 -59.762865 
L 132.001343 -58.728255 
L 132.740261 -57.411343 
L 133.47918 -56.785292 
L 134.218099 -55.985982 
L 134.957017 -56.152372 
L 135.695936 -56.597307 
L 136.434854 -56.827311 
L 137.173773 -57.085026 
L 137.912692 -57.228212 
L 138.65161 -57.08332 
L 139.390529 -57.334824 
L 140.129447 -57.997997 
L 140.868366 -59.29014 
L 141.607285 -60.298233 
L 142.346203 -61.09968 
L 143.085122 -62.355331 
L 143.82404 -63.113565 
L 144.562959 -63.464463 
L 145.301878 -63.715947 
L 146.040796 -64.526878 
L 146.779715 -65.78596 
L 147.518633 -67.127565 
L 148.257552 -68.667115 
L 148.996471 -69.855432 
L 149.735389 -70.564695 
L 150.474308 -71.510899 
L 151.213226 -71.949564 
L 151.952145 -71.896757 
L 152.691064 -71.418497 
L 153.429982 -71.637486 
L 154.168901 -72.024306 
L 154.907819 -72.121127 
L 155.646738 -71.934171 
L 156.385657 -72.330146 
L 157.124575 -73.161918 
L 157.863494 -73.158515 
L 158.602412 -73.125928 
L 159.341331 -72.947355 
L 160.08025 -72.969237 
L 160.819168 -72.352835 
L 161.558087 -71.893878 
L 162.297005 -70.883705 
L 163.035924 -69.892744 
L 163.774843 -69.174796 
L 164.513761 -68.427334 
L 165.25268 -67.920594 
L 165.991598 -67.560919 
L 166.730517 -67.463919 
L 167.469436 -67.556688 
L 168.208354 -67.43836 
L 168.947273 -66.560571 
L 168.947273 -78.601818 
L 168.947273 -78.601818 
L 168.208354 -79.485488 
L 167.469436 -79.755553 
L 166.730517 -79.594481 
L 165.991598 -79.601739 
L 165.25268 -79.882583 
L 164.513761 -80.333551 
L 163.774843 -81.214556 
L 163.035924 -81.770579 
L 162.297005 -82.640642 
L 161.558087 -83.494642 
L 160.819168 -83.797816 
L 160.08025 -84.435165 
L 159.341331 -84.452884 
L 158.602412 -84.575601 
L 157.863494 -84.830281 
L 157.124575 -85.071035 
L 156.385657 -84.527176 
L 155.646738 -84.226202 
L 154.907819 -84.520217 
L 154.168901 -84.329079 
L 153.429982 -84.011488 
L 152.691064 -83.932954 
L 151.952145 -84.49311 
L 151.213226 -84.666311 
L 150.474308 -84.419252 
L 149.735389 -83.611089 
L 148.996471 -83.086441 
L 148.257552 -81.892382 
L 147.518633 -80.403784 
L 146.779715 -79.109623 
L 146.040796 -77.757158 
L 145.301878 -76.88971 
L 144.562959 -76.467253 
L 143.82404 -75.992166 
L 143.085122 -75.228906 
L 142.346203 -74.040442 
L 141.607285 -73.076628 
L 140.868366 -71.89111 
L 140.129447 -70.739037 
L 139.390529 -69.968314 
L 138.65161 -69.608894 
L 137.912692 -69.616568 
L 137.173773 -69.49465 
L 136.434854 -69.433335 
L 135.695936 -69.496206 
L 134.957017 -69.310645 
L 134.218099 -69.4236 
L 133.47918 -70.118284 
L 132.740261 -70.765029 
L 132.001343 -72.199108 
L 131.262424 -73.501875 
L 130.523506 -74.887272 
L 129.784587 -75.736844 
L 129.045668 -77.0459 
L 128.30675 -77.98843 
L 127.567831 -78.714406 
L 126.828913 -79.345453 
L 126.089994 -80.541222 
L 125.351075 -82.117292 
L 124.612157 -83.844155 
L 123.873238 -85.345948 
L 123.13432 -86.756202 
L 122.395401 -87.631103 
L 121.656482 -88.501806 
L 120.917564 -89.031652 
L 120.178645 -89.422401 
L 119.439727 -89.652336 
L 118.700808 -89.308077 
L 117.961889 -89.149222 
L 117.222971 -88.84733 
L 116.484052 -87.828059 
L 115.745134 -87.047163 
L 115.006215 -86.644714 
L 114.267296 -85.454239 
L 113.528378 -83.800735 
L 112.789459 -82.792447 
L 112.050541 -81.750474 
L 111.311622 -80.514579 
L 110.572704 -79.618805 
L 109.833785 -79.497473 
L 109.094866 -79.647329 
L 108.355948 -81.22739 
L 107.617029 -83.375392 
L 106.878111 -86.335042 
L 106.139192 -90.290278 
L 105.400273 -94.654001 
L 104.661355 -99.613576 
L 103.922436 -105.338974 
L 103.183518 -110.822423 
L 102.444599 -116.203178 
L 101.70568 -120.898139 
L 100.966762 -124.610845 
L 100.227843 -127.270149 
L 99.488925 -128.832059 
L 98.750006 -129.085455 
L 98.011087 -128.713673 
L 97.272169 -127.275148 
L 96.53325 -125.313614 
L 95.794332 -122.028308 
L 95.055413 -117.42902 
L 94.316494 -112.168897 
L 93.577576 -106.443635 
L 92.838657 -101.307345 
L 92.099739 -97.532024 
L 91.36082 -94.773324 
L 90.621901 -92.291386 
L 89.882983 -90.20541 
L 89.144064 -88.373106 
L 88.405146 -86.98086 
L 87.666227 -86.48273 
L 86.927308 -86.18762 
L 86.18839 -86.655331 
L 85.449471 -87.06975 
L 84.710553 -86.977877 
L 83.971634 -86.926818 
L 83.232715 -85.986506 
L 82.493797 -85.204424 
L 81.754878 -84.51798 
L 81.01596 -83.627889 
L 80.277041 -82.560241 
L 79.538122 -81.217428 
L 78.799204 -80.017559 
L 78.060285 -79.157961 
L 77.321367 -78.467636 
L 76.582448 -78.170103 
L 75.843529 -77.798293 
L 75.104611 -77.525024 
L 74.365692 -77.796766 
L 73.626774 -78.25808 
L 72.887855 -78.360399 
L 72.148936 -78.552245 
L 71.410018 -79.514092 
L 70.671099 -80.147357 
L 69.932181 -80.759611 
L 69.193262 -81.019003 
L 68.454343 -80.259627 
L 67.715425 -78.919871 
L 66.976506 -77.363187 
L 66.237588 -75.739463 
L 65.498669 -74.40236 
L 64.75975 -73.888934 
L 64.020832 -73.493941 
L 63.281913 -73.578056 
L 62.542995 -73.572434 
L 61.804076 -73.884338 
L 61.065157 -74.350519 
L 60.326239 -75.032341 
L 59.58732 -76.144773 
L 58.848402 -78.087036 
L 58.109483 -80.486282 
L 57.370564 -83.405021 
L 56.631646 -86.086221 
L 55.892727 -87.957286 
z
" style="stroke: #807fff; stroke-opacity: 0.2"/>
    </defs>
    <g clip-path="url(#pa42f10fd04)">
     <use xlink:href="#m107a3d2b7e" x="0" y="144" style="fill: #807fff; fill-opacity: 0.2; stroke: #807fff; stroke-opacity: 0.2"/>
    </g>
   </g>
   <g id="PolyCollection_4">
    <defs>
     <path id="mec49b065ac" d="M 55.892727 -87.61049 
L 55.892727 -84.083846 
L 56.631646 -82.950248 
L 57.370564 -81.025477 
L 58.109483 -79.342004 
L 58.848402 -77.307365 
L 59.58732 -76.071721 
L 60.326239 -74.980174 
L 61.065157 -73.747079 
L 61.804076 -72.999281 
L 62.542995 -71.936175 
L 63.281913 -71.293703 
L 64.020832 -70.962533 
L 64.75975 -71.299382 
L 65.498669 -71.844765 
L 66.237588 -73.054276 
L 66.976506 -74.502794 
L 67.715425 -75.571648 
L 68.454343 -76.380856 
L 69.193262 -76.612712 
L 69.932181 -76.077732 
L 70.671099 -75.649494 
L 71.410018 -75.121849 
L 72.148936 -74.485881 
L 72.887855 -74.126784 
L 73.626774 -74.128694 
L 74.365692 -73.58915 
L 75.104611 -73.433499 
L 75.843529 -73.637027 
L 76.582448 -73.98348 
L 77.321367 -74.082961 
L 78.060285 -74.400928 
L 78.799204 -75.508417 
L 79.538122 -77.231363 
L 80.277041 -78.712563 
L 81.01596 -79.577984 
L 81.754878 -80.36341 
L 82.493797 -80.857459 
L 83.232715 -80.796331 
L 83.971634 -81.27292 
L 84.710553 -81.152651 
L 85.449471 -81.516776 
L 86.18839 -82.223441 
L 86.927308 -82.490589 
L 87.666227 -82.47334 
L 88.405146 -82.936799 
L 89.144064 -82.548727 
L 89.882983 -82.226397 
L 90.621901 -82.11086 
L 91.36082 -82.32456 
L 92.099739 -83.392121 
L 92.838657 -85.78196 
L 93.577576 -90.149797 
L 94.316494 -95.533601 
L 95.055413 -101.428319 
L 95.794332 -106.792026 
L 96.53325 -110.755407 
L 97.272169 -113.412494 
L 98.011087 -115.291572 
L 98.750006 -115.754769 
L 99.488925 -115.465406 
L 100.227843 -114.455163 
L 100.966762 -112.281319 
L 101.70568 -109.207518 
L 102.444599 -105.209929 
L 103.183518 -100.811688 
L 103.922436 -95.660933 
L 104.661355 -89.949148 
L 105.400273 -84.498551 
L 106.139192 -79.653182 
L 106.878111 -75.174214 
L 107.617029 -71.834689 
L 108.355948 -68.934316 
L 109.094866 -67.034196 
L 109.833785 -65.832172 
L 110.572704 -65.005703 
L 111.311622 -65.386948 
L 112.050541 -66.389977 
L 112.789459 -67.45689 
L 113.528378 -68.55411 
L 114.267296 -70.0454 
L 115.006215 -70.881273 
L 115.745134 -71.635273 
L 116.484052 -72.287086 
L 117.222971 -73.00674 
L 117.961889 -73.731442 
L 118.700808 -74.581163 
L 119.439727 -75.142704 
L 120.178645 -74.634455 
L 120.917564 -73.961315 
L 121.656482 -72.783416 
L 122.395401 -70.864863 
L 123.13432 -68.274287 
L 123.873238 -65.474414 
L 124.612157 -63.067331 
L 125.351075 -61.22881 
L 126.089994 -60.046331 
L 126.828913 -58.785062 
L 127.567831 -57.874903 
L 128.30675 -56.987663 
L 129.045668 -55.705644 
L 129.784587 -54.815006 
L 130.523506 -54.027933 
L 131.262424 -53.139002 
L 132.001343 -51.686496 
L 132.740261 -50.947215 
L 133.47918 -50.868952 
L 134.218099 -50.655295 
L 134.957017 -50.232878 
L 135.695936 -50.0582 
L 136.434854 -50.179894 
L 137.173773 -50.135423 
L 137.912692 -50.481039 
L 138.65161 -51.130862 
L 139.390529 -51.95614 
L 140.129447 -52.868978 
L 140.868366 -54.350154 
L 141.607285 -55.674756 
L 142.346203 -57.164246 
L 143.085122 -58.325861 
L 143.82404 -59.740012 
L 144.562959 -61.14093 
L 145.301878 -62.684923 
L 146.040796 -64.398685 
L 146.779715 -65.942537 
L 147.518633 -67.534031 
L 148.257552 -68.356593 
L 148.996471 -68.671913 
L 149.735389 -68.975516 
L 150.474308 -69.234727 
L 151.213226 -70.03682 
L 151.952145 -70.672903 
L 152.691064 -71.238912 
L 153.429982 -71.554619 
L 154.168901 -71.994901 
L 154.907819 -72.196844 
L 155.646738 -72.124561 
L 156.385657 -72.127871 
L 157.124575 -72.180138 
L 157.863494 -71.56532 
L 158.602412 -71.190947 
L 159.341331 -70.651137 
L 160.08025 -70.017937 
L 160.819168 -69.192948 
L 161.558087 -68.559608 
L 162.297005 -68.367181 
L 163.035924 -68.028737 
L 163.774843 -67.262967 
L 164.513761 -66.599832 
L 165.25268 -65.708909 
L 165.991598 -64.495435 
L 166.730517 -63.40704 
L 167.469436 -62.626363 
L 168.208354 -62.276015 
L 168.947273 -62.458575 
L 168.947273 -74.155375 
L 168.947273 -74.155375 
L 168.208354 -74.25046 
L 167.469436 -74.629836 
L 166.730517 -75.467109 
L 165.991598 -76.597713 
L 165.25268 -77.936416 
L 164.513761 -78.954798 
L 163.774843 -79.879584 
L 163.035924 -80.621829 
L 162.297005 -80.90079 
L 161.558087 -80.788687 
L 160.819168 -81.071523 
L 160.08025 -81.651 
L 159.341331 -82.207665 
L 158.602412 -82.744049 
L 157.863494 -83.227043 
L 157.124575 -83.993617 
L 156.385657 -83.951831 
L 155.646738 -83.987269 
L 154.907819 -84.111546 
L 154.168901 -83.688122 
L 153.429982 -83.146091 
L 152.691064 -83.070638 
L 151.952145 -82.917991 
L 151.213226 -82.511337 
L 150.474308 -82.022143 
L 149.735389 -81.785199 
L 148.996471 -81.431456 
L 148.257552 -80.968593 
L 147.518633 -80.087669 
L 146.779715 -78.626298 
L 146.040796 -77.158335 
L 145.301878 -75.477338 
L 144.562959 -73.86154 
L 143.82404 -72.619773 
L 143.085122 -71.290219 
L 142.346203 -70.532579 
L 141.607285 -69.360241 
L 140.868366 -68.333161 
L 140.129447 -67.015053 
L 139.390529 -66.170057 
L 138.65161 -65.326773 
L 137.912692 -64.544805 
L 137.173773 -63.971188 
L 136.434854 -63.742895 
L 135.695936 -63.563875 
L 134.957017 -63.667426 
L 134.218099 -64.142454 
L 133.47918 -64.402826 
L 132.740261 -64.675476 
L 132.001343 -65.620716 
L 131.262424 -67.034764 
L 130.523506 -67.981008 
L 129.784587 -69.155649 
L 129.045668 -70.238411 
L 128.30675 -71.473615 
L 127.567831 -72.373594 
L 126.828913 -72.945455 
L 126.089994 -73.782041 
L 125.351075 -74.462805 
L 124.612157 -75.908074 
L 123.873238 -77.891409 
L 123.13432 -80.218841 
L 122.395401 -82.339495 
L 121.656482 -83.879867 
L 120.917564 -84.875941 
L 120.178645 -85.734602 
L 119.439727 -86.229382 
L 118.700808 -85.830905 
L 117.961889 -85.326329 
L 117.222971 -84.851522 
L 116.484052 -84.569187 
L 115.745134 -84.484482 
L 115.006215 -84.474286 
L 114.267296 -84.344099 
L 113.528378 -83.344769 
L 112.789459 -82.414415 
L 112.050541 -81.244574 
L 111.311622 -79.99415 
L 110.572704 -78.984342 
L 109.833785 -79.157775 
L 109.094866 -79.479412 
L 108.355948 -80.440938 
L 107.617029 -82.934279 
L 106.878111 -85.702629 
L 106.139192 -89.861661 
L 105.400273 -94.169813 
L 104.661355 -99.179041 
L 103.922436 -104.535328 
L 103.183518 -109.416693 
L 102.444599 -113.905014 
L 101.70568 -118.17496 
L 100.966762 -121.35325 
L 100.227843 -123.422271 
L 99.488925 -124.520968 
L 98.750006 -125.140617 
L 98.011087 -125.04312 
L 97.272169 -123.929765 
L 96.53325 -122.068894 
L 95.794332 -118.885135 
L 95.055413 -114.502831 
L 94.316494 -109.451595 
L 93.577576 -104.274586 
L 92.838657 -99.198648 
L 92.099739 -95.631191 
L 91.36082 -93.043769 
L 90.621901 -91.184882 
L 89.882983 -89.642395 
L 89.144064 -88.483513 
L 88.405146 -87.583 
L 87.666227 -86.442746 
L 86.927308 -86.241853 
L 86.18839 -86.084242 
L 85.449471 -85.706214 
L 84.710553 -85.470675 
L 83.971634 -85.66822 
L 83.232715 -85.286557 
L 82.493797 -85.233746 
L 81.754878 -84.642279 
L 81.01596 -83.804169 
L 80.277041 -82.819511 
L 79.538122 -81.259706 
L 78.799204 -79.5576 
L 78.060285 -78.685797 
L 77.321367 -78.412322 
L 76.582448 -78.255898 
L 75.843529 -77.880989 
L 75.104611 -77.52191 
L 74.365692 -77.365526 
L 73.626774 -77.35474 
L 72.887855 -76.994851 
L 72.148936 -77.102549 
L 71.410018 -77.609096 
L 70.671099 -77.998135 
L 69.932181 -78.253106 
L 69.193262 -78.796355 
L 68.454343 -78.439747 
L 67.715425 -77.779825 
L 66.976506 -76.982137 
L 66.237588 -75.624807 
L 65.498669 -74.551629 
L 64.75975 -73.817524 
L 64.020832 -73.395739 
L 63.281913 -73.748412 
L 62.542995 -74.399859 
L 61.804076 -75.420701 
L 61.065157 -76.049977 
L 60.326239 -77.401748 
L 59.58732 -78.453007 
L 58.848402 -79.788661 
L 58.109483 -81.827971 
L 57.370564 -83.724755 
L 56.631646 -86.038059 
L 55.892727 -87.61049 
z
" style="stroke: #c03fff; stroke-opacity: 0.2"/>
    </defs>
    <g clip-path="url(#pa42f10fd04)">
     <use xlink:href="#mec49b065ac" x="0" y="144" style="fill: #c03fff; fill-opacity: 0.2; stroke: #c03fff; stroke-opacity: 0.2"/>
    </g>
   </g>
   <g id="PolyCollection_5">
    <defs>
     <path id="ma4e54f8538" d="M 55.892727 -87.948036 
L 55.892727 -84.391987 
L 56.631646 -83.189934 
L 57.370564 -81.566489 
L 58.109483 -79.395406 
L 58.848402 -77.045116 
L 59.58732 -74.557276 
L 60.326239 -72.745287 
L 61.065157 -71.01378 
L 61.804076 -70.622111 
L 62.542995 -70.404017 
L 63.281913 -70.336522 
L 64.020832 -70.994382 
L 64.75975 -71.920391 
L 65.498669 -72.569814 
L 66.237588 -73.462096 
L 66.976506 -74.197681 
L 67.715425 -74.929073 
L 68.454343 -75.163436 
L 69.193262 -75.031968 
L 69.932181 -75.054841 
L 70.671099 -75.453103 
L 71.410018 -74.946699 
L 72.148936 -75.107112 
L 72.887855 -75.401319 
L 73.626774 -75.881743 
L 74.365692 -76.27701 
L 75.104611 -76.773628 
L 75.843529 -77.219801 
L 76.582448 -77.073885 
L 77.321367 -76.805494 
L 78.060285 -77.143136 
L 78.799204 -77.703087 
L 79.538122 -78.265419 
L 80.277041 -78.977137 
L 81.01596 -79.508443 
L 81.754878 -80.441574 
L 82.493797 -81.358485 
L 83.232715 -81.914111 
L 83.971634 -82.125582 
L 84.710553 -82.893887 
L 85.449471 -83.361439 
L 86.18839 -83.505164 
L 86.927308 -83.980154 
L 87.666227 -83.928204 
L 88.405146 -84.413376 
L 89.144064 -85.035158 
L 89.882983 -85.551543 
L 90.621901 -86.554704 
L 91.36082 -87.723689 
L 92.099739 -89.283411 
L 92.838657 -91.48176 
L 93.577576 -94.764132 
L 94.316494 -99.316544 
L 95.055413 -104.214725 
L 95.794332 -108.607804 
L 96.53325 -112.325394 
L 97.272169 -115.454173 
L 98.011087 -117.70158 
L 98.750006 -119.028282 
L 99.488925 -119.130029 
L 100.227843 -117.366461 
L 100.966762 -114.279716 
L 101.70568 -110.524349 
L 102.444599 -106.320761 
L 103.183518 -101.48005 
L 103.922436 -96.232625 
L 104.661355 -90.705677 
L 105.400273 -84.950405 
L 106.139192 -80.195286 
L 106.878111 -75.819398 
L 107.617029 -72.02784 
L 108.355948 -69.02306 
L 109.094866 -66.670486 
L 109.833785 -65.46983 
L 110.572704 -65.006542 
L 111.311622 -65.298513 
L 112.050541 -66.137661 
L 112.789459 -67.507301 
L 113.528378 -68.725876 
L 114.267296 -69.891722 
L 115.006215 -71.068553 
L 115.745134 -71.683294 
L 116.484052 -71.592768 
L 117.222971 -71.972406 
L 117.961889 -72.455253 
L 118.700808 -72.377224 
L 119.439727 -72.723053 
L 120.178645 -72.470704 
L 120.917564 -72.069545 
L 121.656482 -71.103684 
L 122.395401 -69.243999 
L 123.13432 -67.226105 
L 123.873238 -64.891216 
L 124.612157 -62.555789 
L 125.351075 -60.778964 
L 126.089994 -59.394645 
L 126.828913 -58.026648 
L 127.567831 -56.69527 
L 128.30675 -55.463654 
L 129.045668 -54.245427 
L 129.784587 -53.203327 
L 130.523506 -51.925212 
L 131.262424 -50.546239 
L 132.001343 -49.621905 
L 132.740261 -48.511827 
L 133.47918 -47.988092 
L 134.218099 -47.20818 
L 134.957017 -46.794545 
L 135.695936 -46.798986 
L 136.434854 -47.106484 
L 137.173773 -47.712148 
L 137.912692 -48.347083 
L 138.65161 -49.034956 
L 139.390529 -50.440219 
L 140.129447 -51.821487 
L 140.868366 -53.154949 
L 141.607285 -54.766611 
L 142.346203 -56.029869 
L 143.085122 -57.532784 
L 143.82404 -58.667578 
L 144.562959 -59.926767 
L 145.301878 -61.113324 
L 146.040796 -62.948324 
L 146.779715 -65.034416 
L 147.518633 -66.399378 
L 148.257552 -68.11506 
L 148.996471 -69.627006 
L 149.735389 -70.684589 
L 150.474308 -71.375715 
L 151.213226 -71.826879 
L 151.952145 -72.156791 
L 152.691064 -72.437285 
L 153.429982 -72.788919 
L 154.168901 -72.787495 
L 154.907819 -72.746964 
L 155.646738 -73.09698 
L 156.385657 -72.545246 
L 157.124575 -72.557413 
L 157.863494 -72.417434 
L 158.602412 -72.105271 
L 159.341331 -71.907639 
L 160.08025 -71.621523 
L 160.819168 -71.213193 
L 161.558087 -70.59552 
L 162.297005 -69.867307 
L 163.035924 -69.263734 
L 163.774843 -68.75139 
L 164.513761 -68.304118 
L 165.25268 -68.019553 
L 165.991598 -67.558125 
L 166.730517 -67.114614 
L 167.469436 -66.699744 
L 168.208354 -66.09898 
L 168.947273 -65.886352 
L 168.947273 -77.199379 
L 168.947273 -77.199379 
L 168.208354 -77.556607 
L 167.469436 -78.292644 
L 166.730517 -78.839956 
L 165.991598 -79.286793 
L 165.25268 -79.855827 
L 164.513761 -80.16252 
L 163.774843 -80.651286 
L 163.035924 -81.124578 
L 162.297005 -81.512669 
L 161.558087 -81.994172 
L 160.819168 -82.652967 
L 160.08025 -83.004166 
L 159.341331 -83.314227 
L 158.602412 -83.575199 
L 157.863494 -83.718702 
L 157.124575 -83.526233 
L 156.385657 -83.341439 
L 155.646738 -83.783914 
L 154.907819 -83.585457 
L 154.168901 -83.883681 
L 153.429982 -84.139276 
L 152.691064 -83.877655 
L 151.952145 -83.929407 
L 151.213226 -83.87356 
L 150.474308 -83.395693 
L 149.735389 -82.796446 
L 148.996471 -81.840432 
L 148.257552 -80.315072 
L 147.518633 -78.706846 
L 146.779715 -77.193815 
L 146.040796 -74.988035 
L 145.301878 -73.242119 
L 144.562959 -71.973118 
L 143.82404 -70.576138 
L 143.085122 -69.431497 
L 142.346203 -68.022056 
L 141.607285 -66.847702 
L 140.868366 -65.263041 
L 140.129447 -63.78744 
L 139.390529 -62.560692 
L 138.65161 -61.256385 
L 137.912692 -60.727772 
L 137.173773 -60.330467 
L 136.434854 -59.943085 
L 135.695936 -59.924741 
L 134.957017 -60.067776 
L 134.218099 -60.682683 
L 133.47918 -61.456468 
L 132.740261 -62.181172 
L 132.001343 -63.355339 
L 131.262424 -64.26619 
L 130.523506 -65.730413 
L 129.784587 -67.045835 
L 129.045668 -67.978935 
L 128.30675 -68.932162 
L 127.567831 -69.81981 
L 126.828913 -70.861393 
L 126.089994 -71.699486 
L 125.351075 -72.690491 
L 124.612157 -74.08904 
L 123.873238 -76.096138 
L 123.13432 -78.12848 
L 122.395401 -79.890262 
L 121.656482 -81.286987 
L 120.917564 -81.956699 
L 120.178645 -82.408626 
L 119.439727 -82.654263 
L 118.700808 -82.582001 
L 117.961889 -82.93076 
L 117.222971 -82.716637 
L 116.484052 -82.657508 
L 115.745134 -82.992181 
L 115.006215 -82.91985 
L 114.267296 -82.257535 
L 113.528378 -81.576517 
L 112.789459 -80.929565 
L 112.050541 -79.7062 
L 111.311622 -78.734845 
L 110.572704 -78.139051 
L 109.833785 -78.048265 
L 109.094866 -78.568369 
L 108.355948 -80.138424 
L 107.617029 -82.585195 
L 106.878111 -86.20877 
L 106.139192 -90.297944 
L 105.400273 -94.918169 
L 104.661355 -100.268818 
L 103.922436 -105.208921 
L 103.183518 -109.953701 
L 102.444599 -114.657954 
L 101.70568 -119.131783 
L 100.966762 -123.208565 
L 100.227843 -126.360392 
L 99.488925 -128.042857 
L 98.750006 -128.161785 
L 98.011087 -127.240263 
L 97.272169 -125.773721 
L 96.53325 -123.596485 
L 95.794332 -120.86207 
L 95.055413 -117.175312 
L 94.316494 -112.960472 
L 93.577576 -108.416756 
L 92.838657 -104.554093 
L 92.099739 -101.048961 
L 91.36082 -97.808132 
L 90.621901 -94.848179 
L 89.882983 -92.272491 
L 89.144064 -90.41875 
L 88.405146 -88.929445 
L 87.666227 -87.851624 
L 86.927308 -87.814156 
L 86.18839 -87.421185 
L 85.449471 -87.438051 
L 84.710553 -87.222204 
L 83.971634 -86.509392 
L 83.232715 -86.301204 
L 82.493797 -85.662823 
L 81.754878 -84.678148 
L 81.01596 -83.638611 
L 80.277041 -82.833516 
L 79.538122 -82.12687 
L 78.799204 -81.637184 
L 78.060285 -81.009341 
L 77.321367 -80.702103 
L 76.582448 -80.959401 
L 75.843529 -81.102755 
L 75.104611 -80.52522 
L 74.365692 -79.903176 
L 73.626774 -79.239742 
L 72.887855 -78.345056 
L 72.148936 -77.919732 
L 71.410018 -77.761026 
L 70.671099 -78.4488 
L 69.932181 -78.384682 
L 69.193262 -78.57833 
L 68.454343 -78.70416 
L 67.715425 -78.318591 
L 66.976506 -77.283751 
L 66.237588 -76.278842 
L 65.498669 -75.01867 
L 64.75975 -74.296996 
L 64.020832 -73.547348 
L 63.281913 -73.018272 
L 62.542995 -73.409351 
L 61.804076 -73.900349 
L 61.065157 -74.65551 
L 60.326239 -76.442491 
L 59.58732 -78.380118 
L 58.848402 -80.665598 
L 58.109483 -82.771516 
L 57.370564 -84.864713 
L 56.631646 -86.577269 
L 55.892727 -87.948036 
z
" style="stroke: #ff00ff; stroke-opacity: 0.2"/>
    </defs>
    <g clip-path="url(#pa42f10fd04)">
     <use xlink:href="#ma4e54f8538" x="0" y="144" style="fill: #ff00ff; fill-opacity: 0.2; stroke: #ff00ff; stroke-opacity: 0.2"/>
    </g>
   </g>
   <g id="matplotlib.axis_1">
    <g id="xtick_1">
     <g id="line2d_3">
      <defs>
       <path id="m493535a24b" d="M 0 0 
L 0 3.5 
" style="stroke: #000000; stroke-width: 0.8"/>
      </defs>
      <g>
       <use xlink:href="#m493535a24b" x="74.809043" y="101.32" style="stroke: #000000; stroke-width: 0.8"/>
      </g>
     </g>
     <g id="text_1">
      <!-- 0.0 -->
      <g transform="translate(66.857481 115.918437) scale(0.1 -0.1)">
       <defs>
        <path id="DejaVuSans-30" d="M 2034 4250 
Q 1547 4250 1301 3770 
Q 1056 3291 1056 2328 
Q 1056 1369 1301 889 
Q 1547 409 2034 409 
Q 2525 409 2770 889 
Q 3016 1369 3016 2328 
Q 3016 3291 2770 3770 
Q 2525 4250 2034 4250 
z
M 2034 4750 
Q 2819 4750 3233 4129 
Q 3647 3509 3647 2328 
Q 3647 1150 3233 529 
Q 2819 -91 2034 -91 
Q 1250 -91 836 529 
Q 422 1150 422 2328 
Q 422 3509 836 4129 
Q 1250 4750 2034 4750 
z
" transform="scale(0.015625)"/>
        <path id="DejaVuSans-2e" d="M 684 794 
L 1344 794 
L 1344 0 
L 684 0 
L 684 794 
z
" transform="scale(0.015625)"/>
       </defs>
       <use xlink:href="#DejaVuSans-30"/>
       <use xlink:href="#DejaVuSans-2e" x="63.623047"/>
       <use xlink:href="#DejaVuSans-30" x="95.410156"/>
      </g>
     </g>
    </g>
    <g id="xtick_2">
     <g id="line2d_4">
      <g>
       <use xlink:href="#m493535a24b" x="112.641676" y="101.32" style="stroke: #000000; stroke-width: 0.8"/>
      </g>
     </g>
     <g id="text_2">
      <!-- 0.2 -->
      <g transform="translate(104.690113 115.918437) scale(0.1 -0.1)">
       <defs>
        <path id="DejaVuSans-32" d="M 1228 531 
L 3431 531 
L 3431 0 
L 469 0 
L 469 531 
Q 828 903 1448 1529 
Q 2069 2156 2228 2338 
Q 2531 2678 2651 2914 
Q 2772 3150 2772 3378 
Q 2772 3750 2511 3984 
Q 2250 4219 1831 4219 
Q 1534 4219 1204 4116 
Q 875 4013 500 3803 
L 500 4441 
Q 881 4594 1212 4672 
Q 1544 4750 1819 4750 
Q 2544 4750 2975 4387 
Q 3406 4025 3406 3419 
Q 3406 3131 3298 2873 
Q 3191 2616 2906 2266 
Q 2828 2175 2409 1742 
Q 1991 1309 1228 531 
z
" transform="scale(0.015625)"/>
       </defs>
       <use xlink:href="#DejaVuSans-30"/>
       <use xlink:href="#DejaVuSans-2e" x="63.623047"/>
       <use xlink:href="#DejaVuSans-32" x="95.410156"/>
      </g>
     </g>
    </g>
    <g id="xtick_3">
     <g id="line2d_5">
      <g>
       <use xlink:href="#m493535a24b" x="150.474308" y="101.32" style="stroke: #000000; stroke-width: 0.8"/>
      </g>
     </g>
     <g id="text_3">
      <!-- 0.4 -->
      <g transform="translate(142.522745 115.918437) scale(0.1 -0.1)">
       <defs>
        <path id="DejaVuSans-34" d="M 2419 4116 
L 825 1625 
L 2419 1625 
L 2419 4116 
z
M 2253 4666 
L 3047 4666 
L 3047 1625 
L 3713 1625 
L 3713 1100 
L 3047 1100 
L 3047 0 
L 2419 0 
L 2419 1100 
L 313 1100 
L 313 1709 
L 2253 4666 
z
" transform="scale(0.015625)"/>
       </defs>
       <use xlink:href="#DejaVuSans-30"/>
       <use xlink:href="#DejaVuSans-2e" x="63.623047"/>
       <use xlink:href="#DejaVuSans-34" x="95.410156"/>
      </g>
     </g>
    </g>
    <g id="text_4">
     <!-- Time (s) -->
     <g transform="translate(88.025312 131.11625) scale(0.12 -0.12)">
      <defs>
       <path id="DejaVuSans-54" d="M -19 4666 
L 3928 4666 
L 3928 4134 
L 2272 4134 
L 2272 0 
L 1638 0 
L 1638 4134 
L -19 4134 
L -19 4666 
z
" transform="scale(0.015625)"/>
       <path id="DejaVuSans-69" d="M 603 3500 
L 1178 3500 
L 1178 0 
L 603 0 
L 603 3500 
z
M 603 4863 
L 1178 4863 
L 1178 4134 
L 603 4134 
L 603 4863 
z
" transform="scale(0.015625)"/>
       <path id="DejaVuSans-6d" d="M 3328 2828 
Q 3544 3216 3844 3400 
Q 4144 3584 4550 3584 
Q 5097 3584 5394 3201 
Q 5691 2819 5691 2113 
L 5691 0 
L 5113 0 
L 5113 2094 
Q 5113 2597 4934 2840 
Q 4756 3084 4391 3084 
Q 3944 3084 3684 2787 
Q 3425 2491 3425 1978 
L 3425 0 
L 2847 0 
L 2847 2094 
Q 2847 2600 2669 2842 
Q 2491 3084 2119 3084 
Q 1678 3084 1418 2786 
Q 1159 2488 1159 1978 
L 1159 0 
L 581 0 
L 581 3500 
L 1159 3500 
L 1159 2956 
Q 1356 3278 1631 3431 
Q 1906 3584 2284 3584 
Q 2666 3584 2933 3390 
Q 3200 3197 3328 2828 
z
" transform="scale(0.015625)"/>
       <path id="DejaVuSans-65" d="M 3597 1894 
L 3597 1613 
L 953 1613 
Q 991 1019 1311 708 
Q 1631 397 2203 397 
Q 2534 397 2845 478 
Q 3156 559 3463 722 
L 3463 178 
Q 3153 47 2828 -22 
Q 2503 -91 2169 -91 
Q 1331 -91 842 396 
Q 353 884 353 1716 
Q 353 2575 817 3079 
Q 1281 3584 2069 3584 
Q 2775 3584 3186 3129 
Q 3597 2675 3597 1894 
z
M 3022 2063 
Q 3016 2534 2758 2815 
Q 2500 3097 2075 3097 
Q 1594 3097 1305 2825 
Q 1016 2553 972 2059 
L 3022 2063 
z
" transform="scale(0.015625)"/>
       <path id="DejaVuSans-20" transform="scale(0.015625)"/>
       <path id="DejaVuSans-28" d="M 1984 4856 
Q 1566 4138 1362 3434 
Q 1159 2731 1159 2009 
Q 1159 1288 1364 580 
Q 1569 -128 1984 -844 
L 1484 -844 
Q 1016 -109 783 600 
Q 550 1309 550 2009 
Q 550 2706 781 3412 
Q 1013 4119 1484 4856 
L 1984 4856 
z
" transform="scale(0.015625)"/>
       <path id="DejaVuSans-73" d="M 2834 3397 
L 2834 2853 
Q 2591 2978 2328 3040 
Q 2066 3103 1784 3103 
Q 1356 3103 1142 2972 
Q 928 2841 928 2578 
Q 928 2378 1081 2264 
Q 1234 2150 1697 2047 
L 1894 2003 
Q 2506 1872 2764 1633 
Q 3022 1394 3022 966 
Q 3022 478 2636 193 
Q 2250 -91 1575 -91 
Q 1294 -91 989 -36 
Q 684 19 347 128 
L 347 722 
Q 666 556 975 473 
Q 1284 391 1588 391 
Q 1994 391 2212 530 
Q 2431 669 2431 922 
Q 2431 1156 2273 1281 
Q 2116 1406 1581 1522 
L 1381 1569 
Q 847 1681 609 1914 
Q 372 2147 372 2553 
Q 372 3047 722 3315 
Q 1072 3584 1716 3584 
Q 2034 3584 2315 3537 
Q 2597 3491 2834 3397 
z
" transform="scale(0.015625)"/>
       <path id="DejaVuSans-29" d="M 513 4856 
L 1013 4856 
Q 1481 4119 1714 3412 
Q 1947 2706 1947 2009 
Q 1947 1309 1714 600 
Q 1481 -109 1013 -844 
L 513 -844 
Q 928 -128 1133 580 
Q 1338 1288 1338 2009 
Q 1338 2731 1133 3434 
Q 928 4138 513 4856 
z
" transform="scale(0.015625)"/>
      </defs>
      <use xlink:href="#DejaVuSans-54"/>
      <use xlink:href="#DejaVuSans-69" x="57.958984"/>
      <use xlink:href="#DejaVuSans-6d" x="85.742188"/>
      <use xlink:href="#DejaVuSans-65" x="183.154297"/>
      <use xlink:href="#DejaVuSans-20" x="244.677734"/>
      <use xlink:href="#DejaVuSans-28" x="276.464844"/>
      <use xlink:href="#DejaVuSans-73" x="315.478516"/>
      <use xlink:href="#DejaVuSans-29" x="367.578125"/>
     </g>
    </g>
   </g>
   <g id="matplotlib.axis_2">
    <g id="ytick_1">
     <g id="line2d_6">
      <defs>
       <path id="mdf37603e91" d="M 0 0 
L -3.5 0 
" style="stroke: #000000; stroke-width: 0.8"/>
      </defs>
      <g>
       <use xlink:href="#mdf37603e91" x="50.24" y="95.330734" style="stroke: #000000; stroke-width: 0.8"/>
      </g>
     </g>
     <g id="text_5">
      <!-- −2.5 -->
      <g transform="translate(18.957188 99.129953) scale(0.1 -0.1)">
       <defs>
        <path id="DejaVuSans-2212" d="M 678 2272 
L 4684 2272 
L 4684 1741 
L 678 1741 
L 678 2272 
z
" transform="scale(0.015625)"/>
        <path id="DejaVuSans-35" d="M 691 4666 
L 3169 4666 
L 3169 4134 
L 1269 4134 
L 1269 2991 
Q 1406 3038 1543 3061 
Q 1681 3084 1819 3084 
Q 2600 3084 3056 2656 
Q 3513 2228 3513 1497 
Q 3513 744 3044 326 
Q 2575 -91 1722 -91 
Q 1428 -91 1123 -41 
Q 819 9 494 109 
L 494 744 
Q 775 591 1075 516 
Q 1375 441 1709 441 
Q 2250 441 2565 725 
Q 2881 1009 2881 1497 
Q 2881 1984 2565 2268 
Q 2250 2553 1709 2553 
Q 1456 2553 1204 2497 
Q 953 2441 691 2322 
L 691 4666 
z
" transform="scale(0.015625)"/>
       </defs>
       <use xlink:href="#DejaVuSans-2212"/>
       <use xlink:href="#DejaVuSans-32" x="83.789062"/>
       <use xlink:href="#DejaVuSans-2e" x="147.412109"/>
       <use xlink:href="#DejaVuSans-35" x="179.199219"/>
      </g>
     </g>
    </g>
    <g id="ytick_2">
     <g id="line2d_7">
      <g>
       <use xlink:href="#mdf37603e91" x="50.24" y="67.720386" style="stroke: #000000; stroke-width: 0.8"/>
      </g>
     </g>
     <g id="text_6">
      <!-- 0.0 -->
      <g transform="translate(27.336875 71.519605) scale(0.1 -0.1)">
       <use xlink:href="#DejaVuSans-30"/>
       <use xlink:href="#DejaVuSans-2e" x="63.623047"/>
       <use xlink:href="#DejaVuSans-30" x="95.410156"/>
      </g>
     </g>
    </g>
    <g id="ytick_3">
     <g id="line2d_8">
      <g>
       <use xlink:href="#mdf37603e91" x="50.24" y="40.110038" style="stroke: #000000; stroke-width: 0.8"/>
      </g>
     </g>
     <g id="text_7">
      <!-- 2.5 -->
      <g transform="translate(27.336875 43.909257) scale(0.1 -0.1)">
       <use xlink:href="#DejaVuSans-32"/>
       <use xlink:href="#DejaVuSans-2e" x="63.623047"/>
       <use xlink:href="#DejaVuSans-35" x="95.410156"/>
      </g>
     </g>
    </g>
    <g id="ytick_4">
     <g id="line2d_9">
      <g>
       <use xlink:href="#mdf37603e91" x="50.24" y="12.49969" style="stroke: #000000; stroke-width: 0.8"/>
      </g>
     </g>
     <g id="text_8">
      <!-- 5.0 -->
      <g transform="translate(27.336875 16.298909) scale(0.1 -0.1)">
       <use xlink:href="#DejaVuSans-35"/>
       <use xlink:href="#DejaVuSans-2e" x="63.623047"/>
       <use xlink:href="#DejaVuSans-30" x="95.410156"/>
      </g>
     </g>
    </g>
    <g id="text_9">
     <!-- $\mu$V -->
     <g transform="translate(12.437188 64.04) rotate(-90) scale(0.12 -0.12)">
      <defs>
       <path id="DejaVuSans-Oblique-3bc" d="M -84 -1331 
L 856 3500 
L 1434 3500 
L 1009 1322 
Q 997 1256 987 1175 
Q 978 1094 978 1013 
Q 978 722 1161 565 
Q 1344 409 1684 409 
Q 2147 409 2431 671 
Q 2716 934 2816 1459 
L 3213 3500 
L 3788 3500 
L 3266 809 
Q 3253 750 3248 706 
Q 3244 663 3244 628 
Q 3244 531 3283 486 
Q 3322 441 3406 441 
Q 3438 441 3492 456 
Q 3547 472 3647 513 
L 3559 50 
Q 3422 -19 3297 -55 
Q 3172 -91 3053 -91 
Q 2847 -91 2730 40 
Q 2613 172 2613 403 
Q 2438 153 2195 31 
Q 1953 -91 1625 -91 
Q 1334 -91 1117 43 
Q 900 178 831 397 
L 494 -1331 
L -84 -1331 
z
" transform="scale(0.015625)"/>
       <path id="DejaVuSans-56" d="M 1831 0 
L 50 4666 
L 709 4666 
L 2188 738 
L 3669 4666 
L 4325 4666 
L 2547 0 
L 1831 0 
z
" transform="scale(0.015625)"/>
      </defs>
      <use xlink:href="#DejaVuSans-Oblique-3bc" transform="translate(0 0.09375)"/>
      <use xlink:href="#DejaVuSans-56" transform="translate(63.623047 0.09375)"/>
     </g>
    </g>
   </g>
   <g id="line2d_10">
    <path d="M 55.892727 58.921151 
L 56.631646 60.563571 
L 57.370564 62.591312 
L 58.109483 65.196932 
L 58.848402 67.322204 
L 60.326239 70.644536 
L 61.065157 71.375029 
L 61.804076 71.447777 
L 62.542995 71.761027 
L 63.281913 71.438442 
L 64.020832 71.428812 
L 65.498669 70.076597 
L 66.237588 69.328496 
L 67.715425 66.674449 
L 68.454343 65.965602 
L 69.193262 65.726296 
L 69.932181 65.728118 
L 70.671099 66.06018 
L 71.410018 66.236339 
L 72.148936 66.166039 
L 72.887855 66.429108 
L 73.626774 66.374246 
L 74.365692 66.484427 
L 75.104611 66.850766 
L 75.843529 66.804216 
L 76.582448 66.523643 
L 78.060285 66.515068 
L 78.799204 65.541007 
L 79.538122 64.952553 
L 82.493797 61.325898 
L 83.232715 60.971305 
L 83.971634 60.331171 
L 84.710553 59.922541 
L 87.666227 60.499786 
L 89.144064 57.812625 
L 90.621901 54.499557 
L 91.36082 52.605432 
L 92.099739 50.16645 
L 92.838657 47.28949 
L 93.577576 43.254172 
L 95.055413 33.393061 
L 95.794332 29.460133 
L 96.53325 27.076766 
L 97.272169 25.564711 
L 98.011087 24.895673 
L 98.750006 25.214386 
L 99.488925 26.182486 
L 100.227843 27.460342 
L 100.966762 29.68617 
L 101.70568 32.703866 
L 102.444599 36.477633 
L 103.922436 46.528577 
L 105.400273 56.723106 
L 106.139192 61.408955 
L 107.617029 67.535462 
L 108.355948 69.041687 
L 109.094866 70.17105 
L 109.833785 70.67535 
L 110.572704 70.169615 
L 112.050541 68.428679 
L 112.789459 67.14237 
L 116.484052 58.397751 
L 117.222971 57.277426 
L 118.700808 55.663173 
L 119.439727 55.573575 
L 120.178645 55.780324 
L 120.917564 55.857267 
L 121.656482 56.354928 
L 123.873238 59.563799 
L 124.612157 61.190648 
L 125.351075 62.47167 
L 129.045668 70.677177 
L 129.784587 71.895139 
L 130.523506 72.449829 
L 132.001343 74.152672 
L 133.47918 75.951376 
L 134.218099 76.598293 
L 134.957017 76.761079 
L 136.434854 76.50293 
L 137.173773 76.726321 
L 137.912692 75.55125 
L 139.390529 74.548408 
L 142.346203 71.8559 
L 144.562959 69.157647 
L 145.301878 68.516952 
L 146.779715 66.66706 
L 147.518633 66.105904 
L 148.257552 65.178839 
L 148.996471 64.435178 
L 149.735389 63.302167 
L 150.474308 62.560121 
L 151.952145 61.363993 
L 152.691064 61.473417 
L 153.429982 61.765142 
L 154.168901 61.648745 
L 154.907819 62.027414 
L 155.646738 62.263422 
L 157.124575 62.330906 
L 157.863494 61.725662 
L 158.602412 61.500973 
L 159.341331 61.633537 
L 160.08025 61.543274 
L 160.819168 61.635376 
L 161.558087 61.912107 
L 164.513761 63.906938 
L 165.25268 64.243352 
L 165.991598 64.386567 
L 167.469436 64.48452 
L 168.947273 65.807061 
L 168.947273 65.807061 
" clip-path="url(#pa42f10fd04)" style="fill: none; stroke: #00ffff; stroke-width: 1.5; stroke-linecap: square"/>
   </g>
   <g id="line2d_11">
    <path d="M 55.892727 55.684945 
L 56.631646 57.646528 
L 58.848402 66.761622 
L 59.58732 68.822321 
L 60.326239 70.529886 
L 61.065157 71.424606 
L 61.804076 71.741738 
L 62.542995 71.917066 
L 64.020832 72.502769 
L 64.75975 72.307957 
L 65.498669 71.906277 
L 66.237588 71.062892 
L 66.976506 69.872972 
L 67.715425 67.986617 
L 69.193262 65.904084 
L 69.932181 65.420781 
L 70.671099 65.434919 
L 71.410018 65.33307 
L 72.148936 65.39697 
L 74.365692 66.050057 
L 75.104611 66.502695 
L 77.321367 65.894486 
L 78.799204 64.083453 
L 79.538122 62.681436 
L 81.01596 61.090229 
L 81.754878 60.79486 
L 82.493797 60.303021 
L 83.232715 60.004942 
L 84.710553 60.214422 
L 85.449471 60.604163 
L 86.18839 60.510724 
L 86.927308 60.637819 
L 87.666227 60.444078 
L 89.144064 57.776371 
L 89.882983 56.035775 
L 91.36082 51.941313 
L 92.838657 45.727263 
L 93.577576 41.94433 
L 95.055413 32.157827 
L 96.53325 25.183481 
L 97.272169 23.343152 
L 98.011087 22.161943 
L 98.750006 22.057961 
L 99.488925 22.848936 
L 100.227843 24.198325 
L 101.70568 29.29078 
L 102.444599 32.723464 
L 103.922436 42.58954 
L 106.139192 58.378328 
L 106.878111 62.376868 
L 107.617029 65.568153 
L 108.355948 67.68416 
L 109.094866 69.279032 
L 109.833785 69.903684 
L 110.572704 69.899699 
L 112.050541 68.735636 
L 113.528378 65.261058 
L 115.745134 59.809003 
L 116.484052 58.362839 
L 117.961889 56.80727 
L 120.178645 55.577546 
L 120.917564 55.438523 
L 121.656482 55.8532 
L 123.873238 59.343358 
L 126.089994 63.358038 
L 129.784587 72.037534 
L 131.262424 74.538448 
L 132.001343 75.454613 
L 133.47918 76.622503 
L 134.218099 76.858949 
L 135.695936 77.100262 
L 136.434854 76.939697 
L 137.173773 76.345298 
L 137.912692 76.024812 
L 138.65161 75.938917 
L 139.390529 75.704099 
L 140.868366 74.577463 
L 141.607285 74.305556 
L 143.085122 73.041489 
L 143.82404 71.687244 
L 144.562959 69.883013 
L 146.040796 67.644518 
L 149.735389 64.176592 
L 150.474308 63.939199 
L 151.213226 63.406039 
L 151.952145 63.244908 
L 153.429982 62.730372 
L 154.907819 61.647084 
L 155.646738 61.326972 
L 156.385657 61.323579 
L 157.124575 60.736353 
L 157.863494 60.357371 
L 158.602412 60.412582 
L 159.341331 61.092421 
L 160.08025 61.395048 
L 161.558087 61.671195 
L 163.035924 62.651788 
L 163.774843 63.611753 
L 165.25268 64.250514 
L 165.991598 64.780191 
L 166.730517 64.884599 
L 167.469436 65.294861 
L 168.208354 65.282278 
L 168.947273 65.800264 
L 168.947273 65.800264 
" clip-path="url(#pa42f10fd04)" style="fill: none; stroke: #40bfff; stroke-width: 1.5; stroke-linecap: square"/>
   </g>
   <g id="line2d_12">
    <path d="M 55.892727 57.885175 
L 56.631646 59.608933 
L 58.848402 67.437273 
L 59.58732 69.379837 
L 60.326239 70.488228 
L 61.065157 71.153907 
L 61.804076 71.578425 
L 62.542995 71.853097 
L 64.020832 71.723969 
L 65.498669 70.801326 
L 66.976506 67.941613 
L 67.715425 66.368795 
L 68.454343 65.071447 
L 69.193262 64.395128 
L 69.932181 64.719433 
L 71.410018 65.926793 
L 72.148936 66.967766 
L 73.626774 67.409408 
L 74.365692 67.941334 
L 75.104611 68.154059 
L 76.582448 67.361961 
L 77.321367 66.939841 
L 78.799204 65.528524 
L 81.01596 62.491419 
L 83.971634 59.544851 
L 84.710553 59.578027 
L 85.449471 59.486096 
L 86.927308 60.30031 
L 87.666227 60.047688 
L 88.405146 59.658498 
L 89.144064 58.624217 
L 90.621901 55.949445 
L 91.36082 54.147714 
L 92.099739 52.033354 
L 92.838657 48.870604 
L 93.577576 44.18103 
L 95.055413 33.010853 
L 95.794332 28.154465 
L 96.53325 24.585785 
L 97.272169 22.32973 
L 98.011087 20.680909 
L 98.750006 20.232989 
L 99.488925 20.481619 
L 100.227843 22.03915 
L 100.966762 24.672378 
L 101.70568 28.267644 
L 103.183518 38.017502 
L 106.139192 58.57208 
L 106.878111 62.80351 
L 107.617029 66.119159 
L 108.355948 68.68215 
L 109.094866 70.680101 
L 109.833785 71.232324 
L 110.572704 71.400154 
L 111.311622 70.619435 
L 113.528378 66.937491 
L 114.267296 64.994819 
L 115.006215 63.562679 
L 115.745134 62.933227 
L 116.484052 61.949582 
L 117.222971 60.768565 
L 118.700808 59.898336 
L 119.439727 59.412258 
L 120.178645 59.696391 
L 120.917564 60.15144 
L 121.656482 60.765526 
L 123.13432 62.853181 
L 124.612157 66.082221 
L 126.089994 69.632071 
L 126.828913 71.064457 
L 128.30675 72.975317 
L 129.045668 74.045537 
L 129.784587 75.384193 
L 130.523506 76.165445 
L 132.740261 79.911814 
L 134.218099 81.295209 
L 134.957017 81.268491 
L 135.695936 80.953244 
L 137.173773 80.710162 
L 137.912692 80.57761 
L 138.65161 80.653893 
L 139.390529 80.348431 
L 140.129447 79.631483 
L 141.607285 77.312569 
L 142.346203 76.429939 
L 143.085122 75.207882 
L 143.82404 74.447134 
L 145.301878 73.697172 
L 146.040796 72.857982 
L 148.996471 67.529064 
L 149.735389 66.912108 
L 150.474308 66.034925 
L 151.213226 65.692063 
L 151.952145 65.805066 
L 152.691064 66.324274 
L 153.429982 66.175513 
L 154.168901 65.823308 
L 154.907819 65.679328 
L 155.646738 65.919813 
L 156.385657 65.571339 
L 157.124575 64.883523 
L 160.08025 65.297799 
L 160.819168 65.924675 
L 161.558087 66.30574 
L 163.035924 68.168338 
L 163.774843 68.805324 
L 164.513761 69.619557 
L 165.25268 70.098411 
L 165.991598 70.418671 
L 166.730517 70.4708 
L 167.469436 70.343879 
L 168.208354 70.538076 
L 168.947273 71.418805 
L 168.947273 71.418805 
" clip-path="url(#pa42f10fd04)" style="fill: none; stroke: #807fff; stroke-width: 1.5; stroke-linecap: square"/>
   </g>
   <g id="line2d_13">
    <path d="M 55.892727 58.152832 
L 56.631646 59.505846 
L 58.109483 63.415012 
L 58.848402 65.451987 
L 61.065157 69.101472 
L 61.804076 69.790009 
L 62.542995 70.831983 
L 63.281913 71.478943 
L 64.020832 71.820864 
L 64.75975 71.441547 
L 65.498669 70.801803 
L 66.237588 69.660458 
L 66.976506 68.257534 
L 67.715425 67.324263 
L 68.454343 66.589698 
L 69.193262 66.295466 
L 69.932181 66.834581 
L 71.410018 67.634528 
L 72.148936 68.205785 
L 72.887855 68.439183 
L 73.626774 68.258283 
L 74.365692 68.522662 
L 75.104611 68.522295 
L 78.060285 67.456637 
L 78.799204 66.466991 
L 80.277041 63.233963 
L 81.754878 61.497156 
L 82.493797 60.954398 
L 83.232715 60.958556 
L 83.971634 60.52943 
L 84.710553 60.688337 
L 85.449471 60.388505 
L 86.18839 59.846158 
L 86.927308 59.633779 
L 87.666227 59.541957 
L 88.405146 58.7401 
L 89.144064 58.48388 
L 89.882983 58.065604 
L 90.621901 57.352129 
L 91.36082 56.315836 
L 92.099739 54.488344 
L 92.838657 51.509696 
L 94.316494 41.507402 
L 95.794332 31.161419 
L 96.53325 27.587849 
L 97.272169 25.328871 
L 98.011087 23.832654 
L 98.750006 23.552307 
L 99.488925 24.006813 
L 100.227843 25.061283 
L 100.966762 27.182716 
L 101.70568 30.308761 
L 103.183518 38.885809 
L 106.878111 63.561579 
L 108.355948 69.312373 
L 109.094866 70.743196 
L 109.833785 71.505026 
L 110.572704 72.004977 
L 111.311622 71.309451 
L 114.267296 66.80525 
L 115.745134 65.940123 
L 116.484052 65.571864 
L 117.961889 64.471114 
L 118.700808 63.793966 
L 119.439727 63.313957 
L 120.178645 63.815472 
L 120.917564 64.581372 
L 121.656482 65.668358 
L 122.395401 67.397821 
L 124.612157 74.512298 
L 125.351075 76.154193 
L 128.30675 79.769361 
L 129.045668 81.027972 
L 131.262424 83.913117 
L 132.001343 85.346394 
L 132.740261 86.188654 
L 134.218099 86.601126 
L 134.957017 87.049848 
L 135.695936 87.188963 
L 137.173773 86.946694 
L 137.912692 86.487078 
L 139.390529 84.936902 
L 140.129447 84.057985 
L 141.607285 81.482502 
L 142.346203 80.151587 
L 143.085122 79.19196 
L 145.301878 74.918869 
L 146.779715 71.715582 
L 147.518633 70.18915 
L 148.257552 69.337407 
L 149.735389 68.619642 
L 150.474308 68.371565 
L 151.952145 67.204553 
L 152.691064 66.845225 
L 153.429982 66.649645 
L 154.168901 66.158489 
L 154.907819 65.845805 
L 156.385657 65.960149 
L 157.124575 65.913122 
L 157.863494 66.603818 
L 159.341331 67.570599 
L 161.558087 69.325853 
L 162.297005 69.366014 
L 163.035924 69.674717 
L 164.513761 71.222685 
L 165.25268 72.177337 
L 166.730517 74.562926 
L 167.469436 75.371901 
L 168.208354 75.736762 
L 168.947273 75.693025 
L 168.947273 75.693025 
" clip-path="url(#pa42f10fd04)" style="fill: none; stroke: #c03fff; stroke-width: 1.5; stroke-linecap: square"/>
   </g>
   <g id="line2d_14">
    <path d="M 55.892727 57.829989 
L 56.631646 59.116399 
L 57.370564 60.784399 
L 58.848402 65.144643 
L 59.58732 67.531303 
L 61.065157 71.165355 
L 61.804076 71.73877 
L 62.542995 72.093316 
L 63.281913 72.322603 
L 64.020832 71.729135 
L 67.715425 67.376168 
L 68.454343 67.066202 
L 69.932181 67.280239 
L 70.671099 67.049048 
L 71.410018 67.646137 
L 72.148936 67.486578 
L 72.887855 67.126812 
L 73.626774 66.439257 
L 75.843529 64.838722 
L 76.582448 64.983357 
L 77.321367 65.246201 
L 78.060285 64.923762 
L 81.01596 62.426473 
L 82.493797 60.489346 
L 83.232715 59.892343 
L 83.971634 59.682513 
L 84.710553 58.941955 
L 85.449471 58.600255 
L 86.18839 58.536826 
L 86.927308 58.102845 
L 87.666227 58.110086 
L 88.405146 57.32859 
L 89.882983 55.087983 
L 91.36082 51.234089 
L 92.099739 48.833814 
L 92.838657 45.982073 
L 93.577576 42.409556 
L 95.794332 29.265063 
L 96.53325 26.03906 
L 97.272169 23.386053 
L 98.011087 21.529078 
L 98.750006 20.404967 
L 99.488925 20.413557 
L 100.227843 22.136573 
L 100.966762 25.25586 
L 102.444599 33.510643 
L 104.661355 48.512753 
L 105.400273 54.065713 
L 106.878111 62.985916 
L 107.617029 66.693483 
L 108.355948 69.419258 
L 109.094866 71.380572 
L 109.833785 72.240952 
L 110.572704 72.427203 
L 111.311622 71.983321 
L 112.050541 71.07807 
L 112.789459 69.781567 
L 115.006215 67.005798 
L 115.745134 66.662263 
L 116.484052 66.874862 
L 117.222971 66.655479 
L 117.961889 66.306994 
L 118.700808 66.520388 
L 119.439727 66.311342 
L 120.178645 66.560335 
L 120.917564 66.986878 
L 121.656482 67.804665 
L 123.13432 71.322707 
L 124.612157 75.677585 
L 125.351075 77.265272 
L 127.567831 80.74246 
L 130.523506 85.172188 
L 131.262424 86.593785 
L 132.001343 87.511378 
L 132.740261 88.653501 
L 133.47918 89.27772 
L 134.218099 90.054569 
L 134.957017 90.568839 
L 135.695936 90.638137 
L 136.434854 90.475216 
L 138.65161 88.85433 
L 140.868366 84.791005 
L 141.607285 83.192844 
L 142.346203 81.974038 
L 143.085122 80.51786 
L 144.562959 78.050057 
L 145.301878 76.822278 
L 146.040796 75.031821 
L 146.779715 72.885885 
L 148.257552 69.784934 
L 148.996471 68.266281 
L 149.735389 67.259482 
L 150.474308 66.614296 
L 151.213226 66.14978 
L 153.429982 65.535902 
L 154.907819 65.83379 
L 155.646738 65.559553 
L 156.385657 66.056658 
L 157.863494 65.931932 
L 160.08025 66.687155 
L 160.819168 67.06692 
L 162.297005 68.310012 
L 164.513761 69.766681 
L 165.25268 70.06231 
L 168.208354 72.172206 
L 168.947273 72.457135 
L 168.947273 72.457135 
" clip-path="url(#pa42f10fd04)" style="fill: none; stroke: #ff00ff; stroke-width: 1.5; stroke-linecap: square"/>
   </g>
   <g id="patch_3">
    <path d="M 50.24 101.32 
L 50.24 10.8 
" style="fill: none; stroke: #000000; stroke-width: 0.8; stroke-linejoin: miter; stroke-linecap: square"/>
   </g>
   <g id="patch_4">
    <path d="M 50.24 101.32 
L 174.6 101.32 
" style="fill: none; stroke: #000000; stroke-width: 0.8; stroke-linejoin: miter; stroke-linecap: square"/>
   </g>
  </g>
  <g id="axes_2">
   <g id="patch_5">
    <path d="M 224.84 101.32 
L 349.2 101.32 
L 349.2 10.8 
L 224.84 10.8 
z
" style="fill: #ffffff"/>
   </g>
   <g id="line2d_15">
    <path d="M 233.017696 44.558663 
L 259.979494 46.841834 
L 286.941292 49.125005 
L 313.90309 51.408176 
L 340.864888 53.691347 
" clip-path="url(#p90fb145788)" style="fill: none; stroke: #808080; stroke-opacity: 0.5; stroke-width: 1.5; stroke-linecap: square"/>
   </g>
   <g id="line2d_16">
    <path d="M 224.84 41.858609 
L 349.2 41.858609 
" clip-path="url(#p90fb145788)" style="fill: none; stroke: #d3d3d3; stroke-width: 0.5; stroke-linecap: square"/>
   </g>
   <g id="line2d_17">
    <path d="M 233.017696 49.64504 
L 233.017696 41.482033 
" clip-path="url(#p90fb145788)" style="fill: none; stroke: #808080; stroke-width: 1.5; stroke-linecap: square"/>
   </g>
   <g id="line2d_18">
    <path d="M 259.979494 49.590283 
L 259.979494 42.123788 
" clip-path="url(#p90fb145788)" style="fill: none; stroke: #808080; stroke-width: 1.5; stroke-linecap: square"/>
   </g>
   <g id="line2d_19">
    <path d="M 286.941292 52.414613 
L 286.941292 43.963872 
" clip-path="url(#p90fb145788)" style="fill: none; stroke: #808080; stroke-width: 1.5; stroke-linecap: square"/>
   </g>
   <g id="line2d_20">
    <path d="M 313.90309 56.536741 
L 313.90309 47.892471 
" clip-path="url(#p90fb145788)" style="fill: none; stroke: #808080; stroke-width: 1.5; stroke-linecap: square"/>
   </g>
   <g id="line2d_21">
    <path d="M 340.864888 58.014149 
L 340.864888 49.587064 
" clip-path="url(#p90fb145788)" style="fill: none; stroke: #808080; stroke-width: 1.5; stroke-linecap: square"/>
   </g>
   <g id="PathCollection_1">
    <defs>
     <path id="m17dcbc7baa" d="M 0 3.162278 
C 0.838646 3.162278 1.643056 2.82908 2.236068 2.236068 
C 2.82908 1.643056 3.162278 0.838646 3.162278 0 
C 3.162278 -0.838646 2.82908 -1.643056 2.236068 -2.236068 
C 1.643056 -2.82908 0.838646 -3.162278 0 -3.162278 
C -0.838646 -3.162278 -1.643056 -2.82908 -2.236068 -2.236068 
C -2.82908 -1.643056 -3.162278 -0.838646 -3.162278 0 
C -3.162278 0.838646 -2.82908 1.643056 -2.236068 2.236068 
C -1.643056 2.82908 -0.838646 3.162278 0 3.162278 
z
" style="stroke: #ffffff"/>
    </defs>
    <g clip-path="url(#p90fb145788)">
     <use xlink:href="#m17dcbc7baa" x="233.017696" y="45.563536" style="fill: #00ffff; stroke: #ffffff"/>
    </g>
   </g>
   <g id="PathCollection_2">
    <defs>
     <path id="m1a92313238" d="M 0 3.162278 
C 0.838646 3.162278 1.643056 2.82908 2.236068 2.236068 
C 2.82908 1.643056 3.162278 0.838646 3.162278 0 
C 3.162278 -0.838646 2.82908 -1.643056 2.236068 -2.236068 
C 1.643056 -2.82908 0.838646 -3.162278 0 -3.162278 
C -0.838646 -3.162278 -1.643056 -2.82908 -2.236068 -2.236068 
C -2.82908 -1.643056 -3.162278 -0.838646 -3.162278 0 
C -3.162278 0.838646 -2.82908 1.643056 -2.236068 2.236068 
C -1.643056 2.82908 -0.838646 3.162278 0 3.162278 
z
" style="stroke: #ffffff"/>
    </defs>
    <g clip-path="url(#p90fb145788)">
     <use xlink:href="#m1a92313238" x="259.979494" y="45.857036" style="fill: #40bfff; stroke: #ffffff"/>
    </g>
   </g>
   <g id="PathCollection_3">
    <defs>
     <path id="m088225234a" d="M 0 3.162278 
C 0.838646 3.162278 1.643056 2.82908 2.236068 2.236068 
C 2.82908 1.643056 3.162278 0.838646 3.162278 0 
C 3.162278 -0.838646 2.82908 -1.643056 2.236068 -2.236068 
C 1.643056 -2.82908 0.838646 -3.162278 0 -3.162278 
C -0.838646 -3.162278 -1.643056 -2.82908 -2.236068 -2.236068 
C -2.82908 -1.643056 -3.162278 -0.838646 -3.162278 0 
C -3.162278 0.838646 -2.82908 1.643056 -2.236068 2.236068 
C -1.643056 2.82908 -0.838646 3.162278 0 3.162278 
z
" style="stroke: #ffffff"/>
    </defs>
    <g clip-path="url(#p90fb145788)">
     <use xlink:href="#m088225234a" x="286.941292" y="48.189242" style="fill: #807fff; stroke: #ffffff"/>
    </g>
   </g>
   <g id="PathCollection_4">
    <defs>
     <path id="mc41831d0b9" d="M 0 3.162278 
C 0.838646 3.162278 1.643056 2.82908 2.236068 2.236068 
C 2.82908 1.643056 3.162278 0.838646 3.162278 0 
C 3.162278 -0.838646 2.82908 -1.643056 2.236068 -2.236068 
C 1.643056 -2.82908 0.838646 -3.162278 0 -3.162278 
C -0.838646 -3.162278 -1.643056 -2.82908 -2.236068 -2.236068 
C -2.82908 -1.643056 -3.162278 -0.838646 -3.162278 0 
C -3.162278 0.838646 -2.82908 1.643056 -2.236068 2.236068 
C -1.643056 2.82908 -0.838646 3.162278 0 3.162278 
z
" style="stroke: #ffffff"/>
    </defs>
    <g clip-path="url(#p90fb145788)">
     <use xlink:href="#mc41831d0b9" x="313.90309" y="52.214606" style="fill: #c03fff; stroke: #ffffff"/>
    </g>
   </g>
   <g id="PathCollection_5">
    <defs>
     <path id="m22fd337a76" d="M 0 3.162278 
C 0.838646 3.162278 1.643056 2.82908 2.236068 2.236068 
C 2.82908 1.643056 3.162278 0.838646 3.162278 0 
C 3.162278 -0.838646 2.82908 -1.643056 2.236068 -2.236068 
C 1.643056 -2.82908 0.838646 -3.162278 0 -3.162278 
C -0.838646 -3.162278 -1.643056 -2.82908 -2.236068 -2.236068 
C -2.82908 -1.643056 -3.162278 -0.838646 -3.162278 0 
C -3.162278 0.838646 -2.82908 1.643056 -2.236068 2.236068 
C -1.643056 2.82908 -0.838646 3.162278 0 3.162278 
z
" style="stroke: #ffffff"/>
    </defs>
    <g clip-path="url(#p90fb145788)">
     <use xlink:href="#m22fd337a76" x="340.864888" y="53.800606" style="fill: #ff00ff; stroke: #ffffff"/>
    </g>
   </g>
   <g id="matplotlib.axis_3">
    <g id="xtick_4">
     <g id="line2d_22">
      <g>
       <use xlink:href="#m493535a24b" x="233.017696" y="101.32" style="stroke: #000000; stroke-width: 0.8"/>
      </g>
     </g>
     <g id="text_10">
      <!-- 50 -->
      <g transform="translate(226.655196 115.918437) scale(0.1 -0.1)">
       <use xlink:href="#DejaVuSans-35"/>
       <use xlink:href="#DejaVuSans-30" x="63.623047"/>
      </g>
     </g>
    </g>
    <g id="xtick_5">
     <g id="line2d_23">
      <g>
       <use xlink:href="#m493535a24b" x="259.979494" y="101.32" style="stroke: #000000; stroke-width: 0.8"/>
      </g>
     </g>
     <g id="text_11">
      <!-- 60 -->
      <g transform="translate(253.616994 115.918437) scale(0.1 -0.1)">
       <defs>
        <path id="DejaVuSans-36" d="M 2113 2584 
Q 1688 2584 1439 2293 
Q 1191 2003 1191 1497 
Q 1191 994 1439 701 
Q 1688 409 2113 409 
Q 2538 409 2786 701 
Q 3034 994 3034 1497 
Q 3034 2003 2786 2293 
Q 2538 2584 2113 2584 
z
M 3366 4563 
L 3366 3988 
Q 3128 4100 2886 4159 
Q 2644 4219 2406 4219 
Q 1781 4219 1451 3797 
Q 1122 3375 1075 2522 
Q 1259 2794 1537 2939 
Q 1816 3084 2150 3084 
Q 2853 3084 3261 2657 
Q 3669 2231 3669 1497 
Q 3669 778 3244 343 
Q 2819 -91 2113 -91 
Q 1303 -91 875 529 
Q 447 1150 447 2328 
Q 447 3434 972 4092 
Q 1497 4750 2381 4750 
Q 2619 4750 2861 4703 
Q 3103 4656 3366 4563 
z
" transform="scale(0.015625)"/>
       </defs>
       <use xlink:href="#DejaVuSans-36"/>
       <use xlink:href="#DejaVuSans-30" x="63.623047"/>
      </g>
     </g>
    </g>
    <g id="xtick_6">
     <g id="line2d_24">
      <g>
       <use xlink:href="#m493535a24b" x="286.941292" y="101.32" style="stroke: #000000; stroke-width: 0.8"/>
      </g>
     </g>
     <g id="text_12">
      <!-- 70 -->
      <g transform="translate(280.578792 115.918437) scale(0.1 -0.1)">
       <defs>
        <path id="DejaVuSans-37" d="M 525 4666 
L 3525 4666 
L 3525 4397 
L 1831 0 
L 1172 0 
L 2766 4134 
L 525 4134 
L 525 4666 
z
" transform="scale(0.015625)"/>
       </defs>
       <use xlink:href="#DejaVuSans-37"/>
       <use xlink:href="#DejaVuSans-30" x="63.623047"/>
      </g>
     </g>
    </g>
    <g id="xtick_7">
     <g id="line2d_25">
      <g>
       <use xlink:href="#m493535a24b" x="313.90309" y="101.32" style="stroke: #000000; stroke-width: 0.8"/>
      </g>
     </g>
     <g id="text_13">
      <!-- 80 -->
      <g transform="translate(307.54059 115.918437) scale(0.1 -0.1)">
       <defs>
        <path id="DejaVuSans-38" d="M 2034 2216 
Q 1584 2216 1326 1975 
Q 1069 1734 1069 1313 
Q 1069 891 1326 650 
Q 1584 409 2034 409 
Q 2484 409 2743 651 
Q 3003 894 3003 1313 
Q 3003 1734 2745 1975 
Q 2488 2216 2034 2216 
z
M 1403 2484 
Q 997 2584 770 2862 
Q 544 3141 544 3541 
Q 544 4100 942 4425 
Q 1341 4750 2034 4750 
Q 2731 4750 3128 4425 
Q 3525 4100 3525 3541 
Q 3525 3141 3298 2862 
Q 3072 2584 2669 2484 
Q 3125 2378 3379 2068 
Q 3634 1759 3634 1313 
Q 3634 634 3220 271 
Q 2806 -91 2034 -91 
Q 1263 -91 848 271 
Q 434 634 434 1313 
Q 434 1759 690 2068 
Q 947 2378 1403 2484 
z
M 1172 3481 
Q 1172 3119 1398 2916 
Q 1625 2713 2034 2713 
Q 2441 2713 2670 2916 
Q 2900 3119 2900 3481 
Q 2900 3844 2670 4047 
Q 2441 4250 2034 4250 
Q 1625 4250 1398 4047 
Q 1172 3844 1172 3481 
z
" transform="scale(0.015625)"/>
       </defs>
       <use xlink:href="#DejaVuSans-38"/>
       <use xlink:href="#DejaVuSans-30" x="63.623047"/>
      </g>
     </g>
    </g>
    <g id="xtick_8">
     <g id="line2d_26">
      <g>
       <use xlink:href="#m493535a24b" x="340.864888" y="101.32" style="stroke: #000000; stroke-width: 0.8"/>
      </g>
     </g>
     <g id="text_14">
      <!-- 90 -->
      <g transform="translate(334.502388 115.918437) scale(0.1 -0.1)">
       <defs>
        <path id="DejaVuSans-39" d="M 703 97 
L 703 672 
Q 941 559 1184 500 
Q 1428 441 1663 441 
Q 2288 441 2617 861 
Q 2947 1281 2994 2138 
Q 2813 1869 2534 1725 
Q 2256 1581 1919 1581 
Q 1219 1581 811 2004 
Q 403 2428 403 3163 
Q 403 3881 828 4315 
Q 1253 4750 1959 4750 
Q 2769 4750 3195 4129 
Q 3622 3509 3622 2328 
Q 3622 1225 3098 567 
Q 2575 -91 1691 -91 
Q 1453 -91 1209 -44 
Q 966 3 703 97 
z
M 1959 2075 
Q 2384 2075 2632 2365 
Q 2881 2656 2881 3163 
Q 2881 3666 2632 3958 
Q 2384 4250 1959 4250 
Q 1534 4250 1286 3958 
Q 1038 3666 1038 3163 
Q 1038 2656 1286 2365 
Q 1534 2075 1959 2075 
z
" transform="scale(0.015625)"/>
       </defs>
       <use xlink:href="#DejaVuSans-39"/>
       <use xlink:href="#DejaVuSans-30" x="63.623047"/>
      </g>
     </g>
    </g>
    <g id="text_15">
     <!-- Target contrast (%) -->
     <g transform="translate(229.510937 131.11625) scale(0.12 -0.12)">
      <defs>
       <path id="DejaVuSans-61" d="M 2194 1759 
Q 1497 1759 1228 1600 
Q 959 1441 959 1056 
Q 959 750 1161 570 
Q 1363 391 1709 391 
Q 2188 391 2477 730 
Q 2766 1069 2766 1631 
L 2766 1759 
L 2194 1759 
z
M 3341 1997 
L 3341 0 
L 2766 0 
L 2766 531 
Q 2569 213 2275 61 
Q 1981 -91 1556 -91 
Q 1019 -91 701 211 
Q 384 513 384 1019 
Q 384 1609 779 1909 
Q 1175 2209 1959 2209 
L 2766 2209 
L 2766 2266 
Q 2766 2663 2505 2880 
Q 2244 3097 1772 3097 
Q 1472 3097 1187 3025 
Q 903 2953 641 2809 
L 641 3341 
Q 956 3463 1253 3523 
Q 1550 3584 1831 3584 
Q 2591 3584 2966 3190 
Q 3341 2797 3341 1997 
z
" transform="scale(0.015625)"/>
       <path id="DejaVuSans-72" d="M 2631 2963 
Q 2534 3019 2420 3045 
Q 2306 3072 2169 3072 
Q 1681 3072 1420 2755 
Q 1159 2438 1159 1844 
L 1159 0 
L 581 0 
L 581 3500 
L 1159 3500 
L 1159 2956 
Q 1341 3275 1631 3429 
Q 1922 3584 2338 3584 
Q 2397 3584 2469 3576 
Q 2541 3569 2628 3553 
L 2631 2963 
z
" transform="scale(0.015625)"/>
       <path id="DejaVuSans-67" d="M 2906 1791 
Q 2906 2416 2648 2759 
Q 2391 3103 1925 3103 
Q 1463 3103 1205 2759 
Q 947 2416 947 1791 
Q 947 1169 1205 825 
Q 1463 481 1925 481 
Q 2391 481 2648 825 
Q 2906 1169 2906 1791 
z
M 3481 434 
Q 3481 -459 3084 -895 
Q 2688 -1331 1869 -1331 
Q 1566 -1331 1297 -1286 
Q 1028 -1241 775 -1147 
L 775 -588 
Q 1028 -725 1275 -790 
Q 1522 -856 1778 -856 
Q 2344 -856 2625 -561 
Q 2906 -266 2906 331 
L 2906 616 
Q 2728 306 2450 153 
Q 2172 0 1784 0 
Q 1141 0 747 490 
Q 353 981 353 1791 
Q 353 2603 747 3093 
Q 1141 3584 1784 3584 
Q 2172 3584 2450 3431 
Q 2728 3278 2906 2969 
L 2906 3500 
L 3481 3500 
L 3481 434 
z
" transform="scale(0.015625)"/>
       <path id="DejaVuSans-74" d="M 1172 4494 
L 1172 3500 
L 2356 3500 
L 2356 3053 
L 1172 3053 
L 1172 1153 
Q 1172 725 1289 603 
Q 1406 481 1766 481 
L 2356 481 
L 2356 0 
L 1766 0 
Q 1100 0 847 248 
Q 594 497 594 1153 
L 594 3053 
L 172 3053 
L 172 3500 
L 594 3500 
L 594 4494 
L 1172 4494 
z
" transform="scale(0.015625)"/>
       <path id="DejaVuSans-63" d="M 3122 3366 
L 3122 2828 
Q 2878 2963 2633 3030 
Q 2388 3097 2138 3097 
Q 1578 3097 1268 2742 
Q 959 2388 959 1747 
Q 959 1106 1268 751 
Q 1578 397 2138 397 
Q 2388 397 2633 464 
Q 2878 531 3122 666 
L 3122 134 
Q 2881 22 2623 -34 
Q 2366 -91 2075 -91 
Q 1284 -91 818 406 
Q 353 903 353 1747 
Q 353 2603 823 3093 
Q 1294 3584 2113 3584 
Q 2378 3584 2631 3529 
Q 2884 3475 3122 3366 
z
" transform="scale(0.015625)"/>
       <path id="DejaVuSans-6f" d="M 1959 3097 
Q 1497 3097 1228 2736 
Q 959 2375 959 1747 
Q 959 1119 1226 758 
Q 1494 397 1959 397 
Q 2419 397 2687 759 
Q 2956 1122 2956 1747 
Q 2956 2369 2687 2733 
Q 2419 3097 1959 3097 
z
M 1959 3584 
Q 2709 3584 3137 3096 
Q 3566 2609 3566 1747 
Q 3566 888 3137 398 
Q 2709 -91 1959 -91 
Q 1206 -91 779 398 
Q 353 888 353 1747 
Q 353 2609 779 3096 
Q 1206 3584 1959 3584 
z
" transform="scale(0.015625)"/>
       <path id="DejaVuSans-6e" d="M 3513 2113 
L 3513 0 
L 2938 0 
L 2938 2094 
Q 2938 2591 2744 2837 
Q 2550 3084 2163 3084 
Q 1697 3084 1428 2787 
Q 1159 2491 1159 1978 
L 1159 0 
L 581 0 
L 581 3500 
L 1159 3500 
L 1159 2956 
Q 1366 3272 1645 3428 
Q 1925 3584 2291 3584 
Q 2894 3584 3203 3211 
Q 3513 2838 3513 2113 
z
" transform="scale(0.015625)"/>
       <path id="DejaVuSans-25" d="M 4653 2053 
Q 4381 2053 4226 1822 
Q 4072 1591 4072 1178 
Q 4072 772 4226 539 
Q 4381 306 4653 306 
Q 4919 306 5073 539 
Q 5228 772 5228 1178 
Q 5228 1588 5073 1820 
Q 4919 2053 4653 2053 
z
M 4653 2450 
Q 5147 2450 5437 2106 
Q 5728 1763 5728 1178 
Q 5728 594 5436 251 
Q 5144 -91 4653 -91 
Q 4153 -91 3862 251 
Q 3572 594 3572 1178 
Q 3572 1766 3864 2108 
Q 4156 2450 4653 2450 
z
M 1428 4353 
Q 1159 4353 1004 4120 
Q 850 3888 850 3481 
Q 850 3069 1003 2837 
Q 1156 2606 1428 2606 
Q 1700 2606 1854 2837 
Q 2009 3069 2009 3481 
Q 2009 3884 1853 4118 
Q 1697 4353 1428 4353 
z
M 4250 4750 
L 4750 4750 
L 1831 -91 
L 1331 -91 
L 4250 4750 
z
M 1428 4750 
Q 1922 4750 2215 4408 
Q 2509 4066 2509 3481 
Q 2509 2891 2217 2550 
Q 1925 2209 1428 2209 
Q 931 2209 642 2551 
Q 353 2894 353 3481 
Q 353 4063 643 4406 
Q 934 4750 1428 4750 
z
" transform="scale(0.015625)"/>
      </defs>
      <use xlink:href="#DejaVuSans-54"/>
      <use xlink:href="#DejaVuSans-61" x="44.583984"/>
      <use xlink:href="#DejaVuSans-72" x="105.863281"/>
      <use xlink:href="#DejaVuSans-67" x="145.226562"/>
      <use xlink:href="#DejaVuSans-65" x="208.703125"/>
      <use xlink:href="#DejaVuSans-74" x="270.226562"/>
      <use xlink:href="#DejaVuSans-20" x="309.435547"/>
      <use xlink:href="#DejaVuSans-63" x="341.222656"/>
      <use xlink:href="#DejaVuSans-6f" x="396.203125"/>
      <use xlink:href="#DejaVuSans-6e" x="457.384766"/>
      <use xlink:href="#DejaVuSans-74" x="520.763672"/>
      <use xlink:href="#DejaVuSans-72" x="559.972656"/>
      <use xlink:href="#DejaVuSans-61" x="601.085938"/>
      <use xlink:href="#DejaVuSans-73" x="662.365234"/>
      <use xlink:href="#DejaVuSans-74" x="714.464844"/>
      <use xlink:href="#DejaVuSans-20" x="753.673828"/>
      <use xlink:href="#DejaVuSans-28" x="785.460938"/>
      <use xlink:href="#DejaVuSans-25" x="824.474609"/>
      <use xlink:href="#DejaVuSans-29" x="919.494141"/>
     </g>
    </g>
   </g>
   <g id="matplotlib.axis_4">
    <g id="ytick_5">
     <g id="line2d_27">
      <g>
       <use xlink:href="#mdf37603e91" x="224.84" y="76.714224" style="stroke: #000000; stroke-width: 0.8"/>
      </g>
     </g>
     <g id="text_16">
      <!-- −5 -->
      <g transform="translate(203.097813 80.513442) scale(0.1 -0.1)">
       <use xlink:href="#DejaVuSans-2212"/>
       <use xlink:href="#DejaVuSans-35" x="83.789062"/>
      </g>
     </g>
    </g>
    <g id="ytick_6">
     <g id="line2d_28">
      <g>
       <use xlink:href="#mdf37603e91" x="224.84" y="41.858609" style="stroke: #000000; stroke-width: 0.8"/>
      </g>
     </g>
     <g id="text_17">
      <!-- 0 -->
      <g transform="translate(211.4775 45.657828) scale(0.1 -0.1)">
       <use xlink:href="#DejaVuSans-30"/>
      </g>
     </g>
    </g>
    <g id="text_18">
     <!-- Mean amplitude ($\mu$V) -->
     <g transform="translate(196.577812 119.18) rotate(-90) scale(0.12 -0.12)">
      <defs>
       <path id="DejaVuSans-4d" d="M 628 4666 
L 1569 4666 
L 2759 1491 
L 3956 4666 
L 4897 4666 
L 4897 0 
L 4281 0 
L 4281 4097 
L 3078 897 
L 2444 897 
L 1241 4097 
L 1241 0 
L 628 0 
L 628 4666 
z
" transform="scale(0.015625)"/>
       <path id="DejaVuSans-70" d="M 1159 525 
L 1159 -1331 
L 581 -1331 
L 581 3500 
L 1159 3500 
L 1159 2969 
Q 1341 3281 1617 3432 
Q 1894 3584 2278 3584 
Q 2916 3584 3314 3078 
Q 3713 2572 3713 1747 
Q 3713 922 3314 415 
Q 2916 -91 2278 -91 
Q 1894 -91 1617 61 
Q 1341 213 1159 525 
z
M 3116 1747 
Q 3116 2381 2855 2742 
Q 2594 3103 2138 3103 
Q 1681 3103 1420 2742 
Q 1159 2381 1159 1747 
Q 1159 1113 1420 752 
Q 1681 391 2138 391 
Q 2594 391 2855 752 
Q 3116 1113 3116 1747 
z
" transform="scale(0.015625)"/>
       <path id="DejaVuSans-6c" d="M 603 4863 
L 1178 4863 
L 1178 0 
L 603 0 
L 603 4863 
z
" transform="scale(0.015625)"/>
       <path id="DejaVuSans-75" d="M 544 1381 
L 544 3500 
L 1119 3500 
L 1119 1403 
Q 1119 906 1312 657 
Q 1506 409 1894 409 
Q 2359 409 2629 706 
Q 2900 1003 2900 1516 
L 2900 3500 
L 3475 3500 
L 3475 0 
L 2900 0 
L 2900 538 
Q 2691 219 2414 64 
Q 2138 -91 1772 -91 
Q 1169 -91 856 284 
Q 544 659 544 1381 
z
M 1991 3584 
L 1991 3584 
z
" transform="scale(0.015625)"/>
       <path id="DejaVuSans-64" d="M 2906 2969 
L 2906 4863 
L 3481 4863 
L 3481 0 
L 2906 0 
L 2906 525 
Q 2725 213 2448 61 
Q 2172 -91 1784 -91 
Q 1150 -91 751 415 
Q 353 922 353 1747 
Q 353 2572 751 3078 
Q 1150 3584 1784 3584 
Q 2172 3584 2448 3432 
Q 2725 3281 2906 2969 
z
M 947 1747 
Q 947 1113 1208 752 
Q 1469 391 1925 391 
Q 2381 391 2643 752 
Q 2906 1113 2906 1747 
Q 2906 2381 2643 2742 
Q 2381 3103 1925 3103 
Q 1469 3103 1208 2742 
Q 947 2381 947 1747 
z
" transform="scale(0.015625)"/>
      </defs>
      <use xlink:href="#DejaVuSans-4d" transform="translate(0 0.015625)"/>
      <use xlink:href="#DejaVuSans-65" transform="translate(86.279297 0.015625)"/>
      <use xlink:href="#DejaVuSans-61" transform="translate(147.802734 0.015625)"/>
      <use xlink:href="#DejaVuSans-6e" transform="translate(209.082031 0.015625)"/>
      <use xlink:href="#DejaVuSans-20" transform="translate(272.460938 0.015625)"/>
      <use xlink:href="#DejaVuSans-61" transform="translate(304.248047 0.015625)"/>
      <use xlink:href="#DejaVuSans-6d" transform="translate(365.527344 0.015625)"/>
      <use xlink:href="#DejaVuSans-70" transform="translate(462.939453 0.015625)"/>
      <use xlink:href="#DejaVuSans-6c" transform="translate(526.416016 0.015625)"/>
      <use xlink:href="#DejaVuSans-69" transform="translate(554.199219 0.015625)"/>
      <use xlink:href="#DejaVuSans-74" transform="translate(581.982422 0.015625)"/>
      <use xlink:href="#DejaVuSans-75" transform="translate(621.191406 0.015625)"/>
      <use xlink:href="#DejaVuSans-64" transform="translate(684.570312 0.015625)"/>
      <use xlink:href="#DejaVuSans-65" transform="translate(748.046875 0.015625)"/>
      <use xlink:href="#DejaVuSans-20" transform="translate(809.570312 0.015625)"/>
      <use xlink:href="#DejaVuSans-28" transform="translate(841.357422 0.015625)"/>
      <use xlink:href="#DejaVuSans-Oblique-3bc" transform="translate(880.371094 0.015625)"/>
      <use xlink:href="#DejaVuSans-56" transform="translate(943.994141 0.015625)"/>
      <use xlink:href="#DejaVuSans-29" transform="translate(1012.402344 0.015625)"/>
     </g>
    </g>
   </g>
   <g id="patch_6">
    <path d="M 224.84 101.32 
L 224.84 10.8 
" style="fill: none; stroke: #000000; stroke-width: 0.8; stroke-linejoin: miter; stroke-linecap: square"/>
   </g>
   <g id="patch_7">
    <path d="M 224.84 101.32 
L 349.2 101.32 
" style="fill: none; stroke: #000000; stroke-width: 0.8; stroke-linejoin: miter; stroke-linecap: square"/>
   </g>
   <g id="PathCollection_6">
    <defs>
     <path id="m3df046a940" d="M 0 2 
C 0.530406 2 1.03916 1.789267 1.414214 1.414214 
C 1.789267 1.03916 2 0.530406 2 0 
C 2 -0.530406 1.789267 -1.03916 1.414214 -1.414214 
C 1.03916 -1.789267 0.530406 -2 0 -2 
C -0.530406 -2 -1.03916 -1.789267 -1.414214 -1.414214 
C -1.789267 -1.03916 -2 -0.530406 -2 0 
C -2 0.530406 -1.789267 1.03916 -1.414214 1.414214 
C -1.03916 1.789267 -0.530406 2 0 2 
z
"/>
    </defs>
    <g clip-path="url(#p90fb145788)">
     <use xlink:href="#m3df046a940" x="235.675129" y="39.27629" style="fill: #00ffff; fill-opacity: 0.3"/>
     <use xlink:href="#m3df046a940" x="230.963081" y="54.517337" style="fill: #00ffff; fill-opacity: 0.3"/>
     <use xlink:href="#m3df046a940" x="231.88892" y="22.433558" style="fill: #00ffff; fill-opacity: 0.3"/>
     <use xlink:href="#m3df046a940" x="232.963619" y="59.576309" style="fill: #00ffff; fill-opacity: 0.3"/>
     <use xlink:href="#m3df046a940" x="230.94107" y="30.347255" style="fill: #00ffff; fill-opacity: 0.3"/>
     <use xlink:href="#m3df046a940" x="232.321545" y="28.523503" style="fill: #00ffff; fill-opacity: 0.3"/>
     <use xlink:href="#m3df046a940" x="233.31389" y="66.409772" style="fill: #00ffff; fill-opacity: 0.3"/>
     <use xlink:href="#m3df046a940" x="234.396478" y="29.756283" style="fill: #00ffff; fill-opacity: 0.3"/>
     <use xlink:href="#m3df046a940" x="235.143195" y="47.284421" style="fill: #00ffff; fill-opacity: 0.3"/>
     <use xlink:href="#m3df046a940" x="234.438797" y="62.522553" style="fill: #00ffff; fill-opacity: 0.3"/>
     <use xlink:href="#m3df046a940" x="234.096078" y="26.010046" style="fill: #00ffff; fill-opacity: 0.3"/>
     <use xlink:href="#m3df046a940" x="232.826303" y="93.988581" style="fill: #00ffff; fill-opacity: 0.3"/>
     <use xlink:href="#m3df046a940" x="233.233285" y="47.73567" style="fill: #00ffff; fill-opacity: 0.3"/>
     <use xlink:href="#m3df046a940" x="233.74493" y="18.22561" style="fill: #00ffff; fill-opacity: 0.3"/>
     <use xlink:href="#m3df046a940" x="233.627884" y="39.607952" style="fill: #00ffff; fill-opacity: 0.3"/>
     <use xlink:href="#m3df046a940" x="230.492727" y="60.962945" style="fill: #00ffff; fill-opacity: 0.3"/>
     <use xlink:href="#m3df046a940" x="231.936594" y="62.768635" style="fill: #00ffff; fill-opacity: 0.3"/>
     <use xlink:href="#m3df046a940" x="233.412696" y="27.647857" style="fill: #00ffff; fill-opacity: 0.3"/>
     <use xlink:href="#m3df046a940" x="230.651038" y="62.303057" style="fill: #00ffff; fill-opacity: 0.3"/>
     <use xlink:href="#m3df046a940" x="233.069323" y="27.318886" style="fill: #00ffff; fill-opacity: 0.3"/>
     <use xlink:href="#m3df046a940" x="232.158084" y="49.617739" style="fill: #00ffff; fill-opacity: 0.3"/>
    </g>
   </g>
   <g id="PathCollection_7">
    <defs>
     <path id="mb7154f8504" d="M 0 2 
C 0.530406 2 1.03916 1.789267 1.414214 1.414214 
C 1.789267 1.03916 2 0.530406 2 0 
C 2 -0.530406 1.789267 -1.03916 1.414214 -1.414214 
C 1.03916 -1.789267 0.530406 -2 0 -2 
C -0.530406 -2 -1.03916 -1.789267 -1.414214 -1.414214 
C -1.789267 -1.03916 -2 -0.530406 -2 0 
C -2 0.530406 -1.789267 1.03916 -1.414214 1.414214 
C -1.03916 1.789267 -0.530406 2 0 2 
z
"/>
    </defs>
    <g clip-path="url(#p90fb145788)">
     <use xlink:href="#mb7154f8504" x="258.856182" y="39.693652" style="fill: #40bfff; fill-opacity: 0.3"/>
     <use xlink:href="#mb7154f8504" x="261.674151" y="61.64061" style="fill: #40bfff; fill-opacity: 0.3"/>
     <use xlink:href="#mb7154f8504" x="257.602438" y="18.586751" style="fill: #40bfff; fill-opacity: 0.3"/>
     <use xlink:href="#mb7154f8504" x="258.699133" y="51.629925" style="fill: #40bfff; fill-opacity: 0.3"/>
     <use xlink:href="#mb7154f8504" x="258.19029" y="31.31128" style="fill: #40bfff; fill-opacity: 0.3"/>
     <use xlink:href="#mb7154f8504" x="257.483879" y="36.850718" style="fill: #40bfff; fill-opacity: 0.3"/>
     <use xlink:href="#mb7154f8504" x="258.633258" y="68.656611" style="fill: #40bfff; fill-opacity: 0.3"/>
     <use xlink:href="#mb7154f8504" x="258.837629" y="29.01241" style="fill: #40bfff; fill-opacity: 0.3"/>
     <use xlink:href="#mb7154f8504" x="259.588142" y="51.953182" style="fill: #40bfff; fill-opacity: 0.3"/>
     <use xlink:href="#mb7154f8504" x="257.523648" y="62.035982" style="fill: #40bfff; fill-opacity: 0.3"/>
     <use xlink:href="#mb7154f8504" x="258.888809" y="33.25746" style="fill: #40bfff; fill-opacity: 0.3"/>
     <use xlink:href="#mb7154f8504" x="262.093075" y="76.192848" style="fill: #40bfff; fill-opacity: 0.3"/>
     <use xlink:href="#mb7154f8504" x="260.738117" y="45.059915" style="fill: #40bfff; fill-opacity: 0.3"/>
     <use xlink:href="#mb7154f8504" x="260.876265" y="24.74372" style="fill: #40bfff; fill-opacity: 0.3"/>
     <use xlink:href="#mb7154f8504" x="261.294817" y="46.150854" style="fill: #40bfff; fill-opacity: 0.3"/>
     <use xlink:href="#mb7154f8504" x="258.944325" y="55.891587" style="fill: #40bfff; fill-opacity: 0.3"/>
     <use xlink:href="#mb7154f8504" x="262.595902" y="66.000956" style="fill: #40bfff; fill-opacity: 0.3"/>
     <use xlink:href="#mb7154f8504" x="262.540505" y="14.914545" style="fill: #40bfff; fill-opacity: 0.3"/>
     <use xlink:href="#mb7154f8504" x="261.040641" y="67.877713" style="fill: #40bfff; fill-opacity: 0.3"/>
     <use xlink:href="#mb7154f8504" x="259.154877" y="31.799445" style="fill: #40bfff; fill-opacity: 0.3"/>
     <use xlink:href="#mb7154f8504" x="259.770565" y="49.737583" style="fill: #40bfff; fill-opacity: 0.3"/>
    </g>
   </g>
   <g id="PathCollection_8">
    <defs>
     <path id="m06dad1e7b8" d="M 0 2 
C 0.530406 2 1.03916 1.789267 1.414214 1.414214 
C 1.789267 1.03916 2 0.530406 2 0 
C 2 -0.530406 1.789267 -1.03916 1.414214 -1.414214 
C 1.03916 -1.789267 0.530406 -2 0 -2 
C -0.530406 -2 -1.03916 -1.789267 -1.414214 -1.414214 
C -1.789267 -1.03916 -2 -0.530406 -2 0 
C -2 0.530406 -1.789267 1.03916 -1.414214 1.414214 
C -1.03916 1.789267 -0.530406 2 0 2 
z
"/>
    </defs>
    <g clip-path="url(#p90fb145788)">
     <use xlink:href="#m06dad1e7b8" x="288.549235" y="45.307254" style="fill: #807fff; fill-opacity: 0.3"/>
     <use xlink:href="#m06dad1e7b8" x="284.414111" y="60.718798" style="fill: #807fff; fill-opacity: 0.3"/>
     <use xlink:href="#m06dad1e7b8" x="288.463466" y="18.742313" style="fill: #807fff; fill-opacity: 0.3"/>
     <use xlink:href="#m06dad1e7b8" x="289.462585" y="59.033127" style="fill: #807fff; fill-opacity: 0.3"/>
     <use xlink:href="#m06dad1e7b8" x="288.983159" y="30.591104" style="fill: #807fff; fill-opacity: 0.3"/>
     <use xlink:href="#m06dad1e7b8" x="288.878094" y="35.703132" style="fill: #807fff; fill-opacity: 0.3"/>
     <use xlink:href="#m06dad1e7b8" x="288.218205" y="61.388849" style="fill: #807fff; fill-opacity: 0.3"/>
     <use xlink:href="#m06dad1e7b8" x="286.067382" y="29.948568" style="fill: #807fff; fill-opacity: 0.3"/>
     <use xlink:href="#m06dad1e7b8" x="284.367508" y="50.855297" style="fill: #807fff; fill-opacity: 0.3"/>
     <use xlink:href="#m06dad1e7b8" x="288.941855" y="62.643218" style="fill: #807fff; fill-opacity: 0.3"/>
     <use xlink:href="#m06dad1e7b8" x="286.778837" y="34.526601" style="fill: #807fff; fill-opacity: 0.3"/>
     <use xlink:href="#m06dad1e7b8" x="285.742518" y="90.823207" style="fill: #807fff; fill-opacity: 0.3"/>
     <use xlink:href="#m06dad1e7b8" x="288.683547" y="53.779987" style="fill: #807fff; fill-opacity: 0.3"/>
     <use xlink:href="#m06dad1e7b8" x="285.389573" y="21.62066" style="fill: #807fff; fill-opacity: 0.3"/>
     <use xlink:href="#m06dad1e7b8" x="289.203132" y="47.327445" style="fill: #807fff; fill-opacity: 0.3"/>
     <use xlink:href="#m06dad1e7b8" x="288.05415" y="70.791248" style="fill: #807fff; fill-opacity: 0.3"/>
     <use xlink:href="#m06dad1e7b8" x="289.553893" y="64.43136" style="fill: #807fff; fill-opacity: 0.3"/>
     <use xlink:href="#m06dad1e7b8" x="285.677307" y="19.293505" style="fill: #807fff; fill-opacity: 0.3"/>
     <use xlink:href="#m06dad1e7b8" x="285.53156" y="75.227671" style="fill: #807fff; fill-opacity: 0.3"/>
     <use xlink:href="#m06dad1e7b8" x="288.331569" y="27.26487" style="fill: #807fff; fill-opacity: 0.3"/>
     <use xlink:href="#m06dad1e7b8" x="288.177562" y="51.955876" style="fill: #807fff; fill-opacity: 0.3"/>
    </g>
   </g>
   <g id="PathCollection_9">
    <defs>
     <path id="m5ce070a22d" d="M 0 2 
C 0.530406 2 1.03916 1.789267 1.414214 1.414214 
C 1.789267 1.03916 2 0.530406 2 0 
C 2 -0.530406 1.789267 -1.03916 1.414214 -1.414214 
C 1.03916 -1.789267 0.530406 -2 0 -2 
C -0.530406 -2 -1.03916 -1.789267 -1.414214 -1.414214 
C -1.789267 -1.03916 -2 -0.530406 -2 0 
C -2 0.530406 -1.789267 1.03916 -1.414214 1.414214 
C -1.03916 1.789267 -0.530406 2 0 2 
z
"/>
    </defs>
    <g clip-path="url(#p90fb145788)">
     <use xlink:href="#m5ce070a22d" x="313.853229" y="48.230408" style="fill: #c03fff; fill-opacity: 0.3"/>
     <use xlink:href="#m5ce070a22d" x="313.751019" y="64.785061" style="fill: #c03fff; fill-opacity: 0.3"/>
     <use xlink:href="#m5ce070a22d" x="315.792137" y="22.260509" style="fill: #c03fff; fill-opacity: 0.3"/>
     <use xlink:href="#m5ce070a22d" x="312.643348" y="64.015569" style="fill: #c03fff; fill-opacity: 0.3"/>
     <use xlink:href="#m5ce070a22d" x="315.362" y="31.494607" style="fill: #c03fff; fill-opacity: 0.3"/>
     <use xlink:href="#m5ce070a22d" x="311.777368" y="44.286962" style="fill: #c03fff; fill-opacity: 0.3"/>
     <use xlink:href="#m5ce070a22d" x="311.762587" y="74.723353" style="fill: #c03fff; fill-opacity: 0.3"/>
     <use xlink:href="#m5ce070a22d" x="311.892478" y="27.16782" style="fill: #c03fff; fill-opacity: 0.3"/>
     <use xlink:href="#m5ce070a22d" x="313.695917" y="52.482315" style="fill: #c03fff; fill-opacity: 0.3"/>
     <use xlink:href="#m5ce070a22d" x="311.663957" y="66.035415" style="fill: #c03fff; fill-opacity: 0.3"/>
     <use xlink:href="#m5ce070a22d" x="314.925042" y="41.572327" style="fill: #c03fff; fill-opacity: 0.3"/>
     <use xlink:href="#m5ce070a22d" x="315.384801" y="94.645134" style="fill: #c03fff; fill-opacity: 0.3"/>
     <use xlink:href="#m5ce070a22d" x="314.498442" y="46.585122" style="fill: #c03fff; fill-opacity: 0.3"/>
     <use xlink:href="#m5ce070a22d" x="315.375158" y="30.984129" style="fill: #c03fff; fill-opacity: 0.3"/>
     <use xlink:href="#m5ce070a22d" x="314.119999" y="53.245289" style="fill: #c03fff; fill-opacity: 0.3"/>
     <use xlink:href="#m5ce070a22d" x="313.007696" y="73.14416" style="fill: #c03fff; fill-opacity: 0.3"/>
     <use xlink:href="#m5ce070a22d" x="313.38359" y="72.071441" style="fill: #c03fff; fill-opacity: 0.3"/>
     <use xlink:href="#m5ce070a22d" x="314.923187" y="24.955881" style="fill: #c03fff; fill-opacity: 0.3"/>
     <use xlink:href="#m5ce070a22d" x="312.598628" y="80.457011" style="fill: #c03fff; fill-opacity: 0.3"/>
     <use xlink:href="#m5ce070a22d" x="313.746429" y="31.226398" style="fill: #c03fff; fill-opacity: 0.3"/>
     <use xlink:href="#m5ce070a22d" x="315.874978" y="52.137813" style="fill: #c03fff; fill-opacity: 0.3"/>
    </g>
   </g>
   <g id="PathCollection_10">
    <defs>
     <path id="mf81dcd1451" d="M 0 2 
C 0.530406 2 1.03916 1.789267 1.414214 1.414214 
C 1.789267 1.03916 2 0.530406 2 0 
C 2 -0.530406 1.789267 -1.03916 1.414214 -1.414214 
C 1.03916 -1.789267 0.530406 -2 0 -2 
C -0.530406 -2 -1.03916 -1.789267 -1.414214 -1.414214 
C -1.789267 -1.03916 -2 -0.530406 -2 0 
C -2 0.530406 -1.789267 1.03916 -1.414214 1.414214 
C -1.03916 1.789267 -0.530406 2 0 2 
z
"/>
    </defs>
    <g clip-path="url(#p90fb145788)">
     <use xlink:href="#mf81dcd1451" x="342.00547" y="46.755474" style="fill: #ff00ff; fill-opacity: 0.3"/>
     <use xlink:href="#mf81dcd1451" x="340.91096" y="65.218057" style="fill: #ff00ff; fill-opacity: 0.3"/>
     <use xlink:href="#mf81dcd1451" x="338.755541" y="26.663587" style="fill: #ff00ff; fill-opacity: 0.3"/>
     <use xlink:href="#mf81dcd1451" x="341.083495" y="65.328915" style="fill: #ff00ff; fill-opacity: 0.3"/>
     <use xlink:href="#mf81dcd1451" x="340.971725" y="31.245992" style="fill: #ff00ff; fill-opacity: 0.3"/>
     <use xlink:href="#mf81dcd1451" x="339.637454" y="41.281309" style="fill: #ff00ff; fill-opacity: 0.3"/>
     <use xlink:href="#mf81dcd1451" x="339.840435" y="81.632785" style="fill: #ff00ff; fill-opacity: 0.3"/>
     <use xlink:href="#mf81dcd1451" x="338.792743" y="29.717133" style="fill: #ff00ff; fill-opacity: 0.3"/>
     <use xlink:href="#mf81dcd1451" x="339.260981" y="57.392374" style="fill: #ff00ff; fill-opacity: 0.3"/>
     <use xlink:href="#mf81dcd1451" x="341.050897" y="67.458389" style="fill: #ff00ff; fill-opacity: 0.3"/>
     <use xlink:href="#mf81dcd1451" x="338.566254" y="42.560653" style="fill: #ff00ff; fill-opacity: 0.3"/>
     <use xlink:href="#mf81dcd1451" x="340.852621" y="97.205455" style="fill: #ff00ff; fill-opacity: 0.3"/>
     <use xlink:href="#mf81dcd1451" x="343.547273" y="57.320358" style="fill: #ff00ff; fill-opacity: 0.3"/>
     <use xlink:href="#mf81dcd1451" x="339.53259" y="29.641147" style="fill: #ff00ff; fill-opacity: 0.3"/>
     <use xlink:href="#mf81dcd1451" x="340.694804" y="54.352669" style="fill: #ff00ff; fill-opacity: 0.3"/>
     <use xlink:href="#mf81dcd1451" x="339.75763" y="65.446547" style="fill: #ff00ff; fill-opacity: 0.3"/>
     <use xlink:href="#mf81dcd1451" x="342.816669" y="70.720797" style="fill: #ff00ff; fill-opacity: 0.3"/>
     <use xlink:href="#mf81dcd1451" x="340.13723" y="28.351752" style="fill: #ff00ff; fill-opacity: 0.3"/>
     <use xlink:href="#mf81dcd1451" x="342.042388" y="77.35151" style="fill: #ff00ff; fill-opacity: 0.3"/>
     <use xlink:href="#mf81dcd1451" x="340.097405" y="36.140335" style="fill: #ff00ff; fill-opacity: 0.3"/>
     <use xlink:href="#mf81dcd1451" x="338.992981" y="58.027494" style="fill: #ff00ff; fill-opacity: 0.3"/>
    </g>
   </g>
  </g>
 </g>
 <defs>
  <clipPath id="pa42f10fd04">
   <rect x="50.24" y="10.8" width="124.36" height="90.52"/>
  </clipPath>
  <clipPath id="p90fb145788">
   <rect x="224.84" y="10.8" width="124.36" height="90.52"/>
  </clipPath>
 </defs>
</svg>
